<svg width="57" height="53" viewBox="0 0 57 53" fill="none" xmlns="http://www.w3.org/2000/svg">
<path d="M57 26.6115V47.7316C57 50.2859 54.922 52.3642 52.3673 52.3642H4.63266C2.07799 52.3639 0 50.2859 0 47.7316V26.6115L23.4317 32.2651V38.1543C23.4317 39.019 24.1329 39.7202 24.9976 39.7202H32.0021C32.8668 39.7202 33.568 39.019 33.568 38.1543V32.2651L57 26.6115ZM57 15.3427V23.3897L33.5683 29.0434V28.5999C33.5683 27.7352 32.8671 27.034 32.0024 27.034H24.9976C24.1329 27.034 23.4317 27.7352 23.4317 28.5999V29.0434L0 23.3897V15.3427C0 12.7884 2.07799 10.7101 4.63266 10.7101H16.9888V7.29225C16.9888 3.62202 19.9747 0.636093 23.645 0.636093H33.3556C37.0259 0.636093 40.0118 3.62202 40.0118 7.29225V10.7104H52.368C54.922 10.7101 57 12.7884 57 15.3427ZM20.1204 10.7101H36.8796V7.29225C36.8796 5.34893 35.2987 3.76796 33.3553 3.76796H23.6447C21.7013 3.76796 20.1204 5.34893 20.1204 7.29225V10.7101Z" fill="white"/>
</svg>
