<svg width="77" height="77" viewBox="0 0 77 77" fill="none" xmlns="http://www.w3.org/2000/svg">
<path d="M9.53983 51.8832L51.8832 67.4601L54.2797 60.9458L11.9363 45.3689L9.53983 51.8832Z" fill="white"/>
<path d="M32.3989 4.82281C26.113 2.5104 19.1174 5.74324 16.805 12.0292L20.0622 13.2274C21.7139 8.73737 26.7107 6.42824 31.2007 8.07999L32.3989 4.82281Z" fill="white"/>
<path d="M28.8043 14.5943L30.0025 11.3372C27.3086 10.3461 24.3104 11.7317 23.3194 14.4256L26.5765 15.6238C26.9069 14.7258 27.9062 14.264 28.8043 14.5943Z" fill="white"/>
<path d="M64.9707 16.8051L63.7725 20.0622C68.2625 21.714 70.5716 26.7107 68.9199 31.2008L72.1771 32.399C74.4895 26.1131 71.2568 19.1175 64.9707 16.8051Z" fill="white"/>
<path d="M62.5745 23.3194L61.3762 26.5766C62.2744 26.907 62.7361 27.9063 62.4057 28.8043L65.6629 30.0025C66.6539 27.3086 65.2686 24.3105 62.5745 23.3194Z" fill="white"/>
<path d="M21.7836 28.6526L18.788 36.7955L54.617 49.976L57.6126 41.833C60.6914 33.4639 57.5144 24.2955 50.4648 19.4794C51.0314 18.945 51.4866 18.2762 51.7732 17.497C52.7642 14.8031 51.3789 11.805 48.6848 10.8139C45.9909 9.8229 42.9927 11.2084 42.0017 13.9023C41.715 14.6816 41.6283 15.4859 41.7134 16.26C33.2234 15.3595 24.8623 20.2834 21.7836 28.6526ZM45.2588 15.1006C45.5892 14.2026 46.5885 13.7407 47.4865 14.0711C48.3847 14.4015 48.8464 15.4008 48.516 16.2988C48.1857 17.1968 47.1864 17.6587 46.2883 17.3283C45.3903 16.9979 44.9285 15.9986 45.2588 15.1006Z" fill="white"/>
<path d="M17.5898 40.0527L53.4189 53.2332L52.2206 56.4903L16.3916 43.3099L17.5898 40.0527Z" fill="white"/>
<path d="M28.3151 66.186C30.9734 67.1639 33.8092 66.7531 36.0232 65.3237L23.0034 60.534C23.7635 63.0576 25.6568 65.2081 28.3151 66.186Z" fill="white"/>
</svg>
