<svg width="71" height="61" viewBox="0 0 71 61" fill="none" xmlns="http://www.w3.org/2000/svg">
<path d="M41.3596 60.9688C40.9836 60.9685 40.6102 60.9077 40.2536 60.7886L28.5129 56.8818C27.8147 56.6472 27.2081 56.1985 26.7795 55.5994C26.3509 55.0004 26.1219 54.2815 26.1252 53.5449V36.0825C26.122 36.0754 26.1175 36.069 26.112 36.0635L1.40741 7.28809C0.859617 6.64992 0.506454 5.86795 0.389853 5.03504C0.273252 4.20212 0.398111 3.35324 0.749605 2.58918C1.1011 1.82511 1.66447 1.17796 2.37282 0.724546C3.08117 0.271136 3.90476 0.0305156 4.74579 0.0312517H66.2619C67.1029 0.0305156 67.9265 0.271136 68.6349 0.724546C69.3432 1.17796 69.9066 1.82511 70.2581 2.58918C70.6096 3.35324 70.7345 4.20212 70.6179 5.03504C70.5013 5.86795 70.1481 6.64992 69.6003 7.28809L44.8884 36.0664C44.8833 36.0723 44.8789 36.0787 44.8752 36.0855V57.4531C44.8765 57.9152 44.7865 58.3729 44.6103 58.8001C44.4341 59.2272 44.1752 59.6153 43.8485 59.9421C43.5218 60.2688 43.1337 60.5277 42.7065 60.7039C42.2794 60.8801 41.8216 60.9701 41.3596 60.9688Z" fill="white"/>
</svg>
