<svg width="68" height="48" viewBox="0 0 68 48" fill="none" xmlns="http://www.w3.org/2000/svg">
<path d="M7.92052 11.3671L27.1826 22.6111C27.1838 22.6118 27.185 22.6125 27.1862 22.6131L31.857 25.3396C32.5017 25.7159 33.2371 25.9151 33.9842 25.9151H34.0158C34.7629 25.9151 35.4983 25.7159 36.1423 25.3396L60.0795 11.3671C63.076 9.6189 64.9375 6.37656 64.9375 2.90625V0.09375H3.0625V2.90625C3.0625 6.37656 4.924 9.6189 7.92052 11.3671Z" fill="white"/>
<path d="M61.4967 13.7964L44.1243 23.9373L67.7499 40.9625V2.90625C67.7499 7.37288 65.3535 11.5456 61.4967 13.7964Z" fill="white"/>
<path d="M37.5603 27.769C36.4863 28.3959 35.26 28.7276 34.0158 28.7276C32.7647 28.7619 31.515 28.3973 30.4391 27.769L26.5332 25.489L0.25 44.4298V46.5C0.25 47.2766 0.879654 47.9062 1.65625 47.9062H66.3438C67.1203 47.9062 67.75 47.2766 67.75 46.5V44.4294L41.4663 25.4889L37.5603 27.769Z" fill="white"/>
<path d="M6.50328 13.7964C2.64639 11.5456 0.25 7.37288 0.25 2.90625V40.9628L23.8753 23.9373L6.50328 13.7964Z" fill="white"/>
</svg>
