<svg width="71" height="61" viewBox="0 0 71 61" fill="none" xmlns="http://www.w3.org/2000/svg">
<path d="M59.1668 27.5414C52.642 27.5414 47.3335 32.8499 47.3335 39.3747C47.3335 45.42 56.9019 58.0795 57.9925 59.5038C58.2728 59.8692 58.7061 60.083 59.1669 60.083C59.6277 60.083 60.0611 59.8692 60.3413 59.5038C61.4317 58.0796 71.0001 45.4201 71.0001 39.3749C71.0001 32.8501 65.6916 27.5414 59.1668 27.5414ZM59.1668 42.3331C57.536 42.3331 56.2085 41.0056 56.2085 39.3749C56.2085 37.7441 57.536 36.4166 59.1668 36.4166C60.7976 36.4166 62.1251 37.7439 62.1251 39.3749C62.1251 41.0056 60.7976 42.3331 59.1668 42.3331Z" fill="white"/>
<path d="M19.6351 6.04451L1.88511 0.972865C1.44025 0.847228 0.957668 0.935285 0.587969 1.21415C0.218131 1.49427 0 1.93192 0 2.39564V46.7706C0 47.4307 0.437648 48.0115 1.07332 48.1934L18.8233 53.2651C18.9562 53.3026 19.0935 53.3214 19.2292 53.3214C19.5471 53.3214 19.8604 53.2187 20.1205 53.0238C20.4903 52.7435 20.7084 52.3059 20.7084 51.8421V7.46715C20.7083 6.80721 20.2706 6.22645 19.6351 6.04451Z" fill="white"/>
<path d="M40.8287 2.05907C40.4575 1.78034 39.975 1.69214 39.5315 1.81778L24.7398 6.0445C24.1043 6.22657 23.6665 6.80719 23.6665 7.46727V51.8423C23.6665 52.306 23.8846 52.7436 24.2545 53.0239C24.5145 53.2189 24.8279 53.3215 25.1457 53.3215C25.2815 53.3215 25.4188 53.3028 25.5516 53.2652L40.3433 49.0386C40.9789 48.8565 41.4167 48.2759 41.4167 47.6158V3.24083C41.4167 2.77697 41.1985 2.33932 40.8287 2.05907Z" fill="white"/>
<path d="M63.1997 25.1581C63.6432 25.2823 64.1242 25.1957 64.4955 24.9154C64.8653 24.6367 65.0834 24.1989 65.0834 23.7353V8.31236C65.0834 7.65228 64.6458 7.07153 64.0101 6.88959L46.2601 1.81794C45.818 1.69231 45.3342 1.78036 44.963 2.05923C44.5931 2.33949 44.375 2.77714 44.375 3.24085V30.0493C44.375 30.695 44.7924 31.2656 45.4078 31.4592C45.5552 31.5069 45.7054 31.5285 45.8542 31.5285C46.3265 31.5285 46.7816 31.3018 47.0647 30.9002C50.6166 25.8442 57.0317 23.4044 63.1997 25.1581Z" fill="white"/>
</svg>
