<svg width="125" height="78" viewBox="0 0 125 78" fill="none" xmlns="http://www.w3.org/2000/svg">
<path opacity="0.7" d="M17.4 70.9L18.4689 69.2096H18.4689L17.4 70.9ZM6.7 58.5L4.88538 59.3409L4.89159 59.3543L4.898 59.3676L6.7 58.5ZM6.7 19.6L4.89385 18.741L4.88935 18.7506L6.7 19.6ZM17.4 7.1L18.4689 8.79038L17.4 7.1ZM48.4 7.1L47.3311 8.79038L48.4 7.1ZM59 19.6L57.1854 20.4409L57.1916 20.4543L57.198 20.4676L59 19.6ZM59 58.5L57.1938 57.641L57.1894 57.6506L59 58.5ZM48.4 70.9L47.3311 69.2096L48.4 70.9ZM42.9 56L41.2406 54.8836L41.2335 54.8941L41.2266 54.9047L42.9 56ZM42.9 22L41.2266 23.0953L41.2335 23.1059L41.2406 23.1163L42.9 22ZM22.9 22L21.2406 20.8836L21.2335 20.8941L21.2266 20.9047L22.9 22ZM22.9 56L21.2266 57.0953L21.2335 57.1059L21.2406 57.1164L22.9 56ZM32.9 73.2C27.4464 73.2 22.6564 71.8576 18.4689 69.2096L16.3311 72.5904C21.2103 75.6758 26.7536 77.2 32.9 77.2V73.2ZM18.4689 69.2096C14.2884 66.566 10.9592 62.7357 8.502 57.6324L4.898 59.3676C7.64084 65.0643 11.4449 69.5006 16.3311 72.5904L18.4689 69.2096ZM8.51462 57.6591C6.12999 52.5133 4.9 46.3136 4.9 39H0.9C0.9 46.7531 2.20334 53.5534 4.88538 59.3409L8.51462 57.6591ZM4.9 39C4.9 31.6854 6.13032 25.5233 8.51065 20.4494L4.88935 18.7506C2.20301 24.4767 0.9 31.2479 0.9 39H4.9ZM8.50613 20.459C10.9653 15.2884 14.2947 11.43 18.4689 8.79038L16.3311 5.40961C11.4387 8.50334 7.63469 12.9782 4.89387 18.741L8.50613 20.459ZM18.4689 8.79038C22.6564 6.14244 27.4464 4.8 32.9 4.8V0.799999C26.7536 0.799999 21.2103 2.32422 16.3311 5.40961L18.4689 8.79038ZM32.9 4.8C38.3536 4.8 43.1436 6.14244 47.3311 8.79038L49.4689 5.40961C44.5897 2.32422 39.0464 0.799999 32.9 0.799999V4.8ZM47.3311 8.79038C51.5003 11.4268 54.7932 15.2788 57.1854 20.4409L60.8146 18.7591C58.1402 12.9878 54.3664 8.50652 49.4689 5.40961L47.3311 8.79038ZM57.198 20.4676C59.6386 25.5366 60.9 31.692 60.9 39H64.9C64.9 31.2413 63.5614 24.4634 60.802 18.7324L57.198 20.4676ZM60.9 39C60.9 46.307 59.639 52.5001 57.1939 57.641L60.8061 59.359C63.5611 53.5666 64.9 46.7597 64.9 39H60.9ZM57.1894 57.6506C54.7993 62.7452 51.5066 66.5692 47.3311 69.2096L49.4689 72.5904C54.36 69.4975 58.1341 65.0547 60.8107 59.3494L57.1894 57.6506ZM47.3311 69.2096C43.1436 71.8576 38.3536 73.2 32.9 73.2V77.2C39.0464 77.2 44.5897 75.6758 49.4689 72.5904L47.3311 69.2096ZM32.9 63.5C37.8631 63.5 41.816 61.308 44.5734 57.0953L41.2266 54.9047C39.184 58.0253 36.4702 59.5 32.9 59.5V63.5ZM44.5594 57.1164C47.3582 52.9561 48.6 46.806 48.6 39H44.6C44.6 46.5273 43.3752 51.7106 41.2406 54.8836L44.5594 57.1164ZM48.6 39C48.6 31.194 47.3582 25.0439 44.5594 20.8836L41.2406 23.1163C43.3752 26.2894 44.6 31.4727 44.6 39H48.6ZM44.5734 20.9047C41.816 16.692 37.8631 14.5 32.9 14.5V18.5C36.4702 18.5 39.184 19.9747 41.2266 23.0953L44.5734 20.9047ZM32.9 14.5C27.9939 14.5 24.0557 16.699 21.2406 20.8836L24.5594 23.1163C26.6776 19.9677 29.4061 18.5 32.9 18.5V14.5ZM21.2266 20.9047C18.5068 25.0599 17.3 31.2003 17.3 39H21.3C21.3 31.4663 22.4932 26.2735 24.5734 23.0953L21.2266 20.9047ZM17.3 39C17.3 46.7997 18.5068 52.9401 21.2266 57.0953L24.5734 54.9047C22.4932 51.7265 21.3 46.5337 21.3 39H17.3ZM21.2406 57.1164C24.0557 61.301 27.9939 63.5 32.9 63.5V59.5C29.4061 59.5 26.6776 58.0323 24.5594 54.8836L21.2406 57.1164ZM122.485 60.8H124.485V58.8H122.485V60.8ZM122.485 74V76H124.485V74H122.485ZM69.5852 74H67.5852V76H69.5852V74ZM69.5852 63.5L68.2119 62.046L67.5852 62.6379V63.5H69.5852ZM96.5852 38L97.9584 39.454L97.9653 39.4475L96.5852 38ZM102.385 31L104.162 31.9188L104.168 31.9067L104.174 31.8944L102.385 31ZM100.985 18.7L99.7157 20.2454L99.7456 20.27L99.7764 20.2934L100.985 18.7ZM84.3852 18.2L85.2202 20.0173L85.2402 20.0081L85.2601 19.9985L84.3852 18.2ZM78.1852 23.4L77.1022 25.0814L78.7047 26.1135L79.8126 24.5625L78.1852 23.4ZM66.3852 15.8L64.7253 14.6843L63.5875 16.3771L65.3022 17.4814L66.3852 15.8ZM77.6852 6.3L78.5392 8.10849L78.5494 8.10367L78.5595 8.09873L77.6852 6.3ZM107.785 5.39999L106.967 7.22501L106.986 7.23345L107.005 7.2415L107.785 5.39999ZM116.885 12.6L115.232 13.7256L115.246 13.7459L115.26 13.7658L116.885 12.6ZM117.785 34.2L119.588 35.0655L117.785 34.2ZM108.485 45.6L107.125 44.1337L107.119 44.1397L107.112 44.1457L108.485 45.6ZM92.3852 60.8L91.0122 59.3457L87.3534 62.8H92.3852V60.8ZM120.485 60.8V74H124.485V60.8H120.485ZM122.485 72H69.5852V76H122.485V72ZM71.5852 74V63.5H67.5852V74H71.5852ZM70.9584 64.954L97.9584 39.454L95.2119 36.546L68.2119 62.046L70.9584 64.954ZM97.9653 39.4475C100.883 36.665 103.008 34.149 104.162 31.9188L100.609 30.0812C99.7622 31.7177 98.0202 33.8683 95.205 36.5525L97.9653 39.4475ZM104.174 31.8944C105.291 29.6602 105.885 27.3891 105.885 25.1H101.885C101.885 26.6776 101.479 28.3398 100.596 30.1056L104.174 31.8944ZM105.885 25.1C105.885 21.7836 104.707 19.0129 102.194 17.1066L99.7764 20.2934C101.13 21.3204 101.885 22.8164 101.885 25.1H105.885ZM102.255 17.1545C99.8859 15.2088 96.5854 14.4 92.6852 14.4V18.4C96.1182 18.4 98.351 19.1245 99.7157 20.2454L102.255 17.1545ZM92.6852 14.4C89.3514 14.4 86.2802 15.054 83.5102 16.4015L85.2601 19.9985C87.4235 18.946 89.8856 18.4 92.6852 18.4V14.4ZM83.5502 16.3826C80.7488 17.6698 78.4151 19.6371 76.5577 22.2375L79.8126 24.5625C81.2886 22.4962 83.0882 20.9969 85.2202 20.0173L83.5502 16.3826ZM79.2681 21.7186L67.4681 14.1186L65.3022 17.4814L77.1022 25.0814L79.2681 21.7186ZM68.0451 16.9157C70.5605 13.1732 74.0372 10.2344 78.5392 8.10849L76.8311 4.4915C71.7331 6.89892 67.6765 10.2935 64.7253 14.6843L68.0451 16.9157ZM78.5595 8.09873C83.0463 5.91767 88.2392 4.8 94.1852 4.8V0.799999C87.7311 0.799999 81.924 2.01566 76.8108 4.50126L78.5595 8.09873ZM94.1852 4.8C99.1657 4.8 103.409 5.63012 106.967 7.22501L108.603 3.57498C104.428 1.70321 99.6046 0.799999 94.1852 0.799999V4.8ZM107.005 7.2415C110.631 8.77791 113.341 10.9489 115.232 13.7256L118.538 11.4744C116.162 7.98443 112.806 5.35542 108.565 3.55849L107.005 7.2415ZM115.26 13.7658C117.189 16.4546 118.185 19.6689 118.185 23.5H122.185C122.185 18.9311 120.981 14.8787 118.51 11.4342L115.26 13.7658ZM118.185 23.5C118.185 27.009 117.449 30.2789 115.982 33.3345L119.588 35.0655C121.322 31.4544 122.185 27.591 122.185 23.5H118.185ZM115.982 33.3345C114.541 36.3371 111.651 39.9355 107.125 44.1337L109.845 47.0663C114.519 42.7311 117.829 38.7296 119.588 35.0655L115.982 33.3345ZM107.112 44.1457L91.0122 59.3457L93.7581 62.2543L109.858 47.0543L107.112 44.1457ZM92.3852 62.8H122.485V58.8H92.3852V62.8Z" fill="url(#paint0_linear)"/>
<defs>
<linearGradient id="paint0_linear" x1="83.5" y1="-32" x2="83.5" y2="74" gradientUnits="userSpaceOnUse">
<stop stop-color="#E31266"/>
<stop offset="0.51875" stop-color="#F8493C"/>
<stop offset="1" stop-color="#F4943E"/>
</linearGradient>
</defs>
</svg>
