<svg width="124" height="78" viewBox="0 0 124 78" fill="none" xmlns="http://www.w3.org/2000/svg">
<path opacity="0.7" d="M17.4 70.9L18.4689 69.2096H18.4689L17.4 70.9ZM6.7 58.5L4.88538 59.3409L4.89159 59.3543L4.898 59.3676L6.7 58.5ZM6.7 19.6L4.89385 18.741L4.88935 18.7506L6.7 19.6ZM17.4 7.1L18.4689 8.79038L17.4 7.1ZM48.4 7.1L47.3311 8.79038L48.4 7.1ZM59 19.6L57.1854 20.4409L57.1916 20.4543L57.198 20.4676L59 19.6ZM59 58.5L57.1938 57.641L57.1894 57.6506L59 58.5ZM48.4 70.9L47.3311 69.2096L48.4 70.9ZM42.9 56L41.2406 54.8836L41.2335 54.8941L41.2266 54.9047L42.9 56ZM42.9 22L41.2266 23.0953L41.2335 23.1059L41.2406 23.1163L42.9 22ZM22.9 22L21.2406 20.8836L21.2335 20.8941L21.2266 20.9047L22.9 22ZM22.9 56L21.2266 57.0953L21.2335 57.1059L21.2406 57.1164L22.9 56ZM32.9 73.2C27.4464 73.2 22.6564 71.8576 18.4689 69.2096L16.3311 72.5904C21.2103 75.6758 26.7536 77.2 32.9 77.2V73.2ZM18.4689 69.2096C14.2884 66.566 10.9592 62.7357 8.502 57.6324L4.898 59.3676C7.64084 65.0643 11.4449 69.5006 16.3311 72.5904L18.4689 69.2096ZM8.51462 57.6591C6.12999 52.5133 4.9 46.3136 4.9 39H0.9C0.9 46.7531 2.20334 53.5534 4.88538 59.3409L8.51462 57.6591ZM4.9 39C4.9 31.6854 6.13032 25.5233 8.51065 20.4494L4.88935 18.7506C2.20301 24.4767 0.9 31.2479 0.9 39H4.9ZM8.50613 20.459C10.9653 15.2884 14.2947 11.43 18.4689 8.79038L16.3311 5.40961C11.4387 8.50334 7.63469 12.9782 4.89387 18.741L8.50613 20.459ZM18.4689 8.79038C22.6564 6.14244 27.4464 4.8 32.9 4.8V0.799999C26.7536 0.799999 21.2103 2.32422 16.3311 5.40961L18.4689 8.79038ZM32.9 4.8C38.3536 4.8 43.1436 6.14244 47.3311 8.79038L49.4689 5.40961C44.5897 2.32422 39.0464 0.799999 32.9 0.799999V4.8ZM47.3311 8.79038C51.5003 11.4268 54.7932 15.2788 57.1854 20.4409L60.8146 18.7591C58.1402 12.9878 54.3664 8.50652 49.4689 5.40961L47.3311 8.79038ZM57.198 20.4676C59.6386 25.5366 60.9 31.692 60.9 39H64.9C64.9 31.2413 63.5614 24.4634 60.802 18.7324L57.198 20.4676ZM60.9 39C60.9 46.307 59.639 52.5001 57.1939 57.641L60.8061 59.359C63.5611 53.5666 64.9 46.7597 64.9 39H60.9ZM57.1894 57.6506C54.7993 62.7452 51.5066 66.5692 47.3311 69.2096L49.4689 72.5904C54.36 69.4975 58.1341 65.0547 60.8107 59.3494L57.1894 57.6506ZM47.3311 69.2096C43.1436 71.8576 38.3536 73.2 32.9 73.2V77.2C39.0464 77.2 44.5897 75.6758 49.4689 72.5904L47.3311 69.2096ZM32.9 63.5C37.8631 63.5 41.816 61.308 44.5734 57.0953L41.2266 54.9047C39.184 58.0253 36.4702 59.5 32.9 59.5V63.5ZM44.5594 57.1164C47.3582 52.9561 48.6 46.806 48.6 39H44.6C44.6 46.5273 43.3752 51.7106 41.2406 54.8836L44.5594 57.1164ZM48.6 39C48.6 31.194 47.3582 25.0439 44.5594 20.8836L41.2406 23.1163C43.3752 26.2894 44.6 31.4727 44.6 39H48.6ZM44.5734 20.9047C41.816 16.692 37.8631 14.5 32.9 14.5V18.5C36.4702 18.5 39.184 19.9747 41.2266 23.0953L44.5734 20.9047ZM32.9 14.5C27.9939 14.5 24.0557 16.699 21.2406 20.8836L24.5594 23.1163C26.6776 19.9677 29.4061 18.5 32.9 18.5V14.5ZM21.2266 20.9047C18.5068 25.0599 17.3 31.2003 17.3 39H21.3C21.3 31.4663 22.4932 26.2735 24.5734 23.0953L21.2266 20.9047ZM17.3 39C17.3 46.7997 18.5068 52.9401 21.2266 57.0953L24.5734 54.9047C22.4932 51.7265 21.3 46.5337 21.3 39H17.3ZM21.2406 57.1164C24.0557 61.301 27.9939 63.5 32.9 63.5V59.5C29.4061 59.5 26.6776 58.0323 24.5594 54.8836L21.2406 57.1164ZM102.495 32.5L100.991 31.1806L98.6105 33.8931L102.173 34.4739L102.495 32.5ZM116.595 39.4L115.113 40.744L115.12 40.7509L115.126 40.7577L116.595 39.4ZM118.295 63.9L119.989 64.963L119.993 64.9556L119.998 64.9482L118.295 63.9ZM108.495 72.1L107.644 70.2897L107.634 70.2948L108.495 72.1ZM77.8945 73.3L77.3523 75.2251L77.3682 75.2296L77.3842 75.2338L77.8945 73.3ZM65.7945 67.7L64.0115 66.7941L63.2353 68.3218L64.6259 69.3231L65.7945 67.7ZM72.0945 55.3L73.2945 53.7L71.3899 52.2715L70.3115 54.3941L72.0945 55.3ZM81.2945 60L80.6731 61.901L80.6947 61.9081L80.7165 61.9147L81.2945 60ZM101.695 59.3L102.793 60.9714L102.809 60.9606L102.826 60.9495L101.695 59.3ZM84.6945 44H82.6945V46H84.6945V44ZM84.6945 33.3L83.1957 31.9758L82.6945 32.5431V33.3H84.6945ZM99.0945 17L100.593 18.3242L103.53 15H99.0945V17ZM69.2945 17H67.2945V19H69.2945V17ZM69.2945 4V2H67.2945V4H69.2945ZM118.295 4H120.295V2H118.295V4ZM118.295 14.5L119.798 15.8194L120.295 15.2533V14.5H118.295ZM102.173 34.4739C107.986 35.4217 112.227 37.5628 115.113 40.744L118.076 38.056C114.429 34.0372 109.27 31.5783 102.816 30.5261L102.173 34.4739ZM115.126 40.7577C118.017 43.8852 119.495 47.785 119.495 52.6H123.495C123.495 46.8817 121.705 41.9815 118.063 38.0423L115.126 40.7577ZM119.495 52.6C119.495 56.2962 118.531 59.7 116.591 62.8518L119.998 64.9482C122.325 61.1666 123.495 57.0372 123.495 52.6H119.495ZM116.6 62.837C114.71 65.8493 111.771 68.3514 107.644 70.2897L109.345 73.9103C114.018 71.7153 117.612 68.7507 119.989 64.963L116.6 62.837ZM107.634 70.2948C103.641 72.1991 98.6209 73.2 92.4945 73.2V77.2C99.0348 77.2 104.682 76.1342 109.355 73.9052L107.634 70.2948ZM92.4945 73.2C87.7345 73.2 83.0394 72.5892 78.4048 71.3662L77.3842 75.2338C82.3497 76.5441 87.3879 77.2 92.4945 77.2V73.2ZM78.4368 71.3749C73.8851 70.0928 70.0737 68.3165 66.9631 66.0769L64.6259 69.3231C68.1821 71.8835 72.4373 73.8406 77.3523 75.2251L78.4368 71.3749ZM67.5776 68.6059L73.8776 56.2059L70.3115 54.3941L64.0115 66.7941L67.5776 68.6059ZM70.8945 56.9C73.752 59.0431 77.0179 60.706 80.6731 61.901L81.916 58.099C78.6378 57.0273 75.7704 55.5569 73.2945 53.7L70.8945 56.9ZM80.7165 61.9147C84.4361 63.0375 88.2308 63.6 92.0945 63.6V59.6C88.625 59.6 85.2197 59.0958 81.8725 58.0853L80.7165 61.9147ZM92.0945 63.6C96.3827 63.6 100.016 62.7961 102.793 60.9714L100.596 57.6286C98.7062 58.8706 95.9397 59.6 92.0945 59.6V63.6ZM102.826 60.9495C105.711 58.9706 107.195 56.1156 107.195 52.6H103.195C103.195 54.8177 102.344 56.4294 100.563 57.6505L102.826 60.9495ZM107.195 52.6C107.195 49.1375 105.826 46.3219 103.017 44.4781C100.355 42.7306 96.6164 42 92.0945 42V46C96.306 46 99.1172 46.7027 100.822 47.8219C102.38 48.8447 103.195 50.3292 103.195 52.6H107.195ZM92.0945 42H84.6945V46H92.0945V42ZM86.6945 44V33.3H82.6945V44H86.6945ZM86.1934 34.6242L100.593 18.3242L97.5957 15.6758L83.1957 31.9758L86.1934 34.6242ZM99.0945 15H69.2945V19H99.0945V15ZM71.2945 17V4H67.2945V17H71.2945ZM69.2945 6H118.295V2H69.2945V6ZM116.295 4V14.5H120.295V4H116.295ZM116.791 13.1806L100.991 31.1806L103.998 33.8194L119.798 15.8194L116.791 13.1806Z" fill="url(#paint0_linear)"/>
<defs>
<linearGradient id="paint0_linear" x1="83.5" y1="-32" x2="83.5" y2="74" gradientUnits="userSpaceOnUse">
<stop stop-color="#E31266"/>
<stop offset="0.51875" stop-color="#F8493C"/>
<stop offset="1" stop-color="#F4943E"/>
</linearGradient>
</defs>
</svg>
