<svg width="137" height="78" viewBox="0 0 137 78" fill="none" xmlns="http://www.w3.org/2000/svg">
<path opacity="0.5" d="M17.4 70.9L18.4689 69.2096H18.4689L17.4 70.9ZM6.7 58.5L4.88538 59.3409L4.89159 59.3543L4.898 59.3676L6.7 58.5ZM6.7 19.6L4.89385 18.741L4.88935 18.7506L6.7 19.6ZM17.4 7.1L18.4689 8.79038L17.4 7.1ZM48.4 7.1L47.3311 8.79038L48.4 7.1ZM59 19.6L57.1854 20.4409L57.1916 20.4543L57.198 20.4676L59 19.6ZM59 58.5L57.1938 57.641L57.1894 57.6506L59 58.5ZM48.4 70.9L47.3311 69.2096L48.4 70.9ZM42.9 56L41.2406 54.8836L41.2335 54.8941L41.2266 54.9047L42.9 56ZM42.9 22L41.2266 23.0953L41.2335 23.1059L41.2406 23.1163L42.9 22ZM22.9 22L21.2406 20.8836L21.2335 20.8941L21.2266 20.9047L22.9 22ZM22.9 56L21.2266 57.0953L21.2335 57.1059L21.2406 57.1164L22.9 56ZM32.9 73.2C27.4464 73.2 22.6564 71.8576 18.4689 69.2096L16.3311 72.5904C21.2103 75.6758 26.7536 77.2 32.9 77.2V73.2ZM18.4689 69.2096C14.2884 66.566 10.9592 62.7357 8.502 57.6324L4.898 59.3676C7.64084 65.0643 11.4449 69.5006 16.3311 72.5904L18.4689 69.2096ZM8.51462 57.6591C6.12999 52.5133 4.9 46.3136 4.9 39H0.9C0.9 46.7531 2.20334 53.5534 4.88538 59.3409L8.51462 57.6591ZM4.9 39C4.9 31.6854 6.13032 25.5233 8.51065 20.4494L4.88935 18.7506C2.20301 24.4767 0.9 31.2479 0.9 39H4.9ZM8.50613 20.459C10.9653 15.2884 14.2947 11.43 18.4689 8.79038L16.3311 5.40961C11.4387 8.50334 7.63469 12.9782 4.89387 18.741L8.50613 20.459ZM18.4689 8.79038C22.6564 6.14244 27.4464 4.8 32.9 4.8V0.799999C26.7536 0.799999 21.2103 2.32422 16.3311 5.40961L18.4689 8.79038ZM32.9 4.8C38.3536 4.8 43.1436 6.14244 47.3311 8.79038L49.4689 5.40961C44.5897 2.32422 39.0464 0.799999 32.9 0.799999V4.8ZM47.3311 8.79038C51.5003 11.4268 54.7932 15.2788 57.1854 20.4409L60.8146 18.7591C58.1402 12.9878 54.3664 8.50652 49.4689 5.40961L47.3311 8.79038ZM57.198 20.4676C59.6386 25.5366 60.9 31.692 60.9 39H64.9C64.9 31.2413 63.5614 24.4634 60.802 18.7324L57.198 20.4676ZM60.9 39C60.9 46.307 59.639 52.5001 57.1939 57.641L60.8061 59.359C63.5611 53.5666 64.9 46.7597 64.9 39H60.9ZM57.1894 57.6506C54.7993 62.7452 51.5066 66.5692 47.3311 69.2096L49.4689 72.5904C54.36 69.4975 58.1341 65.0547 60.8107 59.3494L57.1894 57.6506ZM47.3311 69.2096C43.1436 71.8576 38.3536 73.2 32.9 73.2V77.2C39.0464 77.2 44.5897 75.6758 49.4689 72.5904L47.3311 69.2096ZM32.9 63.5C37.8631 63.5 41.816 61.308 44.5734 57.0953L41.2266 54.9047C39.184 58.0253 36.4702 59.5 32.9 59.5V63.5ZM44.5594 57.1164C47.3582 52.9561 48.6 46.806 48.6 39H44.6C44.6 46.5273 43.3752 51.7106 41.2406 54.8836L44.5594 57.1164ZM48.6 39C48.6 31.194 47.3582 25.0439 44.5594 20.8836L41.2406 23.1163C43.3752 26.2894 44.6 31.4727 44.6 39H48.6ZM44.5734 20.9047C41.816 16.692 37.8631 14.5 32.9 14.5V18.5C36.4702 18.5 39.184 19.9747 41.2266 23.0953L44.5734 20.9047ZM32.9 14.5C27.9939 14.5 24.0557 16.699 21.2406 20.8836L24.5594 23.1163C26.6776 19.9677 29.4061 18.5 32.9 18.5V14.5ZM21.2266 20.9047C18.5068 25.0599 17.3 31.2003 17.3 39H21.3C21.3 31.4663 22.4932 26.2735 24.5734 23.0953L21.2266 20.9047ZM17.3 39C17.3 46.7997 18.5068 52.9401 21.2266 57.0953L24.5734 54.9047C22.4932 51.7265 21.3 46.5337 21.3 39H17.3ZM21.2406 57.1164C24.0557 61.301 27.9939 63.5 32.9 63.5V59.5C29.4061 59.5 26.6776 58.0323 24.5594 54.8836L21.2406 57.1164ZM134.871 59.3V61.3H136.871V59.3H134.871ZM123.471 59.3V57.3H121.471V59.3H123.471ZM123.471 74V76H125.471V74H123.471ZM107.671 74H105.671V76H107.671V74ZM107.671 59.3H109.671V57.3H107.671V59.3ZM69.9711 59.3H67.9711V61.3H69.9711V59.3ZM69.9711 48.4L68.3659 47.207L67.9711 47.7382V48.4H69.9711ZM102.971 4V2H101.966L101.366 2.80695L102.971 4ZM119.971 4L121.589 5.17588L123.897 2H119.971V4ZM89.3711 46.1L87.7533 44.9241L85.4449 48.1H89.3711V46.1ZM108.171 46.1V48.1H110.171V46.1H108.171ZM108.171 33V31H106.171V33H108.171ZM123.471 33H125.471V31H123.471V33ZM123.471 46.1H121.471V48.1H123.471V46.1ZM134.871 46.1H136.871V44.1H134.871V46.1ZM134.871 57.3H123.471V61.3H134.871V57.3ZM121.471 59.3V74H125.471V59.3H121.471ZM123.471 72H107.671V76H123.471V72ZM109.671 74V59.3H105.671V74H109.671ZM107.671 57.3H69.9711V61.3H107.671V57.3ZM71.9711 59.3V48.4H67.9711V59.3H71.9711ZM71.5763 49.593L104.576 5.19304L101.366 2.80695L68.3659 47.207L71.5763 49.593ZM102.971 6H119.971V2H102.971V6ZM118.353 2.82411L87.7533 44.9241L90.9889 47.2759L121.589 5.17588L118.353 2.82411ZM89.3711 48.1H108.171V44.1H89.3711V48.1ZM110.171 46.1V33H106.171V46.1H110.171ZM108.171 35H123.471V31H108.171V35ZM121.471 33V46.1H125.471V33H121.471ZM123.471 48.1H134.871V44.1H123.471V48.1ZM132.871 46.1V59.3H136.871V46.1H132.871Z" fill="url(#paint0_linear)"/>
<defs>
<linearGradient id="paint0_linear" x1="-1" y1="-32" x2="83.5" y2="74" gradientUnits="userSpaceOnUse">
<stop stop-color="#E31266"/>
<stop offset="0.51875" stop-color="#F8493C"/>
<stop offset="1" stop-color="#F4943E"/>
</linearGradient>
</defs>
</svg>
