<svg width="126" height="78" viewBox="0 0 126 78" fill="none" xmlns="http://www.w3.org/2000/svg">
<path opacity="0.5" d="M17.4 70.9L18.4689 69.2096H18.4689L17.4 70.9ZM6.7 58.5L4.88538 59.3409L4.89159 59.3543L4.898 59.3676L6.7 58.5ZM6.7 19.6L4.89385 18.741L4.88935 18.7506L6.7 19.6ZM17.4 7.1L18.4689 8.79038L17.4 7.1ZM48.4 7.1L47.3311 8.79038L48.4 7.1ZM59 19.6L57.1854 20.4409L57.1916 20.4543L57.198 20.4676L59 19.6ZM59 58.5L57.1938 57.641L57.1894 57.6506L59 58.5ZM48.4 70.9L47.3311 69.2096L48.4 70.9ZM42.9 56L41.2406 54.8836L41.2335 54.8941L41.2266 54.9047L42.9 56ZM42.9 22L41.2266 23.0953L41.2335 23.1059L41.2406 23.1163L42.9 22ZM22.9 22L21.2406 20.8836L21.2335 20.8941L21.2266 20.9047L22.9 22ZM22.9 56L21.2266 57.0953L21.2335 57.1059L21.2406 57.1164L22.9 56ZM32.9 73.2C27.4464 73.2 22.6564 71.8576 18.4689 69.2096L16.3311 72.5904C21.2103 75.6758 26.7536 77.2 32.9 77.2V73.2ZM18.4689 69.2096C14.2884 66.566 10.9592 62.7357 8.502 57.6324L4.898 59.3676C7.64084 65.0643 11.4449 69.5006 16.3311 72.5904L18.4689 69.2096ZM8.51462 57.6591C6.12999 52.5133 4.9 46.3136 4.9 39H0.9C0.9 46.7531 2.20334 53.5534 4.88538 59.3409L8.51462 57.6591ZM4.9 39C4.9 31.6854 6.13032 25.5233 8.51065 20.4494L4.88935 18.7506C2.20301 24.4767 0.9 31.2479 0.9 39H4.9ZM8.50613 20.459C10.9653 15.2884 14.2947 11.43 18.4689 8.79038L16.3311 5.40961C11.4387 8.50334 7.63469 12.9782 4.89387 18.741L8.50613 20.459ZM18.4689 8.79038C22.6564 6.14244 27.4464 4.8 32.9 4.8V0.799999C26.7536 0.799999 21.2103 2.32422 16.3311 5.40961L18.4689 8.79038ZM32.9 4.8C38.3536 4.8 43.1436 6.14244 47.3311 8.79038L49.4689 5.40961C44.5897 2.32422 39.0464 0.799999 32.9 0.799999V4.8ZM47.3311 8.79038C51.5003 11.4268 54.7932 15.2788 57.1854 20.4409L60.8146 18.7591C58.1402 12.9878 54.3664 8.50652 49.4689 5.40961L47.3311 8.79038ZM57.198 20.4676C59.6386 25.5366 60.9 31.692 60.9 39H64.9C64.9 31.2413 63.5614 24.4634 60.802 18.7324L57.198 20.4676ZM60.9 39C60.9 46.307 59.639 52.5001 57.1939 57.641L60.8061 59.359C63.5611 53.5666 64.9 46.7597 64.9 39H60.9ZM57.1894 57.6506C54.7993 62.7452 51.5066 66.5692 47.3311 69.2096L49.4689 72.5904C54.36 69.4975 58.1341 65.0547 60.8107 59.3494L57.1894 57.6506ZM47.3311 69.2096C43.1436 71.8576 38.3536 73.2 32.9 73.2V77.2C39.0464 77.2 44.5897 75.6758 49.4689 72.5904L47.3311 69.2096ZM32.9 63.5C37.8631 63.5 41.816 61.308 44.5734 57.0953L41.2266 54.9047C39.184 58.0253 36.4702 59.5 32.9 59.5V63.5ZM44.5594 57.1164C47.3582 52.9561 48.6 46.806 48.6 39H44.6C44.6 46.5273 43.3752 51.7106 41.2406 54.8836L44.5594 57.1164ZM48.6 39C48.6 31.194 47.3582 25.0439 44.5594 20.8836L41.2406 23.1163C43.3752 26.2894 44.6 31.4727 44.6 39H48.6ZM44.5734 20.9047C41.816 16.692 37.8631 14.5 32.9 14.5V18.5C36.4702 18.5 39.184 19.9747 41.2266 23.0953L44.5734 20.9047ZM32.9 14.5C27.9939 14.5 24.0557 16.699 21.2406 20.8836L24.5594 23.1163C26.6776 19.9677 29.4061 18.5 32.9 18.5V14.5ZM21.2266 20.9047C18.5068 25.0599 17.3 31.2003 17.3 39H21.3C21.3 31.4663 22.4932 26.2735 24.5734 23.0953L21.2266 20.9047ZM17.3 39C17.3 46.7997 18.5068 52.9401 21.2266 57.0953L24.5734 54.9047C22.4932 51.7265 21.3 46.5337 21.3 39H17.3ZM21.2406 57.1164C24.0557 61.301 27.9939 63.5 32.9 63.5V59.5C29.4061 59.5 26.6776 58.0323 24.5594 54.8836L21.2406 57.1164ZM116.571 36.2L115.282 37.7293L115.293 37.7382L116.571 36.2ZM120.471 63.7L122.174 64.7482L122.179 64.741L122.183 64.7337L120.471 63.7ZM110.671 72.1L111.532 73.9052L111.544 73.8996L110.671 72.1ZM79.9711 73.3L79.4288 75.2251L79.4448 75.2296L79.4608 75.2338L79.9711 73.3ZM67.8711 67.7L66.0938 66.7827L65.3028 68.3153L66.7025 69.3231L67.8711 67.7ZM74.2711 55.3L75.4711 53.7L73.5787 52.2807L72.4939 54.3827L74.2711 55.3ZM83.4711 60L82.8496 61.901L82.8662 61.9064L82.8829 61.9116L83.4711 60ZM103.771 59.2L104.902 60.8495L103.771 59.2ZM103.571 45.7L102.494 47.3854L102.505 47.392L102.515 47.3986L103.571 45.7ZM73.0711 43.4L71.0794 43.218L70.88 45.4H73.0711V43.4ZM76.6711 4V2H74.8455L74.6794 3.81801L76.6711 4ZM119.371 4H121.371V2H119.371V4ZM119.371 17V19H121.371V17H119.371ZM90.1711 17V15H88.3297L88.1779 16.8351L90.1711 17ZM89.0711 30.3L87.0779 30.1351L86.8989 32.3H89.0711V30.3ZM94.7711 32.3C104.438 32.3 111.14 34.2384 115.282 37.7293L117.86 34.6707C112.668 30.295 104.837 28.3 94.7711 28.3V32.3ZM115.293 37.7382C119.532 41.2612 121.671 45.9454 121.671 52H125.671C125.671 44.8546 123.076 39.0054 117.849 34.6618L115.293 37.7382ZM121.671 52C121.671 55.9152 120.697 59.4557 118.759 62.6663L122.183 64.7337C124.511 60.8776 125.671 56.6181 125.671 52H121.671ZM118.768 62.6518C116.871 65.7338 113.925 68.2995 109.799 70.3004L111.544 73.8996C116.217 71.6339 119.804 68.5996 122.174 64.7482L118.768 62.6518ZM109.81 70.2948C105.82 72.1979 100.768 73.2 94.5711 73.2V77.2C101.174 77.2 106.856 76.1354 111.532 73.9052L109.81 70.2948ZM94.5711 73.2C89.8111 73.2 85.1159 72.5892 80.4814 71.3662L79.4608 75.2338C84.4263 76.5441 89.4644 77.2 94.5711 77.2V73.2ZM80.5134 71.3749C75.9617 70.0928 72.1502 68.3165 69.0397 66.0769L66.7025 69.3231C70.2586 71.8835 74.5138 73.8406 79.4288 75.2251L80.5134 71.3749ZM69.6483 68.6173L76.0483 56.2173L72.4939 54.3827L66.0938 66.7827L69.6483 68.6173ZM73.0711 56.9C75.9285 59.0431 79.1945 60.706 82.8496 61.901L84.0926 58.099C80.8144 57.0273 77.947 55.5569 75.4711 53.7L73.0711 56.9ZM82.8829 61.9116C86.5422 63.0375 90.3073 63.6 94.1711 63.6V59.6C90.7016 59.6 87.3333 59.0958 84.0593 58.0884L82.8829 61.9116ZM94.1711 63.6C98.4726 63.6 102.119 62.7576 104.902 60.8495L102.64 57.5505C100.756 58.8424 98.0029 59.6 94.1711 59.6V63.6ZM104.902 60.8495C107.788 58.8706 109.271 56.0156 109.271 52.5H105.271C105.271 54.7177 104.421 56.3294 102.64 57.5505L104.902 60.8495ZM109.271 52.5C109.271 48.8364 107.704 45.9141 104.627 44.0014L102.515 47.3986C104.372 48.5526 105.271 50.1636 105.271 52.5H109.271ZM104.648 44.0146C101.727 42.1485 97.014 41.4 90.9711 41.4V45.4C96.9282 45.4 100.615 46.1848 102.494 47.3854L104.648 44.0146ZM90.9711 41.4H73.0711V45.4H90.9711V41.4ZM75.0628 43.582L78.6628 4.18198L74.6794 3.81801L71.0794 43.218L75.0628 43.582ZM76.6711 6H119.371V2H76.6711V6ZM117.371 4V17H121.371V4H117.371ZM119.371 15H90.1711V19H119.371V15ZM88.1779 16.8351L87.0779 30.1351L91.0643 30.4649L92.1643 17.1648L88.1779 16.8351ZM89.0711 32.3H94.7711V28.3H89.0711V32.3Z" fill="url(#paint0_linear)"/>
<defs>
<linearGradient id="paint0_linear" x1="-1" y1="-32" x2="83.5" y2="74" gradientUnits="userSpaceOnUse">
<stop stop-color="#E31266"/>
<stop offset="0.544792" stop-color="#F8493C"/>
<stop offset="1" stop-color="#F4943E"/>
</linearGradient>
</defs>
</svg>
