<svg width="573" height="519" viewBox="0 0 573 519" fill="none" xmlns="http://www.w3.org/2000/svg">
<g clip-path="url(#clip0)">
<path d="M382.402 182.494H190.772C187.482 182.491 184.328 181.182 182.002 178.854C179.676 176.527 178.368 173.371 178.364 170.08V19.4828C178.367 17.0715 179.325 14.7596 181.03 13.0545C182.734 11.3494 185.044 10.3902 187.454 10.3875H385.563C388.014 10.3902 390.365 11.366 392.098 13.1006C393.832 14.8352 394.807 17.187 394.81 19.6401V170.08C394.806 173.371 393.498 176.527 391.172 178.854C388.845 181.182 385.692 182.491 382.402 182.494Z" fill="#F2F2F2"/>
<path d="M202.803 170.08H370.371C373.561 170.08 376.622 168.811 378.878 166.554C381.134 164.296 382.402 161.234 382.402 158.041V42.5109C382.402 39.3181 381.134 36.2561 378.878 33.9984C376.622 31.7408 373.561 30.4724 370.371 30.4724H202.803C199.612 30.4724 196.552 31.7408 194.295 33.9984C192.039 36.2561 190.771 39.3181 190.771 42.5109V158.041C190.771 161.234 192.039 164.296 194.295 166.554C196.552 168.811 199.612 170.08 202.803 170.08Z" fill="white"/>
<path d="M394.637 18.7727H178.19V12.4522C178.195 9.14979 179.509 5.98414 181.843 3.64972C184.178 1.3153 187.343 0.00273829 190.643 0H382.185C385.485 0.00271243 388.65 1.31526 390.984 3.64969C393.319 5.98412 394.633 9.14978 394.637 12.4522V18.7727Z" fill="#CCCCCC"/>
<path d="M200.821 12.628C202.6 12.628 204.042 11.1851 204.042 9.40512C204.042 7.62518 202.6 6.18225 200.821 6.18225C199.042 6.18225 197.6 7.62518 197.6 9.40512C197.6 11.1851 199.042 12.628 200.821 12.628Z" fill="white"/>
<path d="M213.047 12.628C214.826 12.628 216.268 11.1851 216.268 9.40512C216.268 7.62518 214.826 6.18225 213.047 6.18225C211.268 6.18225 209.826 7.62518 209.826 9.40512C209.826 11.1851 211.268 12.628 213.047 12.628Z" fill="white"/>
<path d="M225.273 12.628C227.052 12.628 228.494 11.1851 228.494 9.40512C228.494 7.62518 227.052 6.18225 225.273 6.18225C223.494 6.18225 222.052 7.62518 222.052 9.40512C222.052 11.1851 223.494 12.628 225.273 12.628Z" fill="white"/>
<path d="M215.134 84.6126H206.835C206.385 84.6121 205.954 84.433 205.635 84.1146C205.317 83.7962 205.138 83.3644 205.138 82.9141V74.6106C205.138 74.1603 205.317 73.7285 205.635 73.4101C205.954 73.0917 206.385 72.9126 206.835 72.9121H215.134C215.584 72.9126 216.015 73.0917 216.334 73.4101C216.652 73.7285 216.831 74.1603 216.831 74.6106V82.9141C216.831 83.3644 216.652 83.7961 216.334 84.1146C216.015 84.433 215.584 84.6121 215.134 84.6126Z" fill="url(#paint0_linear)"/>
<path d="M215.134 106.126H206.835C206.385 106.126 205.954 105.947 205.635 105.628C205.317 105.31 205.138 104.878 205.138 104.428V96.1243C205.138 95.674 205.317 95.2423 205.635 94.9239C205.954 94.6055 206.385 94.4264 206.835 94.4259H215.134C215.584 94.4264 216.015 94.6055 216.334 94.9239C216.652 95.2423 216.831 95.674 216.831 96.1243V104.428C216.831 104.878 216.652 105.31 216.334 105.628C216.015 105.947 215.584 106.126 215.134 106.126Z" fill="#3F3D56"/>
<path d="M215.134 127.64H206.835C206.385 127.64 205.954 127.461 205.635 127.142C205.317 126.824 205.138 126.392 205.138 125.942V117.638C205.138 117.188 205.317 116.756 205.635 116.438C205.954 116.119 206.385 115.94 206.835 115.94H215.134C215.584 115.94 216.015 116.119 216.334 116.438C216.652 116.756 216.831 117.188 216.831 117.638V125.942C216.831 126.392 216.652 126.824 216.334 127.142C216.015 127.461 215.584 127.64 215.134 127.64Z" fill="#CCCCCC"/>
<path d="M269.453 80.4608H229.468C229.019 80.4598 228.588 80.2805 228.27 79.962C227.953 79.6436 227.774 79.2121 227.774 78.7623C227.774 78.3125 227.953 77.881 228.27 77.5626C228.588 77.2442 229.019 77.0648 229.468 77.0638H269.453C269.676 77.0634 269.897 77.107 270.104 77.1921C270.31 77.2773 270.498 77.4023 270.656 77.56C270.814 77.7178 270.939 77.9052 271.025 78.1115C271.11 78.3178 271.154 78.539 271.154 78.7623C271.154 78.9856 271.11 79.2068 271.025 79.4131C270.939 79.6194 270.814 79.8068 270.656 79.9646C270.498 80.1223 270.31 80.2474 270.104 80.3325C269.897 80.4176 269.676 80.4612 269.453 80.4608Z" fill="#CCCCCC"/>
<path d="M269.453 101.975H229.468C229.019 101.974 228.588 101.794 228.27 101.476C227.953 101.157 227.774 100.726 227.774 100.276C227.774 99.8263 227.953 99.3948 228.27 99.0764C228.588 98.7579 229.019 98.5786 229.468 98.5776H269.453C269.903 98.5776 270.335 98.7566 270.653 99.0751C270.972 99.3936 271.151 99.8256 271.151 100.276C271.151 100.727 270.972 101.159 270.653 101.477C270.335 101.796 269.903 101.975 269.453 101.975Z" fill="#CCCCCC"/>
<path d="M269.453 123.488H229.468C229.019 123.487 228.588 123.308 228.27 122.99C227.953 122.671 227.774 122.24 227.774 121.79C227.774 121.34 227.953 120.909 228.27 120.59C228.588 120.272 229.019 120.092 229.468 120.091H269.453C269.676 120.091 269.897 120.135 270.104 120.22C270.31 120.305 270.498 120.43 270.656 120.588C270.814 120.745 270.939 120.933 271.025 121.139C271.11 121.345 271.154 121.567 271.154 121.79C271.154 122.013 271.11 122.234 271.025 122.441C270.939 122.647 270.814 122.834 270.656 122.992C270.498 123.15 270.31 123.275 270.104 123.36C269.897 123.445 269.676 123.489 269.453 123.488Z" fill="#CCCCCC"/>
<path d="M367.969 100.815C368.011 100.101 368.036 99.3825 368.036 98.6578C368.036 89.2155 364.287 80.16 357.614 73.4833C350.941 66.8066 341.891 63.0557 332.454 63.0557V100.815H367.969Z" fill="url(#paint1_linear)"/>
<path d="M329.759 104.052V66.2922C322.813 66.292 316.019 68.3256 310.215 72.1425C304.411 75.9594 299.85 81.3925 297.095 87.7719C294.34 94.1514 293.511 101.198 294.711 108.043C295.91 114.888 299.086 121.233 303.846 126.294C308.606 131.354 314.742 134.911 321.498 136.524C328.254 138.137 335.333 137.737 341.865 135.372C348.396 133.007 354.092 128.782 358.252 123.216C362.412 117.651 364.852 110.989 365.273 104.052H329.759Z" fill="#3F3D56"/>
<path d="M572.248 519H0.751969C0.552534 519 0.361267 518.921 0.220246 518.78C0.0792245 518.638 0 518.447 0 518.248C0 518.048 0.0792245 517.857 0.220246 517.716C0.361267 517.574 0.552534 517.495 0.751969 517.495H572.248C572.447 517.495 572.639 517.574 572.78 517.716C572.921 517.857 573 518.048 573 518.248C573 518.447 572.921 518.638 572.78 518.78C572.639 518.921 572.447 519 572.248 519Z" fill="#CCCCCC"/>
<path d="M379.511 310.688C379.762 311.029 379.986 311.389 380.18 311.765L417.864 316.004L423.344 308.595L435.6 315.41L424.812 333.407L378.644 321.284C377.469 322.414 375.979 323.159 374.37 323.421C372.761 323.683 371.111 323.448 369.639 322.749C368.167 322.049 366.943 320.918 366.129 319.505C365.315 318.092 364.95 316.465 365.083 314.84C365.216 313.215 365.841 311.668 366.873 310.407C367.906 309.145 369.298 308.228 370.864 307.777C372.43 307.327 374.096 307.364 375.641 307.884C377.185 308.404 378.535 309.382 379.511 310.688Z" fill="#FFB8B8"/>
<path d="M187.23 300.953C186.277 301.514 185.213 301.858 184.112 301.963C183.012 302.067 181.902 301.929 180.861 301.558C179.819 301.186 178.872 300.591 178.085 299.814C177.299 299.037 176.692 298.096 176.308 297.059L149.442 297.62L156.885 285.798L181.256 287.078C183.04 286.548 184.957 286.691 186.643 287.48C188.328 288.27 189.666 289.65 190.403 291.36C191.139 293.071 191.223 294.992 190.638 296.76C190.053 298.528 188.841 300.02 187.23 300.953V300.953Z" fill="#FFB8B8"/>
<path d="M175.423 297.569C175.209 298.282 174.768 298.904 174.166 299.341C173.564 299.778 172.836 300.005 172.093 299.987L122.924 298.737L78.4024 285.548C77.1773 285.185 76.0365 284.582 75.0464 283.774C74.0562 282.966 73.2365 281.969 72.6348 280.841C72.0331 279.714 71.6615 278.477 71.5416 277.205C71.4217 275.932 71.5558 274.648 71.9362 273.428C72.3166 272.207 72.9357 271.075 73.7575 270.096C74.5793 269.117 75.5874 268.311 76.7231 267.726C77.8589 267.14 79.0996 266.786 80.3733 266.685C81.6469 266.583 82.928 266.736 84.142 267.135L124.365 280.33L172.642 284.992C173.488 285.078 174.271 285.477 174.837 286.111C175.403 286.746 175.711 287.569 175.701 288.42L175.561 296.659C175.556 296.967 175.51 297.273 175.423 297.569Z" fill="#3F3D56"/>
<path d="M104.119 509.079L113.337 509.078L117.723 473.498L104.117 473.499L104.119 509.079Z" fill="#FFB8B8"/>
<path d="M101.767 506.067L119.922 506.066H119.923C121.442 506.066 122.947 506.365 124.35 506.947C125.754 507.529 127.03 508.382 128.104 509.457C129.178 510.532 130.031 511.808 130.612 513.212C131.194 514.617 131.493 516.122 131.493 517.643V518.019L101.767 518.02L101.767 506.067Z" fill="#2F2E41"/>
<path d="M77.0474 509.079L86.2658 509.078L90.652 473.498L77.0459 473.499L77.0474 509.079Z" fill="#FFB8B8"/>
<path d="M74.6953 506.067L92.8507 506.066H92.8514C94.3709 506.066 95.8754 506.365 97.2791 506.947C98.6829 507.529 99.9584 508.382 101.033 509.457C102.107 510.532 102.959 511.808 103.541 513.212C104.122 514.617 104.422 516.122 104.422 517.643V518.019L74.6959 518.02L74.6953 506.067Z" fill="#2F2E41"/>
<path d="M70.8604 365.288L73.0617 495.976C73.0687 496.39 73.1609 496.798 73.3326 497.174C73.5043 497.551 73.7518 497.888 74.0596 498.165C74.3674 498.441 74.7289 498.651 75.1215 498.782C75.5142 498.912 75.9295 498.96 76.3415 498.923L87.1294 497.941C87.837 497.877 88.4989 497.564 88.998 497.058C89.4971 496.552 89.801 495.885 89.8559 495.177L96.1716 413.657C96.1864 413.466 96.2739 413.287 96.416 413.158C96.5582 413.029 96.7443 412.959 96.9362 412.963C97.1281 412.967 97.3113 413.044 97.4482 413.178C97.5851 413.313 97.6655 413.495 97.6727 413.687L100.829 497.073C100.859 497.851 101.188 498.587 101.749 499.127C102.309 499.667 103.057 499.968 103.835 499.968H115.405C116.171 499.968 116.908 499.676 117.466 499.151C118.024 498.626 118.36 497.907 118.407 497.142L126.506 364.535L78.38 352.497L70.8604 365.288Z" fill="#2F2E41"/>
<path d="M105.768 242.573C115.968 242.573 124.237 234.299 124.237 224.093C124.237 213.887 115.968 205.613 105.768 205.613C95.5677 205.613 87.2988 213.887 87.2988 224.093C87.2988 234.299 95.5677 242.573 105.768 242.573Z" fill="#FFB8B8"/>
<path d="M125.798 370.133C125.78 370.133 125.762 370.132 125.744 370.132L82.5575 369.467C81.7274 369.454 80.9309 369.137 80.3196 368.575C79.7084 368.013 79.325 367.245 79.2425 366.419L78.7536 361.526C78.7443 361.433 78.7009 361.347 78.6317 361.284C78.5626 361.222 78.4727 361.187 78.3795 361.187C78.2862 361.187 78.1963 361.222 78.1272 361.284C78.058 361.347 78.0146 361.433 78.0053 361.526L77.5003 366.58C77.422 367.371 77.0675 368.109 76.4992 368.665C75.9309 369.22 75.185 369.558 74.3927 369.618L71.3408 369.853C70.8029 369.894 70.2629 369.807 69.7658 369.597C69.2687 369.387 68.829 369.061 68.4833 368.647C68.1376 368.233 67.8959 367.742 67.7784 367.215C67.661 366.688 67.6711 366.141 67.808 365.618L70.4359 355.593C75.8737 334.758 76.3112 312.931 71.7125 291.894L70.4067 285.951C69.4223 281.511 69.8729 276.873 71.6934 272.705C73.5139 268.538 76.6102 265.057 80.5358 262.764L89.0183 257.789L92.8668 252.013C93.6115 250.898 94.614 249.979 95.7892 249.335C96.9644 248.69 98.2776 248.338 99.6176 248.309C104.986 248.192 114.195 249.176 115.926 257.03C120.214 258.496 123.927 261.284 126.532 264.994C129.137 268.704 130.5 273.144 130.425 277.677L129.179 366.794C129.167 367.683 128.805 368.532 128.172 369.157C127.539 369.782 126.686 370.132 125.798 370.133Z" fill="#3F3D56"/>
<path d="M104.323 234.745C104.247 237.358 102.435 238.869 100.209 240.237C97.9839 241.606 95.3826 242.199 92.834 242.771C92.4917 242.953 92.1084 243.044 91.721 243.034C91.3335 243.025 90.9551 242.915 90.6221 242.717C90.2892 242.518 90.013 242.237 89.8202 241.901C89.6274 241.565 89.5245 241.184 89.5215 240.796L87.1841 231.901C86.3572 229.059 85.7555 226.156 85.3845 223.22C84.8216 217.57 86.1598 211.492 90.1011 207.407C94.0423 203.322 100.877 201.871 105.6 205.019C111.205 197.856 136.825 213.681 130.505 218.662C129.381 219.548 127.662 218.427 126.235 218.318C124.808 218.209 123.209 218.46 122.302 219.569C121.118 221.016 121.634 223.173 121.146 224.979C120.944 225.615 120.618 226.204 120.187 226.713C119.757 227.222 119.23 227.64 118.637 227.944C118.044 228.249 117.396 228.432 116.732 228.485C116.068 228.537 115.4 228.458 114.766 228.251C113.586 227.669 112.476 226.955 111.458 226.123C110.363 225.393 108.98 224.854 107.748 225.314C106.123 225.921 105.546 227.91 105.4 229.639C105.152 231.362 104.792 233.068 104.323 234.745Z" fill="#2F2E41"/>
<path opacity="0.2" d="M108.636 284.273L111.644 321.141L127.435 359.514L104.124 321.893L108.636 284.273Z" fill="black"/>
<path d="M302.907 486.165L138.098 388.332C135.271 386.649 133.226 383.913 132.412 380.724C131.599 377.535 132.083 374.153 133.758 371.32L210.552 241.801C211.784 239.729 213.788 238.23 216.123 237.633C218.458 237.037 220.934 237.391 223.008 238.619L393.389 339.76C395.496 341.014 397.02 343.053 397.626 345.43C398.233 347.806 397.872 350.327 396.623 352.438L319.909 481.822C318.227 484.651 315.493 486.697 312.306 487.511C309.118 488.325 305.738 487.841 302.907 486.165Z" fill="#F2F2F2"/>
<path d="M154.776 383.797L298.891 469.345C301.635 470.974 304.914 471.445 308.006 470.656C311.097 469.866 313.749 467.88 315.377 465.134L374.29 365.773C375.918 363.028 376.389 359.747 375.6 356.653C374.811 353.56 372.826 350.907 370.081 349.277L225.967 263.729C223.223 262.1 219.944 261.629 216.852 262.419C213.761 263.208 211.109 265.195 209.481 267.941L150.568 367.301C148.94 370.047 148.468 373.327 149.258 376.421C150.047 379.515 152.032 382.168 154.776 383.797Z" fill="white"/>
<path d="M396.917 351.604L210.765 241.101L213.988 235.666C215.676 232.828 218.42 230.776 221.618 229.96C224.816 229.144 228.207 229.631 231.047 231.314L395.78 329.101C398.617 330.788 400.67 333.533 401.487 336.732C402.304 339.932 401.82 343.325 400.14 346.168L396.917 351.604Z" fill="#CCCCCC"/>
<path d="M235.005 247.821C236.784 247.821 238.226 246.379 238.226 244.599C238.226 242.819 236.784 241.376 235.005 241.376C233.226 241.376 231.784 242.819 231.784 244.599C231.784 246.379 233.226 247.821 235.005 247.821Z" fill="white"/>
<path d="M245.52 254.063C247.299 254.063 248.741 252.62 248.741 250.841C248.741 249.061 247.299 247.618 245.52 247.618C243.741 247.618 242.299 249.061 242.299 250.841C242.299 252.62 243.741 254.063 245.52 254.063Z" fill="white"/>
<path d="M256.034 260.305C257.813 260.305 259.255 258.862 259.255 257.082C259.255 255.302 257.813 253.859 256.034 253.859C254.256 253.859 252.813 255.302 252.813 257.082C252.813 258.862 254.256 260.305 256.034 260.305Z" fill="white"/>
<path d="M355.499 370.467L355.289 370.82L357.408 372.078L357.617 371.725L355.499 370.467Z" fill="#E6E6E6"/>
<path d="M351.009 368.279L346.728 365.739L346.938 365.385L351.218 367.926L351.009 368.279ZM342.448 363.198L338.168 360.657L338.377 360.303L342.657 362.844L342.448 363.198ZM333.887 358.116L329.607 355.575L329.816 355.222L334.097 357.763L333.887 358.116ZM325.327 353.034L321.046 350.493L321.256 350.14L325.536 352.681L325.327 353.034ZM316.766 347.952L312.485 345.412L312.695 345.058L316.975 347.599L316.766 347.952ZM308.205 342.871L303.925 340.33L304.134 339.976L308.415 342.517L308.205 342.871ZM299.644 337.789L295.364 335.248L295.574 334.895L299.854 337.436L299.644 337.789ZM291.084 332.707L286.803 330.166L287.013 329.813L291.293 332.354L291.084 332.707ZM282.523 327.625L278.243 325.085L278.452 324.731L282.732 327.272L282.523 327.625ZM273.962 322.544L269.682 320.003L269.891 319.649L274.172 322.19L273.962 322.544ZM265.401 317.462L261.121 314.921L261.331 314.568L265.611 317.109L265.401 317.462ZM256.841 312.38L252.56 309.839L252.77 309.486L257.05 312.027L256.841 312.38ZM248.28 307.298L244 304.758L244.209 304.404L248.489 306.945L248.28 307.298ZM239.719 302.217L235.439 299.676L235.648 299.322L239.929 301.863L239.719 302.217ZM231.159 297.135L226.878 294.594L227.088 294.241L231.368 296.782L231.159 297.135ZM222.598 292.053L218.317 289.512L218.527 289.159L222.807 291.7L222.598 292.053Z" fill="#E6E6E6"/>
<path d="M212.127 285.36L211.918 285.714L214.037 286.971L214.246 286.618L212.127 285.36Z" fill="#E6E6E6"/>
<path d="M266.448 362.031L266.238 362.385L268.357 363.642L268.567 363.289L266.448 362.031Z" fill="#E6E6E6"/>
<path d="M262.021 359.882L257.805 357.378L258.014 357.025L262.231 359.528L262.021 359.882ZM253.588 354.875L249.371 352.372L249.581 352.019L253.797 354.522L253.588 354.875ZM245.154 349.869L240.937 347.366L241.147 347.013L245.364 349.516L245.154 349.869ZM236.721 344.863L232.504 342.36L232.713 342.006L236.93 344.509L236.721 344.863ZM228.287 339.857L224.07 337.353L224.28 337L228.497 339.503L228.287 339.857ZM219.853 334.85L215.637 332.347L215.846 331.994L220.063 334.497L219.853 334.85ZM211.42 329.844L207.203 327.341L207.413 326.987L211.629 329.491L211.42 329.844ZM202.986 324.838L198.77 322.335L198.979 321.981L203.196 324.484L202.986 324.838Z" fill="#E6E6E6"/>
<path d="M192.644 318.22L192.435 318.574L194.553 319.831L194.763 319.478L192.644 318.22Z" fill="#E6E6E6"/>
<path d="M215.914 353.052L215.704 353.406L217.823 354.663L218.032 354.31L215.914 353.052Z" fill="#E6E6E6"/>
<path d="M211.366 350.83L207.028 348.255L207.237 347.902L211.576 350.477L211.366 350.83ZM202.689 345.68L198.351 343.104L198.56 342.751L202.899 345.326L202.689 345.68ZM194.012 340.529L189.674 337.954L189.883 337.6L194.222 340.176L194.012 340.529Z" fill="#E6E6E6"/>
<path d="M183.426 333.767L183.217 334.121L185.336 335.378L185.545 335.025L183.426 333.767Z" fill="#E6E6E6"/>
<path d="M200.183 379.583L199.974 379.937L202.092 381.195L202.302 380.841L200.183 379.583Z" fill="#E6E6E6"/>
<path d="M195.635 377.361L191.296 374.786L191.506 374.433L195.844 377.008L195.635 377.361ZM186.958 372.211L182.619 369.635L182.829 369.282L187.167 371.857L186.958 372.211ZM178.281 367.06L173.942 364.485L174.152 364.131L178.49 366.707L178.281 367.06Z" fill="#E6E6E6"/>
<path d="M167.695 360.298L167.485 360.651L169.604 361.909L169.814 361.556L167.695 360.298Z" fill="#E6E6E6"/>
<path d="M179.271 368.014L301.398 440.51C304.357 442.262 307.889 442.768 311.221 441.917C314.552 441.066 317.41 438.927 319.168 435.971L354.851 375.788L354.606 375.652L273.645 396.329L267.232 371.204C267.115 370.739 266.892 370.308 266.58 369.944C266.269 369.581 265.877 369.294 265.436 369.107C264.762 368.835 264.018 368.793 263.317 368.988L220.89 379.822L216.201 361.452C216.1 361.056 215.921 360.683 215.676 360.355C215.431 360.028 215.124 359.752 214.773 359.543C214.421 359.334 214.031 359.197 213.627 359.139C213.222 359.08 212.81 359.103 212.413 359.204C212.127 359.28 184.519 366.599 179.271 368.014Z" fill="url(#paint2_linear)"/>
<path d="M178.54 368.057L178.438 367.659L212.389 358.987C213.286 358.759 214.237 358.897 215.033 359.369C215.828 359.841 216.404 360.61 216.634 361.507L221.229 379.516L263.42 368.739C264.317 368.511 265.268 368.648 266.064 369.121C266.859 369.593 267.435 370.362 267.665 371.259L273.983 396.023L355.366 375.236L355.468 375.634L273.687 396.523L267.267 371.36C267.167 370.968 266.991 370.6 266.749 370.276C266.506 369.952 266.203 369.679 265.855 369.473C265.507 369.266 265.122 369.13 264.722 369.073C264.322 369.015 263.914 369.037 263.522 369.137L220.933 380.016L216.236 361.609C216.034 360.818 215.525 360.139 214.823 359.722C214.121 359.305 213.282 359.184 212.491 359.385L178.54 368.057Z" fill="#3F3D56"/>
<path d="M217.928 357.363C219.515 357.363 220.802 356.075 220.802 354.487C220.802 352.898 219.515 351.611 217.928 351.611C216.341 351.611 215.054 352.898 215.054 354.487C215.054 356.075 216.341 357.363 217.928 357.363Z" fill="#3F3D56"/>
<path d="M268.462 366.342C270.049 366.342 271.336 365.054 271.336 363.466C271.336 361.878 270.049 360.59 268.462 360.59C266.875 360.59 265.588 361.878 265.588 363.466C265.588 365.054 266.875 366.342 268.462 366.342Z" fill="#3F3D56"/>
<path d="M356.502 373.268C358.089 373.268 359.376 371.98 359.376 370.392C359.376 368.803 358.089 367.516 356.502 367.516C354.915 367.516 353.628 368.803 353.628 370.392C353.628 371.98 354.915 373.268 356.502 373.268Z" fill="#3F3D56"/>
<path d="M131.128 373.804C130.266 373.111 129.566 372.238 129.078 371.245C128.59 370.253 128.325 369.166 128.302 368.06C128.28 366.954 128.499 365.856 128.946 364.845C129.393 363.833 130.057 362.932 130.889 362.204L120.829 337.273L134.517 340.038L141.972 363.29C143.1 364.771 143.647 366.614 143.508 368.471C143.369 370.328 142.554 372.07 141.217 373.366C139.88 374.662 138.115 375.422 136.256 375.503C134.396 375.583 132.572 374.979 131.128 373.804Z" fill="#FFB8B8"/>
<path d="M130.961 363.001C130.22 363.055 129.481 362.863 128.859 362.455C128.238 362.047 127.767 361.446 127.52 360.745L111.234 314.308L107.754 267.979C107.658 266.705 107.816 265.423 108.219 264.21C108.623 262.997 109.263 261.876 110.103 260.913C110.944 259.95 111.967 259.163 113.113 258.599C114.26 258.035 115.507 257.705 116.783 257.628C118.058 257.55 119.336 257.728 120.542 258.149C121.749 258.57 122.859 259.227 123.81 260.082C124.76 260.936 125.531 261.972 126.078 263.127C126.625 264.282 126.937 265.535 126.995 266.812L128.944 309.122L141.725 355.936C141.945 356.758 141.85 357.632 141.458 358.386C141.067 359.141 140.407 359.722 139.608 360.014L131.86 362.808C131.571 362.913 131.268 362.978 130.961 363.001Z" fill="#3F3D56"/>
<path d="M432.923 321.855C432.619 321.722 432.337 321.545 432.083 321.331L416.938 308.565C416.574 308.259 416.278 307.88 416.067 307.452C415.857 307.025 415.738 306.559 415.717 306.083C415.696 305.607 415.774 305.132 415.947 304.688C416.119 304.244 416.381 303.84 416.717 303.503L430.46 289.695C431.037 289.11 431.805 288.752 432.624 288.687C433.443 288.622 434.258 288.853 434.92 289.339L445.313 296.891C445.962 297.363 446.426 298.046 446.624 298.823C446.823 299.6 446.745 300.423 446.402 301.148L437.411 320.17C437.028 320.979 436.346 321.608 435.508 321.922C434.67 322.237 433.743 322.213 432.923 321.855L432.923 321.855Z" fill="#6C63FF"/>
<path d="M491.995 502.404L482.949 504.867L469.151 471.128L482.502 467.494L491.995 502.404Z" fill="#FFB8B8"/>
<path d="M475.604 504.089L493.231 499.29L496.219 510.281L467.79 518.02L467.741 517.838C466.961 514.971 467.352 511.912 468.826 509.334C470.301 506.756 472.739 504.869 475.604 504.089Z" fill="#2F2E41"/>
<path d="M414.666 509.31L405.292 509.31L400.832 473.13L414.668 473.131L414.666 509.31Z" fill="#FFB8B8"/>
<path d="M398.407 506.63H416.675V518.019H387.213V517.831C387.213 514.86 388.392 512.011 390.492 509.91C392.591 507.81 395.438 506.63 398.407 506.63Z" fill="#2F2E41"/>
<path d="M428.788 270.436C439.16 270.436 447.569 262.023 447.569 251.644C447.569 241.266 439.16 232.853 428.788 232.853C418.416 232.853 410.008 241.266 410.008 251.644C410.008 262.023 418.416 270.436 428.788 270.436Z" fill="#FFB8B8"/>
<path d="M414.093 483.514H401.282C400.407 483.513 399.564 483.178 398.926 482.578C398.288 481.978 397.901 481.158 397.845 480.284C394.028 419.565 396.261 376.011 404.872 343.216C404.909 343.072 404.956 342.931 405.011 342.794L405.697 341.077C405.951 340.437 406.391 339.888 406.961 339.502C407.531 339.116 408.204 338.911 408.892 338.913H435.236C435.732 338.912 436.223 339.02 436.674 339.227C437.125 339.435 437.525 339.738 437.848 340.115L441.426 344.292C441.496 344.374 441.562 344.457 441.624 344.544C457.759 367.057 472.219 411.072 488.965 470.231C489.212 471.091 489.114 472.014 488.692 472.802C488.269 473.59 487.556 474.182 486.703 474.452L472.936 478.86C472.145 479.109 471.292 479.066 470.531 478.739C469.769 478.411 469.151 477.821 468.788 477.076L433.061 402.934C432.812 402.415 432.402 401.992 431.892 401.725C431.383 401.458 430.801 401.362 430.233 401.452C429.665 401.542 429.141 401.812 428.739 402.223C428.337 402.634 428.077 403.164 427.999 403.734L417.502 480.538C417.387 481.361 416.979 482.116 416.353 482.662C415.726 483.209 414.924 483.512 414.093 483.514Z" fill="#2F2E41"/>
<path d="M439.982 344.598C439.946 344.598 439.91 344.597 439.874 344.596L407.875 343.586C407.052 343.563 406.265 343.244 405.658 342.689C405.05 342.134 404.662 341.378 404.565 340.56C400.509 307.706 411.633 298.905 416.605 296.646C417.02 296.459 417.38 296.167 417.65 295.799C417.919 295.432 418.089 295 418.143 294.548L418.574 291.104C418.647 290.496 418.882 289.918 419.253 289.432C427.048 279.329 437.691 276.094 443.342 275.065C443.8 274.982 444.27 274.994 444.724 275.099C445.178 275.204 445.605 275.4 445.981 275.676C446.356 275.951 446.672 276.3 446.908 276.701C447.145 277.103 447.298 277.548 447.357 278.01L448.001 282.955C448.067 283.426 448.255 283.873 448.547 284.249C464.802 305.512 446.693 336.908 442.898 342.985C442.587 343.478 442.157 343.885 441.647 344.167C441.138 344.449 440.565 344.598 439.982 344.598Z" fill="url(#paint3_linear)"/>
<path d="M449.452 239.957C448.057 235.726 447.027 231.384 446.374 226.977C446.169 224.411 446.826 221.65 448.693 219.88C452.188 216.567 458.126 218.145 461.78 221.28C467.062 225.812 469.697 232.776 470.692 239.666C471.688 246.556 471.25 253.562 471.489 260.52C471.729 267.477 472.724 274.631 476.269 280.622C479.814 286.612 486.392 291.21 493.331 290.7C496.132 290.549 498.792 289.421 500.848 287.513C501.858 286.552 502.622 285.363 503.078 284.045C503.533 282.727 503.666 281.32 503.466 279.94C507.013 286.294 505.215 294.906 499.925 299.902C494.635 304.897 486.497 306.309 479.543 304.176C472.588 302.044 466.865 296.696 463.446 290.272C460.027 283.848 458.774 276.427 458.955 269.151C459.095 263.564 460.044 257.931 459.1 252.422C458.157 246.913 454.711 241.32 449.278 240.023L449.452 239.957Z" fill="#2F2E41"/>
<path d="M425.053 247.2C424.126 250.296 420.583 252.205 417.396 251.682C415.809 251.351 414.341 250.598 413.148 249.5C411.955 248.403 411.081 247.003 410.619 245.448C409.743 242.299 410.102 238.934 411.621 236.041C412.458 234.306 413.629 232.754 415.067 231.473C416.504 230.191 418.18 229.207 419.999 228.574C421.827 227.968 423.775 227.81 425.677 228.114C427.579 228.418 429.381 229.175 430.93 230.322C431.094 229.626 431.442 228.987 431.936 228.471C432.429 227.954 433.052 227.578 433.739 227.382C435.123 227.009 436.583 227.031 437.955 227.444C441.908 228.572 445.334 231.065 447.623 234.482C449.883 237.888 451.378 241.744 452.005 245.784C453.083 251.842 452.685 258.462 449.285 263.589C445.884 268.717 438.927 271.744 433.283 269.3C432.931 267.5 433.765 265.687 434.73 264.127C435.694 262.567 436.837 261.048 437.208 259.251C437.578 257.455 436.868 255.257 435.131 254.67C433.65 254.168 432.07 254.981 430.509 255.079C429.623 255.134 428.737 254.956 427.941 254.561C427.146 254.166 426.468 253.569 425.976 252.829C425.483 252.089 425.194 251.233 425.137 250.346C425.08 249.459 425.257 248.573 425.651 247.776L425.053 247.2Z" fill="#2F2E41"/>
<path d="M377.455 324.613C377.766 324.901 378.053 325.212 378.315 325.545L416.122 322.601L420.108 314.291L433.428 318.671L426.224 338.381L378.6 335.183C377.659 336.514 376.335 337.527 374.805 338.088C373.275 338.648 371.61 338.729 370.032 338.32C368.455 337.91 367.039 337.03 365.974 335.796C364.909 334.562 364.244 333.033 364.068 331.412C363.893 329.791 364.214 328.155 364.991 326.721C365.767 325.287 366.961 324.124 368.414 323.386C369.868 322.648 371.511 322.37 373.126 322.589C374.741 322.808 376.251 323.514 377.455 324.613V324.613Z" fill="#FFB8B8"/>
<path d="M433.224 331.799C432.905 331.708 432.601 331.572 432.321 331.394L415.578 320.813C415.176 320.559 414.83 320.224 414.564 319.829C414.298 319.434 414.116 318.988 414.03 318.52C413.945 318.051 413.958 317.57 414.068 317.107C414.178 316.643 414.383 316.208 414.669 315.828L426.404 300.274C426.896 299.616 427.608 299.157 428.41 298.981C429.213 298.805 430.051 298.923 430.774 299.314L442.099 305.378C442.805 305.757 443.358 306.371 443.661 307.114C443.963 307.856 443.998 308.682 443.757 309.447L437.44 329.518C437.171 330.371 436.581 331.087 435.794 331.513C435.007 331.939 434.085 332.041 433.224 331.799Z" fill="url(#paint4_linear)"/>
</g>
<defs>
<linearGradient id="paint0_linear" x1="210.985" y1="72.9121" x2="210.985" y2="84.6126" gradientUnits="userSpaceOnUse">
<stop stop-color="#E31266"/>
<stop offset="0.523958" stop-color="#F8493C"/>
<stop offset="1" stop-color="#F4943E"/>
</linearGradient>
<linearGradient id="paint1_linear" x1="350.245" y1="63.0557" x2="350.245" y2="100.815" gradientUnits="userSpaceOnUse">
<stop stop-color="#E31266"/>
<stop offset="0.523958" stop-color="#F8493C"/>
<stop offset="1" stop-color="#F4943E"/>
</linearGradient>
<linearGradient id="paint2_linear" x1="267.061" y1="359.107" x2="267.061" y2="442.321" gradientUnits="userSpaceOnUse">
<stop stop-color="#E31266"/>
<stop offset="0.523958" stop-color="#F8493C"/>
<stop offset="1" stop-color="#F4943E"/>
</linearGradient>
<linearGradient id="paint3_linear" x1="429.453" y1="275.01" x2="429.453" y2="344.598" gradientUnits="userSpaceOnUse">
<stop stop-color="#E31266"/>
<stop offset="0.523958" stop-color="#F8493C"/>
<stop offset="1" stop-color="#F4943E"/>
</linearGradient>
<linearGradient id="paint4_linear" x1="428.945" y1="298.901" x2="428.945" y2="331.928" gradientUnits="userSpaceOnUse">
<stop stop-color="#E31266"/>
<stop offset="0.523958" stop-color="#F8493C"/>
<stop offset="1" stop-color="#F4943E"/>
</linearGradient>
<clipPath id="clip0">
<rect width="573" height="519" fill="white"/>
</clipPath>
</defs>
</svg>
