<svg width="454" height="340" viewBox="0 0 454 340" fill="none" xmlns="http://www.w3.org/2000/svg">
<g clip-path="url(#clip0)">
<path d="M453.797 328.607H316.703V327.489H454L453.797 328.607Z" fill="#3F3D56"/>
<path d="M21.9984 7.89137C24.1807 7.89137 25.9498 6.12493 25.9498 3.94593C25.9498 1.76692 24.1807 0.000488281 21.9984 0.000488281C19.816 0.000488281 18.0469 1.76692 18.0469 3.94593C18.0469 6.12493 19.816 7.89137 21.9984 7.89137Z" fill="#E6E6E6"/>
<path d="M42.0003 7.89137C44.1827 7.89137 45.9518 6.12493 45.9518 3.94593C45.9518 1.76692 44.1827 0.000488281 42.0003 0.000488281C39.818 0.000488281 38.0488 1.76692 38.0488 3.94593C38.0488 6.12493 39.818 7.89137 42.0003 7.89137Z" fill="#E6E6E6"/>
<path d="M62.0032 7.89137C64.1856 7.89137 65.9547 6.12493 65.9547 3.94593C65.9547 1.76692 64.1856 0.000488281 62.0032 0.000488281C59.8209 0.000488281 58.0518 1.76692 58.0518 3.94593C58.0518 6.12493 59.8209 7.89137 62.0032 7.89137Z" fill="#E6E6E6"/>
<path d="M82.0052 7.89137C84.1875 7.89137 85.9567 6.12493 85.9567 3.94593C85.9567 1.76692 84.1875 0.000488281 82.0052 0.000488281C79.8229 0.000488281 78.0537 1.76692 78.0537 3.94593C78.0537 6.12493 79.8229 7.89137 82.0052 7.89137Z" fill="#E6E6E6"/>
<path d="M102.008 7.89137C104.19 7.89137 105.96 6.12493 105.96 3.94593C105.96 1.76692 104.19 0.000488281 102.008 0.000488281C99.8258 0.000488281 98.0566 1.76692 98.0566 3.94593C98.0566 6.12493 99.8258 7.89137 102.008 7.89137Z" fill="#E6E6E6"/>
<path d="M122.01 7.89137C124.192 7.89137 125.962 6.12493 125.962 3.94593C125.962 1.76692 124.192 0.000488281 122.01 0.000488281C119.828 0.000488281 118.059 1.76692 118.059 3.94593C118.059 6.12493 119.828 7.89137 122.01 7.89137Z" fill="#E6E6E6"/>
<path d="M142.012 7.89137C144.194 7.89137 145.964 6.12493 145.964 3.94593C145.964 1.76692 144.194 0.000488281 142.012 0.000488281C139.83 0.000488281 138.061 1.76692 138.061 3.94593C138.061 6.12493 139.83 7.89137 142.012 7.89137Z" fill="#E6E6E6"/>
<path d="M162.015 7.89137C164.197 7.89137 165.966 6.12493 165.966 3.94593C165.966 1.76692 164.197 0.000488281 162.015 0.000488281C159.833 0.000488281 158.063 1.76692 158.063 3.94593C158.063 6.12493 159.833 7.89137 162.015 7.89137Z" fill="#E6E6E6"/>
<path d="M182.017 7.89137C184.199 7.89137 185.968 6.12493 185.968 3.94593C185.968 1.76692 184.199 0.000488281 182.017 0.000488281C179.835 0.000488281 178.065 1.76692 178.065 3.94593C178.065 6.12493 179.835 7.89137 182.017 7.89137Z" fill="#E6E6E6"/>
<path d="M202.02 7.89137C204.202 7.89137 205.971 6.12493 205.971 3.94593C205.971 1.76692 204.202 0.000488281 202.02 0.000488281C199.838 0.000488281 198.068 1.76692 198.068 3.94593C198.068 6.12493 199.838 7.89137 202.02 7.89137Z" fill="#E6E6E6"/>
<path d="M21.9984 28.1138C24.1807 28.1138 25.9498 26.3473 25.9498 24.1683C25.9498 21.9893 24.1807 20.2229 21.9984 20.2229C19.816 20.2229 18.0469 21.9893 18.0469 24.1683C18.0469 26.3473 19.816 28.1138 21.9984 28.1138Z" fill="#E6E6E6"/>
<path d="M42.0003 28.1138C44.1827 28.1138 45.9518 26.3473 45.9518 24.1683C45.9518 21.9893 44.1827 20.2229 42.0003 20.2229C39.818 20.2229 38.0488 21.9893 38.0488 24.1683C38.0488 26.3473 39.818 28.1138 42.0003 28.1138Z" fill="#E6E6E6"/>
<path d="M62.0032 28.1138C64.1856 28.1138 65.9547 26.3473 65.9547 24.1683C65.9547 21.9893 64.1856 20.2229 62.0032 20.2229C59.8209 20.2229 58.0518 21.9893 58.0518 24.1683C58.0518 26.3473 59.8209 28.1138 62.0032 28.1138Z" fill="#E6E6E6"/>
<path d="M82.0052 28.1138C84.1875 28.1138 85.9567 26.3473 85.9567 24.1683C85.9567 21.9893 84.1875 20.2229 82.0052 20.2229C79.8229 20.2229 78.0537 21.9893 78.0537 24.1683C78.0537 26.3473 79.8229 28.1138 82.0052 28.1138Z" fill="url(#paint0_linear)"/>
<path d="M102.008 28.1138C104.19 28.1138 105.96 26.3473 105.96 24.1683C105.96 21.9893 104.19 20.2229 102.008 20.2229C99.8258 20.2229 98.0566 21.9893 98.0566 24.1683C98.0566 26.3473 99.8258 28.1138 102.008 28.1138Z" fill="#E6E6E6"/>
<path d="M122.01 28.1138C124.192 28.1138 125.962 26.3473 125.962 24.1683C125.962 21.9893 124.192 20.2229 122.01 20.2229C119.828 20.2229 118.059 21.9893 118.059 24.1683C118.059 26.3473 119.828 28.1138 122.01 28.1138Z" fill="#E6E6E6"/>
<path d="M142.012 28.1138C144.194 28.1138 145.964 26.3473 145.964 24.1683C145.964 21.9893 144.194 20.2229 142.012 20.2229C139.83 20.2229 138.061 21.9893 138.061 24.1683C138.061 26.3473 139.83 28.1138 142.012 28.1138Z" fill="#E6E6E6"/>
<path d="M162.015 28.1138C164.197 28.1138 165.966 26.3473 165.966 24.1683C165.966 21.9893 164.197 20.2229 162.015 20.2229C159.833 20.2229 158.063 21.9893 158.063 24.1683C158.063 26.3473 159.833 28.1138 162.015 28.1138Z" fill="#E6E6E6"/>
<path d="M182.017 28.1138C184.199 28.1138 185.968 26.3473 185.968 24.1683C185.968 21.9893 184.199 20.2229 182.017 20.2229C179.835 20.2229 178.065 21.9893 178.065 24.1683C178.065 26.3473 179.835 28.1138 182.017 28.1138Z" fill="#E6E6E6"/>
<path d="M202.02 28.1138C204.202 28.1138 205.971 26.3473 205.971 24.1683C205.971 21.9893 204.202 20.2229 202.02 20.2229C199.838 20.2229 198.068 21.9893 198.068 24.1683C198.068 26.3473 199.838 28.1138 202.02 28.1138Z" fill="#E6E6E6"/>
<path d="M21.9984 48.3362C24.1807 48.3362 25.9498 46.5698 25.9498 44.3908C25.9498 42.2117 24.1807 40.4453 21.9984 40.4453C19.816 40.4453 18.0469 42.2117 18.0469 44.3908C18.0469 46.5698 19.816 48.3362 21.9984 48.3362Z" fill="#E6E6E6"/>
<path d="M42.0003 48.3362C44.1827 48.3362 45.9518 46.5698 45.9518 44.3908C45.9518 42.2117 44.1827 40.4453 42.0003 40.4453C39.818 40.4453 38.0488 42.2117 38.0488 44.3908C38.0488 46.5698 39.818 48.3362 42.0003 48.3362Z" fill="#E6E6E6"/>
<path d="M62.0032 48.3362C64.1856 48.3362 65.9547 46.5698 65.9547 44.3908C65.9547 42.2117 64.1856 40.4453 62.0032 40.4453C59.8209 40.4453 58.0518 42.2117 58.0518 44.3908C58.0518 46.5698 59.8209 48.3362 62.0032 48.3362Z" fill="#E6E6E6"/>
<path d="M82.0052 48.3362C84.1875 48.3362 85.9567 46.5698 85.9567 44.3908C85.9567 42.2117 84.1875 40.4453 82.0052 40.4453C79.8229 40.4453 78.0537 42.2117 78.0537 44.3908C78.0537 46.5698 79.8229 48.3362 82.0052 48.3362Z" fill="#E6E6E6"/>
<path d="M102.008 48.3362C104.19 48.3362 105.96 46.5698 105.96 44.3908C105.96 42.2117 104.19 40.4453 102.008 40.4453C99.8258 40.4453 98.0566 42.2117 98.0566 44.3908C98.0566 46.5698 99.8258 48.3362 102.008 48.3362Z" fill="#E6E6E6"/>
<path d="M122.01 48.3362C124.192 48.3362 125.962 46.5698 125.962 44.3908C125.962 42.2117 124.192 40.4453 122.01 40.4453C119.828 40.4453 118.059 42.2117 118.059 44.3908C118.059 46.5698 119.828 48.3362 122.01 48.3362Z" fill="#E6E6E6"/>
<path d="M142.012 48.3362C144.194 48.3362 145.964 46.5698 145.964 44.3908C145.964 42.2117 144.194 40.4453 142.012 40.4453C139.83 40.4453 138.061 42.2117 138.061 44.3908C138.061 46.5698 139.83 48.3362 142.012 48.3362Z" fill="#E6E6E6"/>
<path d="M162.015 48.3362C164.197 48.3362 165.966 46.5698 165.966 44.3908C165.966 42.2117 164.197 40.4453 162.015 40.4453C159.833 40.4453 158.063 42.2117 158.063 44.3908C158.063 46.5698 159.833 48.3362 162.015 48.3362Z" fill="#E6E6E6"/>
<path d="M182.017 48.3362C184.199 48.3362 185.968 46.5698 185.968 44.3908C185.968 42.2117 184.199 40.4453 182.017 40.4453C179.835 40.4453 178.065 42.2117 178.065 44.3908C178.065 46.5698 179.835 48.3362 182.017 48.3362Z" fill="#E6E6E6"/>
<path d="M202.02 48.3362C204.202 48.3362 205.971 46.5698 205.971 44.3908C205.971 42.2117 204.202 40.4453 202.02 40.4453C199.838 40.4453 198.068 42.2117 198.068 44.3908C198.068 46.5698 199.838 48.3362 202.02 48.3362Z" fill="#E6E6E6"/>
<path d="M21.9984 68.5586C24.1807 68.5586 25.9498 66.7922 25.9498 64.6132C25.9498 62.4342 24.1807 60.6677 21.9984 60.6677C19.816 60.6677 18.0469 62.4342 18.0469 64.6132C18.0469 66.7922 19.816 68.5586 21.9984 68.5586Z" fill="#E6E6E6"/>
<path d="M42.0003 68.5586C44.1827 68.5586 45.9518 66.7922 45.9518 64.6132C45.9518 62.4342 44.1827 60.6677 42.0003 60.6677C39.818 60.6677 38.0488 62.4342 38.0488 64.6132C38.0488 66.7922 39.818 68.5586 42.0003 68.5586Z" fill="#E6E6E6"/>
<path d="M62.0032 68.5586C64.1856 68.5586 65.9547 66.7922 65.9547 64.6132C65.9547 62.4342 64.1856 60.6677 62.0032 60.6677C59.8209 60.6677 58.0518 62.4342 58.0518 64.6132C58.0518 66.7922 59.8209 68.5586 62.0032 68.5586Z" fill="#E6E6E6"/>
<path d="M82.0052 68.5586C84.1875 68.5586 85.9567 66.7922 85.9567 64.6132C85.9567 62.4342 84.1875 60.6677 82.0052 60.6677C79.8229 60.6677 78.0537 62.4342 78.0537 64.6132C78.0537 66.7922 79.8229 68.5586 82.0052 68.5586Z" fill="#E6E6E6"/>
<path d="M102.008 68.5586C104.19 68.5586 105.96 66.7922 105.96 64.6132C105.96 62.4342 104.19 60.6677 102.008 60.6677C99.8258 60.6677 98.0566 62.4342 98.0566 64.6132C98.0566 66.7922 99.8258 68.5586 102.008 68.5586Z" fill="#E6E6E6"/>
<path d="M122.01 68.5586C124.192 68.5586 125.962 66.7922 125.962 64.6132C125.962 62.4342 124.192 60.6677 122.01 60.6677C119.828 60.6677 118.059 62.4342 118.059 64.6132C118.059 66.7922 119.828 68.5586 122.01 68.5586Z" fill="#E6E6E6"/>
<path d="M142.012 68.5586C144.194 68.5586 145.964 66.7922 145.964 64.6132C145.964 62.4342 144.194 60.6677 142.012 60.6677C139.83 60.6677 138.061 62.4342 138.061 64.6132C138.061 66.7922 139.83 68.5586 142.012 68.5586Z" fill="#E6E6E6"/>
<path d="M162.015 68.5586C164.197 68.5586 165.966 66.7922 165.966 64.6132C165.966 62.4342 164.197 60.6677 162.015 60.6677C159.833 60.6677 158.063 62.4342 158.063 64.6132C158.063 66.7922 159.833 68.5586 162.015 68.5586Z" fill="#E6E6E6"/>
<path d="M182.017 68.5586C184.199 68.5586 185.968 66.7922 185.968 64.6132C185.968 62.4342 184.199 60.6677 182.017 60.6677C179.835 60.6677 178.065 62.4342 178.065 64.6132C178.065 66.7922 179.835 68.5586 182.017 68.5586Z" fill="#E6E6E6"/>
<path d="M202.02 68.5586C204.202 68.5586 205.971 66.7922 205.971 64.6132C205.971 62.4342 204.202 60.6677 202.02 60.6677C199.838 60.6677 198.068 62.4342 198.068 64.6132C198.068 66.7922 199.838 68.5586 202.02 68.5586Z" fill="#E6E6E6"/>
<path d="M21.9984 88.781C24.1807 88.781 25.9498 87.0146 25.9498 84.8356C25.9498 82.6566 24.1807 80.8901 21.9984 80.8901C19.816 80.8901 18.0469 82.6566 18.0469 84.8356C18.0469 87.0146 19.816 88.781 21.9984 88.781Z" fill="#E6E6E6"/>
<path d="M42.0003 88.781C44.1827 88.781 45.9518 87.0146 45.9518 84.8356C45.9518 82.6566 44.1827 80.8901 42.0003 80.8901C39.818 80.8901 38.0488 82.6566 38.0488 84.8356C38.0488 87.0146 39.818 88.781 42.0003 88.781Z" fill="url(#paint1_linear)"/>
<path d="M62.0032 88.781C64.1856 88.781 65.9547 87.0146 65.9547 84.8356C65.9547 82.6566 64.1856 80.8901 62.0032 80.8901C59.8209 80.8901 58.0518 82.6566 58.0518 84.8356C58.0518 87.0146 59.8209 88.781 62.0032 88.781Z" fill="#E6E6E6"/>
<path d="M82.0052 88.781C84.1875 88.781 85.9567 87.0146 85.9567 84.8356C85.9567 82.6566 84.1875 80.8901 82.0052 80.8901C79.8229 80.8901 78.0537 82.6566 78.0537 84.8356C78.0537 87.0146 79.8229 88.781 82.0052 88.781Z" fill="#E6E6E6"/>
<path d="M102.008 88.781C104.19 88.781 105.96 87.0146 105.96 84.8356C105.96 82.6566 104.19 80.8901 102.008 80.8901C99.8258 80.8901 98.0566 82.6566 98.0566 84.8356C98.0566 87.0146 99.8258 88.781 102.008 88.781Z" fill="#E6E6E6"/>
<path d="M122.01 88.781C124.192 88.781 125.962 87.0146 125.962 84.8356C125.962 82.6566 124.192 80.8901 122.01 80.8901C119.828 80.8901 118.059 82.6566 118.059 84.8356C118.059 87.0146 119.828 88.781 122.01 88.781Z" fill="#E6E6E6"/>
<path d="M142.012 88.781C144.194 88.781 145.964 87.0146 145.964 84.8356C145.964 82.6566 144.194 80.8901 142.012 80.8901C139.83 80.8901 138.061 82.6566 138.061 84.8356C138.061 87.0146 139.83 88.781 142.012 88.781Z" fill="#E6E6E6"/>
<path d="M162.015 88.781C164.197 88.781 165.966 87.0146 165.966 84.8356C165.966 82.6566 164.197 80.8901 162.015 80.8901C159.833 80.8901 158.063 82.6566 158.063 84.8356C158.063 87.0146 159.833 88.781 162.015 88.781Z" fill="#E6E6E6"/>
<path d="M182.017 88.781C184.199 88.781 185.968 87.0146 185.968 84.8356C185.968 82.6566 184.199 80.8901 182.017 80.8901C179.835 80.8901 178.065 82.6566 178.065 84.8356C178.065 87.0146 179.835 88.781 182.017 88.781Z" fill="#E6E6E6"/>
<path d="M202.02 88.781C204.202 88.781 205.971 87.0146 205.971 84.8356C205.971 82.6566 204.202 80.8901 202.02 80.8901C199.838 80.8901 198.068 82.6566 198.068 84.8356C198.068 87.0146 199.838 88.781 202.02 88.781Z" fill="#E6E6E6"/>
<path d="M21.9984 109.003C24.1807 109.003 25.9498 107.237 25.9498 105.058C25.9498 102.879 24.1807 101.113 21.9984 101.113C19.816 101.113 18.0469 102.879 18.0469 105.058C18.0469 107.237 19.816 109.003 21.9984 109.003Z" fill="#E6E6E6"/>
<path d="M42.0003 109.003C44.1827 109.003 45.9518 107.237 45.9518 105.058C45.9518 102.879 44.1827 101.113 42.0003 101.113C39.818 101.113 38.0488 102.879 38.0488 105.058C38.0488 107.237 39.818 109.003 42.0003 109.003Z" fill="#E6E6E6"/>
<path d="M62.0032 109.003C64.1856 109.003 65.9547 107.237 65.9547 105.058C65.9547 102.879 64.1856 101.113 62.0032 101.113C59.8209 101.113 58.0518 102.879 58.0518 105.058C58.0518 107.237 59.8209 109.003 62.0032 109.003Z" fill="#E6E6E6"/>
<path d="M82.0052 109.003C84.1875 109.003 85.9567 107.237 85.9567 105.058C85.9567 102.879 84.1875 101.113 82.0052 101.113C79.8229 101.113 78.0537 102.879 78.0537 105.058C78.0537 107.237 79.8229 109.003 82.0052 109.003Z" fill="#E6E6E6"/>
<path d="M102.008 109.003C104.19 109.003 105.96 107.237 105.96 105.058C105.96 102.879 104.19 101.113 102.008 101.113C99.8258 101.113 98.0566 102.879 98.0566 105.058C98.0566 107.237 99.8258 109.003 102.008 109.003Z" fill="#E6E6E6"/>
<path d="M122.01 109.003C124.192 109.003 125.962 107.237 125.962 105.058C125.962 102.879 124.192 101.113 122.01 101.113C119.828 101.113 118.059 102.879 118.059 105.058C118.059 107.237 119.828 109.003 122.01 109.003Z" fill="#E6E6E6"/>
<path d="M142.012 109.003C144.194 109.003 145.964 107.237 145.964 105.058C145.964 102.879 144.194 101.113 142.012 101.113C139.83 101.113 138.061 102.879 138.061 105.058C138.061 107.237 139.83 109.003 142.012 109.003Z" fill="#E6E6E6"/>
<path d="M162.015 109.003C164.197 109.003 165.966 107.237 165.966 105.058C165.966 102.879 164.197 101.113 162.015 101.113C159.833 101.113 158.063 102.879 158.063 105.058C158.063 107.237 159.833 109.003 162.015 109.003Z" fill="#E6E6E6"/>
<path d="M182.017 109.003C184.199 109.003 185.968 107.237 185.968 105.058C185.968 102.879 184.199 101.113 182.017 101.113C179.835 101.113 178.065 102.879 178.065 105.058C178.065 107.237 179.835 109.003 182.017 109.003Z" fill="#E6E6E6"/>
<path d="M202.02 109.003C204.202 109.003 205.971 107.237 205.971 105.058C205.971 102.879 204.202 101.113 202.02 101.113C199.838 101.113 198.068 102.879 198.068 105.058C198.068 107.237 199.838 109.003 202.02 109.003Z" fill="#E6E6E6"/>
<path d="M21.9984 129.226C24.1807 129.226 25.9498 127.459 25.9498 125.28C25.9498 123.101 24.1807 121.335 21.9984 121.335C19.816 121.335 18.0469 123.101 18.0469 125.28C18.0469 127.459 19.816 129.226 21.9984 129.226Z" fill="#E6E6E6"/>
<path d="M42.0003 129.226C44.1827 129.226 45.9518 127.459 45.9518 125.28C45.9518 123.101 44.1827 121.335 42.0003 121.335C39.818 121.335 38.0488 123.101 38.0488 125.28C38.0488 127.459 39.818 129.226 42.0003 129.226Z" fill="#E6E6E6"/>
<path d="M62.0032 129.226C64.1856 129.226 65.9547 127.459 65.9547 125.28C65.9547 123.101 64.1856 121.335 62.0032 121.335C59.8209 121.335 58.0518 123.101 58.0518 125.28C58.0518 127.459 59.8209 129.226 62.0032 129.226Z" fill="url(#paint2_linear)"/>
<path d="M82.0052 129.226C84.1875 129.226 85.9567 127.459 85.9567 125.28C85.9567 123.101 84.1875 121.335 82.0052 121.335C79.8229 121.335 78.0537 123.101 78.0537 125.28C78.0537 127.459 79.8229 129.226 82.0052 129.226Z" fill="#E6E6E6"/>
<path d="M102.008 129.226C104.19 129.226 105.96 127.459 105.96 125.28C105.96 123.101 104.19 121.335 102.008 121.335C99.8258 121.335 98.0566 123.101 98.0566 125.28C98.0566 127.459 99.8258 129.226 102.008 129.226Z" fill="#E6E6E6"/>
<path d="M122.01 129.226C124.192 129.226 125.962 127.459 125.962 125.28C125.962 123.101 124.192 121.335 122.01 121.335C119.828 121.335 118.059 123.101 118.059 125.28C118.059 127.459 119.828 129.226 122.01 129.226Z" fill="#E6E6E6"/>
<path d="M142.012 129.226C144.194 129.226 145.964 127.459 145.964 125.28C145.964 123.101 144.194 121.335 142.012 121.335C139.83 121.335 138.061 123.101 138.061 125.28C138.061 127.459 139.83 129.226 142.012 129.226Z" fill="#E6E6E6"/>
<path d="M162.015 129.226C164.197 129.226 165.966 127.459 165.966 125.28C165.966 123.101 164.197 121.335 162.015 121.335C159.833 121.335 158.063 123.101 158.063 125.28C158.063 127.459 159.833 129.226 162.015 129.226Z" fill="#E6E6E6"/>
<path d="M182.017 129.226C184.199 129.226 185.968 127.459 185.968 125.28C185.968 123.101 184.199 121.335 182.017 121.335C179.835 121.335 178.065 123.101 178.065 125.28C178.065 127.459 179.835 129.226 182.017 129.226Z" fill="#E6E6E6"/>
<path d="M202.02 129.226C204.202 129.226 205.971 127.459 205.971 125.28C205.971 123.101 204.202 121.335 202.02 121.335C199.838 121.335 198.068 123.101 198.068 125.28C198.068 127.459 199.838 129.226 202.02 129.226Z" fill="#E6E6E6"/>
<path d="M21.9984 149.448C24.1807 149.448 25.9498 147.682 25.9498 145.503C25.9498 143.324 24.1807 141.557 21.9984 141.557C19.816 141.557 18.0469 143.324 18.0469 145.503C18.0469 147.682 19.816 149.448 21.9984 149.448Z" fill="#E6E6E6"/>
<path d="M42.0003 149.448C44.1827 149.448 45.9518 147.682 45.9518 145.503C45.9518 143.324 44.1827 141.557 42.0003 141.557C39.818 141.557 38.0488 143.324 38.0488 145.503C38.0488 147.682 39.818 149.448 42.0003 149.448Z" fill="#E6E6E6"/>
<path d="M62.0032 149.448C64.1856 149.448 65.9547 147.682 65.9547 145.503C65.9547 143.324 64.1856 141.557 62.0032 141.557C59.8209 141.557 58.0518 143.324 58.0518 145.503C58.0518 147.682 59.8209 149.448 62.0032 149.448Z" fill="#E6E6E6"/>
<path d="M82.0052 149.448C84.1875 149.448 85.9567 147.682 85.9567 145.503C85.9567 143.324 84.1875 141.557 82.0052 141.557C79.8229 141.557 78.0537 143.324 78.0537 145.503C78.0537 147.682 79.8229 149.448 82.0052 149.448Z" fill="#E6E6E6"/>
<path d="M102.008 149.448C104.19 149.448 105.96 147.682 105.96 145.503C105.96 143.324 104.19 141.557 102.008 141.557C99.8258 141.557 98.0566 143.324 98.0566 145.503C98.0566 147.682 99.8258 149.448 102.008 149.448Z" fill="#E6E6E6"/>
<path d="M122.01 149.448C124.192 149.448 125.962 147.682 125.962 145.503C125.962 143.324 124.192 141.557 122.01 141.557C119.828 141.557 118.059 143.324 118.059 145.503C118.059 147.682 119.828 149.448 122.01 149.448Z" fill="#E6E6E6"/>
<path d="M142.012 149.448C144.194 149.448 145.964 147.682 145.964 145.503C145.964 143.324 144.194 141.557 142.012 141.557C139.83 141.557 138.061 143.324 138.061 145.503C138.061 147.682 139.83 149.448 142.012 149.448Z" fill="#E6E6E6"/>
<path d="M162.015 149.448C164.197 149.448 165.966 147.682 165.966 145.503C165.966 143.324 164.197 141.557 162.015 141.557C159.833 141.557 158.063 143.324 158.063 145.503C158.063 147.682 159.833 149.448 162.015 149.448Z" fill="#E6E6E6"/>
<path d="M182.017 149.448C184.199 149.448 185.968 147.682 185.968 145.503C185.968 143.324 184.199 141.557 182.017 141.557C179.835 141.557 178.065 143.324 178.065 145.503C178.065 147.682 179.835 149.448 182.017 149.448Z" fill="#E6E6E6"/>
<path d="M202.02 149.448C204.202 149.448 205.971 147.682 205.971 145.503C205.971 143.324 204.202 141.557 202.02 141.557C199.838 141.557 198.068 143.324 198.068 145.503C198.068 147.682 199.838 149.448 202.02 149.448Z" fill="#E6E6E6"/>
<path d="M21.9984 169.671C24.1807 169.671 25.9498 167.904 25.9498 165.725C25.9498 163.546 24.1807 161.78 21.9984 161.78C19.816 161.78 18.0469 163.546 18.0469 165.725C18.0469 167.904 19.816 169.671 21.9984 169.671Z" fill="#E6E6E6"/>
<path d="M42.0003 169.671C44.1827 169.671 45.9518 167.904 45.9518 165.725C45.9518 163.546 44.1827 161.78 42.0003 161.78C39.818 161.78 38.0488 163.546 38.0488 165.725C38.0488 167.904 39.818 169.671 42.0003 169.671Z" fill="#E6E6E6"/>
<path d="M62.0032 169.671C64.1856 169.671 65.9547 167.904 65.9547 165.725C65.9547 163.546 64.1856 161.78 62.0032 161.78C59.8209 161.78 58.0518 163.546 58.0518 165.725C58.0518 167.904 59.8209 169.671 62.0032 169.671Z" fill="#E6E6E6"/>
<path d="M82.0052 169.671C84.1875 169.671 85.9567 167.904 85.9567 165.725C85.9567 163.546 84.1875 161.78 82.0052 161.78C79.8229 161.78 78.0537 163.546 78.0537 165.725C78.0537 167.904 79.8229 169.671 82.0052 169.671Z" fill="#E6E6E6"/>
<path d="M102.008 169.671C104.19 169.671 105.96 167.904 105.96 165.725C105.96 163.546 104.19 161.78 102.008 161.78C99.8258 161.78 98.0566 163.546 98.0566 165.725C98.0566 167.904 99.8258 169.671 102.008 169.671Z" fill="#E6E6E6"/>
<path d="M122.01 169.671C124.192 169.671 125.962 167.904 125.962 165.725C125.962 163.546 124.192 161.78 122.01 161.78C119.828 161.78 118.059 163.546 118.059 165.725C118.059 167.904 119.828 169.671 122.01 169.671Z" fill="#E6E6E6"/>
<path d="M142.012 169.671C144.194 169.671 145.964 167.904 145.964 165.725C145.964 163.546 144.194 161.78 142.012 161.78C139.83 161.78 138.061 163.546 138.061 165.725C138.061 167.904 139.83 169.671 142.012 169.671Z" fill="#E6E6E6"/>
<path d="M162.015 169.671C164.197 169.671 165.966 167.904 165.966 165.725C165.966 163.546 164.197 161.78 162.015 161.78C159.833 161.78 158.063 163.546 158.063 165.725C158.063 167.904 159.833 169.671 162.015 169.671Z" fill="#E6E6E6"/>
<path d="M182.017 169.671C184.199 169.671 185.968 167.904 185.968 165.725C185.968 163.546 184.199 161.78 182.017 161.78C179.835 161.78 178.065 163.546 178.065 165.725C178.065 167.904 179.835 169.671 182.017 169.671Z" fill="#E6E6E6"/>
<path d="M202.02 169.671C204.202 169.671 205.971 167.904 205.971 165.725C205.971 163.546 204.202 161.78 202.02 161.78C199.838 161.78 198.068 163.546 198.068 165.725C198.068 167.904 199.838 169.671 202.02 169.671Z" fill="#E6E6E6"/>
<path d="M21.9984 189.893C24.1807 189.893 25.9498 188.127 25.9498 185.948C25.9498 183.769 24.1807 182.002 21.9984 182.002C19.816 182.002 18.0469 183.769 18.0469 185.948C18.0469 188.127 19.816 189.893 21.9984 189.893Z" fill="#E6E6E6"/>
<path d="M42.0003 189.893C44.1827 189.893 45.9518 188.127 45.9518 185.948C45.9518 183.769 44.1827 182.002 42.0003 182.002C39.818 182.002 38.0488 183.769 38.0488 185.948C38.0488 188.127 39.818 189.893 42.0003 189.893Z" fill="#E6E6E6"/>
<path d="M62.0032 189.893C64.1856 189.893 65.9547 188.127 65.9547 185.948C65.9547 183.769 64.1856 182.002 62.0032 182.002C59.8209 182.002 58.0518 183.769 58.0518 185.948C58.0518 188.127 59.8209 189.893 62.0032 189.893Z" fill="#E6E6E6"/>
<path d="M82.0052 189.893C84.1875 189.893 85.9567 188.127 85.9567 185.948C85.9567 183.769 84.1875 182.002 82.0052 182.002C79.8229 182.002 78.0537 183.769 78.0537 185.948C78.0537 188.127 79.8229 189.893 82.0052 189.893Z" fill="#E6E6E6"/>
<path d="M102.008 189.893C104.19 189.893 105.96 188.127 105.96 185.948C105.96 183.769 104.19 182.002 102.008 182.002C99.8258 182.002 98.0566 183.769 98.0566 185.948C98.0566 188.127 99.8258 189.893 102.008 189.893Z" fill="#E6E6E6"/>
<path d="M122.01 189.893C124.192 189.893 125.962 188.127 125.962 185.948C125.962 183.769 124.192 182.002 122.01 182.002C119.828 182.002 118.059 183.769 118.059 185.948C118.059 188.127 119.828 189.893 122.01 189.893Z" fill="#E6E6E6"/>
<path d="M142.012 189.893C144.194 189.893 145.964 188.127 145.964 185.948C145.964 183.769 144.194 182.002 142.012 182.002C139.83 182.002 138.061 183.769 138.061 185.948C138.061 188.127 139.83 189.893 142.012 189.893Z" fill="#E6E6E6"/>
<path d="M162.015 189.893C164.197 189.893 165.966 188.127 165.966 185.948C165.966 183.769 164.197 182.002 162.015 182.002C159.833 182.002 158.063 183.769 158.063 185.948C158.063 188.127 159.833 189.893 162.015 189.893Z" fill="#E6E6E6"/>
<path d="M182.017 189.893C184.199 189.893 185.968 188.127 185.968 185.948C185.968 183.769 184.199 182.002 182.017 182.002C179.835 182.002 178.065 183.769 178.065 185.948C178.065 188.127 179.835 189.893 182.017 189.893Z" fill="#E6E6E6"/>
<path d="M202.02 189.893C204.202 189.893 205.971 188.127 205.971 185.948C205.971 183.769 204.202 182.002 202.02 182.002C199.838 182.002 198.068 183.769 198.068 185.948C198.068 188.127 199.838 189.893 202.02 189.893Z" fill="#E6E6E6"/>
<path d="M164.253 156.568L211.15 74.5154H117.305L70.3574 155.706L117.305 236.898H211.2L258.06 155.858L164.253 156.568Z" fill="url(#paint3_linear)"/>
<path d="M269.708 148.967L269.796 148.815L222.848 67.6235H222.798L175.9 149.676L269.708 148.967Z" fill="#2F2E41"/>
<path d="M337.626 70.9553C336.861 70.0629 336.479 68.7565 336.479 67.0359C336.479 65.3315 336.861 64.0329 337.626 63.1402C338.02 62.6924 338.511 62.3393 339.061 62.1075C339.611 61.8757 340.206 61.7711 340.802 61.8016C341.404 61.7703 342.006 61.8743 342.562 62.1059C343.118 62.3376 343.615 62.6911 344.016 63.1402C344.789 64.0328 345.175 65.3314 345.175 67.0359C345.175 68.7567 344.789 70.0631 344.016 70.9553C343.615 71.4045 343.118 71.758 342.562 71.9897C342.006 72.2215 341.404 72.3255 340.802 72.2941C340.206 72.3246 339.611 72.2201 339.061 71.9882C338.51 71.7563 338.02 71.4032 337.626 70.9553ZM342.18 69.5685C342.525 68.7709 342.674 67.9026 342.615 67.0359C342.672 66.1797 342.518 65.3226 342.167 64.5392C342.038 64.2927 341.841 64.0881 341.599 63.9493C341.357 63.8105 341.081 63.7432 340.802 63.7554C340.529 63.7447 340.258 63.813 340.023 63.952C339.787 64.091 339.597 64.2949 339.474 64.5392C339.133 65.3251 338.983 66.181 339.039 67.0359C338.982 67.8986 339.131 68.7624 339.474 69.5563C339.597 69.8007 339.787 70.0047 340.023 70.1438C340.258 70.2828 340.529 70.3511 340.802 70.3403C341.082 70.3563 341.36 70.2921 341.604 70.1554C341.848 70.0186 342.048 69.815 342.18 69.5685ZM340.634 79.2166L350.587 62.0428H353.268L343.291 79.2166H340.634ZM349.874 78.0469C349.109 77.1543 348.726 75.8397 348.727 74.1031C348.727 72.3989 349.109 71.1044 349.874 70.2196C350.294 69.7992 350.793 69.4656 351.342 69.2379C351.891 69.0103 352.48 68.8932 353.075 68.8932C353.67 68.8932 354.259 69.0103 354.808 69.2379C355.357 69.4656 355.856 69.7992 356.276 70.2196C357.04 71.1042 357.423 72.4067 357.423 74.1273C357.423 75.848 357.041 77.1546 356.276 78.0469C355.858 78.4708 355.36 78.8075 354.81 79.0373C354.261 79.2672 353.671 79.3855 353.075 79.3855C352.479 79.3855 351.889 79.2672 351.34 79.0373C350.79 78.8075 350.292 78.4708 349.874 78.0469ZM354.427 76.6479C354.77 75.8539 354.919 74.99 354.862 74.1273C354.919 73.2712 354.766 72.4142 354.415 71.6308C354.281 71.3928 354.085 71.1948 353.848 71.0571C353.612 70.9193 353.343 70.8468 353.069 70.8468C352.795 70.8468 352.526 70.9193 352.289 71.0571C352.053 71.1948 351.857 71.3928 351.722 71.6308C351.381 72.4167 351.232 73.2725 351.287 74.1273C351.23 74.99 351.379 75.8538 351.722 76.6479C351.858 76.886 352.055 77.0839 352.293 77.2215C352.53 77.3592 352.8 77.4317 353.075 77.4317C353.349 77.4317 353.619 77.3592 353.857 77.2215C354.094 77.0839 354.291 76.886 354.427 76.6479Z" fill="#3F3D56"/>
<path d="M1.14755 219.099C0.382515 218.207 0 216.9 0 215.18C0 213.475 0.382515 212.177 1.14755 211.284C1.54162 210.836 2.03204 210.483 2.58212 210.251C3.13219 210.019 3.72766 209.915 4.32394 209.945C4.92578 209.914 5.52699 210.018 6.08318 210.25C6.63937 210.481 7.13634 210.835 7.53741 211.284C8.31002 212.177 8.69647 213.475 8.69676 215.18C8.69676 216.9 8.31031 218.207 7.53741 219.099C7.13638 219.548 6.63942 219.902 6.08322 220.134C5.52703 220.365 4.9258 220.469 4.32394 220.438C3.72763 220.468 3.13215 220.364 2.58207 220.132C2.03199 219.9 1.54157 219.547 1.14755 219.099ZM5.70151 217.712C6.04627 216.915 6.19532 216.046 6.13626 215.18C6.19302 214.323 6.03944 213.466 5.68887 212.683C5.55932 212.437 5.36217 212.232 5.12047 212.093C4.87877 211.954 4.60251 211.887 4.32395 211.899C4.05051 211.889 3.77979 211.957 3.54421 212.096C3.30863 212.235 3.11818 212.439 2.99567 212.683C2.65409 213.469 2.50492 214.325 2.5605 215.18C2.50364 216.042 2.65279 216.906 2.99567 217.7C3.11806 217.944 3.30848 218.148 3.54408 218.288C3.77968 218.427 4.05047 218.495 4.32395 218.484C4.60339 218.5 4.88158 218.436 5.12567 218.299C5.36977 218.162 5.56957 217.959 5.70151 217.712ZM4.15544 227.36L14.108 210.187H16.7894L6.8124 227.36H4.15544ZM13.3956 226.191C12.6302 225.298 12.2477 223.983 12.2481 222.247C12.2481 220.543 12.6306 219.248 13.3956 218.363C13.8155 217.943 14.3144 217.609 14.8637 217.382C15.4129 217.154 16.0018 217.037 16.5965 217.037C17.1911 217.037 17.78 217.154 18.3292 217.382C18.8785 217.609 19.3774 217.943 19.7973 218.363C20.5619 219.248 20.9444 220.551 20.9448 222.271C20.9448 223.992 20.5623 225.298 19.7973 226.191C19.3793 226.615 18.8811 226.951 18.3316 227.181C17.7821 227.411 17.1922 227.529 16.5965 227.529C16.0007 227.529 15.4108 227.411 14.8613 227.181C14.3118 226.951 13.8136 226.615 13.3956 226.191ZM17.9487 224.792C18.2916 223.998 18.4407 223.134 18.3839 222.271C18.4406 221.415 18.2872 220.558 17.9369 219.775C17.802 219.537 17.6063 219.339 17.3696 219.201C17.133 219.063 16.864 218.991 16.5901 218.991C16.3162 218.991 16.0472 219.063 15.8106 219.201C15.574 219.339 15.3782 219.537 15.2433 219.775C14.9021 220.561 14.7531 221.416 14.8086 222.271C14.7519 223.134 14.9008 223.998 15.2433 224.792C15.3796 225.03 15.5765 225.228 15.814 225.365C16.0516 225.503 16.3214 225.575 16.596 225.575C16.8707 225.575 17.1405 225.503 17.378 225.365C17.6156 225.228 17.8125 225.03 17.9487 224.792Z" fill="#3F3D56"/>
<path d="M225.215 120.227L224.607 120.066L237.862 70.2798H314.746V70.9074H238.345L225.215 120.227Z" fill="#2F2E41"/>
<path d="M321.028 77.1796C319.723 77.1796 318.448 76.7934 317.363 76.0697C316.278 75.346 315.433 74.3174 314.934 73.1139C314.435 71.9104 314.304 70.5862 314.558 69.3086C314.813 68.031 315.441 66.8575 316.364 65.9364C317.286 65.0153 318.461 64.388 319.741 64.1339C321.021 63.8798 322.347 64.0102 323.552 64.5087C324.757 65.0072 325.788 65.8513 326.512 66.9344C327.237 68.0175 327.624 69.2909 327.624 70.5935C327.622 72.3396 326.927 74.0137 325.69 75.2484C324.453 76.4831 322.777 77.1777 321.028 77.1796ZM321.028 64.6346C319.848 64.6346 318.694 64.9841 317.712 65.6388C316.731 66.2936 315.966 67.2243 315.514 68.3131C315.062 69.402 314.944 70.6001 315.175 71.756C315.405 72.9119 315.973 73.9737 316.808 74.8071C317.642 75.6404 318.706 76.208 319.864 76.4379C321.021 76.6678 322.221 76.5498 323.312 76.0988C324.402 75.6478 325.334 74.884 325.99 73.9041C326.646 72.9241 326.996 71.7721 326.996 70.5935C326.994 69.0137 326.365 67.499 325.246 66.3819C324.127 65.2648 322.61 64.6364 321.028 64.6346Z" fill="#2F2E41"/>
<path d="M321.028 73.1027C322.416 73.1027 323.541 71.9794 323.541 70.5937C323.541 69.208 322.416 68.0847 321.028 68.0847C319.641 68.0847 318.516 69.208 318.516 70.5937C318.516 71.9794 319.641 73.1027 321.028 73.1027Z" fill="url(#paint4_linear)"/>
<path d="M128.15 169.104L128.757 169.265L115.502 219.051H38.6191V218.424H115.019L128.15 169.104Z" fill="#2F2E41"/>
<path d="M32.3365 212.151C33.6411 212.151 34.9164 212.538 36.0012 213.261C37.0859 213.985 37.9314 215.014 38.4306 216.217C38.9299 217.421 39.0605 218.745 38.806 220.022C38.5515 221.3 37.9232 222.474 37.0007 223.395C36.0782 224.316 34.9029 224.943 33.6233 225.197C32.3438 225.451 31.0175 225.321 29.8122 224.822C28.6069 224.324 27.5767 223.48 26.8519 222.397C26.1271 221.314 25.7402 220.04 25.7402 218.738C25.7422 216.991 26.4378 215.317 27.6744 214.083C28.911 212.848 30.5877 212.153 32.3365 212.151ZM32.3365 224.696C33.5168 224.696 34.6707 224.347 35.6521 223.692C36.6336 223.037 37.3985 222.107 37.8502 221.018C38.3019 219.929 38.4201 218.731 38.1898 217.575C37.9596 216.419 37.3912 215.357 36.5565 214.524C35.7219 213.691 34.6585 213.123 33.5008 212.893C32.3431 212.663 31.1431 212.781 30.0526 213.232C28.9621 213.683 28.03 214.447 27.3742 215.427C26.7185 216.407 26.3685 217.559 26.3685 218.738C26.3702 220.317 26.9996 221.832 28.1184 222.949C29.2373 224.066 30.7542 224.695 32.3365 224.696Z" fill="#2F2E41"/>
<path d="M32.3361 221.246C33.7239 221.246 34.8489 220.123 34.8489 218.737C34.8489 217.352 33.7239 216.228 32.3361 216.228C30.9483 216.228 29.8232 217.352 29.8232 218.737C29.8232 220.123 30.9483 221.246 32.3361 221.246Z" fill="url(#paint5_linear)"/>
<path d="M378.239 318.036H368.701V330.988H378.239V318.036Z" fill="#A0616A"/>
<path d="M426.692 318.036H417.154V330.988H426.692V318.036Z" fill="#A0616A"/>
<path d="M433.309 210.612C432.492 210.612 431.684 210.435 430.942 210.093C430.199 209.752 429.54 209.254 429.008 208.634C428.477 208.014 428.086 207.286 427.864 206.5C427.641 205.715 427.591 204.891 427.718 204.085L429.28 194.141L429.745 191.184H436.993L437.375 195.374L438.884 203.986C439.027 204.799 438.989 205.632 438.775 206.428C438.56 207.225 438.174 207.964 437.643 208.596C437.111 209.227 436.448 209.735 435.7 210.083C434.951 210.431 434.135 210.612 433.309 210.612Z" fill="#A0616A"/>
<path d="M362.346 209.469C361.529 209.469 360.721 209.292 359.979 208.951C359.236 208.609 358.577 208.111 358.045 207.491C357.514 206.871 357.124 206.143 356.901 205.358C356.678 204.572 356.628 203.748 356.755 202.942L358.317 192.998L358.782 190.041H366.031L366.412 194.231L367.922 202.843C368.064 203.656 368.027 204.489 367.812 205.286C367.597 206.082 367.211 206.822 366.68 207.453C366.149 208.084 365.485 208.592 364.737 208.94C363.988 209.288 363.172 209.469 362.346 209.469Z" fill="#A0616A"/>
<path d="M427.836 320.702L416.391 320.321L397.696 207.564L379.002 320.702L367.938 320.321L364.886 190.041H428.981L427.836 320.702Z" fill="#2F2E41"/>
<path d="M378 339.98C368.29 340.26 360.688 337.639 355.704 331.417C355.18 330.761 354.869 329.962 354.814 329.125C354.758 328.289 354.96 327.455 355.392 326.736C355.8 326.058 356.395 325.512 357.105 325.163C357.816 324.814 358.613 324.677 359.399 324.769L362.555 325.137L369.126 321.859C367.782 329.664 371.438 329.81 380.184 327.194L381.76 335.257C381.871 335.82 381.858 336.401 381.722 336.958C381.586 337.516 381.331 338.037 380.973 338.486C380.616 338.935 380.165 339.301 379.651 339.559C379.138 339.817 378.575 339.961 378 339.98Z" fill="#2F2E41"/>
<path d="M426.454 339.98C416.743 340.26 409.141 337.639 404.157 331.417C403.633 330.761 403.323 329.962 403.267 329.125C403.211 328.289 403.413 327.455 403.845 326.736C404.253 326.058 404.848 325.512 405.559 325.163C406.269 324.814 407.066 324.677 407.853 324.769L411.008 325.137L417.53 322.39C416.186 330.195 419.891 329.811 428.637 327.195L430.213 335.258C430.324 335.82 430.311 336.401 430.175 336.958C430.04 337.516 429.784 338.037 429.426 338.486C429.069 338.935 428.618 339.302 428.105 339.56C427.591 339.817 427.028 339.961 426.454 339.98Z" fill="#2F2E41"/>
<path d="M393.882 70.8077C402.31 70.8077 409.143 63.9857 409.143 55.5702C409.143 47.1548 402.31 40.3328 393.882 40.3328C385.454 40.3328 378.621 47.1548 378.621 55.5702C378.621 63.9857 385.454 70.8077 393.882 70.8077Z" fill="#A0616A"/>
<path d="M409.142 83.379L392.736 84.1407L391.974 66.9985L406.09 61.6655L409.142 83.379Z" fill="#A0616A"/>
<path d="M432.796 195.374C410.424 191.147 384.936 189.633 367.938 195.374L373.279 83.3787L391.21 78.0456L392.546 75.9504L407.616 73.4744L414.865 75.76L419.443 82.6169L439.282 93.664C429.516 131.383 426.624 165.653 432.796 195.374Z" fill="url(#paint6_linear)"/>
<path d="M444.538 151.886C444.874 166.653 444.756 180.754 443.046 194.059L427.671 192.274C429.304 184.034 429.792 174.618 429.971 164.626C430.039 160.855 430.062 157.005 430.086 153.102C430.127 146.42 430.169 139.584 430.434 132.729C430.7 125.867 431.545 119.309 432.452 112.526C432.498 112.178 432.545 111.829 432.592 111.479C433.431 105.209 434.299 98.7277 434.78 91.649C440.333 93.394 443.267 98.7535 443.302 105.187C443.357 115.252 443.692 125.13 444.019 134.765C444.216 140.564 444.41 146.275 444.538 151.886Z" fill="url(#paint7_linear)" stroke="white"/>
<path d="M356.7 191.486L366.142 137.939L366.146 137.914L366.148 137.888L369.377 92.8745L369.38 92.8375L369.377 92.8006C369.133 89.6125 369.868 87.1546 371.234 85.4752C372.553 83.8548 374.502 82.906 376.873 82.7487C387.947 96.0015 389.265 114.258 385.761 135.085L371.75 192.56L356.7 191.486Z" fill="url(#paint8_linear)" stroke="white"/>
<path d="M398.831 66.7736L396.862 61.1796C395.758 58.041 393.82 55.2612 391.255 53.1376C388.691 51.014 385.596 49.6265 382.303 49.1237L369.969 48.8414L373.393 43.3465C375.045 40.6966 377.407 38.5615 380.211 37.1832C383.016 35.8049 386.151 35.2384 389.261 35.548L401.588 36.7748C404.522 37.0669 407.222 38.5063 409.097 40.7787C410.973 43.0511 411.872 45.9721 411.598 48.904L410.467 61.0084C410.347 62.3023 409.896 63.5439 409.16 64.6153C408.423 65.6867 407.424 66.5524 406.259 67.13C405.093 67.7076 403.798 67.9781 402.498 67.9157C401.198 67.8533 399.936 67.4602 398.831 66.7736Z" fill="#2F2E41"/>
</g>
<defs>
<linearGradient id="paint0_linear" x1="82.0052" y1="20.2229" x2="82.0052" y2="28.1138" gradientUnits="userSpaceOnUse">
<stop stop-color="#E31266"/>
<stop offset="0.523958" stop-color="#F8493C"/>
<stop offset="1" stop-color="#F4943E"/>
</linearGradient>
<linearGradient id="paint1_linear" x1="42.0003" y1="80.8901" x2="42.0003" y2="88.781" gradientUnits="userSpaceOnUse">
<stop stop-color="#E31266"/>
<stop offset="0.523958" stop-color="#F8493C"/>
<stop offset="1" stop-color="#F4943E"/>
</linearGradient>
<linearGradient id="paint2_linear" x1="62.0032" y1="121.335" x2="62.0032" y2="129.226" gradientUnits="userSpaceOnUse">
<stop stop-color="#E31266"/>
<stop offset="0.523958" stop-color="#F8493C"/>
<stop offset="1" stop-color="#F4943E"/>
</linearGradient>
<linearGradient id="paint3_linear" x1="164.209" y1="74.5154" x2="164.209" y2="236.898" gradientUnits="userSpaceOnUse">
<stop stop-color="#E31266"/>
<stop offset="0.503125" stop-color="#F8493C"/>
<stop offset="1" stop-color="#F4943E"/>
</linearGradient>
<linearGradient id="paint4_linear" x1="321.028" y1="68.0847" x2="321.028" y2="73.1027" gradientUnits="userSpaceOnUse">
<stop stop-color="#E31266"/>
<stop offset="0.482292" stop-color="#F8493C"/>
<stop offset="1" stop-color="#F4943E"/>
</linearGradient>
<linearGradient id="paint5_linear" x1="32.3361" y1="216.228" x2="32.3361" y2="221.246" gradientUnits="userSpaceOnUse">
<stop stop-color="#E31266"/>
<stop offset="0.482292" stop-color="#F8493C"/>
<stop offset="1" stop-color="#F4943E"/>
</linearGradient>
<linearGradient id="paint6_linear" x1="403.61" y1="73.4744" x2="403.61" y2="195.374" gradientUnits="userSpaceOnUse">
<stop stop-color="#E31266"/>
<stop offset="0.477083" stop-color="#F8493C"/>
<stop offset="1" stop-color="#F4943E"/>
</linearGradient>
<linearGradient id="paint7_linear" x1="436.131" y1="90.9976" x2="436.131" y2="194.612" gradientUnits="userSpaceOnUse">
<stop stop-color="#E31266"/>
<stop offset="0.477083" stop-color="#F8493C"/>
<stop offset="1" stop-color="#F4943E"/>
</linearGradient>
<linearGradient id="paint8_linear" x1="372.047" y1="82.2358" x2="372.047" y2="193.088" gradientUnits="userSpaceOnUse">
<stop stop-color="#E31266"/>
<stop offset="0.477083" stop-color="#F8493C"/>
<stop offset="1" stop-color="#F4943E"/>
</linearGradient>
<clipPath id="clip0">
<rect width="454" height="340" fill="white"/>
</clipPath>
</defs>
</svg>
