<svg width="18" height="20" viewBox="0 0 18 20" fill="none" xmlns="http://www.w3.org/2000/svg">
<path d="M8.99935 9.45866C11.3926 9.45866 13.3327 7.51856 13.3327 5.12533C13.3327 2.73209 11.3926 0.791992 8.99935 0.791992C6.60611 0.791992 4.66602 2.73209 4.66602 5.12533C4.66602 7.51856 6.60611 9.45866 8.99935 9.45866Z" fill="white"/>
<path d="M17.6663 19.2087V14.8753C17.6663 14.2253 17.3413 13.5753 16.7997 13.142C15.608 12.167 14.0913 11.517 12.5747 11.0837C11.4913 10.7587 10.2997 10.542 8.99967 10.542C7.80801 10.542 6.61634 10.7587 5.42467 11.0837C3.90801 11.517 2.39134 12.2753 1.19967 13.142C0.658008 13.5753 0.333008 14.2253 0.333008 14.8753V19.2087H17.6663Z" fill="white"/>
</svg>
