<svg width="154" height="38" viewBox="0 0 154 38" fill="none" xmlns="http://www.w3.org/2000/svg">
<path d="M25.2656 20.0179C25.2264 15.3639 29.0928 13.1019 29.2626 12.9979C27.0682 9.8259 23.672 9.3839 22.4833 9.3449C19.6358 9.0459 16.8666 11.0479 15.4167 11.0479C13.9406 11.0479 11.6939 9.3839 9.29048 9.4229C6.19473 9.4749 3.28185 11.2559 1.70132 14.0379C-1.5773 19.6929 0.865335 28.0129 4.01334 32.5889C5.59387 34.8249 7.42258 37.3339 9.8391 37.2429C12.1903 37.1519 13.0785 35.7479 15.913 35.7479C18.7345 35.7479 19.5574 37.2429 22.0131 37.1909C24.5472 37.1519 26.1277 34.9419 27.656 32.6799C29.4716 30.1189 30.2031 27.5839 30.2293 27.4539C30.1639 27.4279 25.3179 25.5819 25.2656 20.0179Z" fill="white"/>
<path d="M20.6285 6.34194C21.8956 4.76894 22.7577 2.62394 22.5226 0.439941C20.6938 0.517941 18.3949 1.70094 17.0756 3.24794C15.9131 4.61294 14.8681 6.83594 15.1293 8.92894C17.1932 9.08494 19.3093 7.88894 20.6285 6.34194Z" fill="white"/>
<path d="M54.2756 29.4739H50.9839L49.1813 23.8319H42.9114L41.2002 29.4739H38L44.2046 10.2729H48.0449L54.2756 29.4739ZM48.6457 21.4659L47.0129 16.4609C46.8431 15.9409 46.5166 14.7449 46.0463 12.8469H45.981C45.7851 13.6659 45.4847 14.8749 45.0667 16.4609L43.46 21.4659H48.6457Z" fill="white"/>
<path d="M70.2246 22.3888C70.2246 24.7418 69.5845 26.6008 68.2914 27.9658C67.1419 29.1878 65.7051 29.7858 64.007 29.7858C62.1652 29.7858 60.8459 29.1358 60.0361 27.8228V35.0898H56.9403V20.1788C56.9403 18.6968 56.9011 17.1888 56.8228 15.6288H59.5397L59.7095 17.8258H59.7618C60.7937 16.1748 62.3611 15.3428 64.4511 15.3428C66.0969 15.3428 67.4554 15.9928 68.5526 17.2798C69.676 18.5798 70.2246 20.2698 70.2246 22.3888ZM67.0766 22.4928C67.0766 21.1408 66.7762 20.0358 66.1622 19.1648C65.4961 18.2548 64.5948 17.7998 63.4714 17.7998C62.7138 17.7998 62.0215 18.0598 61.3945 18.5538C60.7806 19.0608 60.3626 19.7108 60.1797 20.5298C60.0883 20.9068 60.0361 21.2188 60.0361 21.4658V23.7798C60.0361 24.7808 60.3495 25.6388 60.9635 26.3278C61.5774 27.0168 62.3873 27.3678 63.38 27.3678C64.5425 27.3678 65.4438 26.9128 66.0969 26.0288C66.75 25.1318 67.0766 23.9618 67.0766 22.4928Z" fill="white"/>
<path d="M86.2128 22.3888C86.2128 24.7418 85.5728 26.6008 84.2796 27.9658C83.1301 29.1878 81.6933 29.7858 79.9952 29.7858C78.1534 29.7858 76.8341 29.1358 76.0242 27.8228V35.0898H72.9285V20.1788C72.9285 18.6968 72.8893 17.1888 72.8109 15.6288H75.5279L75.6977 17.8258H75.7499C76.7818 16.1748 78.3493 15.3428 80.4393 15.3428C82.0851 15.3428 83.4436 15.9928 84.5408 17.2798C85.6642 18.5798 86.2128 20.2698 86.2128 22.3888ZM83.0648 22.4928C83.0648 21.1408 82.7644 20.0358 82.1504 19.1648C81.4843 18.2548 80.583 17.7998 79.4596 17.7998C78.702 17.7998 78.0097 18.0598 77.3827 18.5538C76.7688 19.0608 76.3639 19.7108 76.1679 20.5298C76.0765 20.9068 76.0242 21.2188 76.0242 21.4658V23.7798C76.0242 24.7808 76.3377 25.6388 76.9517 26.3278C77.5656 27.0168 78.3754 27.3678 79.3682 27.3678C80.5307 27.3678 81.4451 26.9128 82.0851 26.0288C82.7513 25.1318 83.0648 23.9618 83.0648 22.4928Z" fill="white"/>
<path d="M104.108 24.092C104.108 25.73 103.533 27.056 102.397 28.083C101.143 29.201 99.3926 29.76 97.1459 29.76C95.069 29.76 93.4101 29.357 92.1561 28.564L92.8746 26.003C94.233 26.796 95.7221 27.199 97.3418 27.199C98.5044 27.199 99.4187 26.939 100.059 26.419C100.712 25.899 101.038 25.197 101.038 24.326C101.038 23.546 100.764 22.896 100.242 22.363C99.7061 21.83 98.8179 21.336 97.577 20.881C94.1677 19.62 92.4827 17.787 92.4827 15.382C92.4827 13.809 93.0835 12.522 94.2722 11.508C95.4609 10.507 97.0414 10 99.0138 10C100.764 10 102.227 10.299 103.39 10.91L102.606 13.406C101.509 12.821 100.281 12.522 98.8962 12.522C97.8121 12.522 96.95 12.795 96.336 13.315C95.8266 13.796 95.5654 14.368 95.5654 15.057C95.5654 15.811 95.8658 16.448 96.4536 16.929C96.963 17.384 97.9035 17.878 99.262 18.411C100.921 19.074 102.136 19.854 102.919 20.751C103.716 21.648 104.108 22.766 104.108 24.092Z" fill="white"/>
<path d="M114.349 17.9431H110.94V24.6641C110.94 26.3671 111.54 27.2251 112.742 27.2251C113.291 27.2251 113.748 27.1731 114.114 27.0821L114.205 29.4221C113.591 29.6431 112.794 29.7601 111.802 29.7601C110.574 29.7601 109.633 29.3831 108.941 28.6421C108.249 27.9011 107.909 26.6531 107.909 24.9111V17.9301H105.885V15.6291H107.909V13.0941L110.94 12.1841V15.6291H114.349V17.9431Z" fill="white"/>
<path d="M129.684 22.441C129.684 24.573 129.07 26.315 127.855 27.68C126.575 29.084 124.877 29.786 122.761 29.786C120.723 29.786 119.09 29.11 117.876 27.771C116.661 26.432 116.06 24.729 116.06 22.675C116.06 20.53 116.687 18.775 117.928 17.41C119.182 16.045 120.867 15.356 122.983 15.356C125.021 15.356 126.666 16.032 127.907 17.384C129.096 18.684 129.684 20.374 129.684 22.441ZM126.484 22.506C126.484 21.232 126.209 20.153 125.661 19.243C125.008 18.138 124.08 17.592 122.878 17.592C121.638 17.592 120.684 18.138 120.044 19.243C119.482 20.153 119.221 21.258 119.221 22.571C119.221 23.845 119.495 24.937 120.044 25.834C120.71 26.939 121.651 27.485 122.852 27.485C124.028 27.485 124.955 26.926 125.635 25.808C126.196 24.872 126.484 23.78 126.484 22.506Z" fill="white"/>
<path d="M139.742 18.3328C139.441 18.2808 139.115 18.2548 138.762 18.2548C137.678 18.2548 136.829 18.6578 136.241 19.4768C135.732 20.1918 135.47 21.1148 135.47 22.2068V29.4738H132.375V19.9838C132.375 18.3848 132.349 16.9288 132.283 15.6288H134.974L135.092 18.2808H135.183C135.51 17.3708 136.019 16.6298 136.724 16.0838C137.417 15.5898 138.161 15.3428 138.958 15.3428C139.245 15.3428 139.507 15.3688 139.729 15.3948L139.742 18.3328Z" fill="white"/>
<path d="M153.562 21.8952C153.562 22.4412 153.522 22.9092 153.444 23.2862H144.17C144.209 24.6512 144.653 25.7042 145.515 26.4192C146.299 27.0562 147.305 27.3812 148.546 27.3812C149.917 27.3812 151.171 27.1602 152.295 26.7312L152.778 28.8632C151.459 29.4352 149.904 29.7212 148.115 29.7212C145.959 29.7212 144.261 29.0842 143.033 27.8232C141.806 26.5622 141.192 24.8592 141.192 22.7402C141.192 20.6602 141.766 18.9182 142.916 17.5272C144.118 16.0452 145.737 15.3042 147.775 15.3042C149.774 15.3042 151.302 16.0452 152.321 17.5272C153.144 18.7232 153.562 20.1662 153.562 21.8952ZM150.61 21.1022C150.636 20.1922 150.427 19.3992 150.009 18.7362C149.473 17.8782 148.65 17.4492 147.553 17.4492C146.547 17.4492 145.724 17.8652 145.097 18.6972C144.588 19.3602 144.274 20.1662 144.183 21.0892L150.61 21.1022Z" fill="white"/>
</svg>
