<svg width="56" height="64" viewBox="0 0 56 64" fill="none" xmlns="http://www.w3.org/2000/svg">
<path d="M5.36628 17.0205H12.1548C11.3716 20.714 11.0702 24.5481 11.0702 28.2484C11.0702 29.3483 11.9625 30.2405 13.0624 30.2405C14.1623 30.2405 15.0545 29.3483 15.0545 28.2484C15.0545 24.5623 15.3655 20.692 16.2245 17.0205H39.4225C40.2815 20.692 40.5924 24.5623 40.5924 28.2484C40.5924 29.3483 41.4847 30.2405 42.5846 30.2405C43.6844 30.2405 44.5767 29.3483 44.5767 28.2484C44.5767 24.5481 44.2754 20.714 43.4921 17.0205H50.5768C51.1127 17.0205 51.5499 17.4439 51.5719 17.9745L55.2552 62.865L55.256 62.8649C55.301 63.4132 54.893 63.8942 54.3448 63.9392C54.3169 63.9415 54.2893 63.9425 54.2618 63.9425H1.67236C1.12226 63.9425 0.67627 63.4965 0.67627 62.9464C0.67627 62.9044 0.678868 62.8632 0.683917 62.8226L4.36668 17.9388L5.3589 18.0167L4.36614 17.9352C4.40903 17.4118 4.84943 17.0162 5.3663 17.0206L5.36628 17.0205Z" fill="white"/>
<path d="M12.0637 28.2484C12.0637 28.7985 12.5097 29.2445 13.0598 29.2445C13.6099 29.2445 14.0559 28.7985 14.0559 28.2484C14.0559 15.6096 17.7045 7.5758 22.3747 4.10765C24.1011 2.82566 25.965 2.18462 27.8209 2.18462C29.6768 2.18462 31.5408 2.82566 33.2671 4.10769C37.9372 7.57573 41.5859 15.6094 41.5859 28.2483C41.5859 28.7984 42.0319 29.2444 42.582 29.2444C43.1321 29.2444 43.5781 28.7984 43.5781 28.2483C43.5781 14.9097 39.5745 6.31778 34.45 2.51232C32.3674 0.965726 30.0981 0.192383 27.8209 0.192383C25.5438 0.192383 23.2745 0.96568 21.1919 2.51227C16.0674 6.31783 12.0637 14.9098 12.0637 28.2482V28.2484Z" fill="white"/>
</svg>
