<svg width="491" height="289" viewBox="0 0 491 289" fill="none" xmlns="http://www.w3.org/2000/svg">
<g clip-path="url(#clip0)">
<path d="M-60.3484 287.579L-61.4124 287.34C-49.549 234.699 -19.7354 186.897 22.5364 152.738C54.4954 126.953 92.5056 109.708 132.988 102.626C173.471 95.5446 215.093 98.8597 253.937 112.259C292.781 125.659 327.568 148.702 355.023 179.219C382.478 209.736 401.697 246.723 410.871 286.697L409.808 286.938C384.695 176.92 288.057 100.081 174.802 100.081C63.0312 100.081 -35.8639 178.935 -60.3484 287.579Z" fill="#3F3D56"/>
<path d="M444.377 262.521L446.013 274.491L434.562 275.579L436.198 260.889L444.377 262.521Z" fill="#A0616A"/>
<path d="M390.393 98.207C390.393 98.207 391.484 112.897 391.484 113.441C391.484 113.985 383.85 151.527 383.85 151.527C383.85 151.527 372.944 172.202 383.85 171.658C394.755 171.114 391.484 152.071 391.484 152.071L402.935 120.514L398.027 98.207H390.393Z" fill="#A0616A"/>
<path d="M408.388 262.521L406.752 274.491L418.203 275.579L416.567 260.889L408.388 262.521Z" fill="#A0616A"/>
<path d="M395.846 150.439L393.12 154.248C393.12 154.248 391.484 170.57 393.12 176.011C394.756 181.452 398.027 206.48 398.027 208.112C398.027 209.744 398.573 210.832 398.027 211.377C397.482 211.921 395.846 211.921 396.937 213.009C398.027 214.097 398.027 217.361 398.027 217.361V220.082L405.116 260.344C405.116 260.344 400.754 265.241 404.026 265.241C407.297 265.241 419.294 265.241 418.749 259.8L417.658 259.256C417.658 259.256 416.022 223.346 416.567 221.714C417.113 220.082 416.567 216.817 416.567 216.817C416.567 216.817 415.477 215.185 416.567 214.641C417.658 214.097 417.658 209.744 417.658 209.744L422.566 176.555C422.566 176.555 426.928 198.863 429.654 201.039C432.381 203.215 431.836 208.656 431.836 208.656L434.017 256.536C434.017 256.536 431.836 261.976 434.017 263.065C436.198 264.153 445.468 267.961 446.013 262.52C446.559 257.08 449.285 209.744 449.285 207.568C449.285 205.392 448.74 204.303 449.285 202.671C449.83 201.039 448.74 201.039 449.285 201.039C449.83 201.039 448.194 199.407 448.194 198.319V171.658C448.194 171.658 448.74 166.218 449.285 165.129C449.83 164.041 448.74 162.953 449.285 161.321C449.83 159.689 448.194 154.248 448.194 154.248L423.656 147.719L395.846 150.439Z" fill="#2F2E41"/>
<path d="M414.932 272.314C414.932 272.314 417.658 269.594 413.841 269.594C411.39 269.644 408.977 270.199 406.752 271.226L404.026 281.02C404.026 281.02 392.847 289.997 405.389 288.909C417.931 287.821 416.022 288.637 416.022 288.637C416.022 288.637 419.839 287.549 420.385 286.46C420.93 285.372 419.294 269.594 419.294 269.594C419.294 269.594 417.658 273.946 414.932 272.314Z" fill="#2F2E41"/>
<path d="M438.379 272.314C438.379 272.314 435.653 269.594 439.47 269.594C441.92 269.644 444.334 270.199 446.559 271.226L449.285 281.02C449.285 281.02 460.464 289.997 447.922 288.909C435.38 287.821 435.653 288.637 435.653 288.637C435.653 288.637 431.836 287.549 431.29 286.46C430.745 285.372 434.017 269.594 434.017 269.594C434.017 269.594 435.653 273.946 438.379 272.314Z" fill="#2F2E41"/>
<path d="M31.8858 96.5381H27.0312V287.867H31.8858V96.5381Z" fill="#3F3D56"/>
<path d="M76.6878 120.92C76.9968 187.823 29.8223 242.277 29.8223 242.277C29.8223 242.277 -17.8533 188.26 -18.1623 121.357C-18.4713 54.4537 28.7032 0 28.7032 0C28.7032 0 76.3787 54.0175 76.6878 120.92Z" fill="url(#paint0_linear)"/>
<path d="M369.672 208.656H-6.03613V288.092H369.672V208.656Z" fill="#F2F2F2"/>
<path d="M-18.0325 217.362L22.8646 131.94H349.496L380.033 217.362H-18.0325Z" fill="#3F3D56"/>
<path d="M235.529 137.381H83.9375V187.437H235.529V137.381Z" fill="#F2F2F2"/>
<path d="M93.753 96.5752L69.76 146.631H249.707L235.53 96.5752H93.753Z" fill="#3F3D56"/>
<path d="M216.99 224.435H97.2974V288.092H216.99V224.435Z" fill="#CCCCCC"/>
<path d="M72.4865 226.611H8.68701V288.093H72.4865V226.611Z" fill="#CCCCCC"/>
<path d="M270.701 230.42H237.711V288.093H270.701V230.42Z" fill="#3F3D56"/>
<path d="M491 287.82H-129V288.908H491V287.82Z" fill="#3F3D56"/>
<path d="M1.86924 177.715C2.07318 221.864 -29.057 257.798 -29.057 257.798C-29.057 257.798 -60.5178 222.152 -60.7217 178.003C-60.9256 133.854 -29.7955 97.9209 -29.7955 97.9209C-29.7955 97.9209 1.66531 133.567 1.86924 177.715Z" fill="url(#paint1_linear)"/>
<path opacity="0.1" d="M1.86924 177.715C2.07318 221.864 -29.057 257.798 -29.057 257.798C-29.057 257.798 -60.5178 222.152 -60.7217 178.003C-60.9256 133.854 -29.7955 97.9209 -29.7955 97.9209C-29.7955 97.9209 1.66531 133.567 1.86924 177.715Z" fill="url(#paint2_linear)"/>
<path d="M322.504 233.684H306.418V248.646H322.504V233.684Z" fill="#3F3D56"/>
<path d="M344.043 233.684H327.957V248.646H344.043V233.684Z" fill="#3F3D56"/>
<path d="M322.504 254.087H306.418V269.593H322.504V254.087Z" fill="#3F3D56"/>
<path d="M344.043 254.087H327.957V269.593H344.043V254.087Z" fill="#3F3D56"/>
<path d="M110.432 151.078H97.8425V162.788H110.432V151.078Z" fill="#3F3D56"/>
<path d="M127.288 151.078H114.699V162.788H127.288V151.078Z" fill="#3F3D56"/>
<path d="M110.432 167.046H97.8425V179.181H110.432V167.046Z" fill="#3F3D56"/>
<path d="M127.288 167.046H114.699V179.181H127.288V167.046Z" fill="#3F3D56"/>
<path d="M204.768 151.078H192.178V162.788H204.768V151.078Z" fill="#3F3D56"/>
<path d="M221.624 151.078H209.035V162.788H221.624V151.078Z" fill="#3F3D56"/>
<path d="M204.768 167.046H192.178V179.181H204.768V167.046Z" fill="#3F3D56"/>
<path d="M221.624 167.046H209.035V179.181H221.624V167.046Z" fill="#3F3D56"/>
<path d="M157.872 151.078H145.283V162.788H157.872V151.078Z" fill="#3F3D56"/>
<path d="M174.729 151.078H162.14V162.788H174.729V151.078Z" fill="#3F3D56"/>
<path d="M157.872 167.046H145.283V179.181H157.872V167.046Z" fill="#3F3D56"/>
<path d="M174.729 167.046H162.14V179.181H174.729V167.046Z" fill="#3F3D56"/>
<path d="M252.999 236.263H245.072V243.635H252.999V236.263Z" fill="#F2F2F2"/>
<path d="M263.612 236.263H255.686V243.635H263.612V236.263Z" fill="#F2F2F2"/>
<path d="M252.999 246.316H245.072V253.957H252.999V246.316Z" fill="#F2F2F2"/>
<path d="M263.612 246.316H255.686V253.957H263.612V246.316Z" fill="#F2F2F2"/>
<path d="M266.339 265.513C267.543 265.513 268.52 264.538 268.52 263.336C268.52 262.135 267.543 261.16 266.339 261.16C265.134 261.16 264.157 262.135 264.157 263.336C264.157 264.538 265.134 265.513 266.339 265.513Z" fill="#F2F2F2"/>
<path d="M217.262 231.235H97.2974V232.324H217.262V231.235Z" fill="#F2F2F2"/>
<path d="M217.262 236.133H97.2974V237.221H217.262V236.133Z" fill="#F2F2F2"/>
<path d="M217.262 241.029H97.2974V242.117H217.262V241.029Z" fill="#F2F2F2"/>
<path d="M217.262 245.926H97.2974V247.014H217.262V245.926Z" fill="#F2F2F2"/>
<path d="M217.262 250.822H97.2974V251.91H217.262V250.822Z" fill="#F2F2F2"/>
<path d="M217.262 255.72H97.2974V256.808H217.262V255.72Z" fill="#F2F2F2"/>
<path d="M217.262 260.616H97.2974V261.704H217.262V260.616Z" fill="#F2F2F2"/>
<path d="M217.262 265.513H97.2974V266.601H217.262V265.513Z" fill="#F2F2F2"/>
<path d="M217.262 270.41H97.2974V271.498H217.262V270.41Z" fill="#F2F2F2"/>
<path d="M217.262 275.307H97.2974V276.395H217.262V275.307Z" fill="#F2F2F2"/>
<path d="M217.262 280.203H97.2974V281.291H217.262V280.203Z" fill="#F2F2F2"/>
<path d="M72.4865 231.235H8.68701V232.324H72.4865V231.235Z" fill="#F2F2F2"/>
<path d="M72.4865 236.133H8.68701V237.221H72.4865V236.133Z" fill="#F2F2F2"/>
<path d="M72.4865 241.029H8.68701V242.117H72.4865V241.029Z" fill="#F2F2F2"/>
<path d="M72.4865 245.926H8.68701V247.014H72.4865V245.926Z" fill="#F2F2F2"/>
<path d="M72.4865 250.822H8.68701V251.91H72.4865V250.822Z" fill="#F2F2F2"/>
<path d="M72.4865 255.72H8.68701V256.808H72.4865V255.72Z" fill="#F2F2F2"/>
<path d="M72.4865 260.616H8.68701V261.704H72.4865V260.616Z" fill="#F2F2F2"/>
<path d="M72.4865 265.513H8.68701V266.601H72.4865V265.513Z" fill="#F2F2F2"/>
<path d="M72.4865 270.41H8.68701V271.498H72.4865V270.41Z" fill="#F2F2F2"/>
<path d="M72.4865 275.307H8.68701V276.395H72.4865V275.307Z" fill="#F2F2F2"/>
<path d="M72.4865 280.203H8.68701V281.291H72.4865V280.203Z" fill="#F2F2F2"/>
<path d="M349.223 175.739C373.617 175.739 393.392 156.008 393.392 131.668C393.392 107.329 373.617 87.5977 349.223 87.5977C324.83 87.5977 305.054 107.329 305.054 131.668C305.054 156.008 324.83 175.739 349.223 175.739Z" fill="url(#paint3_linear)"/>
<path d="M377.033 127.316H353.586V103.92H344.861V127.316H321.413V136.021H344.861V159.416H353.586V136.021H377.033V127.316Z" fill="white"/>
<path d="M402.935 55.225C410.765 55.225 417.113 48.8915 417.113 41.0788C417.113 33.2661 410.765 26.9326 402.935 26.9326C395.105 26.9326 388.757 33.2661 388.757 41.0788C388.757 48.8915 395.105 55.225 402.935 55.225Z" fill="#A0616A"/>
<path d="M398.027 51.4164C398.027 51.4164 400.209 62.2981 400.209 63.9303C400.209 65.5626 409.479 70.4594 409.479 70.4594L419.839 57.4013C419.839 57.4013 413.296 48.1519 413.296 45.9756L398.027 51.4164Z" fill="#A0616A"/>
<path d="M406.207 65.5618C406.207 65.5618 401.454 64.2996 400.014 62.2103C400.014 62.2103 384.94 76.9876 384.94 79.708L396.937 100.927C396.937 100.927 396.937 108.544 398.027 109.088C399.118 109.633 398.027 109.088 398.027 111.265C398.027 113.441 394.756 127.587 395.846 129.764C396.937 131.94 398.027 130.308 396.937 133.572C395.846 136.837 393.12 154.247 393.12 154.247C393.12 154.247 402.935 150.983 417.113 156.424C431.29 161.865 448.195 154.247 448.195 154.247C448.195 154.247 443.832 144.454 444.923 141.189C446.013 137.925 442.196 131.94 442.196 131.94L439.47 81.8843C439.47 81.8843 443.287 59.5769 440.56 58.4887L435.108 56.3124L417.645 54.1709C417.645 54.1709 413.296 65.0177 406.207 65.5618Z" fill="#D0CDE1"/>
<path d="M390.393 75.8994L384.94 79.708C384.94 79.708 382.214 87.8693 384.94 91.6778C387.667 95.4864 388.757 100.927 388.757 100.927L399.663 99.8391L390.393 75.8994Z" fill="#D0CDE1"/>
<path d="M430.745 80.7969C430.745 80.7969 427.587 88.8987 428.247 96.9146C428.368 98.3498 428.852 99.7309 429.654 100.928L390.969 119.253C390.969 119.253 373.489 121.059 377.851 128.676C382.214 136.293 398.027 124.868 398.027 124.868C398.027 124.868 439.47 118.883 442.741 112.898C446.013 106.913 448.194 81.885 448.194 81.885L430.745 80.7969Z" fill="#A0616A"/>
<path d="M392.11 26.1287L389.651 25.1463C389.651 25.1463 394.793 19.4977 401.947 19.9889L399.935 17.7785C399.935 17.7785 404.854 15.8138 409.325 20.9712C411.676 23.6824 414.395 26.8692 416.091 30.4591H418.724L417.625 32.8741L421.472 35.289L417.524 34.8552C417.898 36.9402 417.77 39.084 417.15 41.1098L417.256 43.0186C417.256 43.0186 412.679 35.9523 412.679 34.97V37.4259C412.679 37.4259 410.219 35.2156 410.219 33.742L408.878 35.4612L408.207 32.7596L399.935 35.4612L401.277 33.2509L396.135 33.9876L398.147 31.2861C398.147 31.2861 392.334 34.4788 392.11 37.1803C391.887 39.8819 388.98 43.3201 388.98 43.3201L387.639 40.8642C387.639 40.8642 385.627 29.8126 392.11 26.1287Z" fill="#2F2E41"/>
<path d="M432.381 58.4893H440.56C440.56 58.4893 446.558 59.5774 448.194 70.4591C449.83 81.3408 451.466 84.0612 449.83 84.0612C448.194 84.0612 428.563 83.5171 428.563 82.973C428.563 82.4289 432.381 58.4893 432.381 58.4893Z" fill="#D0CDE1"/>
</g>
<defs>
<linearGradient id="paint0_linear" x1="29.2627" y1="0" x2="29.2627" y2="242.277" gradientUnits="userSpaceOnUse">
<stop stop-color="#E31266"/>
<stop offset="0.482292" stop-color="#F8493C"/>
<stop offset="1" stop-color="#F4943E"/>
</linearGradient>
<linearGradient id="paint1_linear" x1="-29.4262" y1="97.9209" x2="-29.4262" y2="257.798" gradientUnits="userSpaceOnUse">
<stop stop-color="#E31266"/>
<stop offset="0.492708" stop-color="#F8493C"/>
<stop offset="1" stop-color="#F4943E"/>
</linearGradient>
<linearGradient id="paint2_linear" x1="-29.4262" y1="97.9209" x2="-29.4262" y2="257.798" gradientUnits="userSpaceOnUse">
<stop stop-color="#E31266"/>
<stop offset="0.430208" stop-color="#F8493C"/>
<stop offset="1" stop-color="#F4943E"/>
</linearGradient>
<linearGradient id="paint3_linear" x1="349.223" y1="87.5977" x2="349.223" y2="175.739" gradientUnits="userSpaceOnUse">
<stop stop-color="#E31266"/>
<stop offset="0.482292" stop-color="#F8493C"/>
<stop offset="1" stop-color="#F4943E"/>
</linearGradient>
<clipPath id="clip0">
<rect width="620" height="289" fill="white" transform="translate(-129)"/>
</clipPath>
</defs>
</svg>
