<svg width="25" height="25" viewBox="0 0 25 25" fill="none" xmlns="http://www.w3.org/2000/svg">
<path d="M9.12363 16.4745L8.55601 16.5011L9.12197 16.4451C9.11697 16.3241 9.11089 16.2009 9.09864 16.0711C9.04868 15.5462 8.63144 14.2683 7.6876 12.9C5.92979 10.351 5.78496 7.71428 7.31803 6.1812C7.94669 5.5509 8.82837 5.29617 9.73838 5.47984C10.9153 5.71954 11.9678 6.67669 12.6431 7.4374C12.8012 7.61387 13.0504 7.67598 13.2701 7.59107C13.4903 7.50729 13.6363 7.29587 13.6363 7.06006V2.27274C13.6364 1.01932 12.6171 0 11.3636 0H2.27274C1.01926 0 0 1.01932 0 2.27274V18.1818C0 19.4353 1.01926 20.4545 2.27274 20.4545H9.58364C9.78893 20.4545 9.97813 20.3436 10.0791 20.1648C10.1795 19.9856 10.1757 19.7665 10.0691 19.5906C9.26958 18.2778 9.16581 17.3678 9.12363 16.4745ZM3.40909 8.52271C3.40909 8.83678 3.15495 9.09091 2.84089 9.09091C2.52683 9.09091 2.27269 8.83678 2.27269 8.52271V2.84094C2.27269 2.52688 2.52683 2.27274 2.84089 2.27274C3.15495 2.27274 3.40909 2.52688 3.40909 2.84094V8.52271ZM5.68183 13.0682C5.68183 13.3823 5.42769 13.6364 5.11363 13.6364C4.79957 13.6364 4.54543 13.3823 4.54543 13.0682V2.84094C4.54543 2.52688 4.79957 2.27274 5.11363 2.27274C5.42769 2.27274 5.68183 2.52688 5.68183 2.84094V13.0682Z" fill="white"/>
<path d="M24.8797 19.5367C24.863 19.5156 23.2312 17.4166 22.7008 15.7387C22.5748 15.3392 22.4178 14.7765 22.2375 14.1324C21.3746 11.0473 20.5901 8.4234 19.7201 7.55339C19.5225 7.35587 18.9211 6.75438 15.4498 6.07576C15.2845 6.04359 15.1113 6.08743 14.9798 6.19508C14.8489 6.30273 14.7729 6.46365 14.7729 6.63341V10.5685C14.7729 10.801 14.9144 11.0096 15.1297 11.0962L15.4371 11.2188C15.5253 11.5278 15.6745 12.0272 15.8244 12.4168C15.7556 12.5389 15.6962 12.6742 15.6329 12.8185C15.5297 13.0538 15.4171 13.3107 15.2595 13.5104C14.4156 12.909 13.55 11.3098 13.0273 10.0153C12.6073 8.97609 10.9543 6.88814 9.51171 6.59458C8.96796 6.48139 8.48744 6.61845 8.12123 6.98519C6.75291 8.35351 7.53641 10.6789 8.62338 12.2547C9.49339 13.5159 10.1387 15.0063 10.2303 15.9634C10.2452 16.1227 10.2519 16.2736 10.2592 16.4223C10.2975 17.243 10.3368 18.0913 11.4726 19.6528C12.0824 20.4917 12.8781 20.9745 13.7209 21.4849C14.8789 22.1874 16.0769 22.9137 17.1222 24.7176C17.2238 24.8924 17.4113 25.0006 17.6138 25.0006C23.0204 25.0006 24.9436 20.1395 24.9624 20.09C25.034 19.9041 25.0023 19.6938 24.8797 19.5367Z" fill="white"/>
</svg>
