<svg width="209" height="207" viewBox="0 0 209 207" fill="none" xmlns="http://www.w3.org/2000/svg">
<path d="M198.57 0.442383C192.81 0.442383 188.14 5.11223 188.14 10.8724V185.697H13.3152C7.5551 185.697 2.88525 190.367 2.88525 196.127C2.88525 201.887 7.5551 206.557 13.3152 206.557H198.57C204.33 206.557 209 201.887 209 196.127V10.8724C209 5.11223 204.33 0.442383 198.57 0.442383Z" fill="white"/>
<path d="M132.584 76.6511C131.59 76.2213 130.645 75.7276 129.739 75.1874V164.07C129.739 167.719 132.697 170.676 136.345 170.676H165.549C169.197 170.676 172.154 167.719 172.154 164.07V46.4375L164.578 63.9668C159.246 76.3027 144.923 81.9835 132.584 76.6511Z" fill="white"/>
<path d="M76.6923 170.677H105.896C109.545 170.677 112.502 167.72 112.502 164.072V71.7969L70.0867 88.6121V164.072C70.0867 167.72 73.0439 170.677 76.6923 170.677Z" fill="white"/>
<path d="M10.4324 110.424V164.071C10.4324 167.719 13.3896 170.676 17.038 170.676H46.242C49.8904 170.676 52.8476 167.719 52.8476 164.071V95.4448L19.4008 108.704C16.4574 109.872 13.423 110.424 10.4386 110.424C10.4365 110.424 10.4345 110.424 10.4324 110.424Z" fill="white"/>
<path d="M14.2764 95.7767L117.907 54.6937L133.359 48.5679L132.665 50.1734C130.379 55.4607 132.813 61.6005 138.1 63.8853C143.385 66.1709 149.527 63.7379 151.812 58.4499L162.571 33.557C164.857 28.2697 162.423 22.13 157.136 19.8451L132.244 9.08623C126.954 6.7972 120.817 9.23503 118.532 14.5216C116.246 19.8089 118.68 25.9487 123.967 28.2336L125.919 29.077L110.311 35.2641L6.58881 76.3846C1.23406 78.5074 -1.38595 84.5694 0.7369 89.9248C2.85766 95.274 8.9147 97.9009 14.2764 95.7767Z" fill="white"/>
</svg>
