<svg width="186" height="186" viewBox="0 0 186 186" fill="none" xmlns="http://www.w3.org/2000/svg">
<path fill-rule="evenodd" clip-rule="evenodd" d="M93 0.5C144.088 0.5 185.5 41.9124 185.5 93C185.5 144.088 144.088 185.5 93 185.5C41.9124 185.5 0.5 144.088 0.5 93C0.5 41.9124 41.9124 0.5 93 0.5ZM82.4296 127.933L136.542 73.8201C140.159 70.2126 140.159 64.3574 136.542 60.7406C132.925 57.1331 127.079 57.1331 123.463 60.7406L82.4296 101.774L62.5421 81.8861C58.9253 78.2694 53.0793 78.2694 49.4626 81.8861C45.8458 85.5029 45.8458 91.3489 49.4626 94.9656L82.4296 127.933Z" fill="white"/>
</svg>
