<svg width="63" height="79" viewBox="0 0 63 79" fill="none" xmlns="http://www.w3.org/2000/svg">
<path d="M32 25C38.9036 25 44.5 19.4036 44.5 12.5C44.5 5.59644 38.9036 0 32 0C25.0964 0 19.5 5.59644 19.5 12.5C19.5 19.4036 25.0964 25 32 25Z" fill="white"/>
<path d="M41.0002 54.5C41.0002 54.6 41.0002 54.7 41.0002 54.8C37.5002 55.1 34.9002 58 35.0002 61.5C35.0002 62.5 35.3002 63.5 35.8002 64.3C34.7002 64.7 33.3002 64.9 31.8002 64.9C30.2002 64.9 28.9002 64.7 27.9002 64.3C29.4002 62.1 29.4002 59.1 27.8002 56.8C26.6002 55.2 24.9002 54.2 23.0002 54V52H41.0002V54.5ZM60.2002 36.2L43.0002 27.2C42.6002 27.1 42.2002 27 41.8002 27H23.0002C22.5002 27 22.1002 27.1 21.6002 27.2L3.60024 37.2C1.50024 38 0.500236 40.3 1.20024 42.3C1.80024 44 3.40024 45 5.00024 45C5.50024 45 5.90024 44.9 6.40024 44.8L19.0002 38.2C19.0002 38.2 19.0002 54.7 19.0002 55C18.8002 55.1 10.8002 60.7 10.8002 60.7C9.10023 61.9 8.60024 64.3 9.70024 66.1L16.7002 77.1C17.9002 79 20.4002 79.5 22.2002 78.3C24.0002 77.1 24.6002 74.6 23.4002 72.8L20.0002 67.3H22.2002C22.9002 67.3 23.6002 67.2 24.3002 67C26.1002 68.2 28.5002 68.9 31.7002 68.9C34.7002 68.9 37.1002 68.2 39.0002 67.2C39.8002 67.6 40.8002 67.7 41.8002 67.7L43.6002 67.6L40.0002 72.6C38.7002 74.4 39.1002 76.9 40.9002 78.2C42.7002 79.5 45.2002 79.1 46.5002 77.3L54.5002 66.3C54.6002 66.2 54.7002 66.1 54.7002 65.9C55.8002 64 55.1002 61.5 53.2002 60.4L45.0002 55.8C45.0002 55.4 45.0002 37.8 45.0002 37.8L57.8002 43.9C58.2002 44 58.6002 44.1 59.0002 44.1C60.7002 44.1 62.3002 43 62.8002 41.3C63.5002 39.1 62.3002 36.9 60.2002 36.2Z" fill="white"/>
</svg>
