<svg width="24" height="22" viewBox="0 0 24 22" fill="none" xmlns="http://www.w3.org/2000/svg">
<path d="M6.97295 12.7055C7.64741 12.7055 8.29934 12.6619 8.91625 12.5808V5.81894C8.2994 5.7379 7.64741 5.69434 6.97295 5.69434C3.1219 5.69434 0 7.11025 0 8.85695V9.54282C0 11.2895 3.1219 12.7055 6.97295 12.7055Z" fill="white"/>
<path d="M6.97295 16.2365C7.64741 16.2365 8.29934 16.1929 8.91625 16.1119V14.1299C8.29922 14.2109 7.64759 14.2551 6.97295 14.2551C3.6114 14.2551 0.805695 13.1762 0.146653 11.7402C0.0506772 11.9494 0 12.166 0 12.388V13.0739C0 14.8205 3.1219 16.2365 6.97295 16.2365Z" fill="white"/>
<path d="M8.91625 17.8152V17.6611C8.29922 17.7422 7.64759 17.7863 6.97295 17.7863C3.61141 17.7863 0.805695 16.7074 0.146653 15.2715C0.0506772 15.4806 0 15.6972 0 15.9192V16.605C0 18.3518 3.1219 19.7677 6.97295 19.7677C7.74309 19.7677 8.48382 19.7109 9.17651 19.6064C9.00482 19.2551 8.91625 18.8847 8.91625 18.501V17.8152Z" fill="white"/>
<path d="M17.0272 0.337891C13.1761 0.337891 10.0542 1.75381 10.0542 3.5005V4.18638C10.0542 5.93307 13.1761 7.34898 17.0272 7.34898C20.8781 7.34898 24.0001 5.93307 24.0001 4.18638V3.5005C24.0001 1.75381 20.8781 0.337891 17.0272 0.337891Z" fill="white"/>
<path d="M17.0272 8.89865C13.6656 8.89865 10.8599 7.81978 10.2009 6.38379C10.1049 6.59289 10.0542 6.80947 10.0542 7.03154V7.71741C10.0542 9.46411 13.1761 10.88 17.0272 10.88C20.8781 10.88 24.0001 9.46411 24.0001 7.71741V7.03154C24.0001 6.80947 23.9494 6.59289 23.8534 6.38379C23.1944 7.81978 20.3887 8.89865 17.0272 8.89865Z" fill="white"/>
<path d="M17.0272 12.4299C13.6656 12.4299 10.8599 11.351 10.2009 9.91504C10.1049 10.1241 10.0542 10.3407 10.0542 10.5628V11.2487C10.0542 12.9954 13.1761 14.4113 17.0272 14.4113C20.8781 14.4113 24.0001 12.9954 24.0001 11.2487V10.5628C24.0001 10.3407 23.9494 10.1241 23.8534 9.91504C23.1944 11.351 20.3887 12.4299 17.0272 12.4299Z" fill="white"/>
<path d="M17.0272 16.1516C13.6656 16.1516 10.8599 15.0727 10.2009 13.6367C10.1049 13.8459 10.0542 14.0624 10.0542 14.2844V14.9703C10.0542 16.717 13.1761 18.133 17.0272 18.133C20.8781 18.133 24.0001 16.717 24.0001 14.9703V14.2844C24.0001 14.0624 23.9494 13.8458 23.8534 13.6367C23.1944 15.0726 20.3887 16.1516 17.0272 16.1516Z" fill="white"/>
<path d="M17.0272 19.6809C13.6656 19.6809 10.8599 18.602 10.2009 17.1661C10.1049 17.3752 10.0542 17.5919 10.0542 17.8138V18.4996C10.0542 20.2463 13.1761 21.6623 17.0272 21.6623C20.8781 21.6623 24.0001 20.2463 24.0001 18.4996V17.8137C24.0001 17.5917 23.9494 17.3751 23.8534 17.166C23.1944 18.602 20.3887 19.6809 17.0272 19.6809Z" fill="white"/>
</svg>
