<svg width="376" height="362" viewBox="0 0 376 362" fill="none" xmlns="http://www.w3.org/2000/svg">
<path d="M131.097 352.919L380.352 178.303C387.062 173.603 388.691 164.353 383.99 157.644L282.064 12.1487C277.363 5.43915 268.114 3.81041 261.404 8.51077L12.1489 183.127C5.43939 187.827 3.81065 197.077 8.511 203.786L110.438 349.281C115.138 355.991 124.387 357.619 131.097 352.919Z" fill="#F2F2F2"/>
<path opacity="0.3" d="M98.1329 331.717L371.686 140.079L349.879 108.951L76.326 300.588L98.1329 331.717Z" fill="url(#paint0_linear)"/>
<path d="M86.0727 259.306L307.745 104.013L297.173 88.9214L75.5003 244.214L86.0727 259.306Z" fill="url(#paint1_linear)"/>
<path opacity="0.3" d="M237.146 42.3748C225.163 50.7695 222.254 67.289 230.649 79.272C239.044 91.255 255.563 94.1639 267.546 85.7692C279.529 77.3745 282.438 60.8551 274.043 48.8721C265.649 36.8891 249.129 33.9801 237.146 42.3748Z" fill="url(#paint2_linear)"/>
<defs>
<linearGradient id="paint0_linear" x1="234.909" y1="235.898" x2="213.102" y2="204.77" gradientUnits="userSpaceOnUse">
<stop stop-color="#E31266"/>
<stop offset="0.513542" stop-color="#F8493C"/>
<stop offset="1" stop-color="#F4943E"/>
</linearGradient>
<linearGradient id="paint1_linear" x1="196.909" y1="181.659" x2="186.337" y2="166.568" gradientUnits="userSpaceOnUse">
<stop stop-color="#E31266"/>
<stop offset="0.534375" stop-color="#F8493C"/>
<stop offset="1" stop-color="#F4943E"/>
</linearGradient>
<linearGradient id="paint2_linear" x1="267.546" y1="85.7692" x2="237.146" y2="42.3748" gradientUnits="userSpaceOnUse">
<stop stop-color="#E31266"/>
<stop offset="0.503125" stop-color="#F8493C"/>
<stop offset="1" stop-color="#F4943E"/>
</linearGradient>
</defs>
</svg>
