<svg width="354" height="272" viewBox="0 0 354 272" fill="none" xmlns="http://www.w3.org/2000/svg">
<g clip-path="url(#clip0)">
<path opacity="0.1" d="M30.7399 125.716C25.8414 127.321 21.2694 131.205 20.035 136.593C18.634 142.783 21.8605 149.038 22.321 155.386C23.8264 176.219 -3.52038 190.917 0.378841 211.39C1.93004 219.516 8.19362 225.506 14.369 230.435C24.2542 238.332 35.2204 245.304 47.3524 247.276C65.7839 250.266 85.0449 241.469 102.964 247.03C117.414 251.514 128.472 264.66 142.825 269.511C153.752 273.205 165.518 271.748 176.879 270.254C182.989 269.452 189.41 268.522 194.351 264.543C203.55 257.134 204.105 242.507 210.258 232.024C219.751 215.841 240.567 212.681 258.022 215.825C275.477 218.969 292.416 226.721 310.099 226.066C313.878 225.932 317.754 225.372 321.046 223.364C325.053 220.921 327.764 216.621 330.157 212.363C345.075 185.834 353.386 154.976 353.977 123.911C354.078 118.544 353.905 112.943 351.577 108.191C348.638 102.194 342.76 98.6143 336.881 96.1973C322.813 90.4265 307.271 89.4931 293.48 82.9428C280.179 76.6316 269.402 65.5584 257.822 56.0867C234.855 37.2711 207.857 24.2491 179.603 18.3375C172.951 16.9456 166.047 15.9499 159.437 17.558C151.822 19.4118 145.258 24.557 139.357 30.092C123.652 44.8301 111.069 63.0005 96.6022 79.1469C86.6905 90.2017 75.8175 100.35 64.1119 109.471C58.7464 113.654 53.0641 118.619 47.0977 121.711C41.6407 124.537 36.5104 123.826 30.7399 125.716Z" fill="#F4943E"/>
<path d="M331.32 136.327C324.135 134.821 310.534 131.994 295.139 128.863C272.348 124.229 266.401 141.771 266.401 141.771C266.401 150.705 236.684 187.767 236.684 187.767L227.821 167.854C229.183 168.065 230.575 167.971 231.896 167.579C236.971 166.059 239.479 160.318 240.292 155.074C241.506 147.177 240.397 139.096 237.102 131.821C235.59 128.5 233.63 125.375 232.415 121.936C227.292 107.506 236.168 90.803 230.799 76.4284C228.582 70.4971 224.16 65.686 221.103 60.1445C214.245 47.6826 214.539 32.0929 207.061 19.988C200.046 8.63967 186.222 1.91254 172.98 3.41256C165.172 4.29684 159.591 7.09381 152.315 3.74007C146.172 0.916902 138.798 -2.24033 132.472 2.20731C127.078 5.99991 126.16 13.4705 123.214 19.3756C118.041 29.7479 105.769 36.5176 104.326 48.0232C103.97 50.8594 104.326 53.8005 103.499 56.5385C101.142 64.2777 90.8742 66.5637 86.668 73.471C82.55 80.2309 86.7105 90.4526 94.3718 92.4013C97.6375 93.2332 101.151 92.7288 104.414 93.6098C107.474 94.4286 110.442 97.2976 109.913 100.294L103.127 101.532L83.6016 103.707L80.5808 103.897C80.5808 103.897 80.5808 103.949 80.5808 104.044L80.4175 104.064L80.5775 104.195C80.5775 104.428 80.5775 104.791 80.5775 105.269C75.0814 107.428 66.1759 113.189 62.8122 128.3C62.0416 131.749 60.4845 134.972 58.2631 137.716C53.2568 143.906 44.9489 155.995 45.4127 167.598C46.0658 184.144 46.0658 190.763 67.874 186.129C73.3832 184.96 79.3758 182.562 85.2573 179.634C85.6002 186.532 86.4917 193.295 88.3531 198.372C94.2999 214.587 81.7466 271.836 81.7466 271.836H202.979C202.979 271.836 192.737 238.083 182.829 220.875C175.811 208.685 178.404 201.313 180.514 198.047C182.343 195.272 183.71 192.217 184.56 189.001C184.919 187.59 185.269 185.988 185.569 184.213C187.8 186.044 190.18 187.688 192.875 188.671C195.37 189.578 198.207 189.827 200.732 189.126C205.898 195.46 211.669 202.407 217.844 209.625C241.628 237.421 248.234 220.213 248.234 220.213C248.234 220.213 272.348 174.217 275.666 160.318C278.984 146.418 286.237 147.08 286.237 147.08C306.119 152.12 323.74 144.803 331.927 140.402C332.325 140.19 332.648 139.859 332.851 139.456C333.054 139.053 333.127 138.596 333.06 138.149C332.994 137.702 332.791 137.287 332.479 136.961C332.167 136.635 331.762 136.413 331.32 136.327ZM86.028 144.643C87.6867 142.747 89.112 140.658 90.2733 138.42H90.3354C89.7333 140.734 88.9572 142.998 88.0135 145.193C86.1618 145.55 85.045 145.737 85.045 145.737L86.028 144.643Z" fill="url(#paint0_linear)"/>
<path d="M131.607 5.15157C126.274 8.90488 125.366 16.287 122.463 22.143C117.349 32.4072 105.217 39.1115 103.79 50.4958C103.437 53.3026 103.79 56.2142 102.974 58.9195C100.645 66.58 90.4922 68.8431 86.3187 75.6783C82.2464 82.3662 86.3611 92.4831 93.9342 94.4121C97.1705 95.2374 100.635 94.7396 103.862 95.6075C107.088 96.4754 110.214 99.6458 109.146 102.813C108.352 105.171 105.554 106.514 105.044 108.95C104.6 111.047 106.024 113.044 107.402 114.675C109.152 116.739 111.02 118.769 113.362 120.122C119.802 123.842 127.835 121.609 135.261 121.363C144.246 121.096 153.053 123.904 160.234 129.325C162.288 130.887 164.221 132.692 165.495 134.942C169.646 142.272 165.72 151.472 166.602 159.853C167.601 169.377 174.695 177.021 181.856 183.352C184.717 185.88 187.734 188.372 191.327 189.679C194.919 190.986 199.213 190.914 202.234 188.582C205.408 186.132 206.512 181.793 206.532 177.774C206.551 173.756 205.709 169.757 205.911 165.745C206.009 163.779 206.724 161.444 208.635 161.058C209.592 160.865 210.562 161.254 211.433 161.693C217.527 164.765 223.373 170.782 229.904 168.83C234.923 167.326 237.415 161.644 238.205 156.453C239.403 148.64 238.307 140.647 235.051 133.448C233.555 130.173 231.619 127.072 230.417 123.666C225.368 109.357 234.136 92.8204 228.833 78.603C226.642 72.734 222.269 67.9719 219.248 62.4861C212.456 50.1519 212.759 34.7228 205.363 22.7423C198.429 11.5086 184.759 4.85354 171.671 6.33717C163.95 7.21163 158.435 9.9824 151.24 6.66469C145.166 3.87755 137.877 0.736692 131.607 5.15157Z" fill="#40243E"/>
<path d="M183.368 108.897C183.368 108.897 204.595 102.347 213.086 140.339L234.639 188.811C234.639 188.811 264.03 152.129 264.03 143.286C264.03 143.286 269.909 125.928 292.442 130.513C307.663 133.612 321.095 136.409 328.211 137.899C328.644 137.989 329.038 138.211 329.341 138.533C329.644 138.856 329.841 139.264 329.905 139.703C329.968 140.142 329.896 140.589 329.698 140.985C329.499 141.382 329.184 141.707 328.795 141.917C320.703 146.273 303.281 153.515 283.624 148.527C283.624 148.527 276.44 147.872 273.174 161.627C269.909 175.383 246.069 220.907 246.069 220.907C246.069 220.907 239.538 237.938 216.025 210.427C192.512 182.916 174.877 159.335 174.877 159.335L183.368 108.897Z" fill="#FFBCC8"/>
<path d="M183.368 113.483L180.553 122.781L177.771 131.978L172.265 150.165L146.139 155.077L137.626 149.631L127.198 142.959L118.208 136.737L104.992 127.566L94.2148 104.968C94.2148 104.968 97.1866 104.441 106.451 102.751L119.361 100.383C128.276 98.7451 131.646 92.0901 132.675 85.3171C133.906 77.2078 131.77 68.9414 131.77 68.9414H164.754C164.754 68.9414 168.444 74.5091 167.866 84.1249C167.684 86.9704 167.188 89.7868 166.386 92.5224C163.487 102.59 170.034 105.95 174.476 107.041C175.677 107.347 176.905 107.53 178.143 107.588L183.368 113.483Z" fill="#FFBCC8"/>
<path opacity="0.1" d="M167.856 84.1252C162.802 87.8756 156.731 89.9983 150.447 90.2124C144.163 90.4264 137.962 88.7217 132.665 85.3239C133.896 77.2147 131.761 68.9482 131.761 68.9482H164.744C164.744 68.9482 168.444 74.493 167.856 84.1252Z" fill="black"/>
<path d="M149.405 89.2471C166.539 89.2471 180.429 75.317 180.429 58.1333C180.429 40.9496 166.539 27.0195 149.405 27.0195C132.271 27.0195 118.381 40.9496 118.381 58.1333C118.381 75.317 132.271 89.2471 149.405 89.2471Z" fill="#FFBCC8"/>
<path opacity="0.1" d="M183.368 113.483L180.553 122.781L177.771 131.977L172.265 150.164L146.139 155.077L137.626 149.63L127.198 142.959L118.208 136.736L104.992 127.566L94.2148 104.967C94.2148 104.967 97.1866 104.44 106.451 102.75C112.983 120.976 121.245 127.762 128.7 129.963C133.158 131.273 137.325 130.946 140.646 130.454C144.915 129.769 149.28 129.992 153.458 131.109C163.483 133.906 168.761 128.551 171.533 121.756C173.584 116.728 174.263 110.908 174.472 107.017C175.673 107.323 176.902 107.506 178.14 107.564L183.368 113.483Z" fill="black"/>
<path d="M81.4788 272.001C81.4788 272.001 93.8884 215.341 88.0102 199.293C86.3284 194.707 85.4466 188.707 85.0515 182.498C84.0718 167.016 86.0508 150.165 86.0508 150.165C86.3316 149.619 86.5961 149.075 86.8509 148.528C87.504 147.131 88.0788 145.764 88.5752 144.427C95.5735 125.543 86.8672 112.97 82.452 108.162C81.7439 107.373 80.9799 106.636 80.166 105.958L105.148 103.174C111.716 122.075 120.138 129.047 127.714 131.281C132.172 132.591 136.339 132.264 139.66 131.772C143.929 131.087 148.294 131.31 152.472 132.427C162.497 135.224 167.775 129.869 170.547 123.074C173.989 114.637 173.565 103.983 173.565 103.983L187.934 108.24C187.934 108.24 186.666 116.134 185.52 126.506C185.249 128.939 184.985 131.507 184.746 134.144C183.767 145.141 183.185 157.302 184.341 165.555C185.516 173.711 185.098 182.018 183.11 190.014C182.271 193.197 180.921 196.221 179.113 198.968C177.026 202.198 174.463 209.498 181.399 221.567C191.196 238.597 201.32 272.004 201.32 272.004L81.4788 272.001Z" fill="url(#paint1_linear)"/>
<path d="M187.777 108.407C187.777 108.407 199.641 127.075 184.074 143.124C168.506 159.172 174.714 136.573 174.714 136.573L178.633 110.372L187.777 108.407Z" fill="#FF808E"/>
<path opacity="0.1" d="M82.4521 108.162C83.3376 107.881 84.2456 107.677 85.1659 107.553C89.4113 109.583 91.7626 115.22 93.0395 121.105C93.8918 125.097 93.9358 129.22 93.1689 133.229C92.4021 137.238 90.84 141.052 88.5753 144.444C95.5737 125.543 86.8674 112.97 82.4521 108.162Z" fill="black"/>
<path opacity="0.1" d="M184.753 134.146C177.78 134.608 168.672 133.789 168.672 133.789C169.9 139.422 167.366 143.824 164.754 146.693C163.755 147.803 162.494 148.643 161.087 149.137C159.68 149.631 158.171 149.762 156.7 149.52C141.633 146.9 118.721 160.655 118.721 160.655C118.721 160.655 102.333 173.929 85.0513 182.507C84.0716 167.025 86.0506 150.175 86.0506 150.175C86.3315 149.628 86.596 149.084 86.8507 148.537C93.8328 147.227 119.201 142.052 124.259 134.454C125.01 133.324 126.219 132.266 127.721 131.284C132.041 128.48 138.955 126.283 145.529 124.678C153.71 122.665 162.184 122.126 170.553 123.086C174.147 123.499 177.702 124.194 181.187 125.166C182.708 125.588 184.178 126.043 185.527 126.518C189.223 127.828 192.025 129.292 192.512 130.851C193.168 132.947 189.442 133.838 184.753 134.146Z" fill="black"/>
<path opacity="0.1" d="M177.771 131.978C172.745 131.893 168.346 131.496 168.346 131.496C169.574 137.13 167.04 141.531 164.427 144.401C163.428 145.51 162.167 146.35 160.76 146.844C159.353 147.338 157.845 147.47 156.374 147.227C150.695 146.244 143.899 147.584 137.639 149.631L127.198 142.959L118.208 136.737C120.821 135.332 122.842 133.789 123.933 132.152C126.833 127.789 136.342 124.543 145.202 122.375C156.829 119.5 168.995 119.64 180.553 122.781L180.86 122.863C186.539 124.452 191.523 126.42 192.186 128.549C193.139 131.611 184.838 132.102 177.771 131.978Z" fill="black"/>
<path d="M84.8391 105.907C84.8391 105.907 67.7563 107.65 62.7761 129.858C62.0062 133.311 60.4529 136.538 58.2368 139.291C53.2861 145.425 45.099 157.369 45.5562 168.836C46.2093 185.211 46.2093 191.762 67.7628 187.176C89.3164 182.591 118.381 159.01 118.381 159.01C118.381 159.01 141.293 145.278 156.361 147.875C157.832 148.117 159.34 147.985 160.747 147.491C162.154 146.998 163.415 146.158 164.414 145.048C167.027 142.179 169.577 137.778 168.333 132.144C168.333 132.144 193.805 134.437 192.172 129.197C191.519 127.068 186.526 125.1 180.847 123.514C169.199 120.294 156.921 120.125 145.189 123.023C136.313 125.195 126.819 128.44 123.92 132.799C118.041 141.642 84.7313 147.21 84.7313 147.21L85.711 146.106C88.8745 142.523 91.156 138.246 92.372 133.618C93.588 128.99 93.7047 124.141 92.7127 119.46C91.439 113.574 89.0976 107.938 84.8391 105.907Z" fill="#FFBCC8"/>
<path d="M80.3358 105.787C80.3358 105.787 79.3561 145.416 94.0517 139.521C108.747 133.626 97.3174 105.787 97.3174 105.787L90.786 105.132L80.3358 105.787Z" fill="#FF808E"/>
<path opacity="0.1" d="M124.315 58.6683C134.004 57.5896 143.559 55.53 152.834 52.5209C155.218 51.7479 157.807 50.7195 158.921 48.4728C159.208 47.8931 159.424 47.2053 159.989 46.8876C160.469 46.6158 161.063 46.701 161.602 46.8254C164.786 47.582 167.52 49.5831 170.553 50.8112C173.587 52.0394 177.451 52.3276 179.782 50.0219C182.535 47.297 181.624 42.6136 179.812 39.1911C173.081 26.4573 157.314 20.644 142.971 21.6986C140.957 21.846 138.909 22.1178 137.093 23.0086C133.253 24.8591 131.15 28.9759 129.069 32.7063C125.023 39.9411 103.63 60.9642 124.315 58.6683Z" fill="black"/>
<path d="M124.315 57.6849C134.004 56.6062 143.559 54.5466 152.834 51.5375C155.218 50.7645 157.807 49.7361 158.921 47.4894C159.208 46.9097 159.424 46.2219 159.989 45.9042C160.469 45.6324 161.063 45.7176 161.602 45.842C164.786 46.5986 167.52 48.5997 170.553 49.8278C173.587 51.056 177.451 51.3442 179.782 49.0385C182.535 46.3136 181.624 41.6302 179.812 38.2077C173.081 25.4739 157.314 19.6606 142.971 20.7152C140.957 20.8626 138.909 21.1344 137.093 22.0252C133.253 23.8757 131.15 27.9925 129.069 31.7229C125.023 38.9577 103.63 59.9808 124.315 57.6849Z" fill="#40243E"/>
<path d="M334.811 92.3584H268.517C267.716 92.3584 266.948 92.6776 266.381 93.2457C265.815 93.8139 265.497 94.5844 265.497 95.3879V134.362C265.497 135.165 265.815 135.936 266.381 136.504C266.948 137.072 267.716 137.392 268.517 137.392H334.811C335.612 137.392 336.38 137.072 336.947 136.504C337.513 135.936 337.831 135.165 337.831 134.362V95.3879C337.831 94.5844 337.513 93.8139 336.947 93.2457C336.38 92.6776 335.612 92.3584 334.811 92.3584Z" fill="url(#paint2_linear)"/>
<path d="M332.757 93H269.889C267.741 93 266 94.7464 266 96.9007V133.075C266 135.229 267.741 136.975 269.889 136.975H332.757C334.905 136.975 336.646 135.229 336.646 133.075V96.9007C336.646 94.7464 334.905 93 332.757 93Z" fill="url(#paint3_linear)"/>
<path d="M336.982 100.586H266.336V108.649H336.982V100.586Z" fill="#F4943E"/>
<path opacity="0.3" d="M336.646 100.696H266V108.76H336.646V100.696Z" fill="black"/>
<path d="M330.282 114.633H273.034V118.543H330.282V114.633Z" fill="#D6D6E3"/>
<path d="M277.786 133.933C280.88 133.933 283.389 131.416 283.389 128.313C283.389 125.209 280.88 122.692 277.786 122.692C274.691 122.692 272.182 125.209 272.182 128.313C272.182 131.416 274.691 133.933 277.786 133.933Z" fill="#F4943E"/>
<path opacity="0.3" d="M277.786 133.933C280.88 133.933 283.389 131.416 283.389 128.313C283.389 125.209 280.88 122.692 277.786 122.692C274.691 122.692 272.182 125.209 272.182 128.313C272.182 131.416 274.691 133.933 277.786 133.933Z" fill="black"/>
<path opacity="0.05" d="M82.6218 147.381C82.6218 147.381 76.417 150.685 75.3884 154.724C74.3597 158.762 73.1514 159.499 73.1514 159.499" fill="black"/>
<path opacity="0.05" d="M234.803 188.647C234.803 188.647 231.864 198.8 234.803 200.11V188.647Z" fill="black"/>
<path opacity="0.05" d="M88.1736 200.111C88.1736 200.111 113.646 205.679 132.587 194.216H140.751C140.751 194.216 165.244 206.661 177 203.059" fill="black"/>
<path d="M268.994 180.418L264.055 191.768L286.107 201.421L291.046 190.071L268.994 180.418Z" fill="#8ED16F"/>
<path d="M282.126 193.096C282.686 191.81 281.062 189.857 278.498 188.735C275.934 187.613 273.402 187.746 272.842 189.032C272.282 190.318 273.906 192.271 276.47 193.393C279.034 194.516 281.566 194.383 282.126 193.096Z" fill="#8ED16F"/>
<path opacity="0.1" d="M282.126 193.096C282.686 191.81 281.062 189.857 278.498 188.735C275.934 187.613 273.402 187.746 272.842 189.032C272.282 190.318 273.906 192.271 276.47 193.393C279.034 194.516 281.566 194.383 282.126 193.096Z" fill="black"/>
<path d="M301.334 139.983L296.395 151.332L318.447 160.985L323.386 149.636L301.334 139.983Z" fill="#8ED16F"/>
<path d="M314.466 152.662C315.025 151.375 313.401 149.422 310.837 148.3C308.273 147.178 305.741 147.311 305.181 148.597C304.621 149.884 306.246 151.837 308.81 152.959C311.373 154.081 313.906 153.948 314.466 152.662Z" fill="#8ED16F"/>
<path opacity="0.1" d="M314.466 152.662C315.025 151.375 313.401 149.422 310.837 148.3C308.273 147.178 305.741 147.311 305.181 148.597C304.621 149.884 306.246 151.837 308.81 152.959C311.373 154.081 313.906 153.948 314.466 152.662Z" fill="black"/>
<path d="M340.505 181.059L328.388 183.44L333.016 207.121L345.133 204.739L340.505 181.059Z" fill="#8ED16F"/>
<path d="M337.581 199.104C338.955 198.834 339.632 196.383 339.094 193.63C338.556 190.877 337.006 188.864 335.633 189.134C334.259 189.404 333.582 191.855 334.12 194.608C334.658 197.361 336.208 199.374 337.581 199.104Z" fill="#8ED16F"/>
<path opacity="0.1" d="M337.581 199.104C338.955 198.834 339.632 196.383 339.094 193.63C338.556 190.877 337.006 188.864 335.633 189.134C334.259 189.404 333.582 191.855 334.12 194.608C334.658 197.361 336.208 199.374 337.581 199.104Z" fill="black"/>
<path d="M296.913 235.974L291.973 247.323L314.026 256.976L318.965 245.627L296.913 235.974Z" fill="#8ED16F"/>
<path d="M310.051 248.653C310.611 247.366 308.986 245.414 306.423 244.291C303.859 243.169 301.327 243.302 300.767 244.589C300.207 245.875 301.831 247.828 304.395 248.95C306.959 250.072 309.491 249.939 310.051 248.653Z" fill="#8ED16F"/>
<path opacity="0.1" d="M310.051 248.653C310.611 247.366 308.986 245.414 306.423 244.291C303.859 243.169 301.327 243.302 300.767 244.589C300.207 245.875 301.831 247.828 304.395 248.95C306.959 250.072 309.491 249.939 310.051 248.653Z" fill="black"/>
<path d="M242.424 225.247L237.485 236.597L259.537 246.25L264.477 234.901L242.424 225.247Z" fill="#8ED16F"/>
<path d="M255.559 237.928C256.119 236.642 254.495 234.689 251.931 233.567C249.367 232.445 246.835 232.578 246.275 233.864C245.715 235.15 247.34 237.103 249.903 238.225C252.467 239.348 254.999 239.215 255.559 237.928Z" fill="#8ED16F"/>
<path opacity="0.1" d="M255.559 237.928C256.119 236.642 254.495 234.689 251.931 233.567C249.367 232.445 246.835 232.578 246.275 233.864C245.715 235.15 247.34 237.103 249.903 238.225C252.467 239.348 254.999 239.215 255.559 237.928Z" fill="black"/>
</g>
<defs>
<linearGradient id="paint0_linear" x1="189.224" y1="271.836" x2="189.224" y2="-0.000141219" gradientUnits="userSpaceOnUse">
<stop stop-color="#808080" stop-opacity="0.25"/>
<stop offset="0.54" stop-color="#808080" stop-opacity="0.12"/>
<stop offset="1" stop-color="#808080" stop-opacity="0.1"/>
</linearGradient>
<linearGradient id="paint1_linear" x1="140.743" y1="103.174" x2="140.743" y2="272.004" gradientUnits="userSpaceOnUse">
<stop stop-color="#E31266"/>
<stop offset="0.560417" stop-color="#F8493C"/>
<stop offset="1" stop-color="#F4943E"/>
</linearGradient>
<linearGradient id="paint2_linear" x1="71278.1" y1="20549.1" x2="71278.1" y2="14356.6" gradientUnits="userSpaceOnUse">
<stop stop-color="#808080" stop-opacity="0.25"/>
<stop offset="0.54" stop-color="#808080" stop-opacity="0.12"/>
<stop offset="1" stop-color="#808080" stop-opacity="0.1"/>
</linearGradient>
<linearGradient id="paint3_linear" x1="301.323" y1="93" x2="301.323" y2="136.975" gradientUnits="userSpaceOnUse">
<stop stop-color="#E31266"/>
<stop offset="0.4875" stop-color="#F8493C"/>
<stop offset="1" stop-color="#F4943E"/>
</linearGradient>
<clipPath id="clip0">
<rect width="354" height="272" fill="white"/>
</clipPath>
</defs>
</svg>
