<svg width="48" height="58" viewBox="0 0 48 58" fill="none" xmlns="http://www.w3.org/2000/svg">
<path d="M6.49021 57.2853C6.13176 57.1957 5.82709 56.96 5.67522 56.6616C5.62334 56.5626 4.46594 52.4291 3.09961 47.4768C0.64144 38.5672 0.615501 38.4682 0.615972 38.1156C0.616915 37.4495 0.828209 36.7207 1.19278 36.13C1.83468 35.0881 2.79352 34.3965 4.04713 34.0698C4.44802 33.9661 4.51876 33.9567 5.26867 33.9567C5.87048 33.9571 6.14827 33.9567 6.41239 34.0274C6.9194 34.1264 7.55469 34.3102 7.91691 34.4658C8.09141 34.5365 8.25177 34.5978 8.27535 34.5978C8.32252 34.5978 8.44986 34.5365 8.61021 34.4658C9.04412 34.2678 9.60678 34.0981 10.1308 34.0085C10.5269 33.9425 10.7015 33.9331 11.2585 33.9472C12.2296 33.9944 12.9295 34.1547 13.7454 34.5709L14.1369 34.7737L14.4811 34.5898C14.8585 34.3871 15.5678 34.1419 16.0852 34.0279C16.5931 33.9194 17.9062 33.9289 18.4118 34.0279C18.9895 34.1599 19.4041 34.306 19.8658 34.5398L20.2903 34.752L20.7148 34.5351C21.5387 34.1203 22.2099 33.9553 23.1965 33.9265C23.7483 33.9265 23.9328 33.9265 24.327 33.9878C24.9321 34.0915 25.5439 34.2895 26.0462 34.5464L26.4423 34.7491L26.9154 34.5134C28.5312 33.7092 30.4942 33.7092 32.1166 34.5134L32.5915 34.7491L32.9877 34.5464C33.4853 34.2919 34.0993 34.0939 34.7059 33.9878C35.102 33.9218 35.2813 33.9124 35.8364 33.9265C36.7358 33.9736 37.3782 34.1009 38.1243 34.4531L38.4356 34.5992L38.7846 34.4531C39.5849 34.1184 40.3594 33.9543 41.2668 33.9251C42.2643 33.8779 42.952 34.0382 43.7622 34.4583C44.2442 34.7081 44.5697 34.9552 44.9786 35.3851C45.7091 36.1521 46.1034 37.0874 46.1086 38.0638L46.111 38.5069L43.6273 47.4843C42.261 52.4216 41.1107 56.5306 41.0701 56.6149C40.9664 56.8318 40.7306 57.0534 40.4763 57.1731L40.2594 57.2768H23.43C14.1736 57.2801 6.54774 57.2768 6.48407 57.2297L6.49021 57.2853ZM11.2792 54.7844C11.2792 54.7373 10.8071 52.1048 10.2308 48.8995C9.65395 45.6943 8.95639 41.8154 8.68096 40.2795L8.17961 37.4872L7.97209 37.2939C7.43442 36.7933 6.51709 36.4609 5.50119 36.3973C4.34049 36.3265 3.35571 36.921 3.11848 37.837L3.05716 38.068L3.28827 38.9015C3.41561 39.3588 4.24522 42.3703 5.13284 45.5906C6.02046 48.8114 6.95477 52.201 7.20945 53.1235C7.46414 54.0461 7.67166 54.8098 7.67166 54.8202C7.67166 54.8202 8.48334 54.8202 9.4752 54.8202C11.0292 54.8202 11.2783 54.8202 11.2783 54.7636L11.2792 54.7844ZM20.8577 54.6571C20.8577 54.5534 20.7775 52.2476 20.6832 49.5284C20.5841 46.8092 20.4568 43.1778 20.4002 41.458L20.2917 38.3315L20.1691 38.0864C19.8059 37.3576 18.9933 36.7362 18.0854 36.4958C17.6326 36.3732 16.8167 36.3779 16.3601 36.4963C15.5164 36.7178 14.7222 37.3043 14.4047 37.936L14.3151 38.1104L15.2362 46.467C15.7428 51.0629 16.1588 54.8282 16.1606 54.8334C16.1625 54.8334 17.2199 54.8334 18.5103 54.8334H20.8563L20.8567 54.6496L20.8577 54.6571ZM30.7182 54.1904C30.7653 53.8321 31.1521 50.0682 31.6034 45.8244L32.4213 38.1076L32.3128 37.8955C32.2468 37.7635 32.0675 37.5466 31.8506 37.3316C31.5487 37.0299 31.4403 36.9545 31.0922 36.7782C30.8705 36.665 30.5456 36.5425 30.3748 36.4953C28.9887 36.1465 27.4276 36.7122 26.7088 37.8233C26.4588 38.2052 26.4447 38.29 26.4022 39.619C26.1759 46.2643 25.8966 54.1225 25.8787 54.4417V54.8377H28.2751H30.672L30.738 54.188L30.7182 54.1904ZM39.3392 53.8132C39.4901 53.2584 40.117 50.9899 40.7287 48.7718C43.8118 37.59 43.6684 38.1232 43.6434 37.9417C43.5538 37.2784 42.827 36.6118 42.0101 36.4402C41.1173 36.2516 39.7472 36.5627 38.953 37.1336C38.5662 37.4118 38.5662 37.4071 38.4318 38.1661C38.0073 40.5449 35.4676 54.6826 35.4501 54.7537V54.8433H37.2664H39.0831L39.3614 53.8354L39.3392 53.8132ZM45.4809 32.6348C44.2556 31.8258 42.7039 31.4062 41.1857 31.4727C40.341 31.5199 39.41 31.6613 38.7195 31.8781L38.4931 31.9489L38.1394 31.8357C37.5989 31.666 36.9169 31.5387 36.2632 31.4869C35.228 31.4067 34.0904 31.5434 33.0622 31.8829L32.6 32.0337L32.1473 31.8829C30.4918 31.3313 28.5873 31.3303 26.9102 31.881L26.448 32.0318L25.9858 31.881C24.2459 31.3138 22.3556 31.3285 20.6214 31.9281L20.2913 32.0413L19.9517 31.9234C19.0235 31.6075 18.2524 31.4803 17.2336 31.4803C16.2253 31.4788 15.431 31.6028 14.5255 31.9093L14.1246 32.0413L13.8605 31.9423C12.8903 31.5793 11.4764 31.3949 10.3925 31.4944C9.81338 31.5463 9.08281 31.6924 8.60976 31.8433L8.26546 31.9517L7.94475 31.8574C7.76553 31.8055 7.42171 31.7207 7.17646 31.6688C5.3965 31.3011 3.79859 31.4284 2.31907 32.0601C2.14457 32.1355 1.98421 32.1874 1.95591 32.178C1.88988 32.1308 1.54087 31.5632 1.31826 31.0979C0.837187 30.0914 0.620235 29.0637 0.620706 27.7923C0.621178 26.2677 1.01688 25.0693 1.92855 23.8464C2.27285 23.3797 2.97653 22.6669 3.47835 22.27L3.8368 21.9871L3.5774 21.8127C2.16438 20.8533 1.15554 19.382 0.75088 17.691C0.618824 17.129 0.581092 15.9472 0.680134 15.1599C0.911238 13.2661 1.66114 11.7076 2.93644 10.4776C4.24146 9.21893 5.85776 8.48256 8.01361 8.16576C8.66683 8.07148 10.1643 8.06676 10.7835 8.16388C12.3621 8.40431 13.6251 8.96672 14.691 9.89685C14.9174 10.0948 15.0542 10.1891 15.0684 10.1608C15.0684 10.1137 15.1485 9.91099 15.2287 9.66443C15.855 7.68868 16.9492 5.90668 18.3684 4.55179C20.6007 2.42093 23.4644 1.22068 27.3243 0.798749C28.0586 0.718606 30.4744 0.685606 31.2625 0.742177C34.8809 1.01089 37.8196 2.04945 40.2179 3.90971C40.7721 4.33871 41.7304 5.28581 42.1582 5.82606C43.6123 7.66228 44.449 9.70309 44.8046 12.2823C44.8801 12.839 44.8895 13.0634 44.8895 14.473C44.889 15.6563 44.8895 16.2305 44.8187 16.8C44.6867 18.2704 44.4697 19.5569 44.1971 20.504L44.0698 20.9518L44.4046 21.1687C44.8668 21.4704 45.6314 22.2483 45.9672 22.7513C46.8557 24.0821 47.2948 25.6166 47.3759 27.6758C47.442 29.3857 47.1307 30.8273 46.4331 32.0116C46.2398 32.3368 45.8804 32.8512 45.8426 32.8512C45.8426 32.8512 45.6728 32.7522 45.4936 32.6343L45.4809 32.6348ZM25.6462 28.9718C27.3686 28.7596 28.6826 27.4307 28.8849 25.6902C28.9698 24.9722 28.7717 24.5078 28.2567 24.2236L28.0492 24.1104H24.5978H21.1468L20.9393 24.2236C20.4261 24.5064 20.2262 24.9826 20.3134 25.7109C20.5162 27.4114 21.8439 28.7648 23.5111 28.9713C23.912 29.0185 25.2411 29.0185 25.6438 28.9718H25.6462ZM15.1443 24.0482C16.3979 23.8738 17.4091 22.9856 17.7406 21.7636C17.8444 21.3771 17.8397 20.5964 17.7406 20.2004C17.4624 19.2321 16.7766 18.4726 15.8668 18.1299C14.5033 17.617 12.971 18.1299 12.1914 19.3188C11.8895 19.7907 11.6834 20.4634 11.6834 20.9952C11.6834 22.2756 12.5441 23.4848 13.7506 23.8997C14.2571 24.0741 14.6637 24.1165 15.1608 24.0505L15.1443 24.0482ZM15.0405 21.5722C14.3694 21.3648 14.0001 20.6662 14.2095 19.9934C14.3085 19.6729 14.6528 19.3259 14.9768 19.2259C15.9673 18.9195 16.8686 19.8562 16.5082 20.8203C16.3337 21.2823 15.8508 21.6123 15.3589 21.6052C15.2362 21.6034 15.0947 21.6052 15.0381 21.5581L15.0405 21.5722ZM34.8436 24.0487C36.1203 23.8742 37.0952 22.9969 37.4461 21.7052C37.5451 21.3422 37.531 20.5851 37.4461 20.2004C37.1584 19.184 36.4292 18.4207 35.4218 18.0733C35.0681 17.9507 35.0304 17.946 34.4719 17.946C33.9173 17.946 33.873 17.946 33.5277 18.0686C33.1268 18.2053 32.9094 18.3232 32.5911 18.5636C31.8968 19.0906 31.4629 19.91 31.4021 20.8104C31.3077 22.1813 32.193 23.4914 33.4914 23.9091C34.0116 24.0741 34.3767 24.1118 34.8667 24.0458L34.8436 24.0487ZM34.7398 21.5746C34.2064 21.4002 33.8494 20.9297 33.8484 20.4031C33.848 20.0165 33.938 19.8072 34.2163 19.5272C34.4097 19.3339 34.4946 19.2773 34.6832 19.2208C35.1549 19.084 35.6524 19.2208 35.9599 19.5555C36.1911 19.8148 36.2712 20.0269 36.2712 20.3871C36.2712 20.6228 36.2712 20.7407 36.1911 20.8769C35.993 21.3106 35.5987 21.5732 35.1181 21.5944C34.9672 21.5944 34.7974 21.5925 34.7408 21.5944L34.7398 21.5746Z" fill="white"/>
</svg>
