<svg width="416" height="297" viewBox="0 0 416 297" fill="none" xmlns="http://www.w3.org/2000/svg">
<g clip-path="url(#clip0)">
<path d="M399.331 68.1113L231.858 140.209L255.991 206.867L273.238 254.498L277.574 266.478L316.166 281.15L317.562 281.679L357.875 297L377.227 288.71L403.59 277.36L416 272.017L399.331 68.1113Z" fill="#F2F2F2"/>
<path d="M403.721 270.498L403.687 272.226L403.591 277.36L377.228 288.71L359.425 296.374L358.673 293.859L357.876 297L317.562 281.68L316.937 266.889V266.885L316.799 263.598L395.774 258.288L397.323 260.665L397.63 261.137L403.721 270.498Z" fill="#2F2E41"/>
<path d="M346.481 113.362C346.481 113.362 341.181 132.473 340.12 132.473C339.06 132.473 350.191 147.338 350.191 147.338L366.622 156.363L372.452 131.943C372.452 131.943 367.152 118.671 368.212 111.77L346.481 113.362Z" fill="#FFB8B8"/>
<path d="M354.961 120.794C365.792 120.794 374.572 112 374.572 101.152C374.572 90.3039 365.792 81.5098 354.961 81.5098C344.13 81.5098 335.35 90.3039 335.35 101.152C335.35 112 344.13 120.794 354.961 120.794Z" fill="#FFB8B8"/>
<path d="M357.52 142.42L341.852 128.791L332.609 133.395L312.469 146.136C312.469 146.136 317.769 260.804 315.119 265.051C315.119 265.051 320.949 278.323 355.4 270.36C389.852 262.397 398.862 261.335 398.862 261.335L391.442 191.26L400.452 147.198L370.186 126L360.701 142.42L357.52 142.42Z" fill="url(#paint0_linear)"/>
<path d="M299.309 186.622C299.309 186.622 291.359 211.573 297.189 214.227C303.019 216.882 307.79 215.82 307.79 215.82L316.8 194.054L299.309 186.622Z" fill="#FFB8B8"/>
<path d="M409.553 182.375L414.323 204.672V249.795C414.323 249.795 407.433 278.462 402.133 271.03C396.833 263.598 396.942 261.244 396.942 261.244L403.723 250.857L400.543 208.388L392.093 188.128L409.553 182.375Z" fill="#FFB8B8"/>
<path d="M373.512 81.5096C373.512 81.5096 367.152 67.707 354.961 70.8923C342.771 74.0775 335.881 78.8553 335.351 83.6331C334.821 88.4109 335.616 95.5777 335.616 95.5777C335.616 95.5777 336.941 85.7566 345.421 87.8801C353.901 90.0035 367.152 88.4109 367.152 88.4109L369.272 107.522C369.272 107.522 371.657 104.072 374.307 106.195C376.957 108.319 381.992 85.7566 373.512 81.5096Z" fill="#2F2E41"/>
<path d="M392.232 186.759L394.149 196.742L412.933 191.75L409.483 182.535L392.232 186.759Z" fill="#3F3D56"/>
<path d="M298.96 186.445L295.965 196.159L314.887 200.6L316.168 190.842L298.96 186.445Z" fill="#3F3D56"/>
<path d="M388.262 146.137L400.452 147.198C400.452 147.198 414.233 184.89 412.643 185.952C411.052 187.014 391.972 193.384 389.322 191.791C386.672 190.199 388.262 146.137 388.262 146.137Z" fill="url(#paint1_linear)"/>
<path d="M316.709 147.198L312.469 146.137C312.469 146.137 304.518 156.223 301.868 167.902C299.218 179.581 295.508 191.261 297.628 191.261C299.748 191.261 318.829 198.693 318.829 198.693L316.709 147.198Z" fill="url(#paint2_linear)"/>
<path d="M359.647 149.512C361.764 149.512 363.48 147.793 363.48 145.673C363.48 143.552 361.764 141.833 359.647 141.833C357.529 141.833 355.813 143.552 355.813 145.673C355.813 147.793 357.529 149.512 359.647 149.512Z" fill="#3F3D56"/>
<path d="M389.245 213.562L348.295 226.492L331.583 173.393C347.361 171.177 361.011 166.867 372.532 160.463C374.667 178.575 380.123 196.289 389.245 213.562Z" fill="#E6E6E6"/>
<path d="M385.411 219.322L344.462 232.252L327.749 179.153C343.528 176.937 357.177 172.627 368.698 166.223C370.834 184.335 376.29 202.049 385.411 219.322Z" fill="white"/>
<path d="M301.959 198.832C301.959 198.832 295.599 210.511 297.189 214.227C298.779 217.943 312.029 220.066 313.619 220.066C315.209 220.066 334.29 215.819 334.29 215.819C334.29 215.819 363.441 202.017 354.961 195.115C346.481 188.214 330.58 204.671 330.58 204.671H317.86L310.969 199.893L301.959 198.832Z" fill="#FFB8B8"/>
<path d="M69.6296 47.9766H0.355469V78.9926H69.6296V47.9766Z" fill="#F2F2F2"/>
<path d="M252.229 148.733H240.15V159.408H252.229V148.733Z" fill="#3F3D56"/>
<path d="M228.072 148.733H215.993V159.408H228.072V148.733Z" fill="#3F3D56"/>
<path d="M276.386 125.249H264.308V137.347H276.386V125.249Z" fill="url(#paint3_linear)"/>
<path d="M264.308 137.347H252.229V148.733H264.308V137.347Z" fill="#3F3D56"/>
<path d="M240.15 137.347H228.072V148.733H240.15V137.347Z" fill="#3F3D56"/>
<path d="M96.9838 158.696H84.9053V169.371H96.9838V158.696Z" fill="url(#paint4_linear)"/>
<path d="M205.691 147.31H193.612V158.696H205.691V147.31Z" fill="#3F3D56"/>
<path d="M133.219 147.31H121.141V158.696H133.219V147.31Z" fill="#3F3D56"/>
<path d="M121.141 135.212H109.062V147.31H121.141V135.212Z" fill="#3F3D56"/>
<path d="M181.534 147.31H169.455V158.696H181.534V147.31Z" fill="#3F3D56"/>
<path d="M169.455 135.212H157.376V147.31H169.455V135.212Z" fill="#3F3D56"/>
<path d="M157.376 147.31H145.298V158.696H157.376V147.31Z" fill="#3F3D56"/>
<path d="M109.062 147.31H96.9839V158.696H109.062V147.31Z" fill="#3F3D56"/>
<path d="M193.612 135.212H181.534V147.31H193.612V135.212Z" fill="url(#paint5_linear)"/>
<path d="M236.151 116.53L229.875 109.791L236.603 103.506L242.878 110.244L236.151 116.53ZM230.876 109.826L236.185 115.528L241.878 110.209L236.568 104.508L230.876 109.826Z" fill="#3F3D56"/>
<path d="M151.217 88.8065H142.017V79.5918H151.217V88.8065ZM142.724 88.0977H150.509V80.3006H142.724V88.0977Z" fill="#3F3D56"/>
<path d="M322.093 71.0155H312.893V61.8008H322.093V71.0155ZM313.6 70.3067H321.385V62.5096H313.6V70.3067Z" fill="#3F3D56"/>
<path d="M90.3872 165.125L89.8435 164.594C92.3442 161.754 94.2397 158.432 95.4139 154.833C97.2625 149.26 98.1656 140.46 91.9688 130.181C85.6287 119.663 85.3434 111.12 86.2203 105.806C87.1747 100.023 89.6095 96.7816 89.7127 96.6465L90.3165 97.1086C90.2922 97.1404 87.8785 100.364 86.9627 105.975C86.1171 111.154 86.4121 119.49 92.6192 129.787C98.9744 140.33 98.0329 149.374 96.1242 155.105C94.056 161.314 90.5361 164.972 90.3872 165.125Z" fill="#3F3D56"/>
<path d="M186.305 140.929L185.761 140.397C188.262 137.557 190.158 134.236 191.332 130.636C193.18 125.064 194.084 116.264 187.887 105.984C181.547 95.4665 181.261 86.9237 182.138 81.6093C183.093 75.8267 185.527 72.5853 185.631 72.4502L186.234 72.9123C186.21 72.9441 183.797 76.1682 182.881 81.7784C182.035 86.9579 182.33 95.2938 188.537 105.591C194.892 116.133 193.951 125.178 192.042 130.909C189.974 137.118 186.454 140.776 186.305 140.929Z" fill="#3F3D56"/>
<path d="M269.79 131.678L269.246 131.146C271.747 128.306 273.642 124.985 274.816 121.385C276.665 115.813 277.568 107.013 271.371 96.7333C265.031 86.2156 264.746 77.6728 265.623 72.3583C266.577 66.5757 269.012 63.3343 269.115 63.1992L269.719 63.6613C269.695 63.6931 267.281 66.9172 266.365 72.5274C265.519 77.707 265.814 86.0428 272.022 96.3398C278.377 106.882 277.435 115.927 275.527 121.658C273.458 127.867 269.939 131.525 269.79 131.678Z" fill="#3F3D56"/>
<path d="M51.709 57.7666H18.2759V58.5277H51.709V57.7666Z" fill="#3F3D56"/>
<path d="M51.709 63.1035H18.2759V63.8646H51.709V63.1035Z" fill="#3F3D56"/>
<path d="M51.709 68.4414H18.2759V69.2025H51.709V68.4414Z" fill="#3F3D56"/>
<path d="M238.927 6.88379H205.494V7.64485H238.927V6.88379Z" fill="#3F3D56"/>
<path d="M238.927 12.2217H205.494V12.9827H238.927V12.2217Z" fill="#3F3D56"/>
<path d="M238.927 17.5586H205.494V18.3197H238.927V17.5586Z" fill="#3F3D56"/>
<path d="M317.438 125.017H284.004V125.778H317.438V125.017Z" fill="#3F3D56"/>
<path d="M317.438 130.354H284.004V131.116H317.438V130.354Z" fill="#3F3D56"/>
<path d="M317.438 135.691H284.004V136.452H317.438V135.691Z" fill="#3F3D56"/>
<path d="M107.483 178.39H74.0503V179.151H107.483V178.39Z" fill="#3F3D56"/>
<path d="M107.483 183.728H74.0503V184.489H107.483V183.728Z" fill="#3F3D56"/>
<path d="M107.483 189.064H74.0503V189.826H107.483V189.064Z" fill="#3F3D56"/>
<path d="M48.9751 39.3614C54.7514 26.3834 63.4576 17.8464 74.8514 13.9873C83.3109 11.122 93.0942 10.8512 103.929 13.1822C111.919 14.9141 119.586 17.897 126.648 22.0211C164.263 43.8863 187.518 44.0807 200.403 40.3935C214.531 36.3507 219.701 26.8646 219.751 26.7691L220.379 27.1024C220.328 27.2002 215.04 36.9346 200.626 41.0698C192.316 43.4537 182.607 43.5521 171.768 41.3623C158.279 38.6369 142.979 32.3367 126.291 22.6367C119.294 18.5502 111.697 15.5943 103.78 13.878C86.0095 10.0548 62.1884 11.4226 49.6237 39.6511L48.9751 39.3614Z" fill="#2F2E41"/>
<path d="M90.9443 97.1386C98.0075 97.1386 103.733 91.4036 103.733 84.3291C103.733 77.2546 98.0075 71.5195 90.9443 71.5195C83.8811 71.5195 78.1553 77.2546 78.1553 84.3291C78.1553 91.4036 83.8811 97.1386 90.9443 97.1386Z" fill="#3F3D56"/>
<path d="M187.573 74.7226C194.636 74.7226 200.362 68.9876 200.362 61.9131C200.362 54.8385 194.636 49.1035 187.573 49.1035C180.51 49.1035 174.784 54.8385 174.784 61.9131C174.784 68.9876 180.51 74.7226 187.573 74.7226Z" fill="#3F3D56"/>
<path d="M271.057 63.3359C278.12 63.3359 283.846 57.6009 283.846 50.5264C283.846 43.4518 278.12 37.7168 271.057 37.7168C263.994 37.7168 258.268 43.4518 258.268 50.5264C258.268 57.6009 263.994 63.3359 271.057 63.3359Z" fill="#3F3D56"/>
<path d="M79.2212 79.3478H0V38.7842H79.2212V79.3478ZM0.710504 78.6361H78.5107V39.4958H0.710504V78.6361Z" fill="#3F3D56"/>
<path d="M169.455 21.29H100.181V52.306H169.455V21.29Z" fill="#F2F2F2"/>
<path d="M151.535 31.0801H118.102V31.8411H151.535V31.0801Z" fill="#3F3D56"/>
<path d="M151.535 36.417H118.102V37.1781H151.535V36.417Z" fill="#3F3D56"/>
<path d="M150.469 40.6875H117.036V41.4486H150.469V40.6875Z" fill="#3F3D56"/>
<path d="M179.047 52.6613H99.8257V12.0977H179.047V52.6613ZM100.536 51.9496H178.336V12.8093H100.536V51.9496Z" fill="#3F3D56"/>
<path d="M348.147 9.19141H278.873V40.2074H348.147V9.19141Z" fill="#F2F2F2"/>
<path d="M330.227 18.9824H296.793V19.7435H330.227V18.9824Z" fill="#3F3D56"/>
<path d="M330.227 24.3193H296.793V25.0804H330.227V24.3193Z" fill="#3F3D56"/>
<path d="M330.227 29.6562H296.793V30.4173H330.227V29.6562Z" fill="#3F3D56"/>
<path d="M357.739 40.5636H278.518V0H357.739V40.5636ZM279.228 39.852H357.028V0.711642H279.228V39.852Z" fill="#3F3D56"/>
</g>
<defs>
<linearGradient id="paint0_linear" x1="356.46" y1="126" x2="356.46" y2="272.904" gradientUnits="userSpaceOnUse">
<stop stop-color="#E31266"/>
<stop offset="0.523958" stop-color="#F8493C"/>
<stop offset="1" stop-color="#F4943E"/>
</linearGradient>
<linearGradient id="paint1_linear" x1="400.279" y1="146.137" x2="400.279" y2="192.046" gradientUnits="userSpaceOnUse">
<stop stop-color="#E31266"/>
<stop offset="0.523958" stop-color="#F8493C"/>
<stop offset="1" stop-color="#F4943E"/>
</linearGradient>
<linearGradient id="paint2_linear" x1="307.915" y1="146.137" x2="307.915" y2="198.693" gradientUnits="userSpaceOnUse">
<stop stop-color="#E31266"/>
<stop offset="0.523958" stop-color="#F8493C"/>
<stop offset="1" stop-color="#F4943E"/>
</linearGradient>
<linearGradient id="paint3_linear" x1="270.347" y1="125.249" x2="270.347" y2="137.347" gradientUnits="userSpaceOnUse">
<stop stop-color="#E31266"/>
<stop offset="0.523958" stop-color="#F8493C"/>
<stop offset="1" stop-color="#F4943E"/>
</linearGradient>
<linearGradient id="paint4_linear" x1="90.9446" y1="158.696" x2="90.9446" y2="169.371" gradientUnits="userSpaceOnUse">
<stop stop-color="#E31266"/>
<stop offset="0.523958" stop-color="#F8493C"/>
<stop offset="1" stop-color="#F4943E"/>
</linearGradient>
<linearGradient id="paint5_linear" x1="187.573" y1="135.212" x2="187.573" y2="147.31" gradientUnits="userSpaceOnUse">
<stop stop-color="#E31266"/>
<stop offset="0.523958" stop-color="#F8493C"/>
<stop offset="1" stop-color="#F4943E"/>
</linearGradient>
<clipPath id="clip0">
<rect width="416" height="297" fill="white"/>
</clipPath>
</defs>
</svg>
