<svg width="783" height="525" viewBox="0 0 783 525" fill="none" xmlns="http://www.w3.org/2000/svg">
<g clip-path="url(#clip0)">
<path d="M725.35 522.89C727.843 496.037 734.73 469.776 745.735 445.155C748.802 438.303 752.178 431.602 755.862 425.052C756.809 423.367 754.218 421.853 753.272 423.538C739.872 447.395 730.485 473.292 725.486 500.193C724.095 507.706 723.05 515.271 722.35 522.89C722.172 524.811 725.173 524.799 725.35 522.89H725.35Z" fill="#E6E6E6"/>
<path d="M763.128 429.863C773.621 429.863 782.128 421.357 782.128 410.863C782.128 400.37 773.621 391.863 763.128 391.863C752.635 391.863 744.128 400.37 744.128 410.863C744.128 421.357 752.635 429.863 763.128 429.863Z" fill="#E6E6E6"/>
<path d="M727.293 523.394C728.911 505.974 733.379 488.937 740.518 472.964C742.508 468.519 744.698 464.172 747.088 459.923C747.208 459.7 747.237 459.44 747.169 459.197C747.1 458.954 746.94 458.747 746.722 458.619C746.504 458.492 746.246 458.454 746 458.514C745.755 458.574 745.542 458.727 745.408 458.94C736.715 474.417 730.625 491.218 727.382 508.67C726.479 513.544 725.801 518.452 725.347 523.394C725.232 524.641 727.179 524.633 727.293 523.394Z" fill="#E6E6E6"/>
<path d="M751.802 463.043C758.609 463.043 764.128 457.524 764.128 450.717C764.128 443.909 758.609 438.391 751.802 438.391C744.994 438.391 739.476 443.909 739.476 450.717C739.476 457.524 744.994 463.043 751.802 463.043Z" fill="#E6E6E6"/>
<path d="M724.837 522.23C715.398 507.499 708.442 491.318 704.247 474.332C703.081 469.604 702.135 464.829 701.406 460.008C701.364 459.759 701.226 459.537 701.023 459.387C700.82 459.237 700.566 459.172 700.316 459.206C700.066 459.24 699.838 459.369 699.682 459.567C699.525 459.765 699.451 460.016 699.476 460.268C702.142 477.817 707.673 494.81 715.85 510.566C718.136 514.963 720.62 519.25 723.302 523.427C723.978 524.481 725.508 523.277 724.837 522.23V522.23Z" fill="#E6E6E6"/>
<path d="M699.461 462.178C706.269 462.178 711.787 456.659 711.787 449.852C711.787 443.044 706.269 437.525 699.461 437.525C692.653 437.525 687.135 443.044 687.135 449.852C687.135 456.659 692.653 462.178 699.461 462.178Z" fill="#E6E6E6"/>
<path d="M626.228 344.492C627.038 343.265 627.568 341.875 627.783 340.421C627.997 338.966 627.89 337.483 627.468 336.074C627.047 334.666 626.322 333.367 625.345 332.269C624.367 331.171 623.161 330.3 621.811 329.719L624.402 294.078L608.199 303.15L608.223 335.605C607.396 337.938 607.455 340.493 608.386 342.786C609.318 345.079 611.059 346.95 613.278 348.046C615.497 349.141 618.042 349.385 620.428 348.73C622.815 348.075 624.879 346.567 626.228 344.492Z" fill="#FFB8B8"/>
<path d="M622.198 205.944L626.628 319.363L608.628 318.363L604.628 199.363L608.424 197.576C609.868 196.897 611.458 196.585 613.052 196.67C614.646 196.754 616.194 197.233 617.558 198.061C618.922 198.89 620.06 200.044 620.869 201.419C621.679 202.795 622.135 204.35 622.198 205.944Z" fill="url(#paint0_linear)"/>
<path d="M566.53 512.2H554.271L548.438 464.912H566.532L566.53 512.2Z" fill="#FFB8B8"/>
<path d="M545.513 508.697H569.157V523.584H530.626C530.626 521.629 531.012 519.693 531.76 517.887C532.508 516.081 533.604 514.44 534.987 513.058C536.369 511.675 538.01 510.579 539.816 509.83C541.623 509.082 543.558 508.697 545.513 508.697Z" fill="#2F2E41"/>
<path d="M668.533 497.55L657.408 502.7L632.247 462.239L648.668 454.637L668.533 497.55Z" fill="#FFB8B8"/>
<path d="M647.989 503.199L669.446 493.266L675.7 506.776L640.734 522.963C639.913 521.189 639.449 519.27 639.369 517.317C639.289 515.363 639.595 513.413 640.269 511.578C640.942 509.743 641.971 508.058 643.296 506.621C644.62 505.183 646.215 504.02 647.989 503.199Z" fill="#2F2E41"/>
<path d="M537.42 357.874L550.064 502.163L567.064 500.163L579.628 368.363L649.064 494.163L667.064 489.163C667.064 489.163 609.128 315.863 604.628 301.363C599.695 285.468 560.628 279.363 560.628 279.363L559.128 277.863C542.341 300.461 535.618 329.782 537.42 357.874Z" fill="#2F2E41"/>
<path d="M604.777 185.06C618.342 185.06 629.338 174.063 629.338 160.499C629.338 146.934 618.342 135.938 604.777 135.938C591.213 135.938 580.216 146.934 580.216 160.499C580.216 174.063 591.213 185.06 604.777 185.06Z" fill="#FFB8B8"/>
<path d="M622.064 198.163L603.128 296.863C603.128 296.863 577.188 291.683 567.948 285.444C564.288 282.964 560.968 280.404 558.168 278.083C555.018 275.497 552.001 272.754 549.128 269.863C549.128 269.863 555.768 237.254 558.138 228.524C560.89 218.411 570.331 206.633 577.684 198.606C580.35 195.698 583.757 193.571 587.54 192.451C591.323 191.331 595.339 191.262 599.158 192.25L622.064 198.163Z" fill="url(#paint1_linear)"/>
<path opacity="0.2" d="M567.948 285.443C564.288 282.963 560.968 280.403 558.168 278.083C559.178 263.143 581.188 231.863 590.108 231.863C590.108 231.863 592.218 280.073 567.948 285.443Z" fill="black"/>
<path d="M522.644 324.68C524.026 324.179 525.281 323.381 526.322 322.343C527.362 321.304 528.162 320.05 528.665 318.668C529.168 317.287 529.362 315.812 529.234 314.348C529.105 312.883 528.657 311.465 527.921 310.192L551.28 283.149L532.865 280.752L513.507 306.8C511.451 308.178 509.972 310.263 509.35 312.659C508.728 315.054 509.007 317.595 510.133 319.799C511.26 322.003 513.155 323.717 515.461 324.617C517.767 325.517 520.323 325.539 522.644 324.68Z" fill="#FFB8B8"/>
<path d="M587.95 193.387C586.933 193.408 585.919 193.524 584.924 193.734C582.908 194.195 581.038 195.148 579.482 196.51C577.925 197.871 576.731 199.597 576.006 201.534L547.128 261.862L516.128 294.862L531.628 307.362L580.628 263.362L600.204 210.081C600.829 208.157 600.987 206.112 600.666 204.114C600.345 202.117 599.553 200.224 598.355 198.594C597.158 196.963 595.59 195.64 593.781 194.735C591.972 193.829 589.973 193.368 587.95 193.387Z" fill="url(#paint2_linear)"/>
<path d="M606.231 184.833C609.727 179.601 612.486 172.346 608.637 167.367C604.838 162.453 597.345 163.177 591.526 161.003C583.422 157.974 578.722 148.453 580.188 139.927C581.654 131.401 588.498 124.333 596.652 121.441C604.806 118.549 614.001 119.489 621.985 122.82C631.815 126.919 640.246 134.85 643.782 144.896C647.318 154.942 645.428 167.004 638.093 174.725C630.229 183.004 617.887 185.21 606.47 185.076" fill="#2F2E41"/>
<path d="M644.8 155.872C645.8 161.463 651.934 164.639 657.57 165.337C663.207 166.035 669.038 165.14 674.526 166.606C684.2 169.19 690.581 178.494 694.093 187.871C697.605 197.249 699.162 207.37 703.725 216.283C708.288 225.196 717.136 233.054 727.114 232.221C725.16 237.142 721.734 241.341 717.305 244.244C712.875 247.146 707.659 248.612 702.366 248.44C697.073 248.269 691.962 246.468 687.73 243.285C683.498 240.101 680.352 235.689 678.72 230.651C675.054 219.334 679.262 205.838 672.852 195.818C669.304 190.273 663.179 187.011 657.272 184.105C651.366 181.199 645.166 178.216 641.206 172.957C637.246 167.699 636.455 159.394 641.335 154.977" fill="#2F2E41"/>
<path d="M764.403 524.11H444.109C443.952 524.11 443.797 524.08 443.652 524.02C443.508 523.961 443.376 523.873 443.265 523.762C443.154 523.652 443.066 523.52 443.006 523.376C442.946 523.231 442.915 523.076 442.915 522.919C442.915 522.763 442.946 522.607 443.006 522.463C443.066 522.318 443.154 522.187 443.265 522.076C443.376 521.965 443.508 521.878 443.652 521.818C443.797 521.759 443.952 521.728 444.109 521.729H764.403C764.56 521.728 764.715 521.759 764.86 521.818C765.005 521.878 765.136 521.965 765.247 522.076C765.358 522.187 765.446 522.318 765.506 522.463C765.566 522.607 765.597 522.763 765.597 522.919C765.597 523.076 765.566 523.231 765.506 523.376C765.446 523.52 765.358 523.652 765.247 523.762C765.136 523.873 765.005 523.961 764.86 524.02C764.715 524.08 764.56 524.11 764.403 524.11Z" fill="#3F3D56"/>
</g>
<defs>
<linearGradient id="paint0_linear" x1="615.628" y1="196.656" x2="615.628" y2="319.363" gradientUnits="userSpaceOnUse">
<stop stop-color="#E31266"/>
<stop offset="0.4875" stop-color="#F8493C"/>
<stop offset="1" stop-color="#F4943E"/>
</linearGradient>
<linearGradient id="paint1_linear" x1="585.596" y1="191.557" x2="585.596" y2="296.863" gradientUnits="userSpaceOnUse">
<stop stop-color="#E31266"/>
<stop offset="0.4875" stop-color="#F8493C"/>
<stop offset="1" stop-color="#F4943E"/>
</linearGradient>
<linearGradient id="paint2_linear" x1="558.478" y1="193.387" x2="558.478" y2="307.362" gradientUnits="userSpaceOnUse">
<stop stop-color="#E31266"/>
<stop offset="0.4875" stop-color="#F8493C"/>
<stop offset="1" stop-color="#F4943E"/>
</linearGradient>
<clipPath id="clip0">
<rect width="782.128" height="524.326" fill="white"/>
</clipPath>
</defs>
</svg>
