<svg width="748" height="526" viewBox="0 0 748 526" fill="none" xmlns="http://www.w3.org/2000/svg">
<g clip-path="url(#clip0)">
<path d="M609.437 348.188C610.274 347.102 610.862 345.846 611.161 344.508C611.459 343.17 611.461 341.783 611.165 340.444C610.87 339.105 610.284 337.848 609.45 336.76C608.616 335.672 607.554 334.78 606.337 334.147L608.191 312.8L595.493 308.509L593.299 338.693C592.371 340.806 592.251 343.187 592.961 345.383C593.671 347.579 595.161 349.438 597.151 350.609C599.14 351.779 601.489 352.179 603.754 351.733C606.018 351.287 608.04 350.025 609.437 348.188Z" fill="#FFB8B8"/>
<path d="M672.805 514.162L661.373 514.161L655.936 470.065L672.809 470.066L672.805 514.162Z" fill="#FFB8B8"/>
<path d="M653.207 510.894H675.254V524.776H639.325C639.325 522.953 639.684 521.148 640.381 519.464C641.079 517.779 642.102 516.249 643.391 514.96C644.68 513.671 646.21 512.648 647.894 511.951C649.578 511.253 651.384 510.894 653.207 510.894Z" fill="#2F2E41"/>
<path d="M646.855 484.902L635.753 487.63L619.947 446.107L636.332 442.08L646.855 484.902Z" fill="#FFB8B8"/>
<path d="M627.043 486.407L648.454 481.146L651.767 494.627L616.875 503.2C616.44 501.43 616.358 499.591 616.633 497.789C616.909 495.987 617.537 494.257 618.481 492.697C619.425 491.138 620.667 489.78 622.136 488.701C623.605 487.621 625.273 486.842 627.043 486.407Z" fill="#2F2E41"/>
<path d="M659.425 500.104C658.381 500.106 657.374 499.721 656.599 499.022C655.824 498.324 655.335 497.363 655.228 496.325L642.073 373.771L630.626 411.247L646.839 469.78C647.118 470.784 647.017 471.855 646.554 472.788C646.092 473.721 645.301 474.451 644.334 474.836L631.444 479.993C630.913 480.205 630.345 480.307 629.774 480.294C629.202 480.281 628.639 480.152 628.119 479.915C627.599 479.678 627.132 479.338 626.747 478.915C626.362 478.493 626.067 477.997 625.879 477.457L606.008 420.448C603.833 414.223 602.87 407.639 603.173 401.053L605.946 339.529L678.989 342.622L677.849 494.837C677.835 495.897 677.426 496.913 676.703 497.687C675.979 498.462 674.993 498.938 673.936 499.023L659.752 500.092C659.642 500.1 659.533 500.104 659.425 500.104Z" fill="#2F2E41"/>
<path d="M647.328 203.374C660.892 203.374 671.889 192.378 671.889 178.813C671.889 165.248 660.892 154.252 647.328 154.252C633.763 154.252 622.767 165.248 622.767 178.813C622.767 192.378 633.763 203.374 647.328 203.374Z" fill="#FFB8B8"/>
<path d="M665.389 346.624C658.921 346.624 650.885 346.095 642.572 345.548C631.213 344.801 619.466 344.028 610.697 344.536C609.513 344.653 608.319 344.465 607.228 343.99C606.137 343.515 605.186 342.769 604.466 341.822C595.426 330.248 609.369 285.114 609.967 283.199L621.313 232.731L621.801 232.84L621.313 232.731C623.809 221.631 631.784 213.443 642.126 211.362C651.806 209.418 661.169 213.293 667.174 221.737C667.493 222.185 667.811 222.645 668.129 223.116C687.681 252.073 676.623 324.012 675.882 328.655C676.914 329.892 682.5 336.887 680.964 341.746C680.34 343.723 678.643 345.07 675.922 345.75C672.455 346.437 668.922 346.73 665.389 346.624Z" fill="#2F2E41"/>
<path d="M611.094 346.648C608.869 346.648 605.868 345.827 601.821 344.143C600.082 343.419 594.79 341.217 601.215 285.071C604.371 257.491 608.892 230.103 608.937 229.83L608.98 229.566L609.224 229.456C609.341 229.403 620.886 224.111 622.894 217.31C622.963 217.074 623.041 216.846 623.128 216.625C623.68 215.113 624.795 213.873 626.24 213.164C627.684 212.454 629.347 212.33 630.882 212.817C632.502 213.204 633.915 214.194 634.833 215.584C635.75 216.975 636.105 218.663 635.824 220.305C635.125 224.741 633.78 229.05 631.833 233.096C626.4 244.306 622.719 274.024 622.683 274.323C622.475 276.861 617.544 336.995 616.594 341.558C616.263 343.152 615.652 345.103 613.861 346.049C613.002 346.472 612.051 346.678 611.094 346.648Z" fill="url(#paint0_linear)"/>
<path d="M637.925 344.343C637.476 344.343 637.041 344.193 636.686 343.918C629.461 338.427 641.155 271.866 648.091 248.901C649.48 244.303 650.716 240.365 651.767 237.195C653.682 231.509 655.018 225.644 655.756 219.689C656.138 216.464 656.968 214.621 658.293 214.057C659.214 213.664 660.298 213.93 661.513 214.85C667.92 214.534 674.145 217.152 679.915 220.031L685.106 222.622L690.933 325.771C690.768 332.354 677.792 337.001 672.129 337.298C663.04 337.774 646.719 339.254 639.529 343.807C639.056 344.135 638.5 344.321 637.925 344.343Z" fill="url(#paint1_linear)"/>
<path d="M605.468 324.989C605.382 324.989 605.296 324.987 605.209 324.981L593.442 324.257C592.856 324.221 592.284 324.064 591.762 323.795C591.241 323.526 590.781 323.151 590.412 322.694C590.043 322.238 589.773 321.71 589.619 321.143C589.466 320.577 589.432 319.984 589.519 319.404L594.844 284.125L604.869 234.628C605.116 233.408 605.616 232.255 606.337 231.241C607.059 230.228 607.985 229.377 609.056 228.744C610.127 228.112 611.32 227.711 612.555 227.569C613.791 227.427 615.043 227.546 616.23 227.918C618.259 228.566 619.99 229.917 621.11 231.729C622.23 233.541 622.666 235.693 622.338 237.798L614.374 287.394L609.659 321.342C609.514 322.351 609.011 323.275 608.242 323.945C607.473 324.614 606.488 324.985 605.468 324.989Z" fill="url(#paint2_linear)"/>
<path d="M645.67 286.374C646.388 285.206 647.353 284.21 648.497 283.455C649.642 282.701 650.938 282.206 652.294 282.007C653.65 281.807 655.034 281.907 656.347 282.3C657.66 282.693 658.872 283.369 659.895 284.281L679.19 274.961L687.714 285.305L660.281 298.084C658.635 299.702 656.453 300.661 654.148 300.778C651.843 300.895 649.575 300.162 647.774 298.719C645.973 297.275 644.764 295.221 644.377 292.946C643.989 290.671 644.449 288.333 645.67 286.374Z" fill="#FFB8B8"/>
<path d="M672.473 296.383C671.523 296.383 670.601 296.064 669.854 295.476C669.108 294.888 668.581 294.066 668.359 293.142L665.556 281.492C665.342 280.616 665.415 279.694 665.765 278.863C666.114 278.031 666.721 277.334 667.497 276.873L684.398 266.758L675.759 235.124C675.149 232.875 675.282 230.49 676.138 228.322C676.953 226.268 678.382 224.515 680.229 223.302C682.077 222.088 684.253 221.474 686.462 221.542C688.671 221.61 690.806 222.356 692.575 223.681C694.345 225.005 695.663 226.843 696.351 228.943L705.89 258.069C707.062 261.619 707.071 265.45 705.917 269.006C704.762 272.562 702.503 275.657 699.469 277.842L674.951 295.58C674.23 296.102 673.363 296.383 672.473 296.383Z" fill="url(#paint3_linear)"/>
<path d="M651.815 202.77C655.511 202.85 659.183 202.147 662.588 200.706C665.993 199.266 669.055 197.122 671.573 194.414C674.09 191.706 676.006 188.496 677.195 184.995C678.383 181.493 678.817 177.78 678.469 174.1C678.12 170.419 676.996 166.853 675.171 163.638C673.346 160.422 670.862 157.629 667.88 155.442C664.899 153.255 661.489 151.724 657.874 150.948C654.258 150.173 650.52 150.172 646.904 150.945C641.503 147.665 635.223 145.459 628.93 146.02C622.636 146.581 616.411 150.318 614.058 156.182C611.704 162.046 614.233 169.776 620.085 172.159C623.837 173.687 628.073 172.946 632.077 172.33C636.081 171.714 640.449 171.312 643.934 173.378C647.418 175.444 648.985 180.983 645.864 183.566C644.21 184.99 643.028 186.883 642.477 188.995C641.926 191.107 642.032 193.336 642.78 195.386C644.348 199.443 648.629 202.701 651.815 202.77Z" fill="#2F2E41"/>
<path d="M746.62 526H548.62C548.354 526 548.1 525.895 547.913 525.707C547.725 525.52 547.62 525.265 547.62 525C547.62 524.735 547.725 524.48 547.913 524.293C548.1 524.105 548.354 524 548.62 524H746.62C746.885 524 747.139 524.105 747.327 524.293C747.514 524.48 747.62 524.735 747.62 525C747.62 525.265 747.514 525.52 747.327 525.707C747.139 525.895 746.885 526 746.62 526Z" fill="#CCCCCC"/>
</g>
<defs>
<linearGradient id="paint0_linear" x1="617.019" y1="212.524" x2="617.019" y2="346.651" gradientUnits="userSpaceOnUse">
<stop stop-color="#E31266"/>
<stop offset="0.4875" stop-color="#F8493C"/>
<stop offset="1" stop-color="#F4943E"/>
</linearGradient>
<linearGradient id="paint1_linear" x1="662.673" y1="213.881" x2="662.673" y2="344.343" gradientUnits="userSpaceOnUse">
<stop stop-color="#E31266"/>
<stop offset="0.4875" stop-color="#F8493C"/>
<stop offset="1" stop-color="#F4943E"/>
</linearGradient>
<linearGradient id="paint2_linear" x1="605.958" y1="227.511" x2="605.958" y2="324.989" gradientUnits="userSpaceOnUse">
<stop stop-color="#E31266"/>
<stop offset="0.4875" stop-color="#F8493C"/>
<stop offset="1" stop-color="#F4943E"/>
</linearGradient>
<linearGradient id="paint3_linear" x1="686.106" y1="221.537" x2="686.106" y2="296.383" gradientUnits="userSpaceOnUse">
<stop stop-color="#E31266"/>
<stop offset="0.4875" stop-color="#F8493C"/>
<stop offset="1" stop-color="#F4943E"/>
</linearGradient>
<clipPath id="clip0">
<rect width="747.62" height="526" fill="white"/>
</clipPath>
</defs>
</svg>
