<svg width="50" height="50" xmlns="http://www.w3.org/2000/svg">
 <defs>
  <linearGradient y2="1" x2="0.53125" y1="0.47656" x1="0.53516" id="svg_4">
   <stop offset="0" stop-opacity="0.99609" stop-color="#f8493c"/>
   <stop offset="1" stop-opacity="0.99609" stop-color="#f4943e"/>
   <stop offset="NaN" stop-opacity="0" stop-color="0"/>
   <stop offset="NaN" stop-opacity="0" stop-color="0"/>
   <stop offset="NaN" stop-opacity="0" stop-color="0"/>
   <stop offset="NaN" stop-opacity="0" stop-color="0"/>
   <stop offset="NaN" stop-opacity="0" stop-color="0"/>
   <stop offset="NaN" stop-opacity="0" stop-color="0"/>
  </linearGradient>
 </defs>
 <g>
  <title>Layer 1</title>
  <path id="svg_1" fill="url(#svg_4)" d="m19.98438,0.98438c-0.55079,0.01171 -0.99219,0.46484 -0.98438,1.01562l0,6c-0.00391,0.35938 0.18359,0.69531 0.49609,0.87891c0.3125,0.17968 0.69532,0.17968 1.00782,0c0.3125,-0.1836 0.5,-0.51953 0.49609,-0.87891l0,-6c0.00391,-0.26953 -0.10156,-0.53125 -0.29297,-0.72266c-0.1914,-0.1914 -0.45312,-0.29687 -0.72265,-0.29296zm-8.9961,3.00781c-0.40625,0 -0.76953,0.24609 -0.92578,0.62109c-0.15234,0.37891 -0.0625,0.8086 0.23047,1.09375l4,4c0.25,0.26172 0.625,0.36719 0.97266,0.27344c0.35156,-0.08984 0.625,-0.36328 0.71484,-0.71484c0.09375,-0.34766 -0.01172,-0.72266 -0.27344,-0.97266l-4,-4c-0.1875,-0.19531 -0.44531,-0.30078 -0.71875,-0.30078zm17.99219,0c-0.26172,0.0039 -0.50781,0.11328 -0.6875,0.30078l-4,4c-0.26172,0.25 -0.36719,0.625 -0.27344,0.97266c0.08985,0.35156 0.36328,0.625 0.71485,0.71484c0.34765,0.09375 0.72265,-0.01172 0.97265,-0.27344l4,-4c0.29688,-0.28906 0.38281,-0.72656 0.22266,-1.10547c-0.16016,-0.38281 -0.53516,-0.625 -0.94922,-0.60937zm10.19141,2.00781c-0.72266,0 -1.44922,0.27734 -2,0.82813l-19.17188,19.17187c0,0 -2.92578,-5.50391 -4.39062,-6.97266c-2.5586,-2.55859 -7.50782,-3.80859 -8.8125,-2.5039l-1.79688,1.79297l5.65625,5.65625l4.34375,13.02734l7.85156,7.85156c2.84375,2.84375 7.45313,2.84375 10.29688,0l11.02344,-11.02343c1.10546,-1.10547 1.10546,-2.89454 0,-4c-1.10547,-1.10547 -2.89454,-1.10547 -4,0l1,-1c1.10546,-1.10547 1.10546,-2.89454 0,-4c-1.10547,-1.10547 -2.89454,-1.10547 -4,0l1,-1c1.10546,-1.10547 1.10546,-2.89454 0,-4c-1.10547,-1.10547 -2.89454,-1.10547 -4,0l9,-9c1.10546,-1.10547 1.10546,-2.89454 0,-4c-0.55079,-0.55079 -1.27735,-0.82813 -2,-0.82813z"/>
 </g>
</svg>