<svg width="354" height="272" viewBox="0 0 354 272" fill="none" xmlns="http://www.w3.org/2000/svg">
<g clip-path="url(#clip0)">
<path d="M16.4492 259.187C21.3596 267.568 31.7811 271.167 31.7811 271.167C31.7811 271.167 34.2413 261.175 29.331 252.793C24.4207 244.412 13.9992 240.813 13.9992 240.813C13.9992 240.813 11.5389 250.805 16.4492 259.187Z" fill="#2F2E41"/>
<path d="M19.8242 256.43C28.6894 261.339 32.1036 271.09 32.1036 271.09C32.1036 271.09 21.1446 272.881 12.2794 267.972C3.41426 263.063 0 253.312 0 253.312C0 253.312 10.959 251.52 19.8242 256.43Z" fill="url(#paint0_linear)"/>
<path d="M218.583 13.0576H163.27V13.7849H218.583V13.0576Z" fill="#F2F2F2"/>
<path d="M203.569 13.6035H202.779V20.331H203.569V13.6035Z" fill="#F2F2F2"/>
<path d="M179.469 13.6035H178.679V20.331H179.469V13.6035Z" fill="#F2F2F2"/>
<path d="M246.634 47.9678H191.321V48.6951H246.634V47.9678Z" fill="#F2F2F2"/>
<path d="M207.125 41.4219H206.335V48.1494H207.125V41.4219Z" fill="#F2F2F2"/>
<path d="M231.225 41.4219H230.435V48.1494H231.225V41.4219Z" fill="#F2F2F2"/>
<path d="M320.121 64.332H264.808V65.0593H320.121V64.332Z" fill="#F2F2F2"/>
<path d="M280.611 57.7861H279.821V64.5137H280.611V57.7861Z" fill="#F2F2F2"/>
<path d="M304.712 57.7861H303.922V64.5137H304.712V57.7861Z" fill="#F2F2F2"/>
<path d="M314.589 233.066H259.277V233.794H314.589V233.066Z" fill="#F2F2F2"/>
<path d="M275.08 226.521H274.29V233.248H275.08V226.521Z" fill="#F2F2F2"/>
<path d="M299.181 226.521H298.391V233.248H299.181V226.521Z" fill="#F2F2F2"/>
<path d="M220.163 116.334H164.851V117.061H220.163V116.334Z" fill="#F2F2F2"/>
<path d="M180.654 109.788H179.864V116.516H180.654V109.788Z" fill="#F2F2F2"/>
<path d="M204.755 109.788H203.964V116.516H204.755V109.788Z" fill="#F2F2F2"/>
<path d="M237.547 203.974H182.234V204.701H237.547V203.974Z" fill="#F2F2F2"/>
<path d="M198.038 197.429H197.248V204.156H198.038V197.429Z" fill="#F2F2F2"/>
<path d="M222.138 197.429H221.348V204.156H222.138V197.429Z" fill="#F2F2F2"/>
<path d="M326.047 177.428H270.734V178.155H326.047V177.428Z" fill="#F2F2F2"/>
<path d="M286.538 170.882H285.748V177.609H286.538V170.882Z" fill="#F2F2F2"/>
<path d="M310.638 170.882H309.848V177.609H310.638V170.882Z" fill="#F2F2F2"/>
<path d="M143.046 255.349H49.4946V254.73H142.373V224.685H57.3593L53.2294 216.766L53.8363 216.498L57.7828 224.066H143.046V255.349Z" fill="#2F2E41"/>
<path d="M61.9453 270.527C65.8482 270.527 69.0121 267.614 69.0121 264.022C69.0121 260.43 65.8482 257.518 61.9453 257.518C58.0424 257.518 54.8784 260.43 54.8784 264.022C54.8784 267.614 58.0424 270.527 61.9453 270.527Z" fill="#3F3D56"/>
<path d="M131.604 270.527C135.507 270.527 138.671 267.614 138.671 264.022C138.671 260.43 135.507 257.518 131.604 257.518C127.702 257.518 124.538 260.43 124.538 264.022C124.538 267.614 127.702 270.527 131.604 270.527Z" fill="#3F3D56"/>
<path d="M213.715 129.906C216.131 129.906 218.089 128.103 218.089 125.879C218.089 123.655 216.131 121.853 213.715 121.853C211.298 121.853 209.34 123.655 209.34 125.879C209.34 128.103 211.298 129.906 213.715 129.906Z" fill="#3F3D56"/>
<path d="M153.052 214.464H47.8995L25.147 146.012H176.484L176.346 146.414L153.052 214.464ZM48.3974 213.844H152.558L175.566 146.631H26.0566L48.3974 213.844Z" fill="#2F2E41"/>
<path d="M144.844 210.902H52.4844L32.5 150.193H165.424L165.303 150.551L144.844 210.902Z" fill="#F2F2F2"/>
<path d="M178.369 139.897L177.718 139.738L182.159 124.33H207.994V124.95H182.677L178.369 139.897Z" fill="#2F2E41"/>
<path d="M168.921 166.764H32.4995V167.383H168.921V166.764Z" fill="#2F2E41"/>
<path d="M161.109 189.587H40.0854V190.206H161.109V189.587Z" fill="#2F2E41"/>
<path d="M101.15 146.321H100.477V214.154H101.15V146.321Z" fill="#2F2E41"/>
<path d="M131.282 146.302L126.451 214.133L127.123 214.173L131.954 146.342L131.282 146.302Z" fill="#2F2E41"/>
<path d="M70.3578 146.302L69.686 146.342L74.4893 214.175L75.161 214.134L70.3578 146.302Z" fill="#2F2E41"/>
<path d="M354 270.92H0V271.647H354V270.92Z" fill="#2F2E41"/>
<path d="M235.24 22.5013C235.24 22.5013 241.016 37.6315 237.462 39.9592C233.907 42.2869 249.457 61.2965 249.457 61.2965L268.117 56.6411L257.898 40.7351C257.898 40.7351 256.565 24.829 256.565 22.5013C256.565 20.1736 235.24 22.5013 235.24 22.5013Z" fill="#A0616A"/>
<path opacity="0.1" d="M235.24 22.5013C235.24 22.5013 241.016 37.6315 237.462 39.9592C233.907 42.2869 249.457 61.2965 249.457 61.2965L268.117 56.6411L257.898 40.7351C257.898 40.7351 256.565 24.829 256.565 22.5013C256.565 20.1736 235.24 22.5013 235.24 22.5013Z" fill="black"/>
<path d="M225.546 130.352C225.546 130.352 223.86 149.749 225.546 159.836C227.232 169.923 229.761 197.855 229.761 197.855C229.761 197.855 229.761 250.617 239.034 251.393C248.307 252.169 255.051 252.945 255.894 249.841C256.737 246.737 251.679 245.186 254.208 243.634C256.737 242.082 257.58 236.651 254.208 230.443C250.836 224.236 254.208 161.388 254.208 161.388L270.224 200.959C270.224 200.959 271.91 233.547 273.596 238.202C275.282 242.858 271.91 251.393 277.811 252.169C283.712 252.945 290.456 248.289 293.828 246.737C297.2 245.186 288.77 245.186 290.456 244.41C292.142 243.634 297.2 241.306 295.514 240.53C293.828 239.754 292.142 202.511 292.142 202.511C292.142 202.511 287.506 122.981 281.605 119.877C275.704 116.773 271.91 122.119 271.91 122.119L225.546 130.352Z" fill="#2F2E41"/>
<path d="M240.72 248.289V254.496C240.72 254.496 233.133 271.369 240.72 271.369C248.307 271.369 254.208 273.118 254.208 270.79V249.841L240.72 248.289Z" fill="#2F2E41"/>
<path d="M290.456 248.278V254.486C290.456 254.486 298.043 271.359 290.456 271.359C282.869 271.359 276.968 273.107 276.968 270.78V249.83L290.456 248.278Z" fill="#2F2E41"/>
<path d="M247.042 33.7519C255.423 33.7519 262.216 27.499 262.216 19.7856C262.216 12.0722 255.423 5.81934 247.042 5.81934C238.662 5.81934 231.869 12.0722 231.869 19.7856C231.869 27.499 238.662 33.7519 247.042 33.7519Z" fill="#A0616A"/>
<path d="M242.406 45.7783C242.406 45.7783 246.621 57.4169 253.364 55.0892L260.108 52.7614L271.91 127.248C271.91 127.248 262.637 139.663 249.15 131.904C235.662 124.145 242.406 45.7783 242.406 45.7783Z" fill="url(#paint1_linear)"/>
<path d="M254.208 43.4512L258.001 36.0801C258.001 36.0801 280.34 45.7789 283.712 48.8825C287.084 51.9861 287.084 56.6415 287.084 56.6415L281.183 76.0392C281.183 76.0392 282.869 118.714 282.869 120.266C282.869 121.818 288.77 130.352 284.555 127.249C280.34 124.145 279.497 121.042 276.125 125.697C272.753 130.352 265.166 135.784 265.166 135.784L254.208 43.4512Z" fill="url(#paint2_linear)"/>
<path d="M283.712 99.3164L281.183 121.042C281.183 121.042 266.01 133.456 269.382 134.232C272.753 135.008 274.439 131.904 274.439 131.904C274.439 131.904 280.34 137.336 283.712 134.232C287.084 131.128 295.514 101.644 295.514 101.644L283.712 99.3164Z" fill="#A0616A"/>
<path d="M247.365 0.0472276C244.001 -0.0634566 240.402 -0.118208 237.565 1.55027C236.26 2.38761 235.116 3.41887 234.179 4.60185C231.416 7.81596 229.03 11.86 230.056 15.8479L231.247 15.4201C231.247 16.4845 230.99 17.5357 230.495 18.4975C230.662 18.0484 231.224 18.7744 231.074 19.2288L229.761 23.1928C231.919 22.4646 234.604 23.9389 234.932 26.0328C235.082 21.4285 235.601 16.1489 239.659 13.4529C241.705 12.0933 244.295 11.6783 246.787 11.3097C249.086 10.9697 251.496 10.6455 253.698 11.3421C255.899 12.0386 257.774 14.1112 257.275 16.2044C258.29 15.8825 259.426 16.5337 259.928 17.4076C260.429 18.2814 260.456 19.3122 260.471 20.3004C261.553 21.0044 262.785 19.6065 263.226 18.4563C264.261 15.7564 265.181 12.8825 264.623 10.0658C264.066 7.2491 261.572 4.55732 258.461 4.54777C258.839 4.16606 259.04 3.66414 259.023 3.14817L256.459 2.94878C257.11 2.86396 257.709 2.57348 258.153 2.1271C257.123 3.16966 249.03 0.101997 247.365 0.0472276Z" fill="#2F2E41"/>
<path d="M246.902 39.8272C246.902 39.8272 240.04 33.6376 237.57 34.0167C235.1 34.3959 231.728 39.8272 231.728 39.8272C231.728 39.8272 211.497 46.0345 212.34 52.2417C213.183 58.4489 222.455 88.7092 222.455 88.7092C222.455 88.7092 230.042 125.177 223.298 129.056C216.555 132.936 255.332 143.022 256.175 138.367C257.018 133.712 258.704 87.1574 256.175 80.1742C253.646 73.1911 246.902 39.8272 246.902 39.8272Z" fill="url(#paint3_linear)"/>
<path d="M276.125 53.5371H286.549C286.549 53.5371 293.828 83.0215 294.671 86.1251C295.514 89.2287 297.2 103.971 296.357 103.971C295.514 103.971 278.654 100.867 278.654 103.195L276.125 53.5371Z" fill="url(#paint4_linear)"/>
<path d="M275.772 126.55H235.868C231.974 110.062 231.649 94.1322 235.868 78.9121H275.772C269.333 93.8584 268.93 109.68 275.772 126.55Z" fill="#F2F2F2"/>
<path d="M219.645 106.298L231.447 110.954C231.447 110.954 254.207 114.057 254.207 105.523C254.207 96.9876 231.447 101.643 231.447 101.643L223.859 99.4102L219.645 106.298Z" fill="#A0616A"/>
<path d="M222.455 47.5859L212.339 49.9137L204.752 91.0366C204.752 91.0366 202.223 101.899 206.438 102.675C210.653 103.451 222.455 109.658 222.455 109.658C222.455 109.658 224.141 98.0197 227.513 98.0197L219.083 91.8125L224.141 64.6558L222.455 47.5859Z" fill="url(#paint5_linear)"/>
<path d="M79.1162 128.335H23.8037V129.062H79.1162V128.335Z" fill="#F2F2F2"/>
<path d="M39.6071 121.789H38.8169V128.517H39.6071V121.789Z" fill="#F2F2F2"/>
<path d="M63.7077 121.789H62.9175V128.517H63.7077V121.789Z" fill="#F2F2F2"/>
<path d="M98.4756 20.6943H43.1631V21.4216H98.4756V20.6943Z" fill="#F2F2F2"/>
<path d="M83.462 21.2402H82.6719V27.9678H83.462V21.2402Z" fill="#F2F2F2"/>
<path d="M59.3615 21.2402H58.5713V27.9678H59.3615V21.2402Z" fill="#F2F2F2"/>
<path d="M154.183 92.333H98.8706V93.0603H154.183V92.333Z" fill="#F2F2F2"/>
<path d="M139.17 92.8789H138.379V99.6064H139.17V92.8789Z" fill="#F2F2F2"/>
<path d="M115.069 92.8789H114.279V99.6064H115.069V92.8789Z" fill="#F2F2F2"/>
<path d="M60.1519 91.9697H4.83936V92.697H60.1519V91.9697Z" fill="#F2F2F2"/>
<path d="M45.1383 92.5156H44.3481V99.2431H45.1383V92.5156Z" fill="#F2F2F2"/>
<path d="M21.0377 92.5156H20.2476V99.2431H21.0377V92.5156Z" fill="#F2F2F2"/>
<path d="M126.527 55.6045H71.2144V56.3318H126.527V55.6045Z" fill="#F2F2F2"/>
<path d="M87.0177 49.0586H86.2275V55.7861H87.0177V49.0586Z" fill="#F2F2F2"/>
<path d="M111.118 49.0586H110.328V55.7861H111.118V49.0586Z" fill="#F2F2F2"/>
</g>
<defs>
<linearGradient id="paint0_linear" x1="16.0518" y1="252.993" x2="16.0518" y2="271.409" gradientUnits="userSpaceOnUse">
<stop stop-color="#E31266"/>
<stop offset="0.492708" stop-color="#F8493C"/>
<stop offset="1" stop-color="#F4943E"/>
</linearGradient>
<linearGradient id="paint1_linear" x1="256.315" y1="45.7783" x2="256.315" y2="134.455" gradientUnits="userSpaceOnUse">
<stop stop-color="#E31266"/>
<stop offset="0.492708" stop-color="#F8493C"/>
<stop offset="1" stop-color="#F4943E"/>
</linearGradient>
<linearGradient id="paint2_linear" x1="270.646" y1="36.0801" x2="270.646" y2="135.784" gradientUnits="userSpaceOnUse">
<stop stop-color="#E31266"/>
<stop offset="0.4875" stop-color="#F8493C"/>
<stop offset="1" stop-color="#F4943E"/>
</linearGradient>
<linearGradient id="paint3_linear" x1="234.912" y1="34" x2="234.912" y2="139.57" gradientUnits="userSpaceOnUse">
<stop stop-color="#E31266"/>
<stop offset="0.4875" stop-color="#F8493C"/>
<stop offset="1" stop-color="#F4943E"/>
</linearGradient>
<linearGradient id="paint4_linear" x1="286.356" y1="53.5371" x2="286.356" y2="103.971" gradientUnits="userSpaceOnUse">
<stop stop-color="#E31266"/>
<stop offset="0.4875" stop-color="#F8493C"/>
<stop offset="1" stop-color="#F4943E"/>
</linearGradient>
<linearGradient id="paint5_linear" x1="215.757" y1="47.5859" x2="215.757" y2="109.658" gradientUnits="userSpaceOnUse">
<stop stop-color="#E31266"/>
<stop offset="0.4875" stop-color="#F8493C"/>
<stop offset="1" stop-color="#F4943E"/>
</linearGradient>
<clipPath id="clip0">
<rect width="354" height="272" fill="white"/>
</clipPath>
</defs>
</svg>
