<svg width="481" height="431" viewBox="0 0 481 431" fill="none" xmlns="http://www.w3.org/2000/svg">
<g clip-path="url(#clip0)">
<path d="M323.386 74.4878L260.57 59.7169L260.359 60.6146L323.175 75.3855L323.386 74.4878Z" fill="#F2F2F2"/>
<path d="M306.178 71.1518L305.28 70.9408L303.328 79.2442L304.225 79.4552L306.178 71.1518Z" fill="#F2F2F2"/>
<path d="M278.808 64.7159L277.91 64.5049L275.958 72.8083L276.855 73.0193L278.808 64.7159Z" fill="#F2F2F2"/>
<path d="M289.513 315.189L226.697 300.418L226.486 301.316L289.302 316.087L289.513 315.189Z" fill="#F2F2F2"/>
<path d="M167.284 353.362L61.0416 328.38L61.2214 327.616L166.699 352.418L175.419 315.336L78.8727 292.633L76.481 281.756L77.248 281.587L79.5335 291.981L176.363 314.751L167.284 353.362Z" fill="#2F2E41"/>
<path d="M70.7763 350.437C75.2086 351.479 79.6469 348.73 80.6895 344.296C81.7321 339.862 78.9842 335.423 74.5518 334.381C70.1195 333.339 65.6812 336.088 64.6386 340.522C63.596 344.956 66.3439 349.395 70.7763 350.437Z" fill="url(#paint0_linear)"/>
<path d="M149.885 369.039C154.317 370.081 158.755 367.332 159.798 362.898C160.841 358.464 158.093 354.025 153.66 352.983C149.228 351.941 144.79 354.69 143.747 359.124C142.704 363.558 145.452 367.997 149.885 369.039Z" fill="url(#paint1_linear)"/>
<path d="M283.945 217.406C286.689 218.051 289.437 216.349 290.082 213.604C290.728 210.859 289.026 208.111 286.283 207.466C283.539 206.821 280.791 208.523 280.146 211.268C279.5 214.012 281.202 216.76 283.945 217.406Z" fill="#3F3D56"/>
<path d="M190.513 305.572L71.0961 277.491L65.124 186.929L236.989 227.342L236.716 227.803L190.513 305.572ZM71.8414 276.86L190.132 304.675L235.768 227.862L65.9773 187.936L71.8414 276.86Z" fill="#2F2E41"/>
<path d="M182.224 298.983L77.3366 274.319L72.2607 194.053L223.216 229.55L222.975 229.959L182.224 298.983Z" fill="#F2F2F2"/>
<path d="M240.905 220.298L240.212 219.928L249.727 202.098L279.066 208.997L278.886 209.762L250.136 203.001L240.905 220.298Z" fill="#2F2E41"/>
<path d="M222.378 250.937L67.4512 214.506L67.2714 215.27L222.199 251.701L222.378 250.937Z" fill="#2F2E41"/>
<path d="M206.881 277.019L69.4414 244.7L69.2616 245.465L206.702 277.783L206.881 277.019Z" fill="#2F2E41"/>
<path d="M151.346 207.607L150.582 207.428L130.895 291.15L131.659 291.329L151.346 207.607Z" fill="#2F2E41"/>
<path d="M185.573 215.63L160.399 298.06L161.15 298.289L186.324 215.86L185.573 215.63Z" fill="#2F2E41"/>
<path d="M116.383 199.36L115.608 199.23L101.376 284.235L102.151 284.364L116.383 199.36Z" fill="#2F2E41"/>
</g>
<defs>
<linearGradient id="paint0_linear" x1="74.5518" y1="334.381" x2="70.7763" y2="350.437" gradientUnits="userSpaceOnUse">
<stop stop-color="#F8493C"/>
<stop offset="0.466667" stop-color="#E31266"/>
<stop offset="1" stop-color="#F4943E"/>
</linearGradient>
<linearGradient id="paint1_linear" x1="153.66" y1="352.983" x2="149.885" y2="369.039" gradientUnits="userSpaceOnUse">
<stop stop-color="#F8493C"/>
<stop offset="0.466667" stop-color="#E31266"/>
<stop offset="1" stop-color="#F4943E"/>
</linearGradient>
<clipPath id="clip0">
<rect width="412.985" height="344.87" fill="white" transform="translate(78.9424) rotate(13.2325)"/>
</clipPath>
</defs>
</svg>
