<svg width="50" height="50" viewBox="0 0 50 50" fill="none" xmlns="http://www.w3.org/2000/svg">
<g clip-path="url(#clip0)">
<path d="M45.0312 3.5C42.2734 3.5 40.0312 5.74219 40.0312 8.5C40.0312 11.2578 42.2734 13.5 45.0312 13.5C47.789 13.5 50.0312 11.2578 50.0312 8.5C50.0312 5.74219 47.789 3.5 45.0312 3.5ZM27.5937 3.5625C27.4257 3.5625 27.2655 3.57031 27.1249 3.59375L16.7499 4.71875C15.8593 4.97266 13.4843 5.62109 13.7812 7.53125C13.9062 8.53125 15.3007 9 16.5312 9C16.6796 9 16.8241 8.98047 16.9062 8.96875L26.6249 8.78125L30.0624 11.4688L22.3124 16.9062C20.2148 18.4297 18.3163 20.418 20.1874 23.6875L27.0937 33.6562C24.6054 33.6875 17.9609 33.7734 16.4687 33.9375C14.0819 34.2188 13.7187 35.625 13.7187 36.4375C13.7187 37.6797 14.5976 38.9375 16.5312 38.9375H32.6249C33.9257 38.9375 34.9335 38.4609 35.4062 37.6562C35.8319 36.9375 35.8007 36.0273 35.2812 35.0938C34.5663 33.7578 29.4882 26.0391 28.2812 24.1562L38.5624 17.625C40.0859 16.6562 40.4335 15.168 39.5312 13.5625C38.828 12.2578 37.1054 9.61719 37.0624 9.5625C36.9921 9.42188 36.8632 9.14062 29.1874 4.09375C28.7421 3.73828 28.1874 3.5625 27.5937 3.5625ZM0.812418 12C0.308512 12.1055 -0.0313323 12.5742 0.0155427 13.082C0.0624177 13.5938 0.488199 13.9883 0.999918 14H19.9999C20.3944 14.0586 20.7851 13.8828 20.9999 13.5469C21.2148 13.2148 21.2148 12.7852 20.9999 12.4531C20.7851 12.1172 20.3944 11.9414 19.9999 12H0.999918C0.937418 11.9961 0.874918 11.9961 0.812418 12ZM0.812418 17C0.308512 17.1055 -0.0313323 17.5742 0.0155427 18.082C0.0624177 18.5938 0.488199 18.9883 0.999918 19H14.9999C15.3944 19.0586 15.7851 18.8828 15.9999 18.5469C16.2148 18.2148 16.2148 17.7852 15.9999 17.4531C15.7851 17.1172 15.3944 16.9414 14.9999 17H0.999918C0.937418 16.9961 0.874918 16.9961 0.812418 17ZM40.4687 18.6562C40.2148 18.8867 39.9374 19.1133 39.6249 19.3125L35.2187 22.125L35.4999 23.7812C35.5077 23.8203 35.5155 23.8711 35.5312 23.9062C35.8476 24.6406 36.2616 25.3594 37.4374 25.5C37.5038 25.4961 44.3437 25.0938 45.8437 25.0938C48.6171 24.9219 49.121 23.6797 49.1874 22.9375C49.2265 22.3203 49.1093 21.8594 48.8124 21.5312C48.3359 21.0039 47.5859 20.9727 46.7812 20.9375C46.6054 20.9297 46.414 20.9219 46.2187 20.9062L40.6562 20.625L40.4687 18.6562ZM0.812418 22C0.308512 22.1055 -0.0313323 22.5742 0.0155427 23.082C0.0624177 23.5938 0.488199 23.9883 0.999918 24H14.9999C15.3944 24.0586 15.7851 23.8828 15.9999 23.5469C16.2148 23.2148 16.2148 22.7852 15.9999 22.4531C15.7851 22.1172 15.3944 21.9414 14.9999 22H0.999918C0.937418 21.9961 0.874918 21.9961 0.812418 22ZM0.812418 27C0.308512 27.1055 -0.0313323 27.5742 0.0155427 28.082C0.0624177 28.5938 0.488199 28.9883 0.999918 29H18.9999C19.3944 29.0586 19.7851 28.8828 19.9999 28.5469C20.2148 28.2148 20.2148 27.7852 19.9999 27.4531C19.7851 27.1172 19.3944 26.9414 18.9999 27H0.999918C0.937418 26.9961 0.874918 26.9961 0.812418 27ZM19.8437 40.9375C18.3319 42.5 16.6718 44.2148 15.9062 45.125C14.539 46.7188 14.3437 48.2852 15.3749 49.4375C15.828 49.8398 16.2968 50 16.7812 50C17.871 50 19.0077 49.1367 20.0312 48.2188C21.1405 47.2383 24.9062 43.5 27.4687 40.9375H19.8437Z" fill="url(#paint0_linear)"/>
</g>
<defs>
<linearGradient id="paint0_linear" x1="25.0212" y1="3.5" x2="25.0212" y2="50" gradientUnits="userSpaceOnUse">
<stop stop-color="#E31266"/>
<stop offset="0.508333" stop-color="#F8493C"/>
<stop offset="1" stop-color="#F4943E"/>
</linearGradient>
<clipPath id="clip0">
<rect width="50" height="50" fill="white"/>
</clipPath>
</defs>
</svg>
