<svg width="471" height="373" viewBox="0 0 471 373" fill="none" xmlns="http://www.w3.org/2000/svg">
<g opacity="0.5">
<path opacity="0.5" d="M191.075 0H28.4099C27.1673 0 26.1599 1.0079 26.1599 2.25121V250.574C26.1599 251.818 27.1673 252.826 28.4099 252.826H191.075C192.318 252.826 193.325 251.818 193.325 250.574V2.25121C193.325 1.0079 192.318 0 191.075 0Z" fill="url(#paint0_linear)"/>
</g>
<path d="M188.93 1.85596H30.55C29.3074 1.85596 28.3 2.86386 28.3 4.10716V247.318C28.3 248.561 29.3074 249.569 30.55 249.569H188.93C190.173 249.569 191.18 248.561 191.18 247.318V4.10716C191.18 2.86386 190.173 1.85596 188.93 1.85596Z" fill="#F2F2F2"/>
<g opacity="0.5">
<path opacity="0.5" d="M74.9151 47.4905H46.8401C45.5974 47.4905 44.5901 48.4984 44.5901 49.7417V74.575C44.5901 75.8183 45.5974 76.8262 46.8401 76.8262H74.9151C76.1577 76.8262 77.1651 75.8183 77.1651 74.575V49.7417C77.1651 48.4984 76.1577 47.4905 74.9151 47.4905Z" fill="#6C63FF"/>
</g>
<path d="M173.485 47.4905H88.3499C87.5712 47.4905 86.9399 48.1221 86.9399 48.9012V49.3415C86.9399 50.1206 87.5712 50.7522 88.3499 50.7522H173.485C174.264 50.7522 174.895 50.1206 174.895 49.3415V48.9012C174.895 48.1221 174.264 47.4905 173.485 47.4905Z" fill="#E0E0E0"/>
<path d="M158.645 57.2657H88.3499C87.5712 57.2657 86.9399 57.8974 86.9399 58.6765V59.1167C86.9399 59.8959 87.5712 60.5275 88.3499 60.5275H158.645C159.424 60.5275 160.055 59.8959 160.055 59.1167V58.6765C160.055 57.8974 159.424 57.2657 158.645 57.2657Z" fill="#E0E0E0"/>
<g opacity="0.5">
<path opacity="0.5" d="M74.9151 93.1199H46.8401C45.5974 93.1199 44.5901 94.1278 44.5901 95.3711V120.204C44.5901 121.448 45.5974 122.456 46.8401 122.456H74.9151C76.1577 122.456 77.1651 121.448 77.1651 120.204V95.3711C77.1651 94.1278 76.1577 93.1199 74.9151 93.1199Z" fill="#6C63FF"/>
</g>
<path d="M173.485 93.1199H88.3499C87.5712 93.1199 86.9399 93.7515 86.9399 94.5306V94.9709C86.9399 95.75 87.5712 96.3816 88.3499 96.3816H173.485C174.264 96.3816 174.895 95.75 174.895 94.9709V94.5306C174.895 93.7515 174.264 93.1199 173.485 93.1199Z" fill="#E0E0E0"/>
<path d="M173.485 102.895H88.3499C87.5712 102.895 86.9399 103.527 86.9399 104.306V104.746C86.9399 105.525 87.5712 106.157 88.3499 106.157H173.485C174.264 106.157 174.895 105.525 174.895 104.746V104.306C174.895 103.527 174.264 102.895 173.485 102.895Z" fill="#E0E0E0"/>
<g opacity="0.5">
<path opacity="0.5" d="M74.9151 138.749H46.8401C45.5974 138.749 44.5901 139.757 44.5901 141.001V165.834C44.5901 167.077 45.5974 168.085 46.8401 168.085H74.9151C76.1577 168.085 77.1651 167.077 77.1651 165.834V141.001C77.1651 139.757 76.1577 138.749 74.9151 138.749Z" fill="#6C63FF"/>
</g>
<path d="M173.485 138.749H88.3499C87.5712 138.749 86.9399 139.381 86.9399 140.16V140.6C86.9399 141.38 87.5712 142.011 88.3499 142.011H173.485C174.264 142.011 174.895 141.38 174.895 140.6V140.16C174.895 139.381 174.264 138.749 173.485 138.749Z" fill="#E0E0E0"/>
<path d="M95.3049 148.53H88.3499C87.5712 148.53 86.9399 149.161 86.9399 149.94V150.381C86.9399 151.16 87.5712 151.791 88.3499 151.791H95.3049C96.0837 151.791 96.7149 151.16 96.7149 150.381V149.94C96.7149 149.161 96.0837 148.53 95.3049 148.53Z" fill="#E0E0E0"/>
<g opacity="0.5">
<path opacity="0.5" d="M292.59 81.4037H132.43C131.187 81.4037 130.18 82.4116 130.18 83.6549V227.762C130.18 229.005 131.187 230.013 132.43 230.013H292.59C293.833 230.013 294.84 229.005 294.84 227.762V83.6549C294.84 82.4116 293.833 81.4037 292.59 81.4037Z" fill="url(#paint1_linear)"/>
</g>
<path d="M290.325 82.8944H134.975C133.732 82.8944 132.725 83.9023 132.725 85.1456V224.585C132.725 225.829 133.732 226.837 134.975 226.837H290.325C291.568 226.837 292.575 225.829 292.575 224.585V85.1456C292.575 83.9023 291.568 82.8944 290.325 82.8944Z" fill="white"/>
<g opacity="0.5">
<path opacity="0.5" d="M180.515 113.821H150.67C149.427 113.821 148.42 114.829 148.42 116.072V142.496C148.42 143.74 149.427 144.748 150.67 144.748H180.515C181.758 144.748 182.765 143.74 182.765 142.496V116.072C182.765 114.829 181.758 113.821 180.515 113.821Z" fill="#6C63FF"/>
</g>
<path d="M284.31 113.821H194.56C193.737 113.821 193.07 114.488 193.07 115.312V115.767C193.07 116.59 193.737 117.258 194.56 117.258H284.31C285.133 117.258 285.8 116.59 285.8 115.767V115.312C285.8 114.488 285.133 113.821 284.31 113.821Z" fill="#E0E0E0"/>
<path d="M284.31 124.132H194.56C193.737 124.132 193.07 124.799 193.07 125.622V126.078C193.07 126.901 193.737 127.568 194.56 127.568H284.31C285.133 127.568 285.8 126.901 285.8 126.078V125.622C285.8 124.799 285.133 124.132 284.31 124.132Z" fill="#E0E0E0"/>
<path d="M284.31 161.547H146.475C145.652 161.547 144.985 162.214 144.985 163.037V163.493C144.985 164.316 145.652 164.983 146.475 164.983H284.31C285.133 164.983 285.8 164.316 285.8 163.493V163.037C285.8 162.214 285.133 161.547 284.31 161.547Z" fill="#E0E0E0"/>
<path d="M284.31 171.857H146.475C145.652 171.857 144.985 172.525 144.985 173.348V173.803C144.985 174.627 145.652 175.294 146.475 175.294H284.31C285.133 175.294 285.8 174.627 285.8 173.803V173.348C285.8 172.525 285.133 171.857 284.31 171.857Z" fill="#E0E0E0"/>
<path d="M284.31 185.599H146.475C145.652 185.599 144.985 186.267 144.985 187.09V187.546C144.985 188.369 145.652 189.036 146.475 189.036H284.31C285.133 189.036 285.8 188.369 285.8 187.546V187.09C285.8 186.267 285.133 185.599 284.31 185.599Z" fill="#E0E0E0"/>
<path d="M249.965 195.91H146.475C145.652 195.91 144.985 196.578 144.985 197.401V197.856C144.985 198.679 145.652 199.347 146.475 199.347H249.965C250.788 199.347 251.455 198.679 251.455 197.856V197.401C251.455 196.578 250.788 195.91 249.965 195.91Z" fill="#E0E0E0"/>
<g opacity="0.5">
<path opacity="0.5" d="M298.82 137.013L299.405 134.402L298.585 136.953C277.259 131.19 255.275 128.224 233.185 128.129C74.025 127.188 0 267.929 0 267.929L150.83 347.551C150.83 347.551 169.33 290.151 235.035 292.022C239.555 292.145 244.063 292.539 248.535 293.202L228.545 355.501C227.691 356.717 227.089 358.093 226.776 359.546C226.463 361 226.445 362.501 226.723 363.962C227.001 365.423 227.569 366.813 228.394 368.049C229.219 369.286 230.283 370.345 231.525 371.162C232.766 371.98 234.158 372.539 235.62 372.808C237.081 373.077 238.582 373.05 240.033 372.727C241.484 372.405 242.855 371.795 244.065 370.932C245.276 370.07 246.301 368.973 247.08 367.707V367.677C248.117 365.99 248.682 364.055 248.715 362.074C248.715 361.739 248.715 361.404 248.68 361.074L263.13 296.469C306.18 309.716 319.225 347.546 319.225 347.546L471 271.631C471 271.631 414 168.31 298.82 137.013Z" fill="url(#paint2_linear)"/>
</g>
<path d="M233.215 129.69C76.085 128.774 3 267.709 3 267.709L151.91 346.306C151.91 346.306 170.18 289.635 235.045 291.461C239.614 291.585 244.171 291.989 248.69 292.672L298 138.464C276.878 132.735 255.099 129.785 233.215 129.69Z" fill="url(#paint3_linear)"/>
<path d="M298 138.464L248.69 292.687C302.5 300.866 318.175 346.306 318.175 346.306L468 271.366C468 271.366 411.705 169.361 298 138.464Z" fill="#E0E0E0"/>
<path d="M248.53 359.668L298.59 135.883L228.63 354.165C227.773 355.365 227.167 356.726 226.848 358.167C226.529 359.607 226.503 361.097 226.773 362.547C227.043 363.997 227.603 365.378 228.418 366.607C229.234 367.836 230.29 368.887 231.521 369.699C232.753 370.51 234.135 371.064 235.586 371.328C237.036 371.592 238.525 371.561 239.963 371.236C241.401 370.911 242.759 370.298 243.956 369.436C245.152 368.574 246.162 367.478 246.925 366.216V366.186C247.949 364.522 248.507 362.612 248.54 360.658C248.57 360.313 248.555 359.993 248.53 359.668Z" fill="#535461"/>
<g opacity="0.7">
<path opacity="0.7" d="M266.625 129.424L265.315 129.179L267.9 119.674C271.97 89.1578 256.595 86.0612 250.83 85.9561C250.167 85.7134 249.491 85.508 248.805 85.3408V81.7388C252.432 80.8434 255.717 78.9038 258.255 76.1599C260.792 73.416 262.469 69.9883 263.08 66.3006H263.13C264.045 66.3006 264.79 64.9048 264.79 63.1839C264.826 62.2717 264.572 61.3715 264.065 60.6125C264.132 59.9455 264.165 59.2785 264.165 58.6114C264.167 55.918 263.621 53.2524 262.561 50.7765C261.501 48.3005 259.95 46.066 258 44.2087C257.734 42.8779 257.258 41.598 256.59 40.4167C255.175 37.9153 252.82 35.324 253.78 32.6175L247.565 33.2578L247.505 29.1606C245.565 29.5108 244.75 31.757 243.6 33.3579C240.83 37.21 235.275 37.7452 231.6 40.7469C230.35 41.7474 227.54 44.8691 228.075 46.9052C225.607 50.3026 224.28 54.3962 224.285 58.5964C224.285 59.2635 224.318 59.9305 224.385 60.5975C223.878 61.3565 223.624 62.2567 223.66 63.1689C223.66 64.8898 224.405 66.2855 225.32 66.2855H225.37C225.981 69.9733 227.658 73.401 230.195 76.1449C232.732 78.8887 236.018 80.8284 239.645 81.7238V85.3258C238.959 85.493 238.283 85.6984 237.62 85.9411C231.855 86.0462 216.48 89.1228 220.55 119.659L223.135 129.164L222.52 129.279C221.605 129.45 220.733 129.799 219.953 130.307C219.174 130.815 218.502 131.472 217.976 132.24C217.45 133.008 217.08 133.872 216.888 134.783C216.695 135.694 216.684 136.634 216.855 137.549L227.07 192.173C227.174 192.732 227.496 193.227 227.965 193.549C228.434 193.87 229.011 193.993 229.57 193.889L231.365 193.554V194.614C230.369 195.107 229.53 195.868 228.943 196.812C228.357 197.756 228.046 198.846 228.045 199.957V200.633H240.085V199.957C240.085 198.926 239.817 197.912 239.307 197.015C238.798 196.118 238.065 195.368 237.18 194.839V192.463L238.82 192.158C239.379 192.054 239.873 191.731 240.195 191.262C240.516 190.793 240.639 190.216 240.535 189.657L230.965 138.339H257.5L247.94 189.662C247.836 190.221 247.959 190.798 248.28 191.267C248.602 191.736 249.096 192.059 249.655 192.163L251.295 192.468V194.844C250.41 195.373 249.677 196.123 249.167 197.02C248.658 197.917 248.39 198.931 248.39 199.962V200.638H260.43V199.962C260.429 198.851 260.118 197.761 259.531 196.817C258.945 195.873 258.106 195.112 257.11 194.619V193.559L258.905 193.894C259.464 193.998 260.041 193.875 260.51 193.554C260.979 193.232 261.301 192.737 261.405 192.178L271.725 136.868C271.879 136.045 271.869 135.198 271.696 134.378C271.523 133.558 271.191 132.78 270.717 132.089C270.243 131.397 269.638 130.806 268.936 130.349C268.234 129.892 267.449 129.578 266.625 129.424Z" fill="url(#paint4_linear)"/>
</g>
<path d="M237.45 186.6H231.86V194.194H237.45V186.6Z" fill="#FDB797"/>
<path d="M256.62 186.6H251.03V194.194H256.62V186.6Z" fill="#FDB797"/>
<path d="M262.615 124.267H225.87V137.454H262.615V124.267Z" fill="#535461"/>
<path opacity="0.1" d="M225.87 126.663C225.87 126.663 239.58 129.86 244.24 129.86C248.9 129.86 262.61 126.663 262.61 126.663V124.662H225.87V126.663Z" fill="black"/>
<path d="M262.787 126.357C262.787 126.357 249.077 129.553 244.417 129.553C239.757 129.553 226.047 126.357 226.047 126.357V104.38C226.047 99.5052 227.982 94.8302 231.427 91.3833C234.872 87.9364 239.545 86 244.417 86C249.289 86 253.961 87.9364 257.406 91.3833C260.851 94.8302 262.787 99.5052 262.787 104.38V126.357Z" fill="url(#paint5_linear)"/>
<path d="M239.85 76.7112H248.635V87.2868C248.635 88.2965 248.234 89.2649 247.521 89.9788C246.807 90.6928 245.839 91.0939 244.83 91.0939H243.66C242.651 91.0939 241.683 90.6928 240.97 89.9788C240.256 89.2649 239.855 88.2965 239.855 87.2868V76.7112H239.85Z" fill="#FDB797"/>
<path d="M238.5 189.332L230.625 190.802C229.954 190.924 229.262 190.775 228.7 190.388C228.138 190.001 227.751 189.407 227.625 188.736L218.235 138.389C218.029 137.287 218.042 136.155 218.273 135.058C218.504 133.961 218.949 132.92 219.582 131.995C220.216 131.07 221.025 130.279 221.964 129.667C222.903 129.055 223.953 128.635 225.055 128.429L227.085 128.049C227.756 127.927 228.448 128.076 229.01 128.463C229.572 128.85 229.959 129.444 230.085 130.115L240.585 186.31C240.648 186.645 240.644 186.99 240.573 187.324C240.502 187.658 240.365 187.974 240.171 188.255C239.978 188.536 239.73 188.776 239.443 188.961C239.156 189.145 238.836 189.271 238.5 189.332Z" fill="#535461"/>
<path d="M249.96 189.332L257.835 190.802C258.506 190.924 259.198 190.775 259.76 190.388C260.322 190.001 260.709 189.407 260.835 188.736L270.385 137.549C270.758 135.546 270.32 133.477 269.169 131.797C268.017 130.117 266.246 128.963 264.245 128.589L261.375 128.054C260.704 127.932 260.012 128.081 259.45 128.468C258.888 128.855 258.501 129.449 258.375 130.12L247.875 186.315C247.813 186.65 247.818 186.994 247.889 187.327C247.96 187.661 248.097 187.977 248.291 188.257C248.484 188.537 248.732 188.777 249.018 188.961C249.305 189.145 249.625 189.271 249.96 189.332Z" fill="#535461"/>
<path opacity="0.1" d="M239.85 83.3747C242.735 84.085 245.75 84.085 248.635 83.3747V77.1113H239.85V83.3747Z" fill="black"/>
<path d="M244.24 79.9078C254.827 79.9078 263.41 71.3205 263.41 60.7275C263.41 50.1345 254.827 41.5472 244.24 41.5472C233.653 41.5472 225.07 50.1345 225.07 60.7275C225.07 71.3205 233.653 79.9078 244.24 79.9078Z" fill="#333333"/>
<path d="M244.24 83.5048C254.386 83.5048 262.61 75.2759 262.61 65.125C262.61 54.9741 254.386 46.7451 244.24 46.7451C234.095 46.7451 225.87 54.9741 225.87 65.125C225.87 75.2759 234.095 83.5048 244.24 83.5048Z" fill="#FDB797"/>
<path d="M232.11 43.5533C235.645 40.6668 240.99 40.1515 243.65 36.4445C244.755 34.9037 245.54 32.7375 247.405 32.4023L247.46 36.3445L253.46 35.7291C252.535 38.3305 254.8 40.8319 256.165 43.2331C257.168 45.0076 257.716 47.0031 257.76 49.0413C255.685 50.2869 253.11 48.9262 250.8 48.2008C248.49 47.4754 246.165 47.4204 243.8 47.3554C242.593 47.2714 241.38 47.3386 240.19 47.5555C239.16 47.832 238.156 48.1986 237.19 48.6511C235.6 49.3164 230.575 51.8328 229.1 50.2119C227.44 48.3759 230.745 44.6689 232.11 43.5533Z" fill="#333333"/>
<path opacity="0.1" d="M233.11 55.9049C234.114 56.456 235.22 56.7964 236.36 56.9055C241.066 57.5494 245.859 57.0113 250.305 55.3396C251.035 57.1856 252.805 58.4563 254.7 59.0566C256.595 59.657 258.605 59.687 260.59 59.717C261.026 59.7662 261.467 59.6825 261.855 59.4769C262.74 58.8815 262.31 57.5108 261.795 56.5803L259.235 51.9378C258.48 50.5671 257.7 49.1663 256.53 48.1308C255.06 46.8301 253.11 46.2197 251.19 45.8345C246.646 44.9292 241.954 45.085 237.48 46.2898C232.695 47.5555 226.55 51.9328 233.11 55.9049Z" fill="black"/>
<path d="M233.11 55.5048C234.114 56.0559 235.22 56.3963 236.36 56.5053C241.066 57.1493 245.859 56.6112 250.305 54.9395C251.035 56.7855 252.805 58.0562 254.7 58.6565C256.595 59.2568 258.605 59.2868 260.59 59.3168C261.026 59.3661 261.467 59.2824 261.855 59.0767C262.74 58.4814 262.31 57.1107 261.795 56.1802L259.235 51.5377C258.48 50.1669 257.7 48.7662 256.53 47.7306C255.06 46.4299 253.11 45.8196 251.19 45.4344C246.646 44.529 241.954 44.6848 237.48 45.8896C232.695 47.1453 226.55 51.5377 233.11 55.5048Z" fill="#333333"/>
<path d="M262.415 68.1215C263.299 68.1215 264.015 66.7799 264.015 65.1249C264.015 63.4699 263.299 62.1283 262.415 62.1283C261.531 62.1283 260.815 63.4699 260.815 65.1249C260.815 66.7799 261.531 68.1215 262.415 68.1215Z" fill="#FDB797"/>
<path d="M226.07 68.1215C226.954 68.1215 227.67 66.7799 227.67 65.1249C227.67 63.4699 226.954 62.1283 226.07 62.1283C225.186 62.1283 224.47 63.4699 224.47 65.1249C224.47 66.7799 225.186 68.1215 226.07 68.1215Z" fill="#FDB797"/>
<path d="M240.097 87.2207C240.097 87.2207 216.857 83.5988 221.652 119.563L224.447 129.874L232.447 129.553C232.447 129.553 227.257 117.547 230.447 109.573C233.637 101.598 240.097 87.2207 240.097 87.2207Z" fill="url(#paint6_linear)"/>
<path d="M248.737 87.2207C248.737 87.2207 271.977 83.5988 267.182 119.563L264.387 129.874L256.387 129.553C256.387 129.553 261.577 117.547 258.387 109.573C255.197 101.598 248.737 87.2207 248.737 87.2207Z" fill="url(#paint7_linear)"/>
<path d="M228.665 135.453C231.092 135.453 233.06 133.484 233.06 131.055C233.06 128.627 231.092 126.658 228.665 126.658C226.238 126.658 224.27 128.627 224.27 131.055C224.27 133.484 226.238 135.453 228.665 135.453Z" fill="#FDB797"/>
<path d="M260.615 135.453C263.042 135.453 265.01 133.484 265.01 131.055C265.01 128.627 263.042 126.658 260.615 126.658C258.188 126.658 256.22 128.627 256.22 131.055C256.22 133.484 258.188 135.453 260.615 135.453Z" fill="#FDB797"/>
<path d="M233.685 190.997H235.23C236.556 190.997 237.828 191.524 238.766 192.463C239.703 193.401 240.23 194.673 240.23 196V197.371H228.665V196C228.665 195.341 228.795 194.689 229.048 194.081C229.3 193.473 229.67 192.92 230.137 192.456C230.603 191.991 231.157 191.623 231.765 191.372C232.374 191.122 233.027 190.995 233.685 190.997Z" fill="#333333"/>
<path d="M253.255 190.997H254.8C256.126 190.997 257.398 191.524 258.336 192.463C259.273 193.401 259.8 194.673 259.8 196V197.371H248.235V196C248.235 195.341 248.365 194.689 248.618 194.081C248.87 193.473 249.24 192.92 249.707 192.456C250.173 191.991 250.727 191.623 251.336 191.372C251.944 191.122 252.597 190.995 253.255 190.997Z" fill="#333333"/>
<path opacity="0.1" d="M229.865 106.282C229.865 106.282 228.265 114.671 231.065 118.288L229.865 106.282Z" fill="black"/>
<path opacity="0.1" d="M258.62 106.282C258.62 106.282 260.22 114.671 257.42 118.288L258.62 106.282Z" fill="black"/>
<defs>
<linearGradient id="paint0_linear" x1="109.74" y1="252.826" x2="109.74" y2="0" gradientUnits="userSpaceOnUse">
<stop stop-color="#808080" stop-opacity="0.25"/>
<stop offset="0.54" stop-color="#808080" stop-opacity="0.12"/>
<stop offset="1" stop-color="#808080" stop-opacity="0.1"/>
</linearGradient>
<linearGradient id="paint1_linear" x1="70114" y1="68409.2" x2="70114" y2="24263.2" gradientUnits="userSpaceOnUse">
<stop stop-color="#808080" stop-opacity="0.25"/>
<stop offset="0.54" stop-color="#808080" stop-opacity="0.12"/>
<stop offset="1" stop-color="#808080" stop-opacity="0.1"/>
</linearGradient>
<linearGradient id="paint2_linear" x1="282600" y1="201987" x2="282600" y2="82126.8" gradientUnits="userSpaceOnUse">
<stop stop-color="#808080" stop-opacity="0.25"/>
<stop offset="0.54" stop-color="#808080" stop-opacity="0.12"/>
<stop offset="1" stop-color="#808080" stop-opacity="0.1"/>
</linearGradient>
<linearGradient id="paint3_linear" x1="150.5" y1="129.685" x2="150.5" y2="346.306" gradientUnits="userSpaceOnUse">
<stop stop-color="#E31266"/>
<stop offset="0.513542" stop-color="#F8493C"/>
<stop offset="1" stop-color="#F4943E"/>
</linearGradient>
<linearGradient id="paint4_linear" x1="34245.4" y1="82307.2" x2="34245.4" y2="23530.1" gradientUnits="userSpaceOnUse">
<stop stop-color="#808080" stop-opacity="0.25"/>
<stop offset="0.54" stop-color="#808080" stop-opacity="0.12"/>
<stop offset="1" stop-color="#808080" stop-opacity="0.1"/>
</linearGradient>
<linearGradient id="paint5_linear" x1="244.417" y1="86" x2="244.417" y2="129.553" gradientUnits="userSpaceOnUse">
<stop stop-color="#E31266"/>
<stop offset="0.503125" stop-color="#F8493C"/>
<stop offset="1" stop-color="#F4943E"/>
</linearGradient>
<linearGradient id="paint6_linear" x1="230.548" y1="87.1189" x2="230.548" y2="129.874" gradientUnits="userSpaceOnUse">
<stop stop-color="#E31266"/>
<stop offset="0.503125" stop-color="#F8493C"/>
<stop offset="1" stop-color="#F4943E"/>
</linearGradient>
<linearGradient id="paint7_linear" x1="258.285" y1="87.1189" x2="258.285" y2="129.874" gradientUnits="userSpaceOnUse">
<stop stop-color="#E31266"/>
<stop offset="0.503125" stop-color="#F8493C"/>
<stop offset="1" stop-color="#F4943E"/>
</linearGradient>
</defs>
</svg>
