<svg width="61" height="52" viewBox="0 0 61 52" fill="none" xmlns="http://www.w3.org/2000/svg">
<path d="M35 52C34.6792 51.9998 34.3605 51.9479 34.0562 51.8463L24.0375 48.5125C23.4416 48.3123 22.9241 47.9294 22.5583 47.4182C22.1925 46.907 21.9972 46.2936 22 45.665V30.7638C21.9972 30.7577 21.9934 30.7522 21.9887 30.7475L0.907464 6.1925C0.440012 5.64793 0.138646 4.98065 0.0391461 4.2699C-0.0603535 3.55914 0.0461926 2.83477 0.346135 2.18276C0.646077 1.53076 1.12682 0.978523 1.73128 0.591613C2.33574 0.204703 3.03853 -0.000626728 3.75621 1.437e-06H56.25C56.9677 -0.000626728 57.6704 0.204703 58.2749 0.591613C58.8794 0.978523 59.3601 1.53076 59.66 2.18276C59.96 2.83477 60.0665 3.55914 59.967 4.2699C59.8675 4.98065 59.5662 5.64793 59.0987 6.1925L38.0112 30.75C38.0069 30.755 38.0032 30.7605 38 30.7663V49C38.0011 49.3943 37.9243 49.7849 37.774 50.1494C37.6236 50.5139 37.4027 50.8451 37.1239 51.1239C36.8451 51.4027 36.5139 51.6236 36.1494 51.774C35.7849 51.9243 35.3943 52.0012 35 52Z" fill="url(#paint0_linear)"/>
<defs>
<linearGradient id="paint0_linear" x1="30.0031" y1="0" x2="30.0031" y2="52" gradientUnits="userSpaceOnUse">
<stop stop-color="#E31266"/>
<stop offset="0.482292" stop-color="#F8493C"/>
<stop offset="1" stop-color="#F4943E"/>
</linearGradient>
</defs>
</svg>
