<svg width="415" height="314" viewBox="0 0 415 314" fill="none" xmlns="http://www.w3.org/2000/svg">
<g clip-path="url(#clip0)">
<path d="M338.572 223.789H8.61472C6.36233 223.787 4.20293 222.891 2.61025 221.298C1.01757 219.705 0.121686 217.545 0.119141 215.292V11.7899C0.120976 10.1394 0.777285 8.55705 1.94408 7.38996C3.11087 6.22286 4.69287 5.56636 6.343 5.56445H340.736C342.415 5.56636 344.024 6.23421 345.211 7.42148C346.398 8.60875 347.066 10.2185 347.068 11.8975V215.292C347.065 217.545 346.169 219.705 344.576 221.298C342.984 222.891 340.824 223.787 338.572 223.789Z" fill="#F2F2F2"/>
<path d="M327.904 213.061H20.3924C15.8846 213.061 12.2173 209.626 12.2173 205.404V28.1915C12.2173 25.0602 14.9348 22.5127 18.2752 22.5127H329.921C333.316 22.5127 336.079 25.1022 336.079 28.285V205.404C336.079 209.626 332.412 213.061 327.904 213.061Z" fill="white"/>
<path d="M346.949 12.8492H0V8.52306C0.00326625 6.26269 0.902808 4.09591 2.50128 2.49809C4.09975 0.90026 6.26662 0.00186744 8.5265 0H338.423C340.683 0.00185792 342.85 0.90025 344.448 2.49808C346.046 4.09591 346.946 6.26269 346.949 8.52306V12.8492Z" fill="#3F3D56"/>
<path d="M15.4955 8.64332C16.7135 8.64332 17.701 7.65569 17.701 6.43738C17.701 5.21908 16.7135 4.23145 15.4955 4.23145C14.2775 4.23145 13.29 5.21908 13.29 6.43738C13.29 7.65569 14.2775 8.64332 15.4955 8.64332Z" fill="white"/>
<path d="M23.8671 8.64332C25.0851 8.64332 26.0725 7.65569 26.0725 6.43738C26.0725 5.21908 25.0851 4.23145 23.8671 4.23145C22.649 4.23145 21.6616 5.21908 21.6616 6.43738C21.6616 7.65569 22.649 8.64332 23.8671 8.64332Z" fill="white"/>
<path d="M32.2382 8.64332C33.4562 8.64332 34.4436 7.65569 34.4436 6.43738C34.4436 5.21908 33.4562 4.23145 32.2382 4.23145C31.0201 4.23145 30.0327 5.21908 30.0327 6.43738C30.0327 7.65569 31.0201 8.64332 32.2382 8.64332Z" fill="white"/>
<path d="M98.5843 50.002H44.2381C43.1562 50.0017 42.0848 50.2146 41.0852 50.6286C40.0856 51.0426 39.1773 51.6495 38.4122 52.4147C37.6472 53.1799 37.0404 54.0884 36.6265 55.0882C36.2126 56.0881 35.9997 57.1597 36 58.2419V95.2339C35.9997 96.3161 36.2126 97.3877 36.6265 98.3875C37.0404 99.3874 37.6472 100.296 38.4122 101.061C39.1773 101.826 40.0856 102.433 41.0852 102.847C42.0848 103.261 43.1562 103.474 44.2381 103.474H98.5842C100.769 103.474 102.864 102.605 104.409 101.06C105.954 99.5149 106.822 97.4192 106.822 95.2339V58.2419C106.822 56.0566 105.954 53.9609 104.409 52.4157C102.864 50.8705 100.769 50.0022 98.5843 50.002Z" fill="url(#paint0_linear)"/>
<path d="M136.917 58.2399V95.2363C136.917 97.4217 137.784 99.5175 139.329 101.063C140.874 102.608 142.97 103.476 145.155 103.476H199.499C201.684 103.476 203.78 102.608 205.325 101.063C206.87 99.5175 207.738 97.4217 207.738 95.2363V58.2399C207.738 56.0545 206.87 53.9587 205.325 52.4134C203.78 50.8681 201.684 50 199.499 50H145.155C142.97 50 140.874 50.8681 139.329 52.4134C137.784 53.9587 136.917 56.0545 136.917 58.2399Z" fill="url(#paint1_linear)"/>
<path d="M238.286 58.5866V95.583C238.286 97.7684 239.154 99.8642 240.699 101.409C242.244 102.955 244.339 103.823 246.524 103.823H300.869C303.054 103.823 305.149 102.955 306.694 101.409C308.239 99.8642 309.107 97.7684 309.107 95.583V58.5866C309.107 56.4012 308.239 54.3054 306.694 52.7601C305.149 51.2148 303.054 50.3467 300.869 50.3467H246.524C244.339 50.3467 242.244 51.2148 240.699 52.7601C239.154 54.3054 238.286 56.4012 238.286 58.5866Z" fill="#E6E6E6"/>
<path d="M36.4521 140.47V177.467C36.4521 179.652 37.3201 181.748 38.8651 183.293C40.41 184.839 42.5054 185.707 44.6903 185.707H99.0351C101.22 185.707 103.315 184.839 104.86 183.293C106.405 181.748 107.273 179.652 107.273 177.467V140.47C107.273 138.285 106.405 136.189 104.86 134.644C103.315 133.099 101.22 132.23 99.0351 132.23H44.6903C42.5054 132.23 40.41 133.099 38.8651 134.644C37.3201 136.189 36.4521 138.285 36.4521 140.47Z" fill="#E6E6E6"/>
<path d="M137.369 140.47V177.467C137.369 179.652 138.237 181.748 139.782 183.293C141.327 184.839 143.422 185.707 145.607 185.707H199.952C202.137 185.707 204.232 184.839 205.777 183.293C207.322 181.748 208.19 179.652 208.19 177.467V140.47C208.19 138.285 207.322 136.189 205.777 134.644C204.232 133.099 202.137 132.23 199.952 132.23H145.607C143.422 132.23 141.327 133.099 139.782 134.644C138.237 136.189 137.369 138.285 137.369 140.47Z" fill="#E6E6E6"/>
<path d="M237.833 140.124V177.12C237.833 179.305 238.701 181.401 240.246 182.947C241.791 184.492 243.887 185.36 246.072 185.36H300.416C302.601 185.36 304.697 184.492 306.242 182.947C307.787 181.401 308.655 179.305 308.655 177.12V140.124C308.655 137.938 307.787 135.842 306.242 134.297C304.697 132.752 302.601 131.884 300.416 131.884H246.072C243.887 131.884 241.791 132.752 240.246 134.297C238.701 135.842 237.833 137.938 237.833 140.124Z" fill="url(#paint2_linear)"/>
<path d="M71.8626 88.4146C78.1186 88.4146 83.19 83.3421 83.19 77.0848C83.19 70.8274 78.1186 65.7549 71.8626 65.7549C65.6066 65.7549 60.5352 70.8274 60.5352 77.0848C60.5352 83.3421 65.6066 88.4146 71.8626 88.4146Z" fill="white"/>
<path d="M89.1714 104.851H54.5508C55.3596 103.29 56.4032 101.862 57.6451 100.617C59.221 99.0376 61.0935 97.7849 63.1549 96.9311C65.2164 96.0774 67.4262 95.6395 69.6574 95.6426H74.0648C77.1856 95.6412 80.2464 96.4998 82.9113 98.1242C85.5762 99.7485 87.7422 102.076 89.1714 104.851Z" fill="white"/>
<path d="M172.78 88.4146C179.036 88.4146 184.107 83.3421 184.107 77.0848C184.107 70.8274 179.036 65.7549 172.78 65.7549C166.524 65.7549 161.452 70.8274 161.452 77.0848C161.452 83.3421 166.524 88.4146 172.78 88.4146Z" fill="white"/>
<path d="M190.089 104.851H155.468C156.277 103.29 157.321 101.862 158.563 100.617C160.138 99.0376 162.011 97.7849 164.072 96.9311C166.134 96.0774 168.344 95.6395 170.575 95.6426H174.982C178.103 95.6412 181.164 96.4998 183.829 98.1242C186.494 99.7485 188.66 102.076 190.089 104.851Z" fill="white"/>
<path d="M273.697 88.4146C279.953 88.4146 285.025 83.3421 285.025 77.0848C285.025 70.8274 279.953 65.7549 273.697 65.7549C267.441 65.7549 262.37 70.8274 262.37 77.0848C262.37 83.3421 267.441 88.4146 273.697 88.4146Z" fill="white"/>
<path d="M291.006 104.851H256.385C257.194 103.29 258.238 101.862 259.48 100.617C261.055 99.0376 262.928 97.7849 264.989 96.9311C267.051 96.0774 269.261 95.6395 271.492 95.6426H275.899C279.02 95.6412 282.081 96.4998 284.746 98.1242C287.411 99.7485 289.577 102.076 291.006 104.851Z" fill="white"/>
<path d="M71.8626 170.299C78.1186 170.299 83.19 165.227 83.19 158.97C83.19 152.712 78.1186 147.64 71.8626 147.64C65.6066 147.64 60.5352 152.712 60.5352 158.97C60.5352 165.227 65.6066 170.299 71.8626 170.299Z" fill="white"/>
<path d="M89.1714 186.734H54.5508C55.3596 185.173 56.4032 183.746 57.6451 182.501C59.221 180.921 61.0935 179.669 63.1549 178.815C65.2164 177.961 67.4262 177.523 69.6574 177.526H74.0648C77.1856 177.525 80.2464 178.384 82.9113 180.008C85.5762 181.632 87.7422 183.96 89.1714 186.734Z" fill="white"/>
<path d="M172.78 170.299C179.036 170.299 184.107 165.227 184.107 158.97C184.107 152.712 179.036 147.64 172.78 147.64C166.524 147.64 161.452 152.712 161.452 158.97C161.452 165.227 166.524 170.299 172.78 170.299Z" fill="white"/>
<path d="M190.089 186.734H155.468C156.277 185.173 157.321 183.746 158.563 182.501C160.138 180.921 162.011 179.669 164.072 178.815C166.134 177.961 168.344 177.523 170.575 177.526H174.982C178.103 177.525 181.164 178.384 183.829 180.008C186.494 181.632 188.66 183.96 190.089 186.734Z" fill="white"/>
<path d="M273.697 170.299C279.953 170.299 285.025 165.227 285.025 158.97C285.025 152.712 279.953 147.64 273.697 147.64C267.441 147.64 262.37 152.712 262.37 158.97C262.37 165.227 267.441 170.299 273.697 170.299Z" fill="white"/>
<path d="M291.006 186.734H256.385C257.194 185.173 258.238 183.746 259.48 182.501C261.055 180.921 262.928 179.669 264.989 178.815C267.051 177.961 269.261 177.523 271.492 177.526H275.899C279.02 177.525 282.081 178.384 284.746 180.008C287.411 181.632 289.577 183.96 291.006 186.734Z" fill="white"/>
<path d="M414.485 314H280.1C279.964 314 279.833 313.945 279.736 313.849C279.64 313.752 279.585 313.621 279.585 313.485C279.585 313.348 279.64 313.217 279.736 313.121C279.833 313.024 279.964 312.97 280.1 312.97H414.485C414.621 312.97 414.752 313.024 414.849 313.121C414.946 313.217 415 313.348 415 313.485C415 313.621 414.946 313.752 414.849 313.849C414.752 313.945 414.621 314 414.485 314Z" fill="#3F3D56"/>
<path d="M345.341 307.72L339.029 307.719L336.025 283.366L345.342 283.367L345.341 307.72Z" fill="#A0616A"/>
<path d="M334.519 305.916H346.693V313.583H326.854C326.854 312.576 327.053 311.579 327.438 310.649C327.823 309.719 328.388 308.873 329.1 308.162C329.811 307.45 330.656 306.885 331.586 306.5C332.516 306.114 333.513 305.916 334.519 305.916Z" fill="#2F2E41"/>
<path d="M369.025 307.72L362.713 307.719L359.71 283.366L369.026 283.367L369.025 307.72Z" fill="#A0616A"/>
<path d="M358.204 305.916H370.378V313.583H350.539C350.539 312.576 350.737 311.579 351.123 310.649C351.508 309.719 352.072 308.873 352.784 308.162C353.496 307.45 354.341 306.885 355.271 306.5C356.201 306.114 357.197 305.916 358.204 305.916Z" fill="#2F2E41"/>
<path d="M368.254 235.19C367.574 234.752 366.998 234.171 366.567 233.486C366.136 232.802 365.86 232.032 365.759 231.229C365.658 230.427 365.734 229.612 365.981 228.842C366.229 228.072 366.642 227.366 367.193 226.773L363.036 167.776L375.009 168.938L375.338 226.713C376.272 227.704 376.811 229.002 376.852 230.363C376.893 231.725 376.433 233.053 375.56 234.098C374.687 235.143 373.461 235.831 372.115 236.032C370.768 236.234 369.395 235.934 368.254 235.19V235.19Z" fill="#A0616A"/>
<path d="M345.043 295.452L338.094 295.12C337.502 295.092 336.943 294.838 336.532 294.411C336.122 293.983 335.891 293.415 335.887 292.822C334.055 264.539 331.518 234.212 335.402 222.496C335.4 222.162 335.469 221.832 335.607 221.527C335.744 221.223 335.945 220.952 336.197 220.733C336.448 220.513 336.744 220.351 337.064 220.257C337.385 220.162 337.721 220.138 338.052 220.186L365.852 224.223C366.401 224.299 366.904 224.572 367.269 224.99C367.633 225.408 367.835 225.944 367.836 226.499C371.386 240.371 371.546 265.526 371.412 291.663C371.414 291.969 371.356 292.272 371.24 292.555C371.125 292.839 370.955 293.096 370.739 293.313C370.524 293.53 370.268 293.703 369.985 293.82C369.703 293.938 369.401 293.998 369.095 293.998H361.603C361.05 294 360.515 293.804 360.095 293.445C359.675 293.086 359.398 292.587 359.314 292.041L354.692 262.651C354.625 262.221 354.404 261.83 354.07 261.551C353.737 261.271 353.314 261.121 352.879 261.129C352.444 261.137 352.026 261.302 351.703 261.594C351.38 261.886 351.174 262.285 351.123 262.717L347.453 293.412C347.384 293.975 347.112 294.492 346.689 294.868C346.265 295.244 345.719 295.453 345.153 295.455C345.116 295.455 345.079 295.454 345.043 295.452Z" fill="#2F2E41"/>
<path d="M349.934 226.502C343.807 223.097 339.02 222.202 336.712 221.972C336.405 221.942 336.108 221.851 335.838 221.703C335.567 221.555 335.33 221.353 335.14 221.111C334.946 220.866 334.803 220.585 334.72 220.284C334.638 219.983 334.618 219.668 334.66 219.359L341.322 169.893C341.705 166.999 342.823 164.252 344.568 161.912C346.313 159.572 348.628 157.718 351.292 156.526C353.87 155.34 356.71 154.834 359.539 155.056C362.369 155.278 365.094 156.22 367.457 157.793C367.685 157.945 367.909 158.1 368.129 158.258C370.849 160.252 372.919 163.007 374.077 166.175C375.235 169.344 375.429 172.784 374.635 176.063C370.55 192.777 369.147 220.179 368.907 225.502C368.888 225.956 368.736 226.394 368.468 226.761C368.201 227.128 367.831 227.408 367.405 227.565C364.892 228.478 362.239 228.95 359.565 228.961C356.197 228.981 352.881 228.134 349.934 226.502Z" fill="url(#paint3_linear)"/>
<path d="M365.746 187.6C365.466 187.398 365.234 187.136 365.069 186.833C364.903 186.53 364.808 186.193 364.789 185.849L363.912 169.947C363.825 168.372 364.325 166.82 365.314 165.592C366.303 164.363 367.712 163.544 369.27 163.292C370.827 163.041 372.422 163.376 373.747 164.231C375.073 165.086 376.035 166.402 376.448 167.925L380.301 182.142C380.461 182.735 380.38 183.367 380.074 183.9C379.768 184.433 379.264 184.823 378.671 184.985L367.709 187.958C367.376 188.049 367.027 188.064 366.687 188.002C366.347 187.94 366.026 187.803 365.746 187.6Z" fill="url(#paint4_linear)"/>
<path d="M355.506 149.809C362.491 149.809 368.152 144.146 368.152 137.16C368.152 130.175 362.491 124.512 355.506 124.512C348.522 124.512 342.86 130.175 342.86 137.16C342.86 144.146 348.522 149.809 355.506 149.809Z" fill="#A0616A"/>
<path d="M309.68 162.011C309.743 162.289 309.784 162.572 309.803 162.856L331.921 175.618L337.297 172.523L343.029 180.027L331.528 188.226L306.294 168.315C305.265 168.696 304.144 168.755 303.081 168.483C302.018 168.211 301.063 167.622 300.342 166.795C299.622 165.967 299.17 164.939 299.048 163.848C298.926 162.757 299.139 161.655 299.658 160.688C300.177 159.721 300.979 158.935 301.955 158.435C302.932 157.935 304.038 157.744 305.126 157.887C306.214 158.031 307.232 158.502 308.046 159.239C308.859 159.976 309.429 160.943 309.68 162.011V162.011Z" fill="#A0616A"/>
<path d="M332.711 174.533C332.674 174.189 332.715 173.842 332.83 173.516C332.945 173.191 333.132 172.895 333.377 172.651L344.634 161.389C345.749 160.273 347.238 159.61 348.813 159.527C350.389 159.445 351.939 159.948 353.165 160.941C354.391 161.934 355.206 163.345 355.453 164.903C355.7 166.462 355.362 168.056 354.503 169.38L346.486 181.736C346.151 182.251 345.626 182.612 345.025 182.74C344.424 182.868 343.797 182.752 343.282 182.418L333.754 176.234C333.464 176.046 333.22 175.796 333.039 175.502C332.859 175.207 332.747 174.876 332.711 174.533Z" fill="url(#paint5_linear)"/>
<path d="M364.455 147.168C362.096 149.681 357.715 148.332 357.407 144.898C357.383 144.631 357.385 144.363 357.413 144.097C357.571 142.576 358.45 141.195 358.24 139.589C358.192 139.189 358.043 138.808 357.807 138.482C355.927 135.964 351.514 139.608 349.74 137.329C348.652 135.931 349.931 133.73 349.096 132.168C347.994 130.106 344.73 131.124 342.683 129.994C340.406 128.738 340.542 125.243 342.041 123.118C343.87 120.526 347.075 119.142 350.24 118.943C353.405 118.744 356.549 119.599 359.504 120.751C362.862 122.06 366.191 123.869 368.257 126.822C370.77 130.413 371.012 135.241 369.755 139.44C368.991 141.995 366.382 145.115 364.455 147.168Z" fill="#2F2E41"/>
</g>
<defs>
<linearGradient id="paint0_linear" x1="71.4112" y1="50.002" x2="71.4112" y2="103.474" gradientUnits="userSpaceOnUse">
<stop stop-color="#E31266"/>
<stop offset="0.513542" stop-color="#F8493C"/>
<stop offset="1" stop-color="#F4943E"/>
</linearGradient>
<linearGradient id="paint1_linear" x1="172.327" y1="50" x2="172.327" y2="103.476" gradientUnits="userSpaceOnUse">
<stop stop-color="#E31266"/>
<stop offset="0.513542" stop-color="#F8493C"/>
<stop offset="1" stop-color="#F4943E"/>
</linearGradient>
<linearGradient id="paint2_linear" x1="273.244" y1="131.884" x2="273.244" y2="185.36" gradientUnits="userSpaceOnUse">
<stop stop-color="#E31266"/>
<stop offset="0.513542" stop-color="#F8493C"/>
<stop offset="1" stop-color="#F4943E"/>
</linearGradient>
<linearGradient id="paint3_linear" x1="354.877" y1="155.005" x2="354.877" y2="228.961" gradientUnits="userSpaceOnUse">
<stop stop-color="#E31266"/>
<stop offset="0.497917" stop-color="#F8493C"/>
<stop offset="1" stop-color="#F4943E"/>
</linearGradient>
<linearGradient id="paint4_linear" x1="372.142" y1="163.211" x2="372.142" y2="188.039" gradientUnits="userSpaceOnUse">
<stop stop-color="#E31266"/>
<stop offset="0.497917" stop-color="#F8493C"/>
<stop offset="1" stop-color="#F4943E"/>
</linearGradient>
<linearGradient id="paint5_linear" x1="344.115" y1="159.519" x2="344.115" y2="182.791" gradientUnits="userSpaceOnUse">
<stop stop-color="#E31266"/>
<stop offset="0.497917" stop-color="#F8493C"/>
<stop offset="1" stop-color="#F4943E"/>
</linearGradient>
<clipPath id="clip0">
<rect width="415" height="314" fill="white"/>
</clipPath>
</defs>
</svg>
