<svg width="167" height="39" viewBox="0 0 167 39" fill="none" xmlns="http://www.w3.org/2000/svg">
<path fill-rule="evenodd" clip-rule="evenodd" d="M1.49266 0.791739C1.05772 1.2581 0.807739 1.9759 0.807739 2.90863V36.0855C0.807739 37.0182 1.05772 37.736 1.50892 38.1861L1.6268 38.2855L20.2599 19.6958V19.2781L1.61054 0.692383L1.49266 0.791739Z" fill="white"/>
<path fill-rule="evenodd" clip-rule="evenodd" d="M26.4586 25.9164L20.2435 19.7137V19.2798L26.4606 13.0771L26.5948 13.1603L33.948 17.3292C36.0536 18.5133 36.0536 20.464 33.948 21.6644L26.5948 25.8333C26.5928 25.8333 26.4586 25.9164 26.4586 25.9164Z" fill="white"/>
<path fill-rule="evenodd" clip-rule="evenodd" d="M26.5928 25.8336L20.2436 19.4971L1.49268 38.2044C2.1776 38.9384 3.32997 39.0215 4.61851 38.3038L26.5928 25.8336Z" fill="white"/>
<path fill-rule="evenodd" clip-rule="evenodd" d="M26.5928 13.1624L4.61851 0.708428C3.332 -0.0255905 2.1776 0.0737656 1.49268 0.807784L20.2416 19.4969L26.5928 13.1624Z" fill="white"/>
<path opacity="0.2" fill-rule="evenodd" clip-rule="evenodd" d="M26.4587 25.6997L4.63474 38.0705C3.4153 38.7701 2.32797 38.7214 1.62679 38.0868L1.50891 38.2044L1.62679 38.3037C2.32797 38.9364 3.4153 38.9871 4.63474 38.2875L26.6091 25.8335L26.4587 25.6997Z" fill="white"/>
<path opacity="0.12" fill-rule="evenodd" clip-rule="evenodd" d="M33.946 21.4477L26.4424 25.6997L26.5765 25.8335L33.9297 21.6647C34.9825 21.0645 35.5008 20.2818 35.5008 19.4971C35.4337 20.2149 34.8992 20.8982 33.946 21.4477Z" fill="white"/>
<path opacity="0.25" fill-rule="evenodd" clip-rule="evenodd" d="M4.61849 0.925446L33.946 17.5483C34.8992 18.0816 35.4338 18.7811 35.5171 19.4989C35.5171 18.7163 34.9988 17.9316 33.946 17.3314L4.61849 0.708485C2.51292 -0.491898 0.807739 0.507746 0.807739 2.90851V3.12547C0.807739 0.724707 2.51292 -0.258715 4.61849 0.925446Z" fill="white"/>
<path fill-rule="evenodd" clip-rule="evenodd" d="M42.6752 18.4443C42.6752 13.1298 47.1526 8.80273 52.4795 8.80273C55.4245 8.80273 57.5199 9.95648 59.1011 11.459L57.2394 13.3163C56.1094 12.2579 54.577 11.4367 52.4775 11.4367C48.5875 11.4367 45.547 14.5613 45.547 18.4423C45.547 22.3233 48.5875 25.452 52.4754 25.452C54.9977 25.452 56.4325 24.4422 57.3532 23.5216C58.1072 22.7694 58.6011 21.6886 58.7922 20.2064H52.4795V17.5785H61.3652C61.4587 18.0489 61.5074 18.6126 61.5074 19.223C61.5074 21.1959 60.9648 23.6433 59.219 25.3851C57.5199 27.1491 55.3533 28.09 52.4775 28.09C47.1485 28.09 42.6711 23.767 42.6711 18.4484L42.6752 18.4443ZM68.6899 15.6705C65.2491 15.6705 62.4403 18.2821 62.4403 21.8772C62.4403 25.454 65.2471 28.0839 68.6899 28.0839C72.1328 28.0839 74.9355 25.4499 74.9355 21.8752C74.9355 18.2801 72.1308 15.6684 68.6899 15.6705ZM68.6899 25.6426C66.8059 25.6426 65.178 24.0914 65.178 21.8792C65.178 19.6447 66.8039 18.1158 68.6899 18.1158C70.574 18.1158 72.1999 19.6427 72.1999 21.8792C72.1999 24.0894 70.576 25.6426 68.6899 25.6426ZM82.3172 15.6705C78.8763 15.6705 76.0716 18.2821 76.0716 21.8772C76.0716 25.454 78.8763 28.0839 82.3172 28.0839C85.7581 28.0839 88.5628 25.4499 88.5628 21.8752C88.5628 18.2801 85.7601 15.6684 82.3172 15.6705ZM82.3172 25.6426C80.4332 25.6426 78.8052 24.0914 78.8052 21.8792C78.8052 19.6447 80.4311 18.1158 82.3172 18.1158C84.2012 18.1158 85.8292 19.6427 85.8292 21.8792C85.8292 24.0894 84.2012 25.6426 82.3172 25.6426ZM99.0418 16.0476V17.0574H98.9483C98.3366 16.3254 97.1578 15.6684 95.6741 15.6684C92.5625 15.6684 89.707 18.3977 89.707 21.9035C89.707 25.381 92.5605 28.088 95.6741 28.088C97.1578 28.088 98.3366 27.431 98.9483 26.6787H99.0418V27.5709C99.0418 29.9453 97.7695 31.2167 95.7189 31.2167C94.0442 31.2167 93.0076 30.0163 92.5829 29.0085L90.2009 29.996C90.8838 31.6404 92.7007 33.6641 95.7168 33.6641C98.9199 33.6641 101.631 31.7803 101.631 27.1958V16.0456L99.0418 16.0476ZM95.9079 25.6426C94.0238 25.6426 92.4406 24.065 92.4406 21.9035C92.4406 19.7177 94.0218 18.1179 95.9079 18.1179C97.7696 18.1179 99.2309 19.7157 99.2309 21.9035C99.2329 24.065 97.7716 25.6426 95.9079 25.6426ZM103.519 9.46173H106.255V27.7108H103.519V9.46173ZM113.752 25.6426C112.362 25.6426 111.37 25.0059 110.738 23.7629L119.059 20.326L118.772 19.6204C118.256 18.2355 116.675 15.6705 113.445 15.6705C110.24 15.6705 107.576 18.1868 107.576 21.8792C107.576 25.3567 110.216 28.0859 113.752 28.0859C116.606 28.0859 118.256 26.3482 118.939 25.3344L116.817 23.9251C116.108 24.9613 115.14 25.6446 113.752 25.6426ZM113.539 18.0692C114.622 18.0692 115.541 18.6106 115.848 19.3852L110.283 21.6906C110.214 19.2919 112.147 18.0692 113.539 18.0692Z" fill="white"/>
<path fill-rule="evenodd" clip-rule="evenodd" d="M131.062 9.46191H124.522V27.711H127.252V20.7986H131.064C134.091 20.7986 137.066 18.6128 137.066 15.1293C137.066 11.6518 134.093 9.46394 131.068 9.46394L131.062 9.46191ZM131.133 18.258H127.252V12.0006H131.133C133.174 12.0006 134.337 13.6896 134.337 15.1293C134.337 16.5446 133.174 18.258 131.133 18.258ZM141.3 27.711V9.46191H138.57V27.711H141.3ZM153.561 27.6785V20.6831C153.561 17.4428 151.134 15.6362 148.002 15.6362C146.029 15.6362 143.982 16.5061 143.135 18.4303L145.557 19.4381C146.076 18.4303 147.039 18.0998 148.053 18.0998C149.464 18.0998 150.899 18.9454 150.921 20.4499V20.6385C150.427 20.3566 149.37 19.9328 148.074 19.9328C145.462 19.9328 142.804 21.3644 142.804 24.0409C142.804 26.4842 144.946 28.0557 147.346 28.0557C149.183 28.0557 150.193 27.2345 150.827 26.2734H150.921V27.6826H153.559L153.561 27.6785ZM147.677 25.6387C146.783 25.6387 145.535 25.1926 145.535 24.0916C145.535 22.6824 147.09 22.1389 148.431 22.1389C149.632 22.1389 150.195 22.3965 150.927 22.7493C150.718 24.3876 149.33 25.6184 147.677 25.6387ZM163.16 16.0356L160.03 23.9456H159.937L156.689 16.0356H153.748L158.618 27.0946L155.839 33.2445H158.687L166.192 16.0356H163.16Z" fill="white"/>
</svg>
