<svg width="49" height="55" viewBox="0 0 49 55" fill="none" xmlns="http://www.w3.org/2000/svg">
<path d="M45.2615 10.1249C43.4095 9.74868 41.598 10.9426 41.2192 12.7966L38.9027 25.355C38.8412 25.6558 38.5559 25.8564 38.2522 25.8128C37.9484 25.7689 37.7314 25.4959 37.7574 25.1901L39.2241 5.61965C39.4004 3.54749 37.8634 1.72429 35.7912 1.54796C33.7204 1.37162 31.8959 2.90861 31.7195 4.98078L30.4368 22.3932C30.4091 22.7178 30.1305 22.9628 29.8052 22.9491C29.4797 22.9352 29.223 22.6675 29.223 22.3418V3.76585C29.2227 1.68615 27.5366 0 25.4567 0C23.377 0 21.6908 1.68615 21.6908 3.76585V20.8779C20.1445 18.2278 17.7772 16.5364 14.7491 15.9853C11.6788 15.4259 8.64888 16.1077 6.21742 17.9042C4.21218 19.3857 1.68296 22.3215 1.02216 27.8922C0.801744 29.7506 2.06418 31.4395 3.87504 31.7832C2.43353 32.4877 1.52239 34.0434 1.72202 35.7268C2.32595 40.8163 4.91204 43.6231 6.97507 45.0815C8.89032 46.435 13.9775 49.6038 16.3309 51.0812C19.649 53.1639 21.0933 54.4359 24.1517 54.4359H33.1823C38.6818 54.4359 43.1562 49.9617 43.1562 44.4622C43.1562 40.6829 43.537 36.9132 44.293 33.2101L47.9332 14.1676C48.3117 12.3133 47.1155 10.5034 45.2615 10.1249ZM16.5684 31.8641C16.3695 33.8572 15.6621 36.235 15.0636 37.4609C14.3654 38.8917 12.7925 39.6672 11.4853 38.7585C11.4762 38.7521 11.467 38.7457 11.4579 38.7393C10.3295 37.942 9.64865 36.6204 9.43417 34.8116C9.22471 33.0473 7.86017 31.7058 6.18978 31.4381C7.18247 30.9125 7.91111 29.9258 8.05341 28.7262C8.34075 26.3061 9.16076 24.5334 10.4253 23.5992C11.5056 22.8009 12.6836 22.8068 13.481 22.9514C17.5371 23.6901 16.8092 29.4521 16.5684 31.8641Z" fill="url(#paint0_linear)"/>
<defs>
<linearGradient id="paint0_linear" x1="24.5002" y1="0" x2="24.5002" y2="54.4359" gradientUnits="userSpaceOnUse">
<stop stop-color="#E31266"/>
<stop offset="0.497917" stop-color="#F8603C"/>
<stop offset="1" stop-color="#F4943E"/>
</linearGradient>
</defs>
</svg>
