<svg width="166" height="191" viewBox="0 0 166 191" fill="none" xmlns="http://www.w3.org/2000/svg">
<path d="M155.815 35.5104C149.32 34.191 142.966 38.3784 141.638 44.8809L133.513 88.9263C133.298 89.9813 132.297 90.6847 131.232 90.5317C130.166 90.3779 129.405 89.4206 129.497 88.3479L134.641 19.7095C135.259 12.4419 129.868 6.04752 122.601 5.42907C115.338 4.81062 108.939 10.2012 108.32 17.4688L103.821 78.5384C103.725 79.6768 102.747 80.5363 101.606 80.4883C100.465 80.4394 99.5644 79.5005 99.5644 78.3582V13.2078C99.5636 5.91373 93.6498 0 86.355 0C79.061 0 73.1472 5.91373 73.1472 13.2078V73.2239C67.7238 63.9295 59.4212 57.9974 48.801 56.0643C38.0326 54.1024 27.4059 56.4937 18.8782 62.7944C11.8453 67.9903 2.97475 78.2869 0.657159 97.8249C-0.115904 104.343 4.31178 110.266 10.6629 111.472C5.60716 113.942 2.41157 119.399 3.11173 125.303C5.22985 143.153 14.2999 152.997 21.5355 158.112C28.2527 162.859 46.0948 173.973 54.3486 179.154C65.9862 186.459 71.0516 190.92 81.7783 190.92H113.451C132.739 190.92 148.432 175.228 148.432 155.94C148.432 142.685 149.767 129.464 152.419 116.476L165.186 49.6891C166.513 43.1858 162.318 36.8379 155.815 35.5104ZM55.1817 111.755C54.484 118.746 52.003 127.085 49.9041 131.385C47.4551 136.403 41.9387 139.123 37.354 135.936C37.322 135.913 37.2899 135.891 37.2579 135.868C33.3004 133.072 30.9124 128.437 30.1601 122.093C29.4255 115.905 24.6397 111.2 18.7813 110.261C22.2629 108.418 24.8184 104.957 25.3175 100.75C26.3253 92.2621 29.2012 86.0447 33.6361 82.7682C37.4253 79.9684 41.5566 79.9892 44.3533 80.4963C58.5792 83.0871 56.0261 103.296 55.1817 111.755Z" fill="white"/>
</svg>
