<svg width="67" height="67" viewBox="0 0 67 67" fill="none" xmlns="http://www.w3.org/2000/svg">
<path d="M66.6934 32.6863L34.2994 0.417286C33.8629 -0.0193035 33.1559 -0.0193035 32.7193 0.417286L0.324125 32.6863C-0.112464 33.1229 -0.103597 33.8197 0.324125 34.262C0.542967 34.4875 0.828808 34.6025 1.11246 34.6048V34.6093H8.93351V65.7951C8.93351 66.1032 9.05853 66.3791 9.26063 66.5801C9.46272 66.7833 9.74188 66.9095 10.0501 66.9095H25.6832C26.2995 66.9095 26.7998 66.4093 26.7998 65.7951V43.5224H40.1998V65.7951C40.1998 66.4081 40.7 66.9095 41.3164 66.9095H56.9496C57.5659 66.9095 58.0662 66.4093 58.0662 65.7951V34.6093H65.9374C66.23 34.6149 66.5057 34.4998 66.6933 34.2631C67.0731 33.7774 67.1301 33.1229 66.6934 32.6863Z" fill="white"/>
</svg>
