<svg width="505" height="380" viewBox="0 0 505 380" fill="none" xmlns="http://www.w3.org/2000/svg">
<g clip-path="url(#clip0)">
<path opacity="0.1" d="M491.476 260.312C491.002 260.634 490.519 260.945 490.027 261.246C488.204 262.375 486.311 263.387 484.36 264.277C474.058 269.035 461.372 271.36 449.015 272.939C421.29 276.482 392.986 277.171 364.804 277.846C288.653 279.675 212.304 281.508 136.355 277.285C106.348 275.618 75.6685 272.829 48.4704 264.277C44.5724 263.052 40.7505 261.704 37.0047 260.233C29.4282 257.247 22.1458 253.607 16.0969 249.269C10.3904 245.2 5.79443 240.524 3.03775 235.209C-2.70827 224.14 0.333741 211.707 6.89623 200.852C9.65453 196.427 12.7356 192.211 16.1144 188.239C21.1625 182.148 26.7505 176.196 31.8469 170.109C49.9848 148.378 61.8192 120.938 45.0772 98.6806C40.2486 92.2864 33.313 86.6728 29.3931 79.9935C24.3845 71.4591 24.7752 61.9774 26.3642 52.7677C26.5705 51.6055 26.8032 50.4433 27.0183 49.2943C29.7574 35.6375 34.8713 20.9457 50.6125 12.3981C66.9814 3.53917 90.2289 3.98651 110.553 7.13538C142.158 12.0648 171.314 22.3578 200.76 31.6597C230.205 40.9616 261.038 49.4521 293.42 50.3819C322.01 51.1845 355.353 45.1499 374.325 29.4494C392.762 14.2094 427.396 13.0472 452.373 22.257C469.492 28.5722 482.293 39.9617 487.683 52.7677C488.771 55.3171 489.561 57.9837 490.036 60.7144C490.473 63.1857 490.621 65.6996 490.475 68.205C490.396 69.4461 490.251 70.6697 490.036 71.8802C485.861 97.15 455.836 117.078 437.58 139.655C428.66 150.681 422.365 163.921 428.498 175.815C437.852 193.932 470.379 200.374 490.036 213.856C493.811 216.439 497.112 219.289 499.693 222.539C509.183 234.525 505.667 250.752 491.476 260.312Z" fill="#6C63FF"/>
<path d="M18.8575 49.5179C22.3253 52.8773 38.4704 56.3551 38.4704 56.3551C38.4704 56.3551 34.5197 40.3345 31.0431 36.9751C29.372 35.394 27.1445 34.5346 24.8435 34.5831C22.5424 34.6315 20.3532 35.5839 18.7502 37.2339C17.1472 38.884 16.2595 41.0986 16.2796 43.398C16.2997 45.6973 17.2259 47.8961 18.8575 49.5179Z" fill="url(#paint0_linear)"/>
<path d="M27.9922 78.5024C32.7286 79.441 48.1845 73.5949 48.1845 73.5949C48.1845 73.5949 36.1481 62.2976 31.4073 61.3591C29.1542 60.9627 26.8353 61.4639 24.9476 62.7552C23.0599 64.0466 21.7536 66.0253 21.3087 68.2674C20.8637 70.5094 21.3156 72.8364 22.5674 74.7496C23.8192 76.6628 25.7713 78.01 28.0054 78.5024H27.9922Z" fill="url(#paint1_linear)"/>
<path d="M61.2438 109.868C65.809 108.289 76.1685 95.4528 76.1685 95.4528C76.1685 95.4528 60.0674 91.7733 55.5066 93.3521C54.3875 93.6994 53.3497 94.2678 52.4547 95.0236C51.5597 95.7793 50.8258 96.707 50.2966 97.7516C49.7674 98.7961 49.4535 99.9362 49.3738 101.104C49.2941 102.272 49.45 103.444 49.8324 104.551C50.2147 105.658 50.8157 106.676 51.5997 107.547C52.3837 108.417 53.3346 109.121 54.3961 109.617C55.4576 110.113 56.608 110.39 57.779 110.434C58.9501 110.477 60.1179 110.285 61.2131 109.868H61.2438Z" fill="url(#paint2_linear)"/>
<path d="M91.7561 127.955C96.5232 127.17 108.92 116.271 108.92 116.271C108.92 116.271 93.6919 109.908 88.9072 110.693C86.6161 111.07 84.5688 112.342 83.2159 114.227C81.8629 116.113 81.3151 118.458 81.6929 120.747C82.0706 123.036 83.3431 125.081 85.2303 126.433C87.1175 127.785 89.4649 128.332 91.7561 127.955Z" fill="#6C63FF"/>
<path d="M61.6472 61.0784C61.6472 65.9026 52.9118 79.9014 52.9118 79.9014C52.9118 79.9014 44.1589 65.9114 44.1545 61.0872C44.1284 59.9232 44.3354 58.7657 44.7632 57.6827C45.191 56.5997 45.8311 55.613 46.6458 54.7805C47.4606 53.9481 48.4336 53.2866 49.5077 52.8351C50.5819 52.3835 51.7355 52.1509 52.9009 52.1509C54.0662 52.1509 55.2199 52.3835 56.294 52.8351C57.3681 53.2866 58.3412 53.9481 59.1559 54.7805C59.9707 55.613 60.6107 56.5997 61.0386 57.6827C61.4664 58.7657 61.6733 59.9232 61.6472 61.0872V61.0784Z" fill="url(#paint3_linear)"/>
<path d="M97.0498 82.6644C95.6056 87.2693 83.0732 98.014 83.0732 98.014C83.0732 98.014 78.9119 82.046 80.3517 77.4411C81.1184 75.3227 82.6742 73.5818 84.6946 72.5816C86.7149 71.5815 89.0437 71.3993 91.1953 72.073C93.3468 72.7467 95.1549 74.2243 96.2425 76.1977C97.33 78.171 97.6129 80.4877 97.0322 82.6644H97.0498Z" fill="#6C63FF"/>
<path d="M128.585 108.364C127.931 113.144 117.395 125.854 117.395 125.854C117.395 125.854 110.592 110.82 111.25 106.035C111.387 104.884 111.752 103.772 112.323 102.763C112.894 101.754 113.66 100.869 114.577 100.159C115.494 99.4487 116.543 98.9279 117.664 98.6267C118.784 98.3254 119.953 98.2498 121.103 98.4042C122.253 98.5587 123.36 98.9401 124.361 99.5262C125.362 100.112 126.236 100.891 126.933 101.818C127.63 102.745 128.135 103.801 128.419 104.925C128.703 106.049 128.761 107.218 128.589 108.364H128.585Z" fill="#6C63FF"/>
<path opacity="0.25" d="M91.7561 127.955C96.5232 127.17 108.92 116.271 108.92 116.271C108.92 116.271 93.6919 109.908 88.9072 110.693C86.6161 111.07 84.5688 112.342 83.2159 114.227C81.8629 116.113 81.3151 118.458 81.6929 120.747C82.0706 123.036 83.3431 125.081 85.2303 126.433C87.1175 127.785 89.4649 128.332 91.7561 127.955Z" fill="black"/>
<path opacity="0.25" d="M97.0498 82.6644C95.6056 87.2693 83.0732 98.014 83.0732 98.014C83.0732 98.014 78.9119 82.046 80.3517 77.4411C81.1184 75.3227 82.6742 73.5818 84.6946 72.5816C86.7149 71.5815 89.0437 71.3993 91.1953 72.073C93.3468 72.7467 95.1549 74.2243 96.2425 76.1977C97.33 78.171 97.6129 80.4877 97.0322 82.6644H97.0498Z" fill="black"/>
<path opacity="0.25" d="M128.585 108.364C127.931 113.144 117.395 125.854 117.395 125.854C117.395 125.854 110.592 110.82 111.25 106.035C111.387 104.884 111.752 103.772 112.323 102.763C112.894 101.754 113.66 100.869 114.577 100.159C115.494 99.4487 116.543 98.9279 117.664 98.6267C118.784 98.3254 119.953 98.2498 121.103 98.4042C122.253 98.5587 123.36 98.9401 124.361 99.5262C125.362 100.112 126.236 100.891 126.933 101.818C127.63 102.745 128.135 103.801 128.419 104.925C128.703 106.049 128.761 107.218 128.589 108.364H128.585Z" fill="black"/>
<path d="M128.291 141.756C128.291 141.756 124.34 100.895 100.689 79.1603C90.7725 70.0382 83.8807 58.0874 81.4182 44.8473C80.2624 38.5614 79.6864 32.1828 79.6974 25.7918" stroke="#535461" stroke-width="2" stroke-miterlimit="10"/>
<path d="M64.8823 12.0078C66.6908 16.4811 80.0396 26.2084 80.0396 26.2084C80.0396 26.2084 82.9148 9.98166 81.1107 5.48641C80.2434 3.3346 78.556 1.61516 76.4197 0.706345C74.2835 -0.202475 71.8734 -0.22623 69.7196 0.640306C67.5659 1.50684 65.8448 3.19269 64.9352 5.32698C64.0255 7.46126 64.0018 9.86916 64.8691 12.021L64.8823 12.0078Z" fill="url(#paint4_linear)"/>
<path d="M61.4763 42.2027C65.4269 44.9788 81.9187 45.8867 81.9187 45.8867C81.9187 45.8867 75.4923 30.6861 71.5417 27.9057C69.6429 26.6083 67.3091 26.1103 65.0455 26.5194C62.782 26.9286 60.7708 28.212 59.4473 30.0918C58.1239 31.9716 57.5948 34.2965 57.9746 36.5632C58.3543 38.8299 59.6123 40.8559 61.4763 42.2027Z" fill="url(#paint5_linear)"/>
<path d="M79.1578 84.3397C83.9864 84.7432 98.6653 77.2087 98.6653 77.2087C98.6653 77.2087 85.4394 67.3279 80.624 66.9244C79.4653 66.8012 78.2937 66.9104 77.1779 67.2457C76.0621 67.581 75.0246 68.1356 74.1262 68.877C73.2279 69.6184 72.4868 70.5316 71.9466 71.563C71.4063 72.5944 71.0777 73.7232 70.98 74.8832C70.8823 76.0433 71.0176 77.2111 71.3779 78.3182C71.7381 79.4253 72.3161 80.4493 73.0778 81.3302C73.8396 82.211 74.7698 82.931 75.8139 83.4478C76.858 83.9646 77.9949 84.2678 79.1578 84.3397Z" fill="url(#paint6_linear)"/>
<path d="M99.719 113.21C104.398 114.425 120.153 109.478 120.153 109.478C120.153 109.478 108.788 97.5053 104.113 96.2949C101.868 95.7133 99.4834 96.0466 97.4842 97.2215C95.485 98.3964 94.0349 100.317 93.4528 102.56C92.8707 104.803 93.2043 107.185 94.3803 109.182C95.5562 111.18 97.4782 112.629 99.7233 113.21H99.719Z" fill="#6C63FF"/>
<path d="M99.3022 39.8915C97.3488 44.3078 83.6795 53.5658 83.6795 53.5658C83.6795 53.5658 81.353 37.2294 83.3064 32.8175C84.2778 30.7491 86.0213 29.1429 88.1635 28.343C90.3057 27.5431 92.6762 27.613 94.7674 28.5378C96.8586 29.4626 98.5043 31.1688 99.3518 33.2909C100.199 35.413 100.182 37.7824 99.3022 39.8915Z" fill="url(#paint7_linear)"/>
<path d="M122.923 73.9633C119.736 77.5902 103.92 82.3399 103.92 82.3399C103.92 82.3399 106.589 66.0561 109.78 62.4292C110.53 61.5388 111.45 60.8069 112.486 60.2765C113.523 59.746 114.655 59.4277 115.816 59.3402C116.978 59.2526 118.145 59.3976 119.249 59.7666C120.354 60.1356 121.373 60.7212 122.248 61.4891C123.123 62.257 123.836 63.1917 124.345 64.2384C124.853 65.2851 125.148 66.4228 125.211 67.5846C125.273 68.7465 125.103 69.9092 124.71 71.0045C124.318 72.0998 123.71 73.1058 122.923 73.9633Z" fill="#6C63FF"/>
<path d="M141.332 110.228C138.804 114.342 124.02 121.692 124.02 121.692C124.02 121.692 123.897 105.193 126.425 101.08C127.639 99.1022 129.59 97.6878 131.848 97.1475C134.106 96.6071 136.487 96.9851 138.466 98.1982C140.445 99.4114 141.861 101.36 142.401 103.616C142.942 105.872 142.564 108.251 141.35 110.228H141.332Z" fill="#6C63FF"/>
<path opacity="0.1" d="M280.931 380C362.151 380 427.993 376.695 427.993 372.619C427.993 368.543 362.151 365.238 280.931 365.238C199.712 365.238 133.87 368.543 133.87 372.619C133.87 376.695 199.712 380 280.931 380Z" fill="#6C63FF"/>
<path d="M116.838 358.471C116.838 358.471 98.2791 357.353 100.465 370.343C100.465 370.343 100.026 372.641 102.116 373.685C102.116 373.685 102.146 372.72 104.016 373.049C104.683 373.159 105.361 373.191 106.036 373.145C106.945 373.083 107.81 372.725 108.498 372.128C108.498 372.128 113.717 369.975 115.745 361.453C115.745 361.453 117.247 359.598 117.185 359.12L114.055 360.436C114.055 360.436 115.127 362.69 114.284 364.567C114.284 364.567 114.183 360.515 113.581 360.62C113.458 360.642 111.953 361.401 111.953 361.401C111.953 361.401 113.792 365.348 112.392 368.194C112.392 368.194 112.919 363.348 111.365 361.686L109.17 362.971C109.17 362.971 111.321 367.036 109.863 370.347C109.863 370.347 110.236 365.264 108.704 363.287L106.707 364.843C106.707 364.843 108.731 368.843 107.497 371.593C107.497 371.593 107.335 365.677 106.273 365.229C106.273 365.229 104.517 366.769 104.262 367.422C104.262 367.422 105.645 370.325 104.785 371.86C104.785 371.86 104.258 367.913 103.828 367.913C103.828 367.913 102.072 370.523 101.905 372.299C101.905 372.299 101.98 369.637 103.406 367.65C102.401 367.838 101.473 368.317 100.737 369.027C100.737 369.027 101.009 367.181 103.836 367.019C103.836 367.019 105.276 365.041 105.658 364.918C105.658 364.918 102.849 364.681 101.146 365.44C101.146 365.44 102.647 363.686 106.176 364.488L108.147 362.879C108.147 362.879 104.447 362.374 102.879 362.931C102.879 362.931 104.684 361.392 108.678 362.515L110.811 361.225C110.811 361.225 107.66 360.55 105.781 360.787C105.781 360.787 107.761 359.721 111.444 360.879L112.976 360.19C112.976 360.19 110.667 359.752 109.991 359.664C109.315 359.576 109.275 359.405 109.275 359.405C110.739 359.161 112.242 359.328 113.616 359.888C113.616 359.888 116.891 358.673 116.838 358.471Z" fill="url(#paint8_linear)"/>
<path opacity="0.1" d="M104.052 377.035C111.305 377.035 117.185 376.042 117.185 374.816C117.185 373.591 111.305 372.597 104.052 372.597C96.7982 372.597 90.918 373.591 90.918 374.816C90.918 376.042 96.7982 377.035 104.052 377.035Z" fill="#6C63FF"/>
<path d="M84.3207 359.164C84.3207 359.164 73.8602 358.532 75.1025 365.856C75.0389 366.228 75.0946 366.61 75.2618 366.948C75.429 367.286 75.699 367.563 76.0331 367.738C76.0331 367.738 76.0331 367.198 77.1042 367.383C77.4798 367.444 77.8613 367.462 78.2411 367.435C78.7555 367.402 79.2446 367.2 79.6326 366.861C79.6326 366.861 82.5736 365.65 83.7149 360.844C83.7149 360.844 84.5621 359.8 84.527 359.528L82.7712 360.282C82.7712 360.282 83.3725 361.554 82.8985 362.611C82.8985 362.611 82.8414 360.331 82.5034 360.383C82.4332 360.383 81.586 360.822 81.586 360.822C81.586 360.822 82.6263 363.041 81.8406 364.65C81.8406 364.65 82.1391 361.918 81.2611 360.984L80.0013 361.708C80.0013 361.708 81.2128 363.997 80.392 365.865C80.392 365.865 80.6027 363.001 79.7423 361.887L78.6142 362.765C78.6142 362.765 79.7555 365.019 79.0532 366.567C79.0532 366.567 78.9654 363.234 78.364 362.979C77.9372 363.341 77.5569 363.753 77.2315 364.207C77.2315 364.207 78.0084 365.843 77.5256 366.707C77.5256 366.707 77.2315 364.488 76.9856 364.475C76.9856 364.475 76.0024 365.948 75.9014 366.957C75.9491 366.021 76.2411 365.114 76.7486 364.326C76.182 364.433 75.6588 364.703 75.243 365.102C75.243 365.102 75.3966 364.063 76.9988 363.971C76.9988 363.971 77.8109 362.857 78.026 362.786C78.026 362.786 76.4413 362.655 75.4844 363.08C75.4844 363.08 76.3272 362.098 78.3157 362.545L79.4307 361.637C79.4307 361.637 77.3456 361.352 76.4589 361.668C76.4589 361.668 77.4773 360.791 79.7292 361.431L80.9407 360.708C80.0085 360.504 79.0539 360.421 78.1006 360.462C78.1006 360.462 79.22 359.861 81.2963 360.515L82.1742 360.124C82.1742 360.124 80.8573 359.87 80.4886 359.831C80.1198 359.791 80.0891 359.686 80.0891 359.686C80.9135 359.546 81.7607 359.64 82.5341 359.958C82.5341 359.958 84.3558 359.278 84.3207 359.164Z" fill="url(#paint9_linear)"/>
<path opacity="0.1" d="M77.1123 369.628C81.2022 369.628 84.5176 369.068 84.5176 368.378C84.5176 367.688 81.2022 367.128 77.1123 367.128C73.0225 367.128 69.707 367.688 69.707 368.378C69.707 369.068 73.0225 369.628 77.1123 369.628Z" fill="#6C63FF"/>
<path d="M104.227 343.63C104.227 343.63 91.5937 342.871 93.0818 351.717C93.0054 352.166 93.0729 352.627 93.2747 353.035C93.4766 353.443 93.8024 353.777 94.2056 353.989C94.2056 353.989 94.2275 353.331 95.5224 353.55C95.9762 353.627 96.4374 353.649 96.8964 353.616C97.5116 353.577 98.0972 353.338 98.5645 352.936C98.5645 352.936 102.116 351.472 103.498 345.674C103.498 345.674 104.517 344.411 104.477 344.082L102.348 344.994C102.348 344.994 103.073 346.529 102.502 347.805C102.502 347.805 102.432 345.051 102.023 345.112C101.94 345.112 100.917 345.648 100.917 345.648C100.917 345.648 102.168 348.323 101.225 350.27C101.225 350.27 101.58 346.972 100.522 345.841L99.0254 346.718C99.0254 346.718 100.487 349.485 99.4951 351.739C99.4951 351.739 99.7496 348.279 98.7093 346.915L97.3485 347.976C97.3485 347.976 98.7225 350.7 97.8841 352.568C97.8841 352.568 97.7743 348.542 97.0544 348.239C97.0544 348.239 95.8648 349.288 95.6805 349.717C95.6805 349.717 96.6242 351.695 96.0404 352.739C96.0404 352.739 95.6805 350.055 95.3864 350.042C95.3864 350.042 94.2012 351.822 94.0695 353.037C94.1286 351.911 94.4812 350.819 95.0923 349.871C94.4075 350.002 93.7758 350.329 93.275 350.814C93.275 350.814 93.4593 349.555 95.3864 349.445C95.3864 349.445 96.3652 348.095 96.6242 348.016C96.6242 348.016 94.7147 347.854 93.5515 348.367C93.5515 348.367 94.5743 347.182 96.9754 347.722L98.3186 346.626C98.3186 346.626 95.799 346.283 94.7323 346.661C94.7323 346.661 95.9614 345.612 98.683 346.38L100.145 345.503C100.145 345.503 97.9982 345.064 96.7208 345.209C96.7208 345.209 98.0684 344.481 100.575 345.27L101.62 344.801C101.62 344.801 100.048 344.494 99.5872 344.446C99.1263 344.398 99.1 344.266 99.1 344.266C100.096 344.1 101.119 344.214 102.054 344.595C102.054 344.595 104.28 343.77 104.227 343.63Z" fill="url(#paint10_linear)"/>
<path opacity="0.1" d="M95.5354 356.269C100.474 356.269 104.477 355.594 104.477 354.761C104.477 353.928 100.474 353.252 95.5354 353.252C90.5971 353.252 86.5938 353.928 86.5938 354.761C86.5938 355.594 90.5971 356.269 95.5354 356.269Z" fill="#6C63FF"/>
<path d="M297.169 362.607V366.036H195.654V363.251C201.845 360.96 207.216 356.885 211.087 351.542C214.959 346.199 217.156 339.829 217.402 333.238C217.648 326.646 215.931 320.131 212.468 314.515C209.006 308.899 203.953 304.436 197.95 301.691H296.493C291.965 303.767 287.959 306.829 284.769 310.653C281.578 314.477 279.285 318.965 278.056 323.79C276.406 330.284 276.752 337.125 279.051 343.42C281.35 349.714 285.495 355.17 290.944 359.076C292.887 360.472 294.973 361.656 297.169 362.607Z" fill="#C8CAD7"/>
<path opacity="0.1" d="M296.493 301.691C291.965 303.767 287.959 306.829 284.769 310.653C281.579 314.477 279.285 318.965 278.057 323.79H216.395C215.167 318.965 212.873 314.477 209.683 310.653C206.493 306.829 202.487 303.767 197.959 301.691H296.493Z" fill="black"/>
<path d="M79.417 284.218V303.471C79.417 314.102 87.2042 322.72 96.8131 322.72H395.474C405.083 322.72 412.871 314.102 412.871 303.471V284.218H79.417Z" fill="#C8CAD7"/>
<path opacity="0.1" d="M297.169 362.607V366.036H195.654V363.251C198.438 362.217 201.072 360.816 203.485 359.085H290.944C292.887 360.478 294.974 361.659 297.169 362.607Z" fill="black"/>
<path d="M326.54 360.155H166.28C163.976 360.155 162.109 362.02 162.109 364.321V366.15C162.109 368.451 163.976 370.317 166.28 370.317H326.54C328.843 370.317 330.71 368.451 330.71 366.15V364.321C330.71 362.02 328.843 360.155 326.54 360.155Z" fill="#C8CAD7"/>
<path d="M412.871 73.2572C412.871 68.6477 411.038 64.227 407.775 60.9676C404.513 57.7081 400.088 55.877 395.474 55.877H96.8131C92.1994 55.877 87.7746 57.7081 84.5122 60.9676C81.2498 64.227 79.417 68.6477 79.417 73.2572V287.964H412.871V73.2572Z" fill="#474157"/>
<path d="M403.771 81.0285V265.5C403.772 266.624 403.551 267.737 403.12 268.776C402.69 269.814 402.059 270.757 401.264 271.552C400.469 272.347 399.524 272.977 398.485 273.407C397.446 273.836 396.332 274.057 395.207 274.057H97.0769C95.952 274.057 94.8381 273.836 93.7988 273.407C92.7595 272.977 91.8152 272.347 91.0198 271.552C90.2244 270.757 89.5936 269.814 89.1634 268.776C88.7332 267.737 88.5121 266.624 88.5127 265.5V81.0285C88.5127 78.7592 89.415 76.5829 91.0211 74.9783C92.6272 73.3737 94.8055 72.4722 97.0769 72.4722H395.207C397.478 72.4722 399.657 73.3737 401.263 74.9783C402.869 76.5829 403.771 78.7592 403.771 81.0285Z" fill="#F4F4F7"/>
<path d="M246.143 68.1831C248.362 68.1831 250.16 66.3865 250.16 64.1702C250.16 61.954 248.362 60.1574 246.143 60.1574C243.925 60.1574 242.127 61.954 242.127 64.1702C242.127 66.3865 243.925 68.1831 246.143 68.1831Z" fill="white"/>
<path d="M246.143 314.168C251.612 314.168 256.046 309.738 256.046 304.274C256.046 298.809 251.612 294.38 246.143 294.38C240.674 294.38 236.24 298.809 236.24 304.274C236.24 309.738 240.674 314.168 246.143 314.168Z" fill="white"/>
<path d="M403.771 81.0285H88.5166C88.516 79.9051 88.737 78.7926 89.1669 77.7545C89.5968 76.7164 90.2272 75.7731 91.0221 74.9786C91.817 74.184 92.7609 73.5536 93.7997 73.1236C94.8385 72.6935 95.9519 72.4722 97.0764 72.4722H395.207C396.331 72.4716 397.445 72.6925 398.485 73.1223C399.524 73.5521 400.468 74.1824 401.264 74.977C402.059 75.7716 402.69 76.7151 403.12 77.7535C403.55 78.7918 403.771 79.9047 403.771 81.0285Z" fill="white"/>
<path d="M97.0767 78.8752C98.2598 78.8752 99.2188 77.9171 99.2188 76.7351C99.2188 75.5531 98.2598 74.5949 97.0767 74.5949C95.8936 74.5949 94.9346 75.5531 94.9346 76.7351C94.9346 77.9171 95.8936 78.8752 97.0767 78.8752Z" fill="#EDEDF4"/>
<path d="M103.499 78.8752C104.682 78.8752 105.641 77.9171 105.641 76.7351C105.641 75.5531 104.682 74.5949 103.499 74.5949C102.316 74.5949 101.356 75.5531 101.356 76.7351C101.356 77.9171 102.316 78.8752 103.499 78.8752Z" fill="#EDEDF4"/>
<path d="M109.925 78.8752C111.108 78.8752 112.067 77.9171 112.067 76.7351C112.067 75.5531 111.108 74.5949 109.925 74.5949C108.742 74.5949 107.783 75.5531 107.783 76.7351C107.783 77.9171 108.742 78.8752 109.925 78.8752Z" fill="#EDEDF4"/>
<path d="M372.627 104.711H118.195V253.26H372.627V104.711Z" fill="white"/>
<path d="M161.665 230.24H171.046V231.994H161.665V230.24ZM166.358 225.552C166.525 225.551 166.69 225.514 166.841 225.444C166.993 225.374 167.128 225.273 167.238 225.146C167.347 225.02 167.428 224.872 167.475 224.711C167.522 224.551 167.534 224.383 167.511 224.217C167.488 224.052 167.429 223.893 167.339 223.753C167.25 223.612 167.131 223.492 166.991 223.4C166.851 223.309 166.693 223.249 166.528 223.224C166.362 223.198 166.194 223.209 166.033 223.254L163.588 221.469L163.443 221.601L165.234 224.039C165.202 224.15 165.186 224.265 165.186 224.381C165.185 224.535 165.215 224.687 165.274 224.83C165.332 224.972 165.419 225.101 165.527 225.21C165.636 225.319 165.766 225.405 165.908 225.464C166.051 225.523 166.203 225.553 166.358 225.552Z" fill="#65617D"/>
<path d="M166.358 216.763C164.929 216.763 163.529 217.164 162.318 217.921C161.106 218.677 160.132 219.758 159.505 221.041C158.879 222.323 158.626 223.756 158.775 225.176C158.924 226.595 159.469 227.944 160.348 229.069H162.504L162.653 228.92L163.461 228.113L162.609 227.275L161.801 228.078C161.074 227.191 160.625 226.11 160.511 224.969H161.652V223.793H160.511C160.625 222.652 161.074 221.571 161.801 220.684L162.609 221.486L163.447 220.649L162.644 219.842C163.532 219.115 164.615 218.667 165.756 218.553V219.693H166.928V218.553C168.071 218.668 169.155 219.116 170.045 219.842L169.237 220.649L170.08 221.486L170.888 220.684C171.614 221.572 172.062 222.653 172.178 223.793H171.033V224.969H172.178C172.062 226.109 171.614 227.19 170.888 228.078L170.08 227.275L169.237 228.113L170.049 228.92L170.194 229.069H172.35C173.229 227.945 173.774 226.596 173.923 225.177C174.072 223.758 173.819 222.325 173.193 221.043C172.568 219.76 171.594 218.679 170.383 217.922C169.172 217.166 167.773 216.764 166.345 216.763H166.358Z" fill="#65617D"/>
<path d="M166.354 184.818C165.808 184.795 165.273 184.659 164.782 184.419C164.738 184.398 164.688 184.39 164.639 184.394C164.59 184.398 164.543 184.415 164.503 184.443C164.462 184.471 164.43 184.509 164.409 184.553C164.388 184.597 164.379 184.647 164.383 184.696L164.51 186.564C164.512 186.59 164.522 186.614 164.537 186.635C164.552 186.656 164.573 186.673 164.597 186.683C164.62 186.693 164.646 186.697 164.672 186.694C164.698 186.691 164.722 186.681 164.743 186.665L165.274 186.261C165.29 186.25 165.308 186.242 165.327 186.238C165.346 186.233 165.366 186.233 165.385 186.237C165.405 186.24 165.423 186.248 165.439 186.259C165.456 186.27 165.47 186.284 165.48 186.301L166.231 187.476C166.244 187.496 166.262 187.512 166.283 187.524C166.304 187.535 166.328 187.541 166.351 187.541C166.375 187.541 166.399 187.535 166.42 187.524C166.441 187.512 166.459 187.496 166.472 187.476L167.227 186.301C167.239 186.285 167.255 186.272 167.272 186.263C167.29 186.254 167.309 186.248 167.329 186.246C167.348 186.245 167.368 186.247 167.387 186.253C167.406 186.26 167.423 186.27 167.438 186.283L167.969 186.687C167.99 186.702 168.014 186.712 168.04 186.716C168.065 186.719 168.091 186.715 168.115 186.705C168.139 186.694 168.159 186.678 168.175 186.657C168.19 186.636 168.199 186.612 168.202 186.586L168.329 184.718C168.332 184.669 168.322 184.62 168.3 184.577C168.279 184.533 168.247 184.496 168.206 184.468C168.166 184.44 168.12 184.423 168.071 184.419C168.023 184.414 167.974 184.422 167.93 184.441C167.439 184.681 166.904 184.816 166.358 184.84L166.354 184.818Z" fill="#65617D"/>
<path d="M171.547 180.113L169.791 178.315C169.791 172.53 166.376 169.982 166.376 169.982C166.376 169.982 162.926 172.547 162.926 178.315L161.17 180.113C161.137 180.146 161.112 180.187 161.098 180.232C161.083 180.277 161.079 180.325 161.086 180.371L161.762 184.463C161.767 184.512 161.785 184.558 161.813 184.597C161.842 184.637 161.88 184.669 161.924 184.689C161.969 184.709 162.017 184.718 162.066 184.714C162.115 184.709 162.161 184.693 162.201 184.665L164.664 182.998C165.137 183.434 165.746 183.693 166.389 183.731C167.022 183.698 167.622 183.438 168.079 182.998L170.537 184.665C170.577 184.693 170.624 184.709 170.673 184.714C170.721 184.718 170.77 184.709 170.814 184.689C170.858 184.669 170.897 184.637 170.925 184.597C170.953 184.558 170.971 184.512 170.976 184.463L171.657 180.367C171.658 180.319 171.65 180.271 171.631 180.227C171.612 180.183 171.583 180.144 171.547 180.113ZM166.371 176.411C166.137 176.422 165.904 176.362 165.704 176.239C165.503 176.116 165.344 175.936 165.247 175.722C165.15 175.508 165.12 175.27 165.159 175.039C165.199 174.807 165.307 174.593 165.47 174.424C165.632 174.254 165.842 174.137 166.072 174.088C166.302 174.039 166.541 174.059 166.759 174.147C166.977 174.235 167.164 174.386 167.295 174.581C167.426 174.776 167.496 175.005 167.495 175.24C167.501 175.544 167.386 175.838 167.175 176.058C166.965 176.277 166.676 176.404 166.371 176.411Z" fill="#65617D"/>
<path d="M172.205 140.028H172.021C171.779 140.028 171.582 139.997 171.556 139.756C171.02 134.783 167.882 134.687 167.882 133.516C167.882 132.345 171.024 132.248 171.556 127.275C171.582 127.034 171.779 127.003 172.021 127.003H172.205C172.339 127.004 172.469 126.955 172.567 126.864C172.666 126.774 172.726 126.65 172.736 126.516C172.739 126.447 172.728 126.377 172.704 126.312C172.679 126.247 172.642 126.188 172.594 126.138C172.546 126.087 172.489 126.047 172.425 126.019C172.361 125.992 172.292 125.977 172.223 125.977H160.507C160.374 125.976 160.245 126.026 160.148 126.117C160.05 126.207 159.99 126.331 159.98 126.463C159.977 126.533 159.987 126.603 160.011 126.668C160.036 126.733 160.073 126.793 160.121 126.843C160.169 126.894 160.227 126.934 160.291 126.962C160.355 126.989 160.424 127.003 160.494 127.003H160.696C160.933 127.003 161.135 127.034 161.161 127.275C161.697 132.248 164.835 132.345 164.835 133.516C164.835 134.687 161.692 134.783 161.161 139.756C161.135 139.997 160.933 140.028 160.696 140.028H160.507C160.374 140.028 160.245 140.078 160.148 140.168C160.05 140.258 159.99 140.382 159.98 140.515C159.977 140.585 159.987 140.654 160.011 140.719C160.036 140.785 160.073 140.844 160.121 140.895C160.169 140.945 160.227 140.986 160.291 141.013C160.355 141.04 160.424 141.055 160.494 141.054H172.223C172.293 141.055 172.362 141.04 172.426 141.013C172.49 140.986 172.548 140.945 172.596 140.895C172.644 140.844 172.681 140.785 172.705 140.719C172.729 140.654 172.74 140.585 172.736 140.515C172.725 140.382 172.665 140.258 172.566 140.168C172.468 140.078 172.339 140.028 172.205 140.028ZM162.961 138.778C164.014 135.853 165.875 136.208 165.875 135.055V133.02C165.875 132.31 164.528 131.814 163.681 130.661C163.653 130.618 163.638 130.568 163.636 130.517C163.634 130.467 163.646 130.416 163.67 130.372C163.694 130.327 163.73 130.289 163.773 130.263C163.817 130.237 163.867 130.223 163.918 130.222H168.79C168.842 130.221 168.893 130.234 168.938 130.26C168.982 130.285 169.019 130.323 169.045 130.368C169.07 130.413 169.082 130.464 169.081 130.515C169.079 130.567 169.064 130.617 169.036 130.661C168.206 131.818 166.841 132.314 166.841 133.024V135.059C166.841 136.204 168.632 135.893 169.765 138.783C169.87 139.041 169.791 139.366 169.514 139.366H163.215C162.93 139.357 162.864 139.041 162.961 138.778Z" fill="#65617D"/>
<path opacity="0.2" d="M332.093 133.511C332.095 134.805 331.584 136.047 330.67 136.964C329.756 137.881 328.516 138.398 327.221 138.401H201.787C201.132 138.421 200.48 138.309 199.87 138.072C199.259 137.835 198.702 137.478 198.232 137.022C197.762 136.567 197.388 136.021 197.133 135.418C196.878 134.816 196.746 134.168 196.746 133.513C196.746 132.859 196.878 132.211 197.133 131.608C197.388 131.005 197.762 130.46 198.232 130.004C198.702 129.548 199.259 129.192 199.87 128.955C200.48 128.718 201.132 128.606 201.787 128.626H327.221C328.515 128.63 329.754 129.147 330.667 130.063C331.58 130.978 332.093 132.218 332.093 133.511Z" fill="#5A5773"/>
<path opacity="0.2" d="M332.093 178.758C332.095 179.399 331.97 180.034 331.726 180.626C331.482 181.219 331.124 181.758 330.671 182.213C330.219 182.667 329.681 183.028 329.089 183.275C328.497 183.522 327.862 183.65 327.22 183.652H201.787C200.515 183.614 199.308 183.082 198.421 182.17C197.535 181.257 197.039 180.036 197.039 178.764C197.039 177.493 197.535 176.271 198.421 175.359C199.308 174.446 200.515 173.914 201.787 173.876H327.22C328.513 173.882 329.751 174.399 330.664 175.313C331.577 176.228 332.091 177.466 332.093 178.758Z" fill="#5A5773"/>
<path opacity="0.2" d="M332.093 224.381C332.093 225.673 331.58 226.913 330.667 227.828C329.753 228.743 328.514 229.259 327.221 229.262H201.787C201.132 229.282 200.48 229.17 199.87 228.933C199.259 228.696 198.702 228.339 198.232 227.883C197.762 227.428 197.388 226.882 197.133 226.279C196.878 225.677 196.746 225.029 196.746 224.374C196.746 223.72 196.878 223.072 197.133 222.469C197.388 221.867 197.762 221.321 198.232 220.865C198.702 220.409 199.259 220.053 199.87 219.816C200.48 219.579 201.132 219.467 201.787 219.487H327.221C328.516 219.491 329.757 220.009 330.67 220.927C331.584 221.844 332.095 223.087 332.093 224.381Z" fill="#5A5773"/>
<path d="M306.919 128.626V138.401H201.787C201.132 138.421 200.48 138.309 199.87 138.072C199.259 137.835 198.702 137.478 198.232 137.022C197.762 136.567 197.388 136.021 197.133 135.418C196.878 134.816 196.746 134.168 196.746 133.513C196.746 132.859 196.878 132.211 197.133 131.608C197.388 131.005 197.762 130.46 198.232 130.004C198.702 129.548 199.259 129.192 199.87 128.955C200.48 128.718 201.132 128.606 201.787 128.626H306.919Z" fill="url(#paint11_linear)"/>
<path d="M325.574 173.868V183.652H201.787C200.515 183.614 199.308 183.082 198.421 182.17C197.535 181.257 197.039 180.036 197.039 178.764C197.039 177.493 197.535 176.271 198.421 175.359C199.308 174.446 200.515 173.914 201.787 173.876L325.574 173.868Z" fill="url(#paint12_linear)"/>
<path d="M279.703 219.495V229.262H201.787C201.132 229.282 200.48 229.17 199.87 228.933C199.259 228.696 198.702 228.339 198.232 227.883C197.762 227.428 197.388 226.882 197.133 226.279C196.878 225.677 196.746 225.029 196.746 224.374C196.746 223.72 196.878 223.072 197.133 222.469C197.388 221.867 197.762 221.321 198.232 220.865C198.702 220.409 199.259 220.053 199.87 219.816C200.48 219.579 201.132 219.467 201.787 219.487L279.703 219.495Z" fill="url(#paint13_linear)"/>
<path d="M455.652 205.94C455.893 205.286 454.094 201.65 454.094 201.471C454.094 201.291 452.228 199.278 452.228 198.133C452.228 196.989 449.765 194.554 449.765 194.554C449.765 194.554 446.46 193.182 446.1 190.204C445.74 187.226 442.149 187.165 442.149 187.165C442.149 187.165 442.149 186.893 442.149 186.481C442.149 185.551 442.123 183.902 441.71 182.994C441.284 182.171 440.548 181.549 439.665 181.266C439.665 181.266 439.305 178.937 438.585 178.222C438.183 177.802 437.895 177.285 437.748 176.722C437.601 176.158 437.601 175.567 437.747 175.003C438.107 173.876 437.268 171.013 435.521 170.618C433.774 170.223 431.799 169.543 431.799 169.543C431.799 169.543 431.601 169.583 431.316 169.622L431.074 169.543C430.658 169.622 430.237 169.674 429.814 169.701C429.446 169.713 429.085 169.593 428.796 169.364C428.182 168.684 423.353 167.425 422.431 167.425C421.509 167.425 418.941 166.228 418.941 166.228L416.36 164.263C415.636 163.71 414.297 161.474 414.104 161.149L414.078 161.105C413.858 160.596 413.676 160.071 413.533 159.535C414.411 158.616 415.163 157.583 415.768 156.465C415.829 156.351 415.882 156.233 415.943 156.115C416.074 156.114 416.205 156.094 416.33 156.053L416.492 155.992C417.099 155.67 417.556 155.124 417.765 154.47C417.813 154.338 417.848 154.207 417.883 154.075L417.91 153.944C417.91 153.852 417.949 153.76 417.967 153.672L417.993 153.518C417.993 153.426 418.024 153.339 418.033 153.246C418.042 153.154 418.033 153.146 418.033 153.097C418.033 153.049 418.059 152.869 418.077 152.76C418.117 152.338 418.18 151.92 418.265 151.505C418.625 149.887 419.582 148.519 420.289 147.023C420.386 146.808 420.482 146.585 420.566 146.37C420.649 146.155 420.732 145.892 420.803 145.646C420.803 145.572 420.842 145.497 420.86 145.422C420.908 145.243 420.947 145.067 420.983 144.883C420.983 144.804 421.013 144.725 421.026 144.646C421.066 144.401 421.101 144.151 421.123 143.901C421.245 142.476 421.033 141.042 420.504 139.712C420.065 138.594 419.385 137.585 418.928 136.467C418.239 134.77 418.05 132.849 417.212 131.235C415.798 128.525 412.467 127.165 409.75 128.187C408.433 128.674 407.313 129.617 405.988 130.038C404.232 130.604 402.309 130.178 400.474 129.924C398.639 129.669 396.603 129.647 395.128 130.845C393.424 132.226 392.959 134.818 391.361 136.336C390.69 136.971 389.86 137.379 389.167 137.967C388.667 138.365 388.284 138.889 388.056 139.484C388.04 139.526 388.027 139.568 388.016 139.612C387.999 139.661 387.985 139.713 387.977 139.765C387.977 139.826 387.955 139.883 387.946 139.945C387.937 140.006 387.946 140.028 387.946 140.068C387.94 140.174 387.94 140.281 387.946 140.388C387.956 140.488 387.972 140.588 387.995 140.686C387.995 140.717 387.995 140.743 387.995 140.769C387.995 140.796 388.038 140.936 388.069 141.019V141.068C388.1 141.16 388.139 141.247 388.174 141.339C388.21 141.432 388.214 141.427 388.236 141.475C388.25 141.513 388.266 141.549 388.284 141.585C388.516 142.027 388.703 142.491 388.842 142.971C388.917 143.275 388.897 143.595 388.785 143.888C388.624 144.221 388.399 144.519 388.122 144.765C386.925 146.006 386.001 147.483 385.409 149.102C385.339 149.286 385.273 149.47 385.216 149.659L385.295 149.681C385.467 149.734 385.643 149.772 385.822 149.795C385.923 149.795 386.024 149.821 386.125 149.826C386.535 149.85 386.947 149.819 387.349 149.734L387.657 149.663C388.073 149.551 388.48 149.404 388.872 149.225C388.872 149.348 388.872 149.466 388.872 149.589C388.872 149.712 388.872 149.725 388.872 149.795C388.878 152.434 389.621 155.018 391.017 157.258C392.413 159.498 394.406 161.304 396.774 162.474L396.826 162.86L396.866 163.184L396.704 163.031C396.704 163.031 395.619 162.491 394.601 164.044C393.848 165.057 392.829 165.84 391.655 166.307C391.655 166.307 380.721 168.035 380.299 169.469L375.194 169.767C375.194 169.767 373.39 170.004 373.21 173.758C373.03 177.512 372.069 177.872 372.069 177.872C372.069 177.872 369.966 181.569 370.146 183.476C370.326 185.384 368.483 186.327 368.483 186.327L368.241 189.726C368.241 189.726 366.257 189.428 365.717 191.752C365.177 194.076 364.216 195.151 364.216 195.151C364.216 195.151 360.911 197.892 360.731 200.216L358.689 201.471C358.689 201.471 353.94 200.396 352.86 198.488L352.526 198.177C352.516 198.163 352.507 198.149 352.5 198.133C351.789 197.467 350.283 196.063 350.511 196.379C350.652 196.679 350.686 197.018 350.608 197.339L350.257 196.945L349.313 195.932C349.313 195.932 342.25 187.823 337.755 187.252C337.278 187.377 336.842 187.622 336.488 187.965C336.134 188.308 335.875 188.736 335.736 189.208C335.165 191.147 334.568 194.357 336.052 195.936L343.154 203.519L343.339 203.655L344.884 205.637C344.625 206.26 344.405 206.865 344.221 207.413V207.466C344.182 207.584 344.147 207.703 344.111 207.812L344.072 207.931C344.037 208.045 344.006 208.154 343.971 208.26C343.936 208.365 343.936 208.391 343.914 208.457C343.892 208.523 343.914 208.531 343.883 208.571C343.712 209.167 343.607 209.628 343.55 209.887L343.15 209.764L343.541 209.93C343.539 209.951 343.539 209.971 343.541 209.992C343.529 210.034 343.52 210.076 343.514 210.119C343.633 210.172 343.756 210.229 343.883 210.277C345.986 211.194 356.49 215.798 357.052 216.496C357.653 217.272 361.622 219.535 365.226 217.627C368.829 215.719 369.615 212.803 369.615 212.803C369.615 212.803 373.1 207.979 373.219 207.26C373.338 206.54 376.042 205.711 376.042 205.711C376.042 205.711 376.283 213.698 374.9 216.619C373.518 219.539 370.95 232.477 370.95 232.477C371.118 232.442 371.291 232.432 371.463 232.446L371.31 233.192C371.52 233.154 371.736 233.154 371.946 233.192C371.753 234.661 370.629 241.489 370.629 241.489C370.629 241.489 370.265 244.59 369.668 245.664C369.071 246.739 369.005 252.339 369.005 252.339L368.044 256.392C368.044 256.392 368.171 256.672 368.408 257.093C368.408 257.093 369.44 259.378 371.178 260.663C371.097 261.299 370.933 261.921 370.691 262.514C370.316 263.42 370.153 264.399 370.212 265.378C370.212 265.378 369.189 269.965 369.312 271.281C369.435 272.596 368.649 275.811 368.649 275.811L367.57 286.183C367.57 286.183 366.85 295.182 367.21 297.63C367.57 300.077 366.968 303.41 366.968 303.41C366.968 303.41 367.688 310.506 367.508 311.278C367.328 312.049 366.428 315.391 366.968 317.238C367.508 319.084 367.21 324.154 367.21 324.154C367.21 324.154 367.57 330.833 367.987 332.978C368.404 335.122 367.868 337.868 367.868 337.868C367.868 337.868 367.429 342.455 367.267 342.455C367.104 342.455 365.511 345.612 368.706 348.713C371.902 351.814 369.914 351.344 369.914 351.344C369.914 351.344 367.39 350.095 367.688 352.66C367.973 355.103 368.368 354.463 368.404 354.414L367.807 356.375L368.246 356.432C368.131 356.568 368.017 356.708 367.894 356.87C367.531 357.326 367.127 357.747 366.687 358.129C365.963 358.664 365.902 359.853 365.902 359.853C365.902 359.853 361.459 364.677 357.311 367.124C355.116 368.413 353.251 369.501 352.43 370.404C351.688 371.211 351.811 371.865 353.347 372.373C356.591 373.448 362.298 373.983 366.384 372.615C368.82 371.801 371.011 370.386 372.754 368.501C372.754 368.501 375.335 367.185 377.859 367.663C380.383 368.141 385.431 364.861 385.431 364.861L385.339 364.019L385.071 361.58C384.899 361.376 384.771 361.139 384.696 360.883C384.62 360.627 384.598 360.358 384.632 360.094C384.664 359.373 384.593 358.65 384.421 357.949C384.377 357.712 384.334 357.48 384.29 357.256L384.751 357.173C384.751 357.173 384.149 354.134 385.233 353.533C386.318 352.932 386.01 345.13 386.01 345.13C386.01 345.13 384.632 343.341 383.908 343.043C383.183 342.744 383.846 339.047 383.969 338.574C384.092 338.1 385.001 328.816 385.001 328.816C385.001 328.816 384.641 325.899 385.119 324.645C385.598 323.391 384.518 318.566 384.518 318.566C384.518 318.566 384.158 317.97 384.821 317.251C385.484 316.532 385.238 310.159 385.238 310.159C385.238 310.159 385.181 306.94 385.181 306.103C385.181 305.265 385.901 302.23 386.559 301.217C387.218 300.204 386.801 297.046 386.801 297.046L386.836 296.805C386.836 296.717 386.871 296.603 386.893 296.472L386.945 296.152C387.236 294.405 387.627 292.677 388.117 290.977C388.899 288.472 389.799 284.065 389.799 284.065L395.391 269.478L395.452 269.307C395.452 269.307 398.034 274.074 398.034 278.491C398.034 278.491 398.696 283.793 398.516 285.223C398.336 286.652 399.061 293.389 399.061 293.389C399.061 293.389 399.838 303.037 399.838 303.476C399.838 303.914 400.799 311.343 401.4 312.475C402.002 313.606 400.799 317.067 400.439 317.422C400.079 317.777 400.558 326.544 400.558 326.544C400.558 326.544 399.658 333.456 399.478 334.877C399.298 336.297 398.578 341.793 399.179 343.937C399.781 346.082 399.539 346.38 399.539 346.38C399.539 346.38 401.703 348.573 400.417 348.766C399.957 348.866 399.524 349.064 399.147 349.345C398.769 349.627 398.456 349.985 398.229 350.397C398.001 350.809 397.864 351.264 397.826 351.733C397.789 352.202 397.852 352.674 398.012 353.116C398.759 355.295 399.639 357.426 400.645 359.497L401.642 359.287V359.997L401.712 363.55C401.712 363.55 402.151 366.948 401.896 367.725C401.651 369.26 401.487 370.808 401.405 372.36C401.361 372.869 401.335 373.211 401.335 373.211C401.335 373.211 401.335 376.369 408.007 375.404C414.679 374.439 415.891 371.838 415.891 371.838C415.891 371.838 415.891 371.716 415.943 371.509C416.04 370.909 416.255 369.628 416.435 368.918C416.676 367.962 414.512 363.655 414.512 363.655C414.512 363.655 414.152 360.734 413.551 360.076C413.299 359.701 413.134 359.274 413.068 358.826C413.011 358.585 412.963 358.335 412.923 358.09C413.081 358.113 413.228 358.139 413.362 358.168C413.362 358.168 412.998 356.085 414.385 355.427C415.772 354.77 415.403 353.401 415.223 352.796C415.043 352.191 415.763 348.849 415.763 348.849C415.667 348.517 415.661 348.165 415.746 347.83C415.831 347.494 416.003 347.188 416.246 346.941C417.089 346.108 417.747 340.266 417.747 340.266L417.866 317.733C417.866 317.733 418.305 313.738 417.809 312.128C417.313 310.519 416.848 307.423 417.506 306.585C418.164 305.747 417.567 301.875 417.567 301.875C417.567 301.875 417.567 293.709 418.467 291.683C419.367 289.656 419.069 276.842 419.069 276.842L419.31 268.435C419.31 268.435 421.272 266.579 420.807 256.905C422.901 256.773 425.262 256.699 425.636 256.988C426.298 257.523 430.561 260.268 433.098 258.536C433.638 258.299 436.1 256.212 436.1 256.212L435.043 238.34C435.701 239.336 436.105 239.998 436.105 239.998C436.105 237.494 443.194 229.389 443.194 229.389C443.194 229.389 449.8 220.864 451.245 219.851C452.689 218.838 455.507 213.47 455.507 213.47C455.925 212.447 456.407 211.453 456.951 210.492C457.592 209.457 455.397 206.597 455.652 205.94ZM440.152 212.198C438.352 212.378 434.564 216.491 434.507 217.386C434.374 217.976 434.099 218.525 433.708 218.987C433.677 218.627 433.647 218.263 433.62 217.89C433.181 212.628 432.742 206.203 432.944 205.58C433.304 204.51 433.181 199.681 433.181 199.681L433.247 199.589C434.459 203.33 438.221 207.742 438.221 207.742C438.221 207.742 438.883 209.65 439.665 209.707C440.446 209.764 440.152 212.198 440.152 212.198Z" fill="url(#paint14_linear)"/>
<path d="M343.822 210.843C343.822 210.843 346.017 199.366 353.04 199.309L358.189 209.895L354.757 212.264C354.757 212.264 347.316 212.496 343.822 210.843Z" fill="#65617D"/>
<path opacity="0.1" d="M358.211 209.891L354.774 212.259C354.774 212.259 349.507 212.426 345.776 211.5C345.104 211.346 344.449 211.125 343.822 210.838C343.822 210.838 343.822 210.772 343.862 210.654C343.86 210.639 343.86 210.625 343.862 210.61C344.18 209.171 344.621 207.761 345.179 206.396C345.394 205.878 345.618 205.347 345.907 204.817C346.939 202.835 348.387 200.87 350.372 199.927C351.105 199.567 351.904 199.358 352.72 199.313H352.931H353.036L353.146 199.545L354.902 203.124L358.211 209.891Z" fill="black"/>
<path d="M416.716 257.576C416.716 257.576 424.117 256.865 424.766 257.396C425.416 257.927 429.621 260.65 432.11 258.935C434.599 257.22 432.94 251.243 432.94 251.006C432.94 250.769 432.703 242.309 432.703 242.309L428.26 236.336L422.694 225.863L411.325 224.741L411.619 241.362L411.562 249.875L416.716 257.576Z" fill="#65617D"/>
<path opacity="0.1" d="M416.716 257.576C416.716 257.576 424.117 256.865 424.766 257.396C425.416 257.927 429.621 260.65 432.11 258.935C434.599 257.22 432.94 251.243 432.94 251.006C432.94 250.769 432.703 242.309 432.703 242.309L428.26 236.336L422.694 225.863L411.325 224.741L411.619 241.362L411.562 249.875L416.716 257.576Z" fill="black"/>
<path d="M351.578 199.001C351.578 199.001 350.99 206.22 346.486 206.339C346.486 206.339 345.214 205.571 343.497 204.29C339.546 201.33 333.269 195.651 335.003 190.362C337.488 182.792 349.568 196.752 349.568 196.752L350.499 197.791L351.578 199.001Z" fill="#FBBEBE"/>
<path opacity="0.1" d="M351.578 199.001C351.578 199.001 350.99 206.22 346.486 206.339C346.486 206.339 345.213 205.571 343.497 204.291L343.11 203.795C343.874 204.195 344.716 204.421 345.577 204.457C346.257 204.489 346.93 204.312 347.505 203.95C348.08 203.587 348.531 203.057 348.795 202.431C349.271 201.505 349.689 200.55 350.046 199.572C350.257 198.997 350.404 198.402 350.485 197.795L351.578 199.001Z" fill="black"/>
<path d="M349.607 212.079L348.593 210.764L345.187 206.378L343.431 204.137C344.194 204.537 345.036 204.763 345.898 204.799C346.577 204.83 347.249 204.653 347.825 204.291C348.4 203.928 348.85 203.399 349.115 202.773C349.59 201.845 350.006 200.889 350.362 199.909C350.924 198.313 350.915 197.493 350.713 197.216C350.511 196.94 351.973 198.287 352.671 198.949L352.697 198.975L353.026 199.287L353.145 199.528L354.861 202.953C354.861 202.953 354.861 203.001 354.861 203.098C355.046 204.198 355.625 211.101 349.607 212.079Z" fill="#E7EFFD"/>
<path d="M385.097 364.339C385.097 364.339 380.12 367.593 377.635 367.115C375.151 366.637 372.6 367.948 372.6 367.948C370.887 369.818 368.728 371.223 366.323 372.031C362.298 373.391 356.666 372.856 353.475 371.79C351.96 371.286 351.842 370.637 352.57 369.834C353.378 368.957 355.235 367.861 357.399 366.584C361.459 364.177 365.849 359.388 365.849 359.388C365.849 359.388 365.91 358.204 366.622 357.673C367.055 357.293 367.455 356.877 367.815 356.427C368.452 355.673 369.049 354.888 369.049 354.888L383.675 355.366C383.675 355.366 383.921 356.419 384.114 357.493C384.282 358.19 384.352 358.908 384.32 359.625C384.284 359.886 384.303 360.153 384.374 360.407C384.446 360.661 384.57 360.898 384.737 361.102L384.996 363.519L385.097 364.339Z" fill="#65617D"/>
<path d="M415.706 368.44C415.53 369.146 415.32 370.413 415.223 371.01C415.192 371.211 415.175 371.338 415.175 371.338C415.175 371.338 413.99 373.939 407.418 374.886C400.847 375.834 400.834 372.694 400.834 372.694C400.834 372.694 400.86 372.356 400.904 371.847C401.001 370.307 401.177 368.773 401.431 367.251C401.664 366.479 401.251 363.107 401.251 363.107L401.181 359.598L401.132 357.147L412.036 356.006C412.104 356.821 412.222 357.631 412.388 358.432C412.458 358.874 412.619 359.296 412.862 359.673C413.459 360.326 413.814 363.221 413.814 363.221C413.814 363.221 415.943 367.488 415.706 368.44Z" fill="#65617D"/>
<path opacity="0.1" d="M383.675 355.366C383.675 355.366 383.921 356.419 384.114 357.493C382.534 357.787 375.625 358.98 373.899 358.142C371.946 357.195 367.754 356.664 367.754 356.664L367.824 356.427C368.461 355.673 369.058 354.888 369.058 354.888L383.675 355.366Z" fill="black"/>
<path opacity="0.1" d="M412.379 358.44C409.618 357.971 403.565 359.103 401.181 359.589L401.133 357.138L412.037 356.006C412.101 356.824 412.216 357.637 412.379 358.44Z" fill="black"/>
<path d="M418.547 268.755L418.314 277.087C418.314 277.087 418.608 289.806 417.721 291.819C416.835 293.831 416.843 301.936 416.843 301.936C416.843 301.936 417.436 305.778 416.782 306.607C416.128 307.436 416.602 310.51 417.08 312.106C417.559 313.703 417.137 317.672 417.137 317.672L417.019 340.038C417.019 340.038 416.369 345.832 415.54 346.665C415.299 346.909 415.128 347.211 415.043 347.543C414.959 347.874 414.963 348.222 415.057 348.551C415.057 348.551 414.346 351.862 414.521 352.454C414.697 353.046 415.057 354.41 413.696 355.059C412.335 355.708 412.686 357.778 412.686 357.778C409.434 357.011 400.193 359.094 400.193 359.094C399.197 357.039 398.326 354.926 397.586 352.765C397.427 352.327 397.363 351.86 397.399 351.395C397.435 350.93 397.569 350.479 397.794 350.07C398.018 349.661 398.327 349.305 398.7 349.025C399.073 348.745 399.501 348.547 399.956 348.446C401.199 348.27 399.079 346.082 399.079 346.082C399.079 346.082 399.316 345.783 398.723 343.656C398.13 341.529 398.841 336.082 399.017 334.662C399.193 333.241 400.088 326.377 400.088 326.377C400.088 326.377 399.614 317.68 399.97 317.325C400.325 316.97 401.51 313.536 400.918 312.413C400.325 311.291 399.377 303.896 399.377 303.48C399.377 303.063 398.609 293.481 398.609 293.481C398.609 293.481 397.893 286.797 398.065 285.398C398.236 283.999 397.586 278.71 397.586 278.71C397.586 274.324 395.044 269.601 395.044 269.601L394.979 269.772L389.474 284.214C389.474 284.214 388.596 288.599 387.819 291.073C387.333 292.762 386.946 294.478 386.66 296.213L386.608 296.529C386.608 296.66 386.568 296.774 386.555 296.862L386.52 297.099C386.52 297.099 386.932 300.234 386.283 301.243C385.633 302.252 384.922 305.265 384.922 306.094C384.922 306.923 384.979 310.115 384.979 310.115C384.979 310.115 385.216 316.444 384.566 317.132C384.378 317.288 384.247 317.501 384.193 317.739C384.139 317.977 384.165 318.226 384.268 318.448C384.268 318.448 385.335 323.241 384.861 324.483C384.386 325.724 384.746 328.623 384.746 328.623C384.746 328.623 383.798 337.793 383.68 338.271C383.561 338.749 382.907 342.411 383.618 342.709C384.329 343.007 385.69 344.779 385.69 344.779C385.69 344.779 385.989 352.529 384.922 353.112C383.855 353.695 384.448 356.721 384.448 356.721C384.448 356.721 375.862 358.379 373.913 357.432C371.964 356.484 367.767 355.949 367.767 355.949L368.356 354.002C368.32 354.072 367.917 354.704 367.649 352.283C367.355 349.739 369.844 350.967 369.844 350.967C369.844 350.967 371.797 351.441 368.658 348.367C365.52 345.292 367.061 342.152 367.236 342.152C367.412 342.152 367.829 337.6 367.829 337.6C367.829 337.6 368.364 334.876 367.947 332.745C367.53 330.614 367.166 323.991 367.166 323.991C367.166 323.991 367.46 318.965 366.929 317.128C366.398 315.29 367.284 311.984 367.46 311.212C367.636 310.44 366.929 303.401 366.929 303.401C366.929 303.401 367.522 300.09 367.166 297.669C366.81 295.248 367.522 286.31 367.522 286.31L368.588 276.013C368.588 276.013 369.356 272.82 369.238 271.517C369.119 270.215 370.116 265.663 370.116 265.663C370.059 264.692 370.221 263.721 370.59 262.821C371.182 261.641 371.424 257.734 371.424 257.734L377.104 244.717L379.896 233.262L417.497 232.907C417.497 232.907 417.633 233.898 417.862 235.709C418.09 237.52 418.41 240.195 418.766 243.502C419.095 246.502 419.455 250.037 419.806 253.966C420.917 266.505 418.547 268.755 418.547 268.755Z" fill="#3F3D56"/>
<path d="M415.056 165.167L406.277 174.517C406.277 174.517 395.031 170.017 396.212 168.482C396.651 167.886 396.598 166.009 396.334 163.934C395.896 160.658 395.018 156.886 395.018 156.886C395.018 156.886 414.674 153.689 413.015 157.001C412.409 158.211 412.515 159.632 412.892 160.948C413.381 162.461 414.112 163.886 415.056 165.167Z" fill="#FBBEBE"/>
<path opacity="0.1" d="M413.042 157C412.436 158.211 412.164 158.316 412.524 159.632C409.956 162.386 406.686 165.399 402.621 165.399C400.443 165.4 398.295 164.892 396.348 163.917C395.909 160.64 395.031 156.869 395.031 156.869C395.031 156.869 414.701 153.689 413.042 157Z" fill="black"/>
<path d="M416.716 150.966C416.716 154.701 415.231 158.283 412.587 160.924C409.944 163.564 406.359 165.048 402.62 165.048C398.882 165.048 395.297 163.564 392.654 160.924C390.01 158.283 388.525 154.701 388.525 150.966C388.525 150.9 388.525 150.834 388.525 150.764C388.612 147.07 390.148 143.557 392.803 140.984C395.458 138.411 399.019 136.984 402.718 137.01C406.416 137.037 409.957 138.515 412.574 141.126C415.192 143.736 416.678 147.271 416.711 150.966H416.716Z" fill="#FBBEBE"/>
<path opacity="0.1" d="M418.753 243.858C416.887 243.858 410.672 243.923 403.727 244.033H403.639L401.348 244.072H401.273C393.034 244.204 384.918 242.594 381.661 242.901C374.734 243.551 384.145 236.512 384.145 236.512C389.314 237.765 394.632 238.301 399.948 238.104L401.941 238.003C408.235 237.647 414.561 237.055 417.866 236.064C418.086 237.893 418.397 240.551 418.753 243.858Z" fill="black"/>
<path d="M418.753 243.502C416.887 243.502 410.672 243.568 403.727 243.678H403.639L401.348 243.717H401.273C393.034 243.849 384.918 242.239 381.661 242.546C374.734 243.195 384.145 236.156 384.145 236.156C389.314 237.41 394.632 237.948 399.948 237.753L401.941 237.648C408.235 237.292 414.561 236.7 417.866 235.709C418.086 237.538 418.397 240.196 418.753 243.502Z" fill="#E3A79F"/>
<path opacity="0.1" d="M398.833 169.074L387.938 174.161L379.527 239.117C379.527 239.117 384.501 236.867 387.345 238.288C390.19 239.709 398.951 238.406 398.951 238.406C398.951 238.406 405.347 238.051 406.291 238.761C407.235 239.472 418.371 235.801 418.371 235.801C418.371 235.801 420.386 231.306 418.845 230.595C417.304 229.885 419.319 222.907 419.319 222.907L418.371 176.052L416.479 170.017L411.387 166.947L406.172 171.087L403.688 171.442L398.833 169.074Z" fill="black"/>
<path d="M398.833 168.364L387.938 173.451L379.527 238.406C379.527 238.406 384.501 236.156 387.358 237.595C390.216 239.033 398.965 237.713 398.965 237.713C398.965 237.713 405.36 237.358 406.304 238.068C407.248 238.779 418.384 235.113 418.384 235.113C418.384 235.113 420.399 230.613 418.859 229.907C417.318 229.201 419.333 222.215 419.333 222.215L418.384 175.359L416.492 169.324L411.401 166.254L406.186 170.394L403.701 170.749L398.833 168.364Z" fill="#E7EFFD"/>
<path opacity="0.1" d="M398.653 171.372C398.653 171.372 401.792 175.096 401.726 175.867C401.66 176.639 401.546 178.468 401.546 178.468L399.211 183.27C399.211 183.27 397.894 189.243 397.894 190.489C397.894 191.735 395.813 202.51 395.813 202.51L393.324 219.074L390.186 240.788L393.386 246.287L397.174 243.094L402.209 204.405L403.271 196.774C403.271 196.774 404.399 183.047 404.399 181.626C404.399 180.205 403.745 176.481 403.745 176.481C403.745 176.481 404.518 172.929 407.696 172.096C410.874 171.262 407.459 171.92 407.459 171.92L405.624 170.442L404.039 171.083C404.039 171.083 399.601 169.723 398.653 171.372Z" fill="black"/>
<path d="M398.297 171.026C398.297 171.026 401.436 174.749 401.37 175.521C401.304 176.293 401.19 178.122 401.19 178.122L398.824 182.915C398.824 182.915 397.507 188.888 397.507 190.134C397.507 191.379 395.435 202.142 395.435 202.142L392.946 218.706L389.808 240.419L393.03 245.928L396.818 242.735L401.844 204.036L402.911 196.405C402.911 196.405 404.034 182.678 404.034 181.257C404.034 179.836 403.38 176.113 403.38 176.113C403.38 176.113 404.153 172.561 407.331 171.727C410.509 170.894 407.094 171.548 407.094 171.548L405.259 170.07L403.661 170.719C403.661 170.719 399.245 169.368 398.297 171.026Z" fill="#3F3D56"/>
<path opacity="0.1" d="M396.225 164.794C396.225 164.794 395.751 165.149 395.633 167.517C395.514 169.885 393.877 175.205 393.877 175.205C393.877 175.205 400.022 170.947 403.095 171.42L396.225 164.794Z" fill="black"/>
<path d="M396.225 164.101C396.225 164.101 395.751 164.456 395.633 166.824C395.514 169.192 393.877 174.517 393.877 174.517C393.877 174.517 400.022 170.254 403.095 170.727L396.225 164.101Z" fill="#E7EFFD"/>
<path opacity="0.1" d="M413.042 162.921L403.332 171.438C403.332 171.438 411.506 176.288 412.55 177.473C413.595 178.657 414.684 165.877 414.684 165.877L413.042 162.921Z" fill="black"/>
<path d="M413.397 162.211L403.688 170.727C403.688 170.727 411.857 175.578 412.906 176.762C413.955 177.946 415.039 165.166 415.039 165.166L413.397 162.211Z" fill="#E7EFFD"/>
<path opacity="0.1" d="M396.576 164.794C396.576 164.794 395.509 164.263 394.504 165.802C393.765 166.806 392.76 167.584 391.602 168.048C391.602 168.048 380.826 169.763 380.413 171.184L375.378 171.482C375.378 171.482 373.601 171.719 373.425 175.429C373.249 179.139 372.301 179.512 372.301 179.512C372.301 179.512 370.238 183.213 370.409 185.104C370.58 186.994 368.811 187.945 368.811 187.945L376.212 207.172C376.212 207.172 376.449 215.097 375.089 217.996C373.728 220.894 371.177 233.731 371.177 233.731C371.177 233.731 372.244 233.494 372.187 234.205C372.13 234.915 370.87 242.665 370.87 242.665C370.87 242.665 370.515 245.735 369.922 246.805C369.329 247.875 369.272 253.431 369.272 253.431L368.324 257.457C368.324 257.457 370.572 262.483 374.031 261.773C377.49 261.062 383.688 247.634 383.688 247.634L387.639 233.161L390.711 218.846L391.589 209.145L393.011 187.656L395.083 173.46C395.083 173.46 397.41 165.82 396.576 164.794Z" fill="black"/>
<path d="M396.225 164.101C396.225 164.101 395.158 163.57 394.153 165.109C393.414 166.113 392.409 166.891 391.251 167.355C391.251 167.355 380.475 169.074 380.062 170.491L375.027 170.789C375.027 170.789 373.271 171.026 373.074 174.736C372.876 178.446 371.95 178.828 371.95 178.828C371.95 178.828 369.878 182.498 370.054 184.389C370.229 186.279 368.456 187.231 368.456 187.231L375.857 206.457C375.857 206.457 376.094 214.382 374.733 217.281C373.372 220.18 370.822 233.016 370.822 233.016C370.822 233.016 371.889 232.784 371.832 233.49C371.775 234.196 370.515 241.95 370.515 241.95C370.515 241.95 370.159 245.02 369.567 246.094C368.974 247.169 368.917 252.716 368.917 252.716L367.969 256.742C367.969 256.742 370.216 261.768 373.653 261.058C377.09 260.347 383.31 246.919 383.31 246.919L387.261 232.446L390.334 218.127L391.212 208.426L392.634 186.937L394.706 172.74C394.706 172.74 397.054 165.109 396.225 164.101Z" fill="url(#paint15_linear)"/>
<path opacity="0.1" d="M358.211 209.891L354.774 212.259C354.774 212.259 349.506 212.426 345.775 211.5L343.861 210.654L343.479 210.487L343.875 210.61C345.85 211.198 347.386 211.185 348.611 210.777C353.47 209.145 352.935 201.128 352.746 199.313C352.746 199.133 352.715 199.015 352.706 198.966C352.714 198.982 352.722 198.997 352.733 199.01C352.799 199.12 352.874 199.224 352.957 199.322C353.023 199.401 353.097 199.479 353.172 199.554L354.888 202.979C354.888 202.979 354.888 203.027 354.888 203.124L358.211 209.891Z" fill="black"/>
<path d="M370.111 186.761L368.456 187.235L368.219 190.607C368.219 190.607 366.266 190.309 365.73 192.616C365.194 194.923 364.251 195.989 364.251 195.989C364.251 195.989 360.994 198.712 360.818 201.019L358.825 202.26C358.825 202.26 354.146 201.194 353.083 199.304C353.083 199.304 355.212 214.566 343.865 210.838C343.865 210.838 356.595 216.399 357.188 217.167C357.78 217.934 361.687 220.184 365.243 218.294C368.798 216.404 369.567 213.5 369.567 213.5C369.567 213.5 372.999 208.707 373.118 207.996C373.236 207.286 375.901 206.461 375.901 206.461L380.949 194.177L370.111 186.761Z" fill="url(#paint16_linear)"/>
<path opacity="0.1" d="M411.681 170.017L413.398 162.211C413.398 162.211 414.17 164.754 414.938 165.346L417.484 167.298C417.484 167.298 420.03 168.482 420.917 168.482C421.804 168.482 426.602 169.723 427.194 170.372C427.787 171.021 430.157 170.552 430.157 170.552C430.157 170.552 432.111 171.201 433.827 171.618C435.543 172.034 436.373 174.867 436.022 176.003C435.878 176.562 435.879 177.148 436.024 177.707C436.169 178.265 436.454 178.778 436.851 179.196C437.562 179.907 437.918 182.213 437.918 182.213C438.788 182.499 439.51 183.115 439.928 183.928C440.521 185.244 440.367 188.073 440.367 188.073L431.544 200.493C431.544 200.493 431.663 205.286 431.307 206.352C430.952 207.417 432.55 225.517 432.55 225.517L434.384 256.655C434.384 256.655 431.957 258.725 431.426 258.962C430.895 259.198 430.359 247.958 430.359 247.559C430.359 247.16 416.655 227.069 416.655 227.069C416.655 227.069 414.82 224.113 414.82 223.46C414.82 222.807 413.104 216.833 413.104 216.833L410.496 205.299L411.681 170.017Z" fill="black"/>
<path d="M441.074 187.384C441.074 187.792 441.074 188.059 441.074 188.059L432.255 200.475C432.255 200.475 432.374 205.268 432.018 206.334C431.812 206.948 432.264 213.316 432.681 218.548C432.98 222.32 433.26 225.499 433.26 225.499L434.042 238.7L435.095 256.62C435.095 256.62 432.668 258.69 432.137 258.926C431.606 259.163 431.07 247.923 431.07 247.524C431.07 247.125 417.366 227.069 417.366 227.069C417.366 227.069 415.531 224.109 415.531 223.46C415.531 222.811 413.814 216.833 413.814 216.833L411.207 205.299L412.392 170.039L413.397 162.232C413.397 162.232 414.877 164.776 415.649 165.364C416.422 165.951 418.195 167.32 418.195 167.32C418.195 167.32 420.741 168.504 421.628 168.504C422.515 168.504 427.313 169.745 427.905 170.394C428.498 171.043 430.868 170.574 430.868 170.574C430.868 170.574 432.822 171.223 434.538 171.64C436.254 172.056 437.084 174.894 436.733 176.025C436.589 176.585 436.589 177.172 436.734 177.731C436.88 178.29 437.164 178.803 437.562 179.222C438.269 179.933 438.625 182.24 438.625 182.24C439.497 182.525 440.221 183.143 440.639 183.959C441.048 184.818 441.087 186.459 441.074 187.384Z" fill="url(#paint17_linear)"/>
<path opacity="0.1" d="M368.693 345.012C368.987 345.012 381.423 345.485 381.186 347.494C380.949 349.503 368.693 345.012 368.693 345.012Z" fill="black"/>
<path opacity="0.1" d="M371.477 348.384C371.477 348.384 379.817 349.744 377.622 350.985C375.427 352.226 371.477 348.384 371.477 348.384Z" fill="black"/>
<path opacity="0.1" d="M402.502 343.727C402.502 343.727 416.36 344.911 414.288 346.446C412.216 347.981 407.3 348.222 407.063 348.283C406.826 348.345 402.502 343.727 402.502 343.727Z" fill="black"/>
<path opacity="0.1" d="M400.843 349.801C400.843 349.801 408.542 351.116 408.779 352.581C409.016 354.046 400.843 349.801 400.843 349.801Z" fill="black"/>
<path opacity="0.1" d="M405.109 314.19C405.109 314.19 412.133 315.847 412.572 316.97L405.109 314.19Z" fill="black"/>
<path opacity="0.1" d="M377.929 319.277C377.929 319.277 374.26 320.343 377.811 322.47C381.362 324.597 377.929 319.277 377.929 319.277Z" fill="black"/>
<path opacity="0.1" d="M394.215 262.426C394.627 262.426 401.08 260.295 403.332 261.242C404.944 261.843 406.647 262.164 408.367 262.189L394.215 262.426Z" fill="black"/>
<path opacity="0.1" d="M395.044 269.171L394.978 269.759L389.474 284.201C389.474 284.201 388.596 288.586 387.819 291.06C387.333 292.749 386.946 294.465 386.66 296.2L391.546 265.939L395.044 269.171Z" fill="black"/>
<path d="M403.639 243.678L401.348 243.717H401.273L399.93 237.753L401.923 237.647L403.639 243.678Z" fill="#3F3D56"/>
<path d="M431.575 236.455L430.104 237.669L425.183 241.717C425.183 241.717 411.857 248.818 408.187 242.073C404.952 236.13 420.039 231.889 423.695 230.964L424.472 230.775L431.575 236.455Z" fill="#FBBEBE"/>
<path opacity="0.1" d="M374.672 178.301C374.672 178.301 377.279 179.485 377.872 181.139C378.465 182.792 374.672 178.301 374.672 178.301Z" fill="black"/>
<path opacity="0.1" d="M366.621 196.05C366.621 196.05 362.828 200.664 364.369 202.435C365.91 204.207 366.621 196.05 366.621 196.05Z" fill="black"/>
<path opacity="0.1" d="M434.358 180.902C434.358 180.902 430.807 181.257 430.688 184.336L434.358 180.902Z" fill="black"/>
<path opacity="0.1" d="M401.436 229.416C401.791 229.06 409.965 216.991 411.857 218.057L401.436 229.416Z" fill="black"/>
<path opacity="0.1" d="M416.716 150.966C416.719 153.286 416.145 155.57 415.048 157.614H414.943C414.065 157.426 413.586 156.386 412.901 155.733C412.481 155.336 411.947 155.081 411.374 155.002C410.801 154.923 410.218 155.026 409.706 155.294C409.187 155.604 408.766 156.052 408.488 156.589C408.21 157.125 408.088 157.727 408.134 158.329C407.695 156.435 407.827 154.422 407.384 152.523C406.94 150.624 405.628 148.703 403.806 148.672C403.025 148.672 402.112 148.962 401.546 148.374C401.203 148.023 401.133 147.466 400.878 147.036C399.561 144.94 395.633 146.001 394.022 147.076C392.411 148.15 390.536 149.869 388.53 150.79C388.616 147.096 390.153 143.583 392.808 141.01C395.463 138.437 399.024 137.01 402.723 137.037C406.421 137.063 409.961 138.541 412.579 141.152C415.197 143.763 416.683 147.297 416.716 150.992V150.966Z" fill="black"/>
<path d="M400.878 146.655C401.133 147.093 401.203 147.642 401.545 147.992C402.107 148.58 403.02 148.278 403.806 148.291C405.619 148.321 406.945 150.242 407.384 152.141C407.823 154.04 407.682 156.053 408.134 157.952C408.087 157.35 408.209 156.747 408.486 156.211C408.764 155.674 409.187 155.226 409.706 154.917C410.218 154.65 410.801 154.548 411.374 154.627C411.946 154.705 412.48 154.96 412.901 155.356C413.586 156.009 414.051 157.049 414.943 157.233C415.834 157.417 416.698 156.566 417.019 155.628C417.339 154.689 417.322 153.654 417.532 152.681C417.932 150.834 419.139 149.321 419.806 147.567C420.601 145.432 420.579 143.078 419.745 140.958C419.306 139.848 418.639 138.848 418.191 137.739C417.51 136.05 417.313 134.147 416.501 132.542C415.109 129.854 411.822 128.507 409.126 129.52C407.836 130.003 406.721 130.937 405.413 131.358C403.657 131.919 401.791 131.498 399.983 131.244C398.174 130.989 396.168 130.968 394.715 132.16C393.038 133.529 392.582 136.107 391.006 137.607C390.343 138.239 389.522 138.642 388.811 139.226C388.1 139.809 387.494 140.682 387.595 141.629C387.696 142.853 388.912 143.966 388.473 145.102C388.315 145.436 388.091 145.734 387.815 145.979C386.495 147.361 385.514 149.028 384.948 150.852C388.118 151.843 391.533 148.352 394.026 146.703C395.633 145.62 399.579 144.559 400.878 146.655Z" fill="#3F3D56"/>
<path opacity="0.1" d="M431.574 236.455L430.104 237.669C428.787 235.507 423.467 231.188 423.467 231.188L423.695 230.964L424.472 230.775L431.574 236.455Z" fill="black"/>
<path d="M433.01 234.266C433.01 234.266 432.483 235.582 431.935 236.722C431.386 237.862 430.789 238.915 430.763 238.038C430.701 236.38 423.836 230.819 423.836 230.819L424.767 229.916L425.846 228.867L433.01 234.266Z" fill="#E7EFFD"/>
<path opacity="0.1" d="M433.234 225.508L434.015 238.709C432.172 235.854 427.124 228.525 423.88 228.762L431.755 219.71C432.081 219.347 432.382 218.962 432.655 218.557C432.953 222.329 433.234 225.508 433.234 225.508Z" fill="black"/>
<path opacity="0.1" d="M433.01 234.266C433.01 234.266 432.484 235.582 431.935 236.722C429.872 233.893 427.032 230.552 424.767 229.929L425.846 228.881L433.01 234.266Z" fill="black"/>
<path d="M438.919 186.406L441.052 188.064C441.052 188.064 444.603 188.121 444.959 191.081C445.314 194.041 448.571 195.396 448.571 195.396C448.571 195.396 450.999 197.822 450.999 198.949C450.999 200.076 452.834 202.085 452.834 202.26C452.834 202.435 454.59 206.045 454.375 206.698C454.159 207.352 456.266 210.207 455.617 211.25C455.082 212.207 454.607 213.196 454.195 214.211C454.195 214.211 451.411 219.535 449.994 220.539C448.576 221.543 442.057 230.008 442.057 230.008C442.057 230.008 435.069 238.051 435.069 240.533C435.069 240.533 428.261 229.174 424.235 229.468L432.132 220.421C432.132 220.421 433.493 218.943 433.555 218.057C433.616 217.171 437.343 213.088 439.121 212.908C439.121 212.908 439.415 210.483 438.646 210.426C437.878 210.369 437.224 208.47 437.224 208.47C437.224 208.47 432.014 202.33 431.957 198.414C431.9 194.497 438.919 186.406 438.919 186.406Z" fill="url(#paint18_linear)"/>
<path opacity="0.1" d="M442.057 192.024C442.057 192.024 437.083 195.695 438.15 196.874C439.217 198.054 442.057 192.024 442.057 192.024Z" fill="black"/>
<path opacity="0.1" d="M442.294 207.172C442.294 207.172 451.512 204.212 452.478 207.172H442.294Z" fill="black"/>
<path opacity="0.1" d="M385.097 364.339C385.097 364.339 380.12 367.593 377.635 367.115C375.151 366.637 372.6 367.948 372.6 367.948C370.887 369.818 368.728 371.223 366.323 372.031C362.298 373.391 356.666 372.856 353.475 371.79C351.96 371.286 351.842 370.637 352.57 369.834C356.043 370.527 363.812 371.904 365.91 370.904C368.632 369.589 372.539 366.764 372.539 366.764C372.539 366.764 377.635 366.093 378.346 366.093C378.851 366.093 382.784 364.471 385.001 363.541L385.097 364.339Z" fill="black"/>
<path opacity="0.1" d="M415.223 371.01C415.192 371.211 415.175 371.338 415.175 371.338C415.175 371.338 413.99 373.939 407.418 374.886C400.847 375.834 400.834 372.694 400.834 372.694C400.834 372.694 400.86 372.356 400.904 371.847C402.989 372.641 407.55 373.523 415.223 371.01Z" fill="black"/>
<path opacity="0.1" d="M377.13 191.314C377.13 191.314 377.13 204.804 375.976 206.137C374.821 207.47 377.13 191.314 377.13 191.314Z" fill="black"/>
<path opacity="0.1" d="M430.513 195.664L432.229 200.488C432.229 200.488 432.909 195.752 430.513 195.664Z" fill="black"/>
<g opacity="0.1">
<path opacity="0.1" d="M388.64 143.953C389.079 142.844 387.942 141.76 387.793 140.563C387.641 140.898 387.576 141.266 387.604 141.633C387.679 142.532 388.341 143.366 388.517 144.195C388.565 144.118 388.606 144.037 388.64 143.953Z" fill="black"/>
<path opacity="0.1" d="M408.292 156.698C407.853 154.83 407.994 152.856 407.564 150.997C407.133 149.137 405.808 147.177 403.982 147.146C403.2 147.146 402.287 147.435 401.721 146.848C401.379 146.497 401.313 145.94 401.054 145.51C399.737 143.414 395.813 144.475 394.197 145.55C391.774 147.159 388.447 150.523 385.343 149.76C385.194 150.119 385.054 150.479 384.939 150.852C388.109 151.843 391.524 148.352 394.017 146.703C395.633 145.629 399.579 144.567 400.878 146.664C401.133 147.102 401.203 147.65 401.545 148.001C402.107 148.589 403.02 148.286 403.806 148.299C405.619 148.33 406.945 150.251 407.384 152.15C407.823 154.049 407.682 156.062 408.134 157.961C408.106 157.534 408.16 157.105 408.292 156.698Z" fill="black"/>
<path opacity="0.1" d="M417.208 154.479C416.883 155.417 416.04 156.277 415.127 156.084C414.214 155.891 413.77 154.86 413.09 154.207C412.669 153.811 412.135 153.556 411.562 153.478C410.99 153.399 410.407 153.501 409.894 153.768C409.4 154.062 408.993 154.482 408.717 154.986C408.441 155.489 408.304 156.058 408.323 156.632C408.559 155.91 409.055 155.3 409.714 154.922C410.227 154.654 410.81 154.553 411.382 154.631C411.955 154.71 412.489 154.965 412.91 155.36C413.595 156.014 414.06 157.053 414.951 157.237C415.842 157.422 416.707 156.571 417.028 155.632C417.198 155.079 417.307 154.508 417.352 153.931C417.315 154.116 417.267 154.299 417.208 154.479Z" fill="black"/>
<path opacity="0.1" d="M419.982 146.418C419.315 148.172 418.112 149.685 417.708 151.532C417.629 151.904 417.581 152.286 417.537 152.668C417.941 150.83 419.139 149.317 419.807 147.571C420.101 146.782 420.286 145.955 420.355 145.115C420.262 145.558 420.138 145.993 419.982 146.418Z" fill="black"/>
</g>
</g>
<defs>
<linearGradient id="paint0_linear" x1="27.3748" y1="34.5811" x2="27.3748" y2="56.3551" gradientUnits="userSpaceOnUse">
<stop stop-color="#E31266"/>
<stop offset="0.539583" stop-color="#F8493C"/>
<stop offset="1" stop-color="#F4943E"/>
</linearGradient>
<linearGradient id="paint1_linear" x1="34.663" y1="61.2266" x2="34.663" y2="78.6045" gradientUnits="userSpaceOnUse">
<stop stop-color="#E31266"/>
<stop offset="0.539583" stop-color="#F8493C"/>
<stop offset="1" stop-color="#F4943E"/>
</linearGradient>
<linearGradient id="paint2_linear" x1="62.761" y1="92.9584" x2="62.761" y2="110.44" gradientUnits="userSpaceOnUse">
<stop stop-color="#E31266"/>
<stop offset="0.539583" stop-color="#F8493C"/>
<stop offset="1" stop-color="#F4943E"/>
</linearGradient>
<linearGradient id="paint3_linear" x1="52.9009" y1="52.1509" x2="52.9009" y2="79.9014" gradientUnits="userSpaceOnUse">
<stop stop-color="#E31266"/>
<stop offset="0.539583" stop-color="#F8493C"/>
<stop offset="1" stop-color="#F4943E"/>
</linearGradient>
<linearGradient id="paint4_linear" x1="72.9704" y1="0.00714111" x2="72.9704" y2="26.2084" gradientUnits="userSpaceOnUse">
<stop stop-color="#E31266"/>
<stop offset="0.4875" stop-color="#F8493C"/>
<stop offset="1" stop-color="#F4943E"/>
</linearGradient>
<linearGradient id="paint5_linear" x1="69.8866" y1="26.3798" x2="69.8866" y2="45.8867" gradientUnits="userSpaceOnUse">
<stop stop-color="#E31266"/>
<stop offset="0.4875" stop-color="#F8493C"/>
<stop offset="1" stop-color="#F4943E"/>
</linearGradient>
<linearGradient id="paint6_linear" x1="84.8073" y1="66.8753" x2="84.8073" y2="84.3553" gradientUnits="userSpaceOnUse">
<stop stop-color="#E31266"/>
<stop offset="0.4875" stop-color="#F8493C"/>
<stop offset="1" stop-color="#F4943E"/>
</linearGradient>
<linearGradient id="paint7_linear" x1="91.2501" y1="27.7898" x2="91.2501" y2="53.5658" gradientUnits="userSpaceOnUse">
<stop stop-color="#E31266"/>
<stop offset="0.4875" stop-color="#F8493C"/>
<stop offset="1" stop-color="#F4943E"/>
</linearGradient>
<linearGradient id="paint8_linear" x1="108.737" y1="358.447" x2="108.737" y2="373.685" gradientUnits="userSpaceOnUse">
<stop stop-color="#E31266"/>
<stop offset="0.4875" stop-color="#F8493C"/>
<stop offset="1" stop-color="#F4943E"/>
</linearGradient>
<linearGradient id="paint9_linear" x1="79.764" y1="359.15" x2="79.764" y2="367.738" gradientUnits="userSpaceOnUse">
<stop stop-color="#E31266"/>
<stop offset="0.4875" stop-color="#F8493C"/>
<stop offset="1" stop-color="#F4943E"/>
</linearGradient>
<linearGradient id="paint10_linear" x1="98.7192" y1="343.614" x2="98.7192" y2="353.989" gradientUnits="userSpaceOnUse">
<stop stop-color="#E31266"/>
<stop offset="0.4875" stop-color="#F8493C"/>
<stop offset="1" stop-color="#F4943E"/>
</linearGradient>
<linearGradient id="paint11_linear" x1="251.832" y1="128.623" x2="251.832" y2="138.403" gradientUnits="userSpaceOnUse">
<stop stop-color="#E31266"/>
<stop offset="0.4875" stop-color="#F8493C"/>
<stop offset="1" stop-color="#F4943E"/>
</linearGradient>
<linearGradient id="paint12_linear" x1="261.307" y1="173.868" x2="261.307" y2="183.652" gradientUnits="userSpaceOnUse">
<stop stop-color="#E31266"/>
<stop offset="0.4875" stop-color="#F8493C"/>
<stop offset="1" stop-color="#F4943E"/>
</linearGradient>
<linearGradient id="paint13_linear" x1="238.224" y1="219.484" x2="238.224" y2="229.264" gradientUnits="userSpaceOnUse">
<stop stop-color="#E31266"/>
<stop offset="0.4875" stop-color="#F8493C"/>
<stop offset="1" stop-color="#F4943E"/>
</linearGradient>
<linearGradient id="paint14_linear" x1="396.076" y1="375.597" x2="396.076" y2="127.836" gradientUnits="userSpaceOnUse">
<stop stop-color="#808080" stop-opacity="0.25"/>
<stop offset="0.54" stop-color="#808080" stop-opacity="0.12"/>
<stop offset="1" stop-color="#808080" stop-opacity="0.1"/>
</linearGradient>
<linearGradient id="paint15_linear" x1="382.185" y1="164.012" x2="382.185" y2="261.127" gradientUnits="userSpaceOnUse">
<stop stop-color="#E31266"/>
<stop offset="0.492708" stop-color="#F8493C"/>
<stop offset="1" stop-color="#F4943E"/>
</linearGradient>
<linearGradient id="paint16_linear" x1="362.407" y1="186.761" x2="362.407" y2="219.031" gradientUnits="userSpaceOnUse">
<stop stop-color="#E31266"/>
<stop offset="0.492708" stop-color="#F8493C"/>
<stop offset="1" stop-color="#F4943E"/>
</linearGradient>
<linearGradient id="paint17_linear" x1="426.142" y1="162.232" x2="426.142" y2="258.93" gradientUnits="userSpaceOnUse">
<stop stop-color="#E31266"/>
<stop offset="0.492708" stop-color="#F8493C"/>
<stop offset="1" stop-color="#F4943E"/>
</linearGradient>
<linearGradient id="paint18_linear" x1="439.988" y1="186.406" x2="439.988" y2="240.533" gradientUnits="userSpaceOnUse">
<stop stop-color="#E31266"/>
<stop offset="0.492708" stop-color="#F8493C"/>
<stop offset="1" stop-color="#F4943E"/>
</linearGradient>
<clipPath id="clip0">
<rect width="505" height="380" fill="white"/>
</clipPath>
</defs>
</svg>
