<svg width="551" height="409" viewBox="0 0 551 409" fill="none" xmlns="http://www.w3.org/2000/svg">
<g clip-path="url(#clip0)">
<path d="M396.505 242.633L400.84 239.954C401.252 239.692 401.658 239.413 402.076 239.152C392.779 237.55 384.307 232.816 378.062 225.734C371.818 218.652 368.174 209.646 367.736 200.207C367.417 193.716 368.642 187.241 371.31 181.317C373.794 175.773 377.462 170.844 382.055 166.875C386.648 162.906 392.054 159.994 397.892 158.345L397.677 175.434L407.049 156.834C407.087 156.828 407.126 156.828 407.165 156.834C412.595 156.58 418.022 157.4 423.137 159.247C428.251 161.094 432.952 163.933 436.971 167.6C440.99 171.267 444.248 175.691 446.561 180.62C448.873 185.548 450.193 190.885 450.446 196.325C450.481 197.115 450.446 197.894 450.446 198.65C453.707 194.924 456.667 190.931 458.628 186.554C462.597 177.69 462.69 167.651 462.359 155.451C461.732 131.271 460.694 106.91 459.336 82.6196C449.551 81.5311 440.475 76.9831 433.737 69.7929C427 62.6026 423.042 53.2413 422.576 43.3907C422.518 42.1177 422.536 40.868 422.576 39.6242C422.576 39.3161 422.576 39.0022 422.623 38.6941C422.704 37.4909 422.814 36.2994 423 35.1252C423 34.9276 423.07 34.7416 423.104 34.544C423.275 33.5481 423.478 32.5638 423.714 31.5912C423.806 31.2308 423.894 30.8646 423.992 30.5043C424.282 29.4464 424.572 28.4059 424.973 27.3771C425.095 27.0342 425.24 26.7029 425.367 26.3657C425.663 25.6101 425.982 24.8661 426.319 24.1279C426.499 23.7385 426.673 23.3548 426.864 22.9654C426.911 22.8666 426.952 22.7678 427.004 22.6689C431.373 14.0247 438.627 7.1874 447.507 3.3454C456.386 -0.49661 466.329 -1.10034 475.607 1.63914L475.328 23.878L484.612 5.5103C492.228 9.87681 498.25 16.568 501.799 24.6065C505.349 32.645 506.239 41.6098 504.341 50.1914H504.388C504.324 50.4878 504.231 50.7726 504.161 51.0632C504.034 51.6096 503.894 52.1502 503.743 52.6908C503.546 53.3825 503.326 54.0625 503.099 54.7426C502.925 55.2483 502.757 55.7656 502.566 56.2655C502.287 56.9979 501.985 57.7128 501.649 58.4277C501.463 58.8463 501.295 59.2706 501.068 59.6833C500.538 60.7528 499.958 61.799 499.328 62.822C499.113 63.1766 498.869 63.5137 498.643 63.8683C498.202 64.5542 497.755 65.2342 497.274 65.8969C496.978 66.3038 496.658 66.6932 496.345 67.0943C495.893 67.6755 495.428 68.2568 494.947 68.7857C494.604 69.1752 494.256 69.5588 493.896 69.9482C493.392 70.483 492.869 71.0003 492.33 71.5118C491.976 71.8547 491.616 72.1977 491.245 72.5232C490.635 73.0637 489.997 73.5811 489.353 74.0868C489.028 74.3425 488.715 74.6099 488.378 74.854C487.399 75.5825 486.388 76.2665 485.343 76.9058C485.146 77.0221 484.937 77.1209 484.763 77.2372C483.893 77.7545 483.022 78.2369 482.088 78.6903C481.699 78.8821 481.293 79.0507 480.893 79.2309C480.144 79.568 479.39 79.8935 478.618 80.1899C478.171 80.3585 477.713 80.5154 477.254 80.6724C476.494 80.9339 475.723 81.1722 474.933 81.3873C474.469 81.5152 474.011 81.6431 473.541 81.7535C472.694 81.9569 471.829 82.1255 470.959 82.2708C470.901 82.2708 470.848 82.2708 470.79 82.3057C471.363 92.5513 471.872 102.803 472.316 113.06C474.785 107.985 478.262 103.468 482.535 99.7868C486.808 96.1058 491.787 93.3381 497.166 91.6536C502.545 89.9691 508.211 89.4032 513.816 89.9907C519.422 90.5782 524.848 92.3066 529.762 95.07L522.445 115.152L537.497 100.673C545.555 108.071 550.354 118.368 550.843 129.306C551.035 133.144 550.681 136.989 549.793 140.728C547.902 148.817 543.628 156.151 537.525 161.777C531.422 167.403 523.772 171.063 515.567 172.28C507.363 173.498 498.982 172.217 491.513 168.605C484.044 164.992 477.831 159.215 473.68 152.021C473.68 153.062 473.756 154.108 473.785 155.149C474.057 165.913 474.4 179.306 469.044 191.268C465.417 199.376 459.574 205.962 453.8 211.862C450.046 215.704 446.152 219.418 442.16 223.016C438.235 228.296 433.111 232.564 427.213 235.466C420.656 240.527 413.867 245.266 406.845 249.684L402.58 252.439C398.641 254.886 394.602 257.397 390.639 259.995C391.335 259.926 392.026 259.85 392.733 259.821C401.506 259.409 410.182 261.802 417.508 266.653C424.835 271.504 430.432 278.562 433.491 286.809L407.623 307.902L436.056 301.293C436.048 308.306 434.266 315.201 430.876 321.336C427.486 327.471 422.599 332.646 416.672 336.376C410.744 340.106 403.969 342.27 396.98 342.665C389.991 343.061 383.016 341.676 376.707 338.639C377.345 339.441 377.989 340.238 378.627 341.034C379.898 342.621 381.163 344.196 382.399 345.759C399.227 367.109 403.915 387.383 395.577 402.839L385.445 397.352C393.569 382.309 381.384 363.058 373.358 352.909C372.146 351.374 370.904 349.828 369.651 348.259C358.898 334.89 346.713 319.708 347.02 301.102C347.456 273.085 374.664 256.188 396.505 242.633Z" fill="#F2F2F2"/>
<path d="M264.31 409C410.284 409 528.619 403.535 528.619 396.794C528.619 390.052 410.284 384.587 264.31 384.587C118.335 384.587 0 390.052 0 396.794C0 403.535 118.335 409 264.31 409Z" fill="#3F3D56"/>
<path opacity="0.2" d="M486.823 396.462C479.57 396.52 469.961 395.3 468.029 394.137C466.561 393.242 465.969 390.016 465.777 388.528H465.562C465.562 388.528 465.969 393.719 467.884 394.922C469.798 396.125 479.419 397.294 486.678 397.247C488.773 397.247 489.498 396.48 489.458 395.375C489.185 396.032 488.384 396.451 486.823 396.462Z" fill="black"/>
<path d="M250.221 385.924L173.626 401.618L171.886 401.444L104.575 394.643V309.199L186.972 295.248L246.74 302.223L246.757 302.601L246.763 302.787L250.221 385.924Z" fill="url(#paint0_linear)"/>
<path opacity="0.1" d="M250.221 385.924L173.627 401.618L171.886 401.444V313.848L246.757 302.601L250.221 385.924Z" fill="black"/>
<path opacity="0.05" d="M246.763 302.787L246.74 302.805L171.886 313.849L104.575 309.199L186.972 295.248L246.74 302.223L246.757 302.601L246.763 302.787Z" fill="black"/>
<path d="M334.359 389.412L257.764 405.106L256.023 404.931L188.713 398.131V312.686L271.11 298.736L330.877 305.711L330.895 306.089L330.9 306.275L334.359 389.412Z" fill="#3F3D56"/>
<path opacity="0.1" d="M334.359 389.412L257.764 405.106L256.023 404.931V317.336L330.895 306.089L334.359 389.412Z" fill="black"/>
<path opacity="0.05" d="M330.9 306.275L330.877 306.292L256.023 317.336L188.713 312.686L271.11 298.736L330.877 305.711L330.895 306.089L330.9 306.275Z" fill="black"/>
<path d="M281.555 305.711L204.96 321.405L203.22 321.231L135.909 314.43V228.985L218.306 215.035L278.074 222.01L278.091 222.388L278.097 222.574L281.555 305.711Z" fill="#3F3D56"/>
<path opacity="0.1" d="M281.555 305.711L204.961 321.405L203.22 321.23V233.635L278.091 222.388L281.555 305.711Z" fill="black"/>
<path opacity="0.05" d="M278.097 222.574L278.074 222.592L203.22 233.635L135.909 228.985L218.306 215.035L278.074 222.01L278.091 222.388L278.097 222.574Z" fill="black"/>
<path d="M325.075 309.292L285.101 317.487L284.19 317.394L249.061 313.843V269.249L292.064 261.966L323.259 265.61L323.27 265.808V265.901L325.075 309.292Z" fill="#3F3D56"/>
<path opacity="0.1" d="M325.075 309.291L285.1 317.487L284.189 317.394V271.678L323.27 265.808L325.075 309.291Z" fill="black"/>
<path opacity="0.05" d="M323.27 265.901L323.259 265.913L284.19 271.679L249.061 269.249L292.064 261.966L323.259 265.61L323.27 265.808V265.901Z" fill="black"/>
<path d="M217.726 222.685L177.752 230.874L176.841 230.787L141.712 227.236V182.642L184.715 175.359L215.91 179.003L215.922 179.201V179.294L217.726 222.685Z" fill="#3F3D56"/>
<path opacity="0.1" d="M217.726 222.685L177.752 230.874L176.841 230.787V185.072L215.921 179.201L217.726 222.685Z" fill="black"/>
<path opacity="0.05" d="M215.922 179.294L215.91 179.305L176.841 185.072L141.712 182.642L184.715 175.359L215.91 179.003L215.922 179.201V179.294Z" fill="black"/>
<path d="M287.938 220.941L247.964 229.131L247.053 229.044L211.924 225.492V180.898L254.927 173.615L286.122 177.26L286.134 177.457V177.55L287.938 220.941Z" fill="url(#paint1_linear)"/>
<path opacity="0.1" d="M287.938 220.941L247.964 229.131L247.053 229.043V183.328L286.133 177.457L287.938 220.941Z" fill="black"/>
<path opacity="0.05" d="M286.134 177.55L286.122 177.562L247.053 183.328L211.924 180.898L254.927 173.615L286.122 177.26L286.134 177.457V177.55Z" fill="black"/>
<path d="M308.827 176.184L268.853 184.374L267.942 184.287L232.812 180.735V136.142L275.816 128.858L307.011 132.503L307.022 132.7V132.793L308.827 176.184Z" fill="#3F3D56"/>
<path opacity="0.1" d="M308.828 176.184L268.853 184.374L267.942 184.287V138.571L307.023 132.7L308.828 176.184Z" fill="black"/>
<path opacity="0.05" d="M307.022 132.793L307.011 132.805L267.942 138.571L232.812 136.142L275.816 128.858L307.011 132.503L307.022 132.7V132.793Z" fill="black"/>
<path d="M336.053 85.0202C335.629 88.7984 332.751 91.8442 331.684 95.4828C330.082 100.976 332.844 106.875 336.651 111.177C339.718 114.594 343.433 117.368 347.578 119.338C351.724 121.307 356.218 122.433 360.801 122.651C362.148 122.767 363.504 122.619 364.793 122.215C365.942 121.746 366.977 121.037 367.828 120.134C370.683 117.257 372.221 113.275 372.83 109.259C373.439 105.242 373.207 101.156 372.969 97.1045C372.969 96.2661 372.816 95.4348 372.517 94.6516C372.128 93.9068 371.593 93.2484 370.944 92.716C368.886 90.8215 366.618 89.1696 364.184 87.7928C363.14 87.2116 362.02 86.6303 361.352 85.6247C360.895 84.824 360.597 83.9414 360.476 83.0265L359.728 79.2135C359.595 78.1141 359.221 77.0579 358.631 76.1212C357.314 74.3426 354.79 74.0984 352.579 74.0113L344.455 73.6916C341.931 73.5928 338.612 72.8662 336.146 73.3661C333.825 73.8253 334.608 75.9527 335.026 77.8824C335.63 80.2164 335.975 82.6103 336.053 85.0202Z" fill="#FFC0C6"/>
<path opacity="0.1" d="M336.053 85.0202C335.629 88.7984 332.751 91.8442 331.684 95.4828C330.082 100.976 332.844 106.875 336.651 111.177C339.718 114.594 343.433 117.368 347.578 119.338C351.724 121.307 356.218 122.433 360.801 122.651C362.148 122.767 363.504 122.619 364.793 122.215C365.942 121.746 366.977 121.037 367.828 120.134C370.683 117.257 372.221 113.275 372.83 109.259C373.439 105.242 373.207 101.156 372.969 97.1045C372.969 96.2661 372.816 95.4348 372.517 94.6516C372.128 93.9068 371.593 93.2484 370.944 92.716C368.886 90.8215 366.618 89.1696 364.184 87.7928C363.14 87.2116 362.02 86.6303 361.352 85.6247C360.895 84.824 360.597 83.9414 360.476 83.0265L359.728 79.2135C359.595 78.1141 359.221 77.0579 358.631 76.1212C357.314 74.3426 354.79 74.0984 352.579 74.0113L344.455 73.6916C341.931 73.5928 338.612 72.8662 336.146 73.3661C333.825 73.8253 334.608 75.9527 335.026 77.8824C335.63 80.2164 335.975 82.6103 336.053 85.0202Z" fill="black"/>
<path d="M387.644 255.188L384.197 293.04C383.298 302.968 382.381 312.936 380.617 322.736C380.037 326.113 379.294 329.473 378.447 332.803C376.091 342.051 372.673 351.09 371.571 360.57C371.536 360.843 371.507 361.151 371.478 361.401C371.252 363.494 371.054 365.609 370.317 367.562C369.737 369.01 368.919 370.329 368.321 371.759C367.161 374.619 366.975 377.781 366.83 380.879C362.647 378.514 358.067 376.938 353.316 376.229C350.995 375.886 348.47 375.648 346.933 373.904C345.192 372.009 345.395 369.109 345.685 366.563C346.598 358.658 347.507 350.756 348.412 342.859C348.714 339.461 349.296 336.094 350.153 332.792C350.467 331.693 350.844 330.612 351.227 329.531C351.755 328.043 352.289 326.555 352.689 325.026C353.244 322.57 353.628 320.078 353.838 317.569C354.772 309.617 355.898 301.683 356.884 293.737L356.937 293.319C358.416 281.275 359.542 269.173 359.217 257.043C359.171 255.247 359.095 253.45 358.979 251.649C358.817 249.039 358.579 247.655 360.72 246.022C363.105 244.22 366.244 242.959 368.971 241.779C370.439 241.139 386.605 235.385 386.959 236.652C387.71 239.344 388.1 242.123 388.12 244.918C388.153 248.347 387.994 251.776 387.644 255.188Z" fill="#605D82"/>
<path opacity="0.1" d="M380.617 322.736C380.037 326.113 379.294 329.473 378.447 332.803C376.091 342.051 372.673 351.09 371.571 360.57C371.536 360.843 371.507 361.151 371.478 361.401C364.271 351.09 358.202 339.999 351.169 329.577C351.697 328.089 352.231 326.601 352.631 325.073C353.208 322.603 353.611 320.095 353.838 317.569C354.772 309.617 355.898 301.683 356.885 293.737L356.937 293.319C357.344 295.005 357.927 296.643 358.678 298.207C363.401 307.821 374.623 312.68 380.112 321.882C380.294 322.168 380.463 322.453 380.617 322.736Z" fill="black"/>
<path d="M322.139 238.21C322.377 245.917 323.607 253.561 324.837 261.175L327.373 276.869C328.759 285.472 330.21 294.243 334.272 301.944C337.313 307.711 341.688 312.628 345.651 317.795C355.388 330.502 362.705 344.899 371.937 357.977C374.623 361.779 378.459 365.894 383.037 365.098C386.043 364.58 388.225 362.069 390.581 360.14C393.366 357.861 396.72 356.193 398.913 353.333C401.107 350.473 401.536 345.73 398.565 343.696C397.55 343.004 396.314 342.743 395.165 342.301C390.563 340.557 387.581 336.047 385.689 331.49C383.797 326.933 382.643 322.044 380.118 317.807C374.629 308.606 363.401 303.746 358.678 294.127C356.032 288.744 355.776 282.501 355.579 276.532L355.063 261.239C355.005 259.565 354.964 257.827 355.643 256.299C357.448 252.23 362.902 251.846 367.324 251.329C372.338 250.742 377.196 249.208 381.639 246.807C384.186 245.429 386.67 243.674 388.022 241.116C389.263 238.791 389.432 236.053 389.577 233.415L391.109 205.694C391.242 203.311 391.358 200.841 390.528 198.609C388.422 192.994 381.343 191.157 375.36 191.425C364.231 191.925 353.96 196.72 343.446 199.963C340.841 200.765 338.224 201.486 335.537 202.027C333.216 202.498 330.315 202.306 328.086 203.061C324.094 204.41 324.193 213.164 323.63 216.791C322.469 223.868 321.969 231.039 322.139 238.21Z" fill="#605D82"/>
<path d="M381.529 366.272C382.509 367.266 382.828 368.719 383.084 370.091C384.502 377.704 385.24 385.428 385.289 393.172C385.225 393.895 385.368 394.621 385.701 395.265C385.979 395.647 386.353 395.948 386.786 396.137C389.623 397.491 392.913 395.602 395.281 393.527C399.662 389.685 403.37 384.523 403.619 378.693C403.683 377.194 403.515 375.677 403.776 374.195C404.159 371.997 405.441 370.085 406.567 368.167C408.493 364.897 410.05 361.423 411.209 357.809C411.638 356.449 411.929 354.74 410.861 353.792C410.487 353.495 410.059 353.272 409.602 353.136L396.778 348.369C395.664 347.957 392.902 355.065 392.467 355.844C391.393 357.745 390.325 358.82 388.173 359.262C386.02 359.704 383.362 359.064 381.308 360.163C377.827 362.017 379.561 364.29 381.529 366.272Z" fill="#535070"/>
<path d="M361.753 370.66C361.515 370.186 361.184 369.764 360.778 369.422C360.186 369.044 359.511 368.815 358.811 368.754C356.374 368.335 353.484 368.062 351.796 369.882C350.217 371.585 350.49 374.357 349.173 376.275C348.755 376.857 348.186 377.38 347.827 378.019C347.379 378.998 347.18 380.072 347.246 381.146C347.177 384.105 347.107 387.075 347.316 390.028C347.484 392.504 347.896 395.102 349.446 397.044C351.929 400.159 356.409 400.607 360.378 400.804L363.598 400.973C364.484 401.077 365.381 400.993 366.233 400.729C366.76 400.486 367.234 400.138 367.624 399.708C368.015 399.278 368.316 398.773 368.507 398.223C370.184 394.05 367.532 389.557 365.896 385.372C364.01 380.553 364.347 375.212 361.753 370.66Z" fill="#535070"/>
<path d="M335.124 63.7171C335.083 63.294 335.145 62.8673 335.304 62.4733C335.774 61.6421 337.004 61.892 337.933 62.1013C341.664 63.0429 345.598 62.1884 349.445 62.4093C353.292 62.6302 357.621 64.5541 358.393 68.3323C361.184 66.3537 363.589 63.8793 365.49 61.0317C366.557 59.4333 367.486 57.6023 367.341 55.6842C367.132 52.9174 364.816 50.8482 362.698 49.0928L356.316 43.8615C355.475 43.0889 354.504 42.471 353.449 42.0363C351.975 41.5306 350.362 41.7748 348.807 41.7748C344.165 41.7748 339.186 39.6532 335.049 41.7748C333.308 42.6641 332.014 44.1928 330.761 45.6808L325.057 52.4466C324.625 52.8779 324.31 53.4119 324.14 53.9986C323.978 54.8239 324.401 55.6377 324.552 56.4689C324.819 57.9802 324.169 59.596 324.668 61.0492C325.498 63.4556 328.422 63.7985 330.21 65.1819C330.871 65.6934 331.916 67.443 332.711 67.4197C334.109 67.3907 335.084 64.8332 335.124 63.7171Z" fill="#3F3D56"/>
<path d="M344.804 83.6717C354.898 83.6717 363.082 75.4742 363.082 65.3621C363.082 55.2501 354.898 47.0526 344.804 47.0526C334.709 47.0526 326.525 55.2501 326.525 65.3621C326.525 75.4742 334.709 83.6717 344.804 83.6717Z" fill="#FFC0C6"/>
<path d="M349.086 105.428C348.467 103.653 347.301 102.122 345.757 101.054C344.212 99.9862 342.369 99.4377 340.493 99.4875C339.955 99.5904 339.398 99.5191 338.903 99.2841C338.622 99.0695 338.397 98.7904 338.247 98.4703C337.139 96.4664 336.246 94.3505 335.584 92.1579C335.294 91.1872 334.893 90.0421 333.913 89.7922C333.123 89.5888 332.317 90.1003 331.789 90.7222C331.321 91.3896 330.813 92.0282 330.268 92.6345C327.947 94.6922 323.886 92.8147 321.454 94.7038C321.054 95.0119 320.723 95.4071 320.294 95.6919C319.876 95.9469 319.425 96.1426 318.953 96.2732C314.234 97.8112 309.607 99.622 305.097 101.696C306.721 111.485 308.381 121.459 312.187 130.614C313.998 134.973 316.046 139.245 317.497 143.738C320.712 153.695 320.851 164.35 320.891 174.818C320.891 181.979 320.891 189.291 318.57 196.069C318.048 197.603 317.41 199.126 317.265 200.719C317.12 202.312 317.596 204.113 318.901 205.067C319.657 205.566 320.524 205.871 321.425 205.956C325.435 206.537 329.474 205.479 333.419 204.561C343.997 202.108 354.79 200.701 365.554 199.33L383.6 197.005C384.895 196.914 386.162 196.585 387.337 196.034C390.639 194.226 390.952 189.251 388.898 186.089C387.918 184.572 386.531 183.328 385.701 181.723C384.871 180.119 384.807 177.864 386.229 176.754C389.13 174.487 388.26 170.284 388.399 166.611C388.786 156.334 388.734 146.065 388.243 135.804C388.095 133.676 388.06 131.542 388.138 129.411C388.341 125.795 389.235 122.255 390.128 118.739L395.612 97.116C394.179 94.8491 391.434 93.4076 388.84 92.7566C386.246 92.1056 383.537 91.9138 380.978 91.1175C375.755 89.4899 371.067 85.363 365.595 85.7467C365.18 85.7541 364.772 85.8533 364.4 86.0373C363.169 86.7406 363.361 88.5192 363.285 89.9375C363.111 93.0821 360.802 95.7036 358.26 97.5461C355.719 99.3887 352.806 100.726 350.467 102.824C350.061 103.131 349.727 103.523 349.489 103.973C349.25 104.422 349.113 104.919 349.086 105.428Z" fill="url(#paint2_linear)"/>
<path d="M276.663 125.94C275.453 126.729 274.166 127.393 272.822 127.923C271.545 128.428 270.182 128.829 269.137 129.713C268.62 130.162 268.186 130.699 267.855 131.3C267.237 132.399 266.924 133.644 266.95 134.905C266.975 136.167 267.339 137.398 268.001 138.471C268.664 139.544 269.602 140.419 270.717 141.005C271.833 141.591 273.084 141.867 274.342 141.803C276.019 141.716 277.603 141.036 279.141 140.367L292.035 134.746C294.216 133.799 296.572 132.695 297.605 130.544C297.723 130.343 297.768 130.106 297.733 129.876C297.633 129.622 297.443 129.415 297.199 129.294C294.293 127.401 291.752 124.999 289.696 122.203C289.168 121.482 288.536 119.785 287.77 119.349C285.042 117.832 278.851 124.522 276.663 125.94Z" fill="#FFC0C6"/>
<path d="M414.488 121.378L419.24 126.818C420.261 127.981 421.283 129.143 422.211 130.399C424.496 133.551 426.328 137.008 427.654 140.669C428.687 143.384 429.545 146.279 429.186 149.162C428.945 150.64 428.546 152.088 427.996 153.48C427.126 156.158 426.045 158.762 424.764 161.269C423.695 163.171 422.486 164.992 421.149 166.716C417.468 171.601 413.44 176.215 409.097 180.52C407.472 182.13 406.776 184.74 406.085 186.914C404.78 190.931 401.675 194.064 398.675 197.028C397.711 198.05 396.643 198.969 395.49 199.771C393.763 200.888 391.742 201.463 389.687 201.422C388.79 201.427 387.903 201.243 387.082 200.882C385.028 199.905 383.983 197.528 383.769 195.261C383.579 193.201 383.923 191.127 384.767 189.239C387.494 183.188 394.498 180.567 399.447 176.149C402.349 173.563 404.571 170.308 406.764 167.093C408.25 165.084 409.491 162.905 410.461 160.601C411.563 157.642 411.134 154.143 412.103 151.144C412.509 149.871 413.263 148.726 413.675 147.464C414.087 146.203 414.227 144.709 413.455 143.622C412.876 142.927 412.137 142.385 411.302 142.041C408.14 140.437 404.6 138.368 403.996 134.863C403.755 132.922 404.261 130.961 405.412 129.381C406.557 127.822 407.897 126.415 409.399 125.196C410.774 123.953 413.101 122.575 414.488 121.378Z" fill="#FFC0C6"/>
<path d="M273.611 133.532C272.776 131.834 271.725 130.102 270.031 129.259C269.206 128.903 268.318 128.719 267.42 128.719C266.522 128.719 265.633 128.903 264.809 129.259C263.167 129.971 261.628 130.901 260.236 132.026L256.139 135.055C255.211 135.665 254.389 136.425 253.708 137.304C253.058 138.37 252.628 139.556 252.443 140.792C251.863 143.622 251.393 146.534 251.799 149.4C252.449 154.05 255.234 158.072 258.298 161.606C260.213 163.803 262.58 166.024 265.493 166.123C266.752 166.163 268.151 165.663 268.673 164.518C268.855 164.063 268.952 163.579 268.957 163.089C269.271 157.927 267.426 152.887 265.279 148.185C264.698 146.906 264.072 145.581 264.118 144.18C264.1 143.942 264.161 143.705 264.292 143.506C264.476 143.313 264.723 143.191 264.988 143.163C267.93 142.582 273.002 144.872 275.062 141.6C276.396 139.437 274.563 135.456 273.611 133.532Z" fill="#FFC0C6"/>
<path d="M334.162 57.9569C334.125 57.5335 334.189 57.1074 334.347 56.7131C334.817 55.8761 336.047 56.1318 336.976 56.3411C340.707 57.2827 344.641 56.4282 348.488 56.6491C352.335 56.87 356.658 58.794 357.436 62.5721C360.224 60.5903 362.629 58.1164 364.533 55.2716C365.6 53.6673 366.529 51.8363 366.384 49.9182C366.175 47.1514 363.854 45.0822 361.741 43.3326L355.359 38.1013C354.52 37.3288 353.551 36.7109 352.498 36.2761C351.018 35.7705 349.411 36.0146 347.856 36.0146C343.214 36.0146 338.235 33.893 334.098 36.0146C332.357 36.9039 331.063 38.4326 329.81 39.9206L324.1 46.6864C323.671 47.1187 323.357 47.6525 323.189 48.2384C323.026 49.0637 323.45 49.8775 323.601 50.7087C323.868 52.22 323.218 53.8358 323.717 55.2832C324.547 57.6954 327.471 58.0383 329.258 59.4217C329.92 59.9332 330.964 61.6828 331.759 61.6595C333.135 61.6305 334.109 59.073 334.162 57.9569Z" fill="#3F3D56"/>
<path d="M295.342 108.131C294.606 108.61 293.958 109.214 293.427 109.915C292.76 110.933 292.621 112.24 292.046 113.287C290.816 115.577 287.932 116.396 286.139 118.274C285.849 118.53 285.646 118.872 285.559 119.25C285.548 119.762 285.719 120.26 286.041 120.657L294.71 134.305C297.611 134.561 300.362 132.747 303.251 132.991C304.325 133.078 305.433 133.45 306.466 133.131C307.204 132.801 307.897 132.377 308.526 131.869C310.267 130.777 312.541 130.649 313.986 129.213C315.431 127.777 315.553 125.667 315.535 123.709C315.561 122.008 315.388 120.311 315.019 118.652C313.742 113.42 309.744 109.386 307.238 104.748C306.013 102.487 305.352 101.167 302.77 102.719C300.187 104.271 297.785 106.341 295.342 108.131Z" fill="url(#paint3_linear)"/>
<path d="M400.607 101.231C402.236 102.291 403.706 103.579 404.971 105.056C406.288 106.759 407.037 108.852 408.307 110.595C409.578 112.339 411.209 113.595 412.601 115.152C414.719 117.512 416.152 120.384 417.557 123.238C414.119 127.718 410.373 131.952 406.346 135.909C405.897 136.438 405.304 136.826 404.64 137.025C404.19 137.074 403.734 137.009 403.315 136.838C402.896 136.666 402.526 136.393 402.238 136.043C401.611 135.392 401.17 134.578 400.572 133.898C399.164 132.443 397.287 131.535 395.275 131.335C393.278 131.14 391.27 131.111 389.269 131.247C388.83 131.3 388.385 131.225 387.986 131.032C387.69 130.828 387.451 130.552 387.29 130.23C384.969 126.231 385.694 121.209 386.524 116.64L388.422 106.178C388.699 104.18 389.231 102.227 390.006 100.365C390.725 98.825 392.327 96.2093 394.311 96.6743C396.296 97.1393 398.93 100.022 400.607 101.231Z" fill="url(#paint4_linear)"/>
<path d="M235.134 177.928L195.159 186.118L194.248 186.031L159.119 182.479V137.885L202.122 130.602L233.317 134.247L233.329 134.444V134.537L235.134 177.928Z" fill="url(#paint5_linear)"/>
<path opacity="0.1" d="M235.134 177.928L195.16 186.118L194.249 186.031V140.315L233.33 134.444L235.134 177.928Z" fill="black"/>
<path opacity="0.05" d="M233.329 134.537L233.317 134.549L194.248 140.315L159.119 137.885L202.122 130.602L233.317 134.247L233.329 134.444V134.537Z" fill="black"/>
<path d="M256.023 133.753L216.049 141.948L215.138 141.855L180.009 138.304V93.7099L223.012 86.4268L254.207 90.0713L254.219 90.2689V90.3619L256.023 133.753Z" fill="#3F3D56"/>
<path opacity="0.1" d="M256.024 133.753L216.05 141.948L215.139 141.855V96.1395L254.219 90.2689L256.024 133.753Z" fill="black"/>
<path opacity="0.05" d="M254.219 90.3619L254.207 90.3735L215.138 96.1396L180.009 93.7099L223.012 86.4268L254.207 90.0713L254.219 90.2689V90.3619Z" fill="black"/>
</g>
<defs>
<linearGradient id="paint0_linear" x1="177.398" y1="295.248" x2="177.398" y2="401.618" gradientUnits="userSpaceOnUse">
<stop stop-color="#E31266"/>
<stop offset="0.461458" stop-color="#F8493C"/>
<stop offset="1" stop-color="#F4943E"/>
</linearGradient>
<linearGradient id="paint1_linear" x1="249.931" y1="173.615" x2="249.931" y2="229.131" gradientUnits="userSpaceOnUse">
<stop stop-color="#E31266"/>
<stop offset="0.461458" stop-color="#F8493C"/>
<stop offset="1" stop-color="#F4943E"/>
</linearGradient>
<linearGradient id="paint2_linear" x1="350.354" y1="85.7216" x2="350.354" y2="206.122" gradientUnits="userSpaceOnUse">
<stop stop-color="#E31266"/>
<stop offset="0.503125" stop-color="#F8493C"/>
<stop offset="1" stop-color="#F4943E"/>
</linearGradient>
<linearGradient id="paint3_linear" x1="300.548" y1="102.046" x2="300.548" y2="134.33" gradientUnits="userSpaceOnUse">
<stop stop-color="#E31266"/>
<stop offset="0.503125" stop-color="#F8493C"/>
<stop offset="1" stop-color="#F4943E"/>
</linearGradient>
<linearGradient id="paint4_linear" x1="401.641" y1="96.6198" x2="401.641" y2="137.041" gradientUnits="userSpaceOnUse">
<stop stop-color="#E31266"/>
<stop offset="0.503125" stop-color="#F8493C"/>
<stop offset="1" stop-color="#F4943E"/>
</linearGradient>
<linearGradient id="paint5_linear" x1="197.126" y1="130.602" x2="197.126" y2="186.118" gradientUnits="userSpaceOnUse">
<stop stop-color="#E31266"/>
<stop offset="0.461458" stop-color="#F8493C"/>
<stop offset="1" stop-color="#F4943E"/>
</linearGradient>
<clipPath id="clip0">
<rect width="551" height="409" fill="white"/>
</clipPath>
</defs>
</svg>
