<svg width="520" height="335" viewBox="0 0 520 335" fill="none" xmlns="http://www.w3.org/2000/svg">
<g clip-path="url(#clip0)">
<path d="M26.6444 186.653H23.1309V189.581H26.6444V186.653Z" fill="#E6E6E6"/>
<path d="M358.982 189.581H352.058V186.653H358.982V189.581ZM345.134 189.581H338.21V186.653H345.134V189.581ZM331.287 189.581H324.363V186.653H331.287V189.581ZM317.44 189.581H310.516V186.653H317.44V189.581ZM303.592 189.581H296.669V186.653H303.592V189.581ZM289.745 189.581H282.821V186.653H289.745L289.745 189.581ZM275.898 189.581H268.974V186.653H275.898V189.581ZM262.05 189.581H255.126V186.653H262.05V189.581ZM248.203 189.581H241.279V186.653H248.203V189.581ZM234.355 189.581H227.432V186.653H234.355L234.355 189.581ZM220.508 189.581H213.584V186.653H220.508L220.508 189.581ZM206.661 189.581H199.737V186.653H206.661L206.661 189.581ZM192.813 189.581H185.89V186.653H192.813L192.813 189.581ZM178.966 189.581H172.042V186.653H178.966L178.966 189.581ZM165.118 189.581H158.195V186.653H165.118L165.118 189.581ZM151.271 189.581H144.347V186.653H151.271L151.271 189.581ZM137.424 189.581H130.5V186.653H137.424L137.424 189.581ZM123.576 189.581H116.653V186.653H123.576L123.576 189.581ZM109.729 189.581H102.805V186.653H109.729L109.729 189.581ZM95.8813 189.581H88.958V186.653H95.8815L95.8813 189.581ZM82.034 189.581H75.1106V186.653H82.0341L82.034 189.581ZM68.1866 189.581H61.263V186.653H68.1868L68.1866 189.581ZM54.3393 189.581H47.4157V186.653H54.3395L54.3393 189.581ZM40.4919 189.581H33.5684V186.653H40.4922L40.4919 189.581Z" fill="#E6E6E6"/>
<path d="M26.6444 112.275H23.1309V115.203H26.6444V112.275Z" fill="#E6E6E6"/>
<path d="M358.982 115.203H352.058V112.275H358.982V115.203ZM345.134 115.203H338.21V112.275H345.134V115.203ZM331.287 115.203H324.363V112.275H331.287V115.203ZM317.44 115.203H310.516V112.275H317.44V115.203ZM303.592 115.203H296.669V112.275H303.592V115.203ZM289.745 115.203H282.821V112.275H289.745L289.745 115.203ZM275.898 115.203H268.974V112.275H275.898V115.203ZM262.05 115.203H255.126V112.275H262.05V115.203ZM248.203 115.203H241.279V112.275H248.203V115.203ZM234.355 115.203H227.432V112.275H234.355L234.355 115.203ZM220.508 115.203H213.584V112.275H220.508L220.508 115.203ZM206.661 115.203H199.737V112.275H206.661L206.661 115.203ZM192.813 115.203H185.89V112.275H192.813L192.813 115.203ZM178.966 115.203H172.042V112.275H178.966L178.966 115.203ZM165.118 115.203H158.195V112.275H165.118L165.118 115.203ZM151.271 115.203H144.347V112.275H151.271L151.271 115.203ZM137.424 115.203H130.5V112.275H137.424L137.424 115.203ZM123.576 115.203H116.653V112.275H123.576L123.576 115.203ZM109.729 115.203H102.805V112.275H109.729L109.729 115.203ZM95.8813 115.203H88.958V112.275H95.8815L95.8813 115.203ZM82.034 115.203H75.1106V112.275H82.0341L82.034 115.203ZM68.1866 115.203H61.263V112.275H68.1868L68.1866 115.203ZM54.3393 115.203H47.4157V112.275H54.3395L54.3393 115.203ZM40.4919 115.203H33.5684V112.275H40.4922L40.4919 115.203Z" fill="#E6E6E6"/>
<path d="M26.6444 37.897H23.1309V40.8252H26.6444V37.897Z" fill="#E6E6E6"/>
<path d="M358.982 40.8252H352.058V37.897H358.982V40.8252ZM345.134 40.8252H338.21V37.897H345.134V40.8252ZM331.287 40.8252H324.363V37.897H331.287V40.8252ZM317.44 40.8252H310.516V37.897H317.44V40.8252ZM303.592 40.8252H296.669V37.897H303.592V40.8252ZM289.745 40.8252H282.821V37.897H289.745L289.745 40.8252ZM275.898 40.8252H268.974V37.897H275.898V40.8252ZM262.05 40.8252H255.126V37.897H262.05V40.8252ZM248.203 40.8252H241.279V37.897H248.203V40.8252ZM234.355 40.8252H227.432V37.897H234.355L234.355 40.8252ZM220.508 40.8252H213.584V37.897H220.508L220.508 40.8252ZM206.661 40.8252H199.737V37.897H206.661L206.661 40.8252ZM192.813 40.8252H185.89V37.897H192.813L192.813 40.8252ZM178.966 40.8252H172.042V37.897H178.966L178.966 40.8252ZM165.118 40.8252H158.195V37.897H165.118L165.118 40.8252ZM151.271 40.8252H144.347V37.897H151.271L151.271 40.8252ZM137.424 40.8252H130.5V37.897H137.424L137.424 40.8252ZM123.576 40.8252H116.653V37.897H123.576L123.576 40.8252ZM109.729 40.8252H102.805V37.897H109.729L109.729 40.8252ZM95.8813 40.8252H88.958V37.897H95.8815L95.8813 40.8252ZM82.034 40.8252H75.1106V37.897H82.0341L82.034 40.8252ZM68.1866 40.8252H61.263V37.897H68.1868L68.1866 40.8252ZM54.3393 40.8252H47.4157V37.897H54.3395L54.3393 40.8252ZM40.4919 40.8252H33.5684V37.897H40.4922L40.4919 40.8252Z" fill="#E6E6E6"/>
<path d="M137.613 187.531H108.919V292.949H137.613V187.531Z" fill="#3F3D56"/>
<path d="M142.883 187.531H114.189V292.949H142.883V187.531Z" fill="url(#paint0_linear)"/>
<path d="M205.54 113.153H176.847V292.949H205.54V113.153Z" fill="#3F3D56"/>
<path d="M210.811 113.153H182.117V292.949H210.811V113.153Z" fill="url(#paint1_linear)"/>
<path d="M273.468 38.7754H244.774V292.949H273.468V38.7754Z" fill="#3F3D56"/>
<path d="M278.739 38.7754H250.045V292.949H278.739V38.7754Z" fill="url(#paint2_linear)"/>
<path d="M23.4235 46.3889C27.3044 46.3889 30.4505 43.2425 30.4505 39.3611C30.4505 35.4797 27.3044 32.3333 23.4235 32.3333C19.5426 32.3333 16.3965 35.4797 16.3965 39.3611C16.3965 43.2425 19.5426 46.3889 23.4235 46.3889Z" fill="#E6E6E6"/>
<path d="M23.4235 120.767C27.3044 120.767 30.4505 117.62 30.4505 113.739C30.4505 109.858 27.3044 106.711 23.4235 106.711C19.5426 106.711 16.3965 109.858 16.3965 113.739C16.3965 117.62 19.5426 120.767 23.4235 120.767Z" fill="#E6E6E6"/>
<path d="M23.4235 195.145C27.3044 195.145 30.4505 191.998 30.4505 188.117C30.4505 184.235 27.3044 181.089 23.4235 181.089C19.5426 181.089 16.3965 184.235 16.3965 188.117C16.3965 191.998 19.5426 195.145 23.4235 195.145Z" fill="#E6E6E6"/>
<path d="M520 292.293H0V293.605H520V292.293Z" fill="#3F3D56"/>
<path d="M442.904 54.9532C453.912 54.9532 462.836 46.0284 462.836 35.0192C462.836 24.01 453.912 15.0852 442.904 15.0852C431.896 15.0852 422.973 24.01 422.973 35.0192C422.973 46.0284 431.896 54.9532 442.904 54.9532Z" fill="#2F2E41"/>
<path d="M394.691 166.206L393.613 172.671C393.613 172.671 387.688 194.76 395.229 193.683C402.771 192.605 400.078 173.749 400.078 173.749L401.155 167.823L394.691 166.206Z" fill="#FFB9B9"/>
<path d="M461.22 135.767H417.586C417.586 135.767 405.196 155.162 410.044 189.103C414.892 223.045 412.738 299.01 412.738 299.01H429.437L440.75 179.945L464.452 299.01L480.074 297.393L471.455 160.011L461.22 135.767Z" fill="#2F2E41"/>
<path d="M417.316 297.124L416.777 317.058C416.777 317.058 409.774 336.992 420.009 334.837C430.245 332.682 431.322 328.372 431.322 326.756C431.322 325.139 428.629 297.124 428.629 297.124H417.316Z" fill="#2F2E41"/>
<path d="M477.337 295.61L480.421 316.927C480.421 316.927 489.916 335.801 479.489 334.974C469.063 334.146 467.443 330.009 467.236 328.406C467.029 326.803 466.117 297.057 466.117 297.057L477.337 295.61Z" fill="#2F2E41"/>
<path d="M443.174 54.6838C451.206 54.6838 457.718 48.1711 457.718 40.1374C457.718 32.1036 451.206 25.5909 443.174 25.5909C435.141 25.5909 428.629 32.1036 428.629 40.1374C428.629 48.1711 435.141 54.6838 443.174 54.6838Z" fill="#FFB9B9"/>
<path d="M454.217 46.3334L460.142 66.806L448.291 78.6585L441.826 67.3448L439.672 51.182L454.217 46.3334Z" fill="#FFB9B9"/>
<path d="M459.335 60.0714C459.335 60.0714 458.542 54.6374 456.783 55.1993C455.025 55.7613 439.403 59.5326 439.403 61.1489V68.1527L426.474 118.257L423.242 138.73L457.18 138.191L462.567 67.0752L459.335 60.0714Z" fill="#E6E6E6"/>
<path d="M456.372 54.4144L460.143 55.4919L466.337 61.6876C466.337 61.6876 481.421 58.9939 483.576 65.9977C485.731 73.0015 471.724 160.28 471.724 160.28C471.724 160.28 448.022 168.361 444.251 147.889C440.48 127.416 440.75 109.906 448.291 96.9762C455.833 84.046 456.372 54.4144 456.372 54.4144Z" fill="#2F2E41"/>
<path d="M440.744 59.222L438.594 60.3407L436.709 68.6914C436.709 68.6914 421.087 73.0014 420.009 78.9278C418.932 84.8541 420.548 117.179 420.548 117.179C420.548 117.179 405.465 147.889 408.158 160.819C408.158 160.819 414.622 166.206 419.471 159.202C424.319 152.199 436.17 110.176 436.709 107.482C437.248 104.788 443.162 59.9891 440.744 59.222Z" fill="#2F2E41"/>
<path d="M425.936 76.7726L420.167 78.3369L416.239 89.7026L408.158 118.796L392.536 166.745L403.31 171.594L420.548 136.575L425.936 76.7726Z" fill="#2F2E41"/>
<path d="M454.216 38.2518C444.955 34.9109 441.821 32.8585 431.591 38.2518L427.82 23.1666H457.987L454.216 38.2518Z" fill="#2F2E41"/>
<path d="M441.288 25.3216C447.536 25.3216 452.601 20.2562 452.601 14.0077C452.601 7.75918 447.536 2.69379 441.288 2.69379C435.04 2.69379 429.976 7.75918 429.976 14.0077C429.976 20.2562 435.04 25.3216 441.288 25.3216Z" fill="#2F2E41"/>
<path d="M427.821 11.3139C427.822 8.40833 428.942 5.61487 430.948 3.51325C432.954 1.41163 435.692 0.163244 438.594 0.0271933C438.415 0.0187072 438.238 0 438.056 0C435.055 0 432.178 1.192 430.057 3.31376C427.935 5.43552 426.743 8.31325 426.743 11.3139C426.743 14.3145 427.935 17.1922 430.057 19.314C432.178 21.4358 435.055 22.6278 438.056 22.6278C438.238 22.6278 438.415 22.6091 438.594 22.6006C435.692 22.4645 432.954 21.2161 430.948 19.1145C428.942 17.0129 427.822 14.2195 427.821 11.3139Z" fill="#2F2E41"/>
<path d="M461.078 168.145H419.06V186.027H461.078V168.145Z" fill="url(#paint3_linear)"/>
<path opacity="0.2" d="M440.069 182.004C442.785 182.004 444.986 179.802 444.986 177.086C444.986 174.37 442.785 172.168 440.069 172.168C437.354 172.168 435.152 174.37 435.152 177.086C435.152 179.802 437.354 182.004 440.069 182.004Z" fill="black"/>
<path opacity="0.2" d="M428.894 184.686H420.848V169.486H429.34V170.381H421.741V183.792H428.894V184.686Z" fill="black"/>
<path opacity="0.2" d="M459.29 184.686H451.244V183.792H458.395V170.381H450.797V169.486H459.29V184.686Z" fill="black"/>
<path d="M455.843 169.831L415.734 182.357L421.064 199.426L461.172 186.901L455.843 169.831Z" fill="url(#paint4_linear)"/>
<path opacity="0.2" d="M438.453 189.546C441.169 189.546 443.37 187.345 443.37 184.629C443.37 181.913 441.169 179.711 438.453 179.711C435.738 179.711 433.536 181.913 433.536 184.629C433.536 187.345 435.738 189.546 438.453 189.546Z" fill="black"/>
<path opacity="0.2" d="M430.051 195.215L422.371 197.613L417.841 183.104L425.948 180.573L426.214 181.426L418.96 183.691L422.958 196.493L429.784 194.361L430.051 195.215Z" fill="black"/>
<path opacity="0.2" d="M459.065 186.153L451.385 188.552L451.118 187.698L457.945 185.566L453.948 172.765L446.694 175.03L446.428 174.176L454.535 171.644L459.065 186.153Z" fill="black"/>
<path d="M461.029 157.29L458.563 163.362C458.563 163.362 452.05 185.285 446.188 180.419C440.327 175.553 452.491 160.896 452.491 160.896L454.675 155.283L461.029 157.29Z" fill="#FFB9B9"/>
<path d="M476.034 67.6139L483.576 65.9977C484.647 69.1718 485.515 72.4109 486.175 75.6953C487.253 81.0828 485.59 123.645 484.512 127.955C483.435 132.265 463.9 160.982 463.9 160.982L446.32 157.168L471.724 118.796L476.034 67.6139Z" fill="#2F2E41"/>
<path opacity="0.2" d="M471.982 94.9982L467.297 120.767L449.729 156.492L465.54 119.01L471.982 94.9982Z" fill="black"/>
</g>
<defs>
<linearGradient id="paint0_linear" x1="128.536" y1="187.531" x2="128.536" y2="292.949" gradientUnits="userSpaceOnUse">
<stop stop-color="#E31266"/>
<stop offset="0.4875" stop-color="#F8493C"/>
<stop offset="1" stop-color="#F4943E"/>
</linearGradient>
<linearGradient id="paint1_linear" x1="196.464" y1="113.153" x2="196.464" y2="292.949" gradientUnits="userSpaceOnUse">
<stop stop-color="#E31266"/>
<stop offset="0.4875" stop-color="#F8493C"/>
<stop offset="1" stop-color="#F4943E"/>
</linearGradient>
<linearGradient id="paint2_linear" x1="264.392" y1="38.7754" x2="264.392" y2="292.949" gradientUnits="userSpaceOnUse">
<stop stop-color="#E31266"/>
<stop offset="0.4875" stop-color="#F8493C"/>
<stop offset="1" stop-color="#F4943E"/>
</linearGradient>
<linearGradient id="paint3_linear" x1="440.069" y1="168.145" x2="440.069" y2="186.027" gradientUnits="userSpaceOnUse">
<stop stop-color="#E31266"/>
<stop offset="0.508333" stop-color="#F8493C"/>
<stop offset="1" stop-color="#F4943E"/>
</linearGradient>
<linearGradient id="paint4_linear" x1="435.789" y1="176.094" x2="441.119" y2="193.163" gradientUnits="userSpaceOnUse">
<stop stop-color="#E31266"/>
<stop offset="0.503125" stop-color="#F8493C"/>
<stop offset="1" stop-color="#F4943E"/>
</linearGradient>
<clipPath id="clip0">
<rect width="520" height="335" fill="white"/>
</clipPath>
</defs>
</svg>
