<svg width="566" height="327" viewBox="0 0 566 327" fill="none" xmlns="http://www.w3.org/2000/svg">
<g clip-path="url(#clip0)">
<path d="M290.821 277.713C289.353 277.713 287.871 277.69 286.416 277.645L286.449 276.59C288.538 276.655 290.671 276.673 292.77 276.644L292.784 277.7C292.131 277.709 291.476 277.713 290.821 277.713ZM299.149 277.469L299.087 276.415C301.18 276.291 303.299 276.118 305.386 275.9L305.497 276.95C303.394 277.17 301.258 277.345 299.149 277.469ZM280.057 277.304C277.947 277.143 275.814 276.931 273.719 276.675L273.848 275.627C275.927 275.881 278.043 276.091 280.137 276.251L280.057 277.304ZM311.814 276.143L311.655 275.099C313.734 274.784 315.829 274.419 317.88 274.012L318.087 275.047C316.019 275.457 313.909 275.826 311.814 276.143ZM267.417 275.757C265.333 275.404 263.229 274.999 261.163 274.551L261.388 273.519C263.437 273.964 265.525 274.366 267.594 274.715L267.417 275.757ZM324.304 273.665L324.05 272.64C326.09 272.136 328.143 271.579 330.149 270.985L330.45 271.998C328.428 272.597 326.36 273.158 324.304 273.665ZM254.972 273.06C252.928 272.517 250.87 271.92 248.857 271.284L249.175 270.278C251.173 270.908 253.215 271.501 255.244 272.039L254.972 273.06ZM336.513 270.05L336.166 269.052C338.146 268.365 340.138 267.622 342.087 266.844L342.479 267.824C340.516 268.609 338.509 269.357 336.513 270.05ZM242.814 269.223C240.828 268.494 238.829 267.708 236.875 266.886L237.285 265.912C239.225 266.728 241.208 267.508 243.179 268.232L242.814 269.223ZM348.323 265.332L347.885 264.371C349.787 263.509 351.699 262.588 353.567 261.635L354.049 262.575C352.166 263.536 350.24 264.463 348.323 265.332ZM231.052 264.28C229.143 263.372 227.227 262.406 225.358 261.409L225.856 260.478C227.712 261.467 229.613 262.425 231.507 263.327L231.052 264.28ZM359.642 259.557L359.118 258.64C360.942 257.602 362.763 256.51 364.529 255.394L365.094 256.286C363.314 257.41 361.48 258.511 359.642 259.557ZM219.803 258.281C217.987 257.202 216.169 256.066 214.399 254.902L214.981 254.02C216.738 255.175 218.542 256.303 220.344 257.373L219.803 258.281ZM370.392 252.769L369.786 251.904C371.504 250.706 373.218 249.452 374.88 248.176L375.525 249.013C373.85 250.299 372.123 251.562 370.392 252.769ZM209.157 251.282C207.45 250.044 205.744 248.747 204.088 247.427L204.748 246.602C206.392 247.912 208.085 249.199 209.779 250.427L209.157 251.282ZM380.482 245.028L379.8 244.22C381.401 242.872 382.994 241.467 384.536 240.044L385.254 240.819C383.701 242.253 382.095 243.669 380.482 245.028ZM199.2 243.346C197.61 241.956 196.03 240.51 194.505 239.048L195.237 238.286C196.751 239.737 198.319 241.172 199.897 242.552L199.2 243.346ZM389.83 236.397L389.077 235.656C390.553 234.163 392.013 232.618 393.415 231.065L394.201 231.771C392.788 233.337 391.317 234.893 389.83 236.397ZM190.011 234.543C188.552 233.012 187.111 231.429 185.729 229.839L186.528 229.147C187.9 230.725 189.33 232.295 190.778 233.815L190.011 234.543ZM398.357 226.951L397.54 226.281C398.873 224.661 400.185 222.99 401.442 221.313L402.289 221.945C401.023 223.635 399.7 225.319 398.357 226.951ZM181.666 224.946C180.356 223.294 179.066 221.588 177.831 219.875L178.69 219.259C179.915 220.957 181.195 222.651 182.495 224.291L181.666 224.946ZM405.989 216.764L405.114 216.171C406.293 214.437 407.449 212.653 408.548 210.866L409.449 211.419C408.341 213.219 407.177 215.017 405.989 216.764ZM174.234 214.637C173.081 212.873 171.953 211.058 170.88 209.241L171.791 208.705C172.856 210.508 173.976 212.309 175.119 214.059L174.234 214.637ZM412.661 205.92L411.736 205.409C412.751 203.575 413.738 201.691 414.669 199.809L415.617 200.277C414.679 202.173 413.685 204.071 412.661 205.92ZM167.778 203.699C166.791 201.838 165.835 199.928 164.935 198.024L165.891 197.573C166.785 199.463 167.734 201.359 168.713 203.205L167.778 203.699ZM418.311 194.504L417.342 194.08C418.185 192.159 418.994 190.191 419.748 188.231L420.735 188.61C419.976 190.585 419.16 192.568 418.311 194.504ZM162.356 192.226C161.545 190.283 160.768 188.295 160.048 186.318L161.042 185.957C161.757 187.92 162.528 189.892 163.332 191.819L162.356 192.226ZM422.885 182.608L421.881 182.276C422.541 180.291 423.164 178.261 423.732 176.244L424.751 176.529C424.178 178.562 423.55 180.608 422.885 182.608ZM158.01 180.294C157.381 178.282 156.789 176.226 156.252 174.183L157.275 173.915C157.808 175.943 158.395 177.983 159.02 179.98L158.01 180.294ZM426.333 170.371L425.303 170.132C425.776 168.097 426.209 166.018 426.59 163.956L427.63 164.146C427.247 166.226 426.81 168.32 426.333 170.371ZM154.779 167.998C154.338 165.936 153.939 163.835 153.593 161.752L154.636 161.579C154.98 163.646 155.376 165.731 155.814 167.778L154.779 167.998ZM428.638 157.87L427.59 157.727C427.874 155.659 428.115 153.55 428.304 151.458L429.358 151.553C429.167 153.661 428.925 155.786 428.638 157.87V157.87ZM152.694 155.459C152.445 153.369 152.24 151.24 152.085 149.132L153.141 149.054C153.294 151.147 153.497 153.259 153.745 155.334L152.694 155.459ZM429.789 145.211L428.732 145.164C428.826 143.072 428.874 140.95 428.874 138.857H429.932C429.932 140.966 429.884 143.104 429.789 145.211L429.789 145.211ZM151.765 142.782C151.729 141.487 151.71 140.166 151.71 138.857C151.71 138.044 151.717 137.233 151.731 136.424L152.789 136.442C152.775 137.245 152.768 138.05 152.768 138.857C152.768 140.157 152.786 141.468 152.822 142.753L151.765 142.782ZM428.866 137.384C428.845 135.29 428.774 133.168 428.658 131.076L429.714 131.018C429.831 133.125 429.902 135.263 429.924 137.372L428.866 137.384ZM153.04 130.138L151.984 130.072C152.116 127.962 152.298 125.831 152.525 123.738L153.577 123.852C153.352 125.929 153.171 128.044 153.04 130.138ZM428.163 124.787C427.952 122.706 427.689 120.599 427.382 118.527L428.429 118.373C428.738 120.461 429.003 122.583 429.216 124.681L428.163 124.787ZM154.401 117.597L153.355 117.436C153.679 115.347 154.056 113.242 154.475 111.177L155.511 111.387C155.096 113.435 154.722 115.525 154.401 117.597ZM426.315 112.309C425.911 110.25 425.456 108.176 424.961 106.147L425.989 105.897C426.488 107.942 426.946 110.031 427.353 112.107L426.315 112.309ZM156.906 105.234L155.88 104.977C156.394 102.932 156.963 100.87 157.571 98.8476L158.584 99.1513C157.981 101.158 157.416 103.204 156.906 105.234ZM423.325 100.053C422.735 98.042 422.09 96.0196 421.409 94.0407L422.409 93.6973C423.096 95.6914 423.746 97.7298 424.34 99.7556L423.325 100.053ZM160.548 93.1361L159.55 92.786C160.253 90.7898 161.012 88.7842 161.806 86.8246L162.787 87.2206C161.999 89.1649 161.246 91.1554 160.548 93.1361ZM419.217 88.1232C418.445 86.1799 417.619 84.2296 416.76 82.3263L417.725 81.8927C418.59 83.8107 419.423 85.7759 420.2 87.7339L419.217 88.1232ZM165.296 81.4165L164.335 80.9757C165.218 79.0551 166.159 77.1291 167.13 75.2512L168.07 75.7354C167.106 77.5991 166.173 79.5104 165.296 81.4165ZM414.039 76.646C413.093 74.7818 412.089 72.9138 411.058 71.0945L411.978 70.5743C413.018 72.4077 414.029 74.2899 414.983 76.1685L414.039 76.646ZM171.102 70.1891L170.185 69.6622C171.241 67.8331 172.354 66.0022 173.493 64.2208L174.385 64.789C173.254 66.557 172.149 68.374 171.102 70.1891ZM407.824 65.6828C406.707 63.9066 405.536 62.137 404.345 60.4232L405.214 59.8215C406.414 61.5485 407.594 63.3314 408.72 65.1213L407.824 65.6828ZM177.911 59.5459L177.047 58.9375C178.266 57.211 179.541 55.4902 180.837 53.8228L181.673 54.4699C180.387 56.1249 179.121 57.8326 177.911 59.5459ZM400.628 55.3263C399.354 53.6596 398.026 52.0027 396.682 50.4018L397.493 49.7235C398.847 51.3368 400.185 53.0061 401.469 54.6854L400.628 55.3263ZM185.662 49.5719L184.857 48.8872C186.225 47.2827 187.652 45.6856 189.096 44.1403L189.87 44.8606C188.436 46.3943 187.021 47.9795 185.662 49.5719ZM392.514 45.6606C391.093 44.1166 389.619 42.5863 388.133 41.1128L388.879 40.3636C390.376 41.8488 391.861 43.3904 393.293 44.946L392.514 45.6606ZM194.286 40.3471L193.547 39.5922C195.059 38.115 196.625 36.6546 198.199 35.2517L198.903 36.0395C197.341 37.4316 195.788 38.881 194.286 40.3471V40.3471ZM383.55 36.7675C381.993 35.3576 380.385 33.9671 378.771 32.6345L379.446 31.8209C381.071 33.1635 382.692 34.5646 384.261 35.9854L383.55 36.7675ZM203.711 31.9462L203.043 31.1274C204.679 29.7974 206.37 28.4857 208.069 27.2287L208.699 28.0769C207.013 29.3246 205.335 30.6263 203.711 31.9462V31.9462ZM373.808 28.7219C372.128 27.4589 370.399 26.2197 368.669 25.0387L369.267 24.1673C371.009 25.3571 372.751 26.6056 374.444 27.8784L373.808 28.7219ZM213.857 24.4398L213.267 23.5638C215.018 22.3878 216.821 21.2362 218.625 20.1403L219.175 21.0426C217.384 22.13 215.595 23.2731 213.857 24.4399V24.4398ZM363.367 21.5935C361.579 20.4891 359.743 19.4125 357.91 18.3932L358.425 17.4708C360.272 18.4978 362.122 19.5829 363.923 20.6953L363.367 21.5935ZM224.641 17.8923L224.133 16.9657C225.986 15.9539 227.885 14.9722 229.779 14.0475L230.244 14.9962C228.365 15.9137 226.48 16.8879 224.641 17.8923ZM352.311 15.4458C350.429 14.5097 348.501 13.6053 346.58 12.758L347.008 11.7922C348.943 12.6461 350.886 13.5574 352.783 14.5007L352.311 15.4458ZM235.972 12.3602L235.551 11.3913C237.487 10.5538 239.468 9.75045 241.437 9.00361L241.813 9.99098C239.858 10.7319 237.893 11.529 235.972 12.3602H235.972ZM340.729 10.3357C338.77 9.5775 336.766 8.8541 334.77 8.18589L335.107 7.18459C337.118 7.85822 339.138 8.58702 341.111 9.35139L340.729 10.3357ZM247.772 7.88761L247.442 6.88426C249.453 6.22636 251.504 5.60686 253.538 5.04357L253.821 6.06085C251.802 6.62002 249.767 7.23461 247.772 7.88761ZM328.733 6.31762C326.715 5.7435 324.658 5.20882 322.617 4.72854L322.859 3.70096C324.916 4.18484 326.99 4.72364 329.023 5.30189L328.733 6.31762ZM259.949 4.5143L259.713 3.48491C261.774 3.01494 263.874 2.58674 265.953 2.21242L266.141 3.25135C264.077 3.62309 261.994 4.04795 259.949 4.5143ZM316.433 3.42304C314.373 3.03709 312.275 2.69373 310.196 2.40241L310.343 1.35679C312.438 1.65042 314.552 1.99638 316.628 2.38514L316.433 3.42304ZM272.386 2.27403L272.246 1.22737C274.34 0.948427 276.469 0.71383 278.575 0.530793L278.667 1.58261C276.577 1.76462 274.464 1.99716 272.386 2.27404V2.27403ZM303.919 1.6682C301.835 1.47228 299.714 1.3212 297.614 1.21989L297.666 0.165C299.781 0.267348 301.918 0.419448 304.018 0.616946L303.919 1.6682ZM284.975 1.17761L284.931 0.122697C286.875 0.0417483 288.857 0.000502154 290.821 -1.52588e-05L291.3 0.000766194L291.297 1.05671L290.821 1.05593C288.871 1.05645 286.904 1.09744 284.975 1.17762V1.17761Z" fill="#3F3D56"/>
<path d="M426.325 254.098C425.069 254.098 423.842 253.726 422.798 253.03C421.755 252.334 420.941 251.345 420.461 250.187C419.98 249.029 419.855 247.755 420.1 246.526C420.344 245.297 420.949 244.168 421.837 243.282C422.724 242.396 423.855 241.793 425.087 241.548C426.318 241.304 427.594 241.429 428.754 241.909C429.914 242.389 430.905 243.201 431.602 244.242C432.3 245.284 432.672 246.509 432.672 247.762C432.67 249.442 432.001 251.052 430.811 252.24C429.621 253.428 428.008 254.096 426.325 254.098ZM426.325 242.483C425.279 242.483 424.256 242.792 423.386 243.372C422.516 243.953 421.838 244.777 421.438 245.742C421.038 246.707 420.933 247.768 421.137 248.792C421.341 249.817 421.845 250.757 422.585 251.496C423.324 252.234 424.267 252.737 425.293 252.941C426.319 253.144 427.382 253.04 428.349 252.64C429.315 252.241 430.142 251.564 430.723 250.696C431.304 249.827 431.614 248.807 431.614 247.762C431.613 246.363 431.055 245.021 430.063 244.031C429.072 243.041 427.727 242.484 426.325 242.483Z" fill="#2F2E41"/>
<path d="M257.488 91.5554V126.233C257.488 126.553 257.36 126.86 257.133 127.087C256.906 127.313 256.598 127.441 256.277 127.442H255.415V308.087C255.415 313.086 253.425 317.88 249.884 321.415C246.343 324.95 241.54 326.936 236.532 326.936H123.45C120.971 326.936 118.515 326.448 116.225 325.501C113.934 324.553 111.853 323.165 110.1 321.415C108.347 319.664 106.957 317.586 106.008 315.3C105.06 313.013 104.572 310.562 104.572 308.087V133.777H103.948C103.722 133.778 103.504 133.688 103.344 133.529C103.183 133.37 103.092 133.153 103.091 132.927V113.192C103.091 113.079 103.113 112.968 103.156 112.864C103.199 112.761 103.262 112.666 103.342 112.587C103.422 112.507 103.516 112.444 103.62 112.401C103.724 112.358 103.835 112.336 103.948 112.336H104.572V104.903H103.943C103.705 104.902 103.477 104.807 103.31 104.638C103.142 104.47 103.048 104.242 103.049 104.005V84.5387C103.049 84.3022 103.144 84.0756 103.311 83.9084C103.479 83.7412 103.706 83.647 103.943 83.6464H104.572V73.4988H103.932C103.828 73.4989 103.725 73.4785 103.628 73.4388C103.532 73.399 103.444 73.3407 103.371 73.2671C103.297 73.1935 103.239 73.1062 103.199 73.01C103.159 72.9139 103.139 72.8108 103.139 72.7068V62.084C103.138 61.8733 103.222 61.6711 103.37 61.5216C103.519 61.3721 103.721 61.2877 103.932 61.2868H104.572V39.7772C104.572 34.7797 106.561 29.9869 110.102 26.4531C113.642 22.9193 118.443 20.934 123.45 20.9338H236.532C241.539 20.9338 246.341 22.9189 249.882 26.4526C253.424 29.9862 255.414 34.7791 255.415 39.7772V90.3464H256.277C256.598 90.3472 256.906 90.4749 257.133 90.7014C257.36 90.928 257.488 91.235 257.488 91.5554Z" fill="#3F3D56"/>
<path d="M185.439 30.5993H167.064C166.322 30.5993 165.72 31.2001 165.72 31.9413V33.5266C165.72 34.2678 166.322 34.8687 167.064 34.8687H185.439C186.182 34.8687 186.784 34.2678 186.784 33.5266V31.9413C186.784 31.2001 186.182 30.5993 185.439 30.5993Z" fill="#E6E8EC"/>
<path d="M192.395 35.1556C193.735 35.1556 194.821 34.0714 194.821 32.734C194.821 31.3966 193.735 30.3124 192.395 30.3124C191.055 30.3124 189.969 31.3966 189.969 32.734C189.969 34.0714 191.055 35.1556 192.395 35.1556Z" fill="#E6E8EC"/>
<path d="M246.373 43.5046V309.65C246.372 312.821 245.109 315.861 242.862 318.103C240.616 320.344 237.569 321.603 234.393 321.603H126.146C124.572 321.606 123.013 321.299 121.559 320.699C120.104 320.1 118.783 319.219 117.67 318.109C116.557 316.998 115.674 315.68 115.073 314.228C114.472 312.777 114.163 311.221 114.165 309.65V43.5046C114.165 41.9341 114.475 40.379 115.077 38.9281C115.679 37.4772 116.561 36.1589 117.674 35.0484C118.786 33.938 120.107 33.0571 121.561 32.4561C123.014 31.8552 124.572 31.5459 126.146 31.546H142.347V33.6209C142.347 36.2324 143.386 38.7369 145.236 40.5835C147.086 42.4302 149.595 43.4676 152.212 43.4676H207.264C209.88 43.4676 212.389 42.4302 214.239 40.5836C216.089 38.7369 217.128 36.2324 217.128 33.6209V31.546H234.393C235.966 31.5455 237.524 31.8544 238.978 32.4552C240.432 33.056 241.753 33.9369 242.865 35.0474C243.978 36.158 244.861 37.4765 245.462 38.9276C246.064 40.3787 246.374 41.934 246.373 43.5046Z" fill="url(#paint0_linear)"/>
<path opacity="0.2" d="M242.163 118.794H119.449V178.455H242.163V118.794Z" fill="black"/>
<path d="M434.696 50.6853H311.982V110.346H434.696V50.6853Z" fill="#F2F2F2"/>
<path d="M242.163 209.224H119.449V268.885H242.163V209.224Z" fill="#3F3D56"/>
<path d="M229.468 74.5915C235.311 74.5915 240.047 69.8639 240.047 64.0321C240.047 58.2003 235.311 53.4726 229.468 53.4726C223.626 53.4726 218.89 58.2003 218.89 64.0321C218.89 69.8639 223.626 74.5915 229.468 74.5915Z" fill="white"/>
<path d="M234.229 63.6924H229.808V59.2802H229.128V63.6924H224.708V64.3714H229.128V68.7837H229.808V64.3714H234.229V63.6924Z" fill="#3F3D56"/>
<path d="M420.944 42.7658H298.23V102.427H420.944V42.7658Z" fill="#3F3D56"/>
<path d="M325.735 177.695H315.293V167.272H325.735V177.695ZM316.096 176.893H324.932V168.074H316.096V176.893Z" fill="#3F3D56"/>
<path d="M51.5568 242.15L44.4346 234.528L52.0704 227.419L59.1926 235.041L51.5568 242.15ZM45.5698 234.567L51.5963 241.017L58.0574 235.001L52.0309 228.552L45.5698 234.567Z" fill="#2F2E41"/>
<path d="M57.1982 78.1584C60.1424 78.1584 62.5291 75.776 62.5291 72.8372C62.5291 69.8983 60.1424 67.5159 57.1982 67.5159C54.2539 67.5159 51.8672 69.8983 51.8672 72.8372C51.8672 75.776 54.2539 78.1584 57.1982 78.1584Z" fill="#3F3D56"/>
<path d="M57.1984 88.2096C54.1525 88.2096 51.1749 87.308 48.6423 85.6189C46.1097 83.9297 44.1358 81.5289 42.9702 78.7199C41.8045 75.911 41.4995 72.8201 42.0938 69.8381C42.688 66.8562 44.1548 64.1171 46.3086 61.9672C48.4624 59.8173 51.2065 58.3532 54.1939 57.7601C57.1814 57.1669 60.2779 57.4713 63.092 58.6349C65.9061 59.7984 68.3113 61.7687 70.0036 64.2967C71.6958 66.8246 72.599 69.7968 72.599 72.8371C72.5945 76.9128 70.9704 80.8202 68.0832 83.7021C65.1961 86.584 61.2815 88.205 57.1984 88.2096ZM57.1984 58.6472C54.3868 58.6472 51.6383 59.4794 49.3005 61.0386C46.9627 62.5979 45.1406 64.814 44.0647 67.4069C42.9887 69.9998 42.7072 72.8529 43.2557 75.6055C43.8042 78.358 45.1581 80.8865 47.1463 82.871C49.1344 84.8555 51.6674 86.2069 54.4251 86.7544C57.1827 87.302 60.041 87.021 62.6386 85.947C65.2362 84.8729 67.4565 83.0542 69.0185 80.7207C70.5806 78.3871 71.4144 75.6436 71.4144 72.8371C71.41 69.0751 69.9109 65.4683 67.2458 62.8081C64.5808 60.1479 60.9674 58.6515 57.1984 58.6472Z" fill="#2F2E41"/>
<path d="M268.609 109.29H145.896V168.951H268.609V109.29Z" fill="#3F3D56"/>
<path d="M377.68 271.586L309.61 292.843L224.933 239.508L224.929 239.504L224.652 239.333L224.606 239.303L223.933 238.882L215.871 233.818C215.886 233.681 215.905 233.548 215.932 233.419C216.055 232.794 216.341 232.211 216.761 231.73C216.907 231.558 217.067 231.398 217.24 231.252H217.244C217.32 231.187 217.4 231.123 217.483 231.062C217.567 230.998 217.655 230.937 217.746 230.88C219.305 229.836 221.655 229.392 224.104 229.259C229.393 229.008 234.655 230.147 239.365 232.561C248.883 237.367 269.342 246.822 272.533 241.03C276.716 233.438 229.181 148.791 229.181 148.791C225.268 138.751 228.131 135.471 229.926 134.439C229.979 134.409 230.033 134.378 230.082 134.352C230.272 134.254 230.469 134.17 230.672 134.101C230.777 134.063 230.885 134.031 230.995 134.006C231.024 133.998 231.053 133.992 231.082 133.987L237.387 142.353L237.482 142.479L237.821 142.93L237.923 143.067L276.145 193.772C334.708 162.266 354.863 246.534 354.863 246.534L377.68 271.586Z" fill="#FBBEBE"/>
<path d="M237.924 143.067C237.785 143.353 237.567 143.592 237.295 143.757C237.023 143.922 236.709 144.006 236.391 143.997C236.181 143.996 235.971 143.968 235.768 143.913C234.353 143.534 232.714 141.985 231.489 139.871C230.295 137.806 229.805 135.73 230.082 134.352C230.273 134.254 230.47 134.17 230.672 134.101C230.778 134.063 230.885 134.031 230.995 134.006C230.505 134.967 230.797 137.149 232.151 139.491C233.258 141.408 234.756 142.858 235.962 143.177C236.109 143.238 236.268 143.265 236.427 143.255C236.586 143.244 236.741 143.198 236.879 143.118C237.017 143.038 237.135 142.928 237.223 142.795C237.311 142.662 237.368 142.511 237.388 142.353L237.483 142.479L237.821 142.93L237.924 143.067Z" fill="#3F3D56"/>
<path d="M224.652 239.333L224.607 239.303L223.934 238.882C223.937 237.8 223.116 236.027 221.302 234.247C219.77 232.755 217.99 231.776 216.762 231.73C216.908 231.558 217.068 231.398 217.241 231.252H217.245C217.321 231.187 217.401 231.123 217.484 231.062C219.14 231.55 220.64 232.46 221.835 233.704C223.827 235.659 224.922 237.887 224.652 239.333Z" fill="#3F3D56"/>
</g>
<defs>
<linearGradient id="paint0_linear" x1="180.269" y1="31.546" x2="180.269" y2="321.603" gradientUnits="userSpaceOnUse">
<stop stop-color="#E31266"/>
<stop offset="0.503125" stop-color="#F8493C"/>
<stop offset="1" stop-color="#F4943E"/>
</linearGradient>
<clipPath id="clip0">
<rect width="566" height="327" fill="white"/>
</clipPath>
</defs>
</svg>
