<svg width="42" height="42" viewBox="0 0 42 42" fill="none" xmlns="http://www.w3.org/2000/svg">
<path d="M30.6309 0H11.369C5.10003 0 0 5.10003 0 11.369V30.6312C0 36.8999 5.10003 41.9999 11.369 41.9999H30.6312C36.8999 41.9999 41.9999 36.8999 41.9999 30.6312V11.369C41.9999 5.10003 36.8999 0 30.6309 0ZM21 32.484C14.6675 32.484 9.51593 27.3324 9.51593 21C9.51593 14.6675 14.6675 9.51593 21 9.51593C27.3324 9.51593 32.484 14.6675 32.484 21C32.484 27.3324 27.3324 32.484 21 32.484ZM32.7586 12.2242C30.8873 12.2242 29.3652 10.7022 29.3652 8.83084C29.3652 6.95951 30.8873 5.43712 32.7586 5.43712C34.6299 5.43712 36.1523 6.95951 36.1523 8.83084C36.1523 10.7022 34.6299 12.2242 32.7586 12.2242Z" fill="white"/>
<path d="M21 11.978C16.0255 11.978 11.9781 16.0251 11.9781 20.9998C11.9781 25.9743 16.0255 30.0217 21 30.0217C25.9747 30.0217 30.0218 25.9743 30.0218 20.9998C30.0218 16.0251 25.9747 11.978 21 11.978Z" fill="white"/>
</svg>
