<svg width="520" height="377" viewBox="0 0 520 377" fill="none" xmlns="http://www.w3.org/2000/svg">
<g clip-path="url(#clip0)">
<path d="M483.285 339.272H419.824V375.89H483.285V339.272Z" fill="url(#paint0_linear)"/>
<path d="M352.971 367.419C352.401 369.357 352.137 371.616 353.32 373.254C353.974 374.074 354.834 374.704 355.813 375.08C358.332 376.066 361.041 376.464 363.737 376.243C364.253 376.267 364.768 376.184 365.251 375.998C365.733 375.813 366.172 375.53 366.54 375.167C372.792 369.989 377.022 362.774 378.484 354.787C378.602 354.375 378.58 353.935 378.421 353.537C378.215 353.228 377.926 352.984 377.589 352.831C376.197 351.959 374.698 351.274 373.128 350.794C364.537 348.575 355.099 360.176 352.971 367.419Z" fill="#2F2E41"/>
<path d="M443.062 340.262C444.216 341.603 445.639 342.686 447.238 343.443C448.04 343.814 448.916 343.999 449.8 343.984C450.684 343.969 451.553 343.754 452.342 343.356C454.705 342.01 455.375 338.883 455.186 336.17C454.837 331.151 452.44 326.629 449.686 322.529C448.814 321.232 446.885 317.372 445.192 317.324C444.387 317.301 441.379 320.218 440.562 320.773C437.576 322.801 435.508 324.252 436.129 328.146C436.822 332.488 440.14 337.135 443.062 340.262Z" fill="#2F2E41"/>
<path d="M416.881 132.693C404.169 131.707 392.027 132.072 379.292 131.419C378.222 131.364 378.737 143.616 377.629 150.27C377.059 153.689 357.89 354.01 360.269 354.416C366.379 355.695 372.559 356.61 378.777 357.158C381.299 357.38 404.81 226.855 403.683 216.248C406.761 220.763 417.603 241.611 423.085 265.593C430.318 297.234 432.448 333.024 436.944 331.016C439.838 327.041 443.766 323.934 448.3 322.033C455.731 319.269 443.688 167.063 430.964 160.066C430.808 155.611 430.645 151.047 428.966 146.918C426.598 141.093 421.927 136.443 416.881 132.693Z" fill="#2F2E41"/>
<path d="M519.759 377H169.456V375.668H520L519.759 377Z" fill="#3F3D56"/>
<path d="M287.411 179.653H0V236.408H287.411V179.653Z" fill="#E6E6E6"/>
<path d="M287.411 89.9739H0V146.729H287.411V89.9739Z" fill="#E6E6E6"/>
<path d="M287.411 0H0V56.7547H287.411V0Z" fill="#E6E6E6"/>
<path d="M6.12695 50.6264H281.284V6.12817H6.12695V50.6264Z" fill="white"/>
<path d="M6.12695 140.798H281.284V96.3H6.12695V140.798Z" fill="white"/>
<path d="M6.12695 230.279H281.284V185.781H6.12695V230.279Z" fill="white"/>
<path d="M29.9499 44.9054C39.3111 44.9054 46.8998 37.3154 46.8998 27.9527C46.8998 18.59 39.3111 11 29.9499 11C20.5887 11 13 18.59 13 27.9527C13 37.3154 20.5887 44.9054 29.9499 44.9054Z" fill="url(#paint1_linear)"/>
<path d="M237.771 21.3191H70.4824V25.0045H237.771V21.3191Z" fill="url(#paint2_linear)"/>
<path d="M238.036 30.957H70.7476V34.6424H238.036V30.957Z" fill="url(#paint3_linear)"/>
<path d="M30.215 135.673C39.5762 135.673 47.1649 128.083 47.1649 118.72C47.1649 109.357 39.5762 101.767 30.215 101.767C20.8539 101.767 13.2651 109.357 13.2651 118.72C13.2651 128.083 20.8539 135.673 30.215 135.673Z" fill="#CCCCCC"/>
<path d="M238.036 112.086H70.7476V115.772H238.036V112.086Z" fill="#CCCCCC"/>
<path d="M238.036 121.668H70.7476V125.354H238.036V121.668Z" fill="#CCCCCC"/>
<path d="M30.215 225.351C39.5762 225.351 47.1649 217.761 47.1649 208.399C47.1649 199.036 39.5762 191.446 30.215 191.446C20.8539 191.446 13.2651 199.036 13.2651 208.399C13.2651 217.761 20.8539 225.351 30.215 225.351Z" fill="#CCCCCC"/>
<path d="M238.036 201.765H70.7476V205.451H238.036V201.765Z" fill="#CCCCCC"/>
<path d="M238.036 211.347H70.7476V215.032H238.036V211.347Z" fill="#CCCCCC"/>
<path d="M413.749 35.5291C407.151 24.3791 394.098 23.8594 394.098 23.8594C394.098 23.8594 381.378 22.2326 373.219 39.2143C365.614 55.0426 355.117 70.3251 371.529 74.0304L374.493 64.8022L376.329 74.7174C378.666 74.8855 381.01 74.9256 383.351 74.8375C400.927 74.2699 417.665 75.0035 417.126 68.6955C416.41 60.31 420.097 46.2577 413.749 35.5291Z" fill="#2F2E41"/>
<path d="M389.409 73.5184C389.441 74.7734 389.432 76.097 388.808 77.1866C387.572 79.3466 384.554 79.6699 382.739 81.3724C380.83 83.1627 380.614 86.0683 380.523 88.684C380.428 91.4188 380.347 94.2431 381.345 96.791C381.956 98.1946 382.729 99.5221 383.647 100.747C384.756 102.345 385.874 103.935 387.003 105.518C387.606 106.41 388.277 107.253 389.012 108.04C391.033 110.1 393.806 111.24 396.575 112.053C398.363 112.578 400.295 112.988 402.069 112.417C403.244 111.959 404.326 111.293 405.265 110.452C406.637 109.468 407.855 108.286 408.882 106.945C410.372 104.783 410.784 102.077 411.093 99.4687C412.006 91.7569 412.362 83.9893 412.157 76.2263C412.194 75.3804 412.042 74.5368 411.713 73.7568C410.794 71.9618 408.332 71.5786 407.035 70.0345C405.926 68.7144 405.881 66.8303 405.89 65.1061L405.914 60.7166C405.953 60.3468 405.878 59.9739 405.701 59.6472C405.54 59.4712 405.346 59.3288 405.13 59.228C404.914 59.1272 404.68 59.07 404.442 59.0597C401.714 58.607 398.949 58.422 396.185 58.5073C393.945 58.5757 389.645 58.3882 387.708 59.6363C385.949 60.7693 388.151 63.8984 388.559 65.6561C389.106 68.2415 389.391 70.8756 389.409 73.5184Z" fill="#FFB8B8"/>
<path d="M394.552 65.9806C404.349 65.9806 412.291 58.0372 412.291 48.2386C412.291 38.44 404.349 30.4966 394.552 30.4966C384.755 30.4966 376.813 38.44 376.813 48.2386C376.813 58.0372 384.755 65.9806 394.552 65.9806Z" fill="#FFB8B8"/>
<path d="M390.535 86.6086C381.379 57.5901 376.556 98.3491 370.783 109.478C370.837 117.151 371.045 138.374 372.839 146.418C379.809 177.666 414.326 175.213 424.706 148.859C430.235 134.821 417.969 100.028 418.385 83.7941C403.185 68.3895 402.247 117.261 390.535 86.6086Z" fill="#2F2E41"/>
<path d="M380.485 76.655C360.646 86.2987 370.111 112.208 362.92 129.165C357.177 152.429 342.571 159.744 375.966 160.286C383.161 139.021 376.133 115.923 385.944 94.2711C386.619 85.7908 389.528 82.6017 389.27 75.4202C387.346 72.4397 382.363 75.7316 380.485 76.655Z" fill="url(#paint4_linear)"/>
<path d="M410.832 34.4544L397.936 27.6978L380.127 30.4618L376.443 46.7385L385.615 46.3851L388.177 40.4054V46.2863L392.409 46.1239L394.866 36.6039L396.401 46.7385L411.446 46.4309L410.832 34.4544Z" fill="#2F2E41"/>
<path d="M402.855 84.8224C413.066 83.6305 403.111 71.3661 411.216 71.5745C435.484 67.492 442.744 82.5254 433.515 103.508C425.055 120.314 454.982 143.923 438.263 153.327C432.33 155.505 423.833 162.358 418.035 159.374C408.725 135.97 408.388 109.23 402.855 84.8224Z" fill="url(#paint5_linear)"/>
<path d="M431.275 151.635C427.72 153.336 424.908 156.04 422.528 159.181C422.024 159.847 422.7 161.087 424.21 161.067C425.614 161.048 426.454 159.246 427.858 159.227C428.288 162.983 429.065 166.69 430.181 170.301C432.983 167.84 434.661 164.375 436.267 161.008L439.441 154.352C440.606 151.909 441.772 149.464 442.822 146.969C443.107 146.386 443.284 145.755 443.342 145.108C443.481 140.815 439.248 140.789 437.423 143.476C435.426 146.415 434.804 149.947 431.275 151.635Z" fill="#FFB8B8"/>
<path d="M432.005 77.8176C434.719 80.6378 437.452 83.4819 439.558 86.7805C441.665 90.0791 452.561 119.745 453.003 120.375C454.576 122.696 452.739 128.699 452.646 129.043C452.464 130.121 450.191 140.885 449.621 143.262C449.223 144.925 449.228 146.657 448.967 148.347C448.706 150.037 448.119 151.776 446.817 152.885C446.651 153.044 446.448 153.158 446.225 153.216C445.503 153.357 445.011 152.522 444.759 151.831C443.972 149.679 443.177 147.486 441.789 145.663C440.402 143.84 438.298 142.412 436.008 142.419C435.818 141.966 435.74 141.474 435.779 140.984C435.818 140.495 435.973 140.021 436.232 139.604C436.691 138.738 437.364 138.004 437.87 137.165C438.512 136.022 438.948 134.775 439.159 133.481C440.29 127.538 439.152 121.386 435.968 116.241C435.228 115.021 434.333 113.902 433.305 112.912C432.187 111.863 430.878 111.021 429.845 109.887C428.253 108.002 427.291 105.666 427.092 103.207C426.902 100.763 426.967 98.3068 427.287 95.877C427.751 91.055 428.348 86.2261 429.037 81.431C429.09 80.8063 429.252 80.1958 429.515 79.6268C430.055 78.6182 430.97 78.3043 432.005 77.8176Z" fill="url(#paint6_linear)"/>
<path d="M372.779 144.439C370.954 141.752 366.722 141.778 366.86 146.072C366.918 146.719 367.095 147.349 367.38 147.933C368.431 150.428 369.596 152.872 370.761 155.316L373.935 161.971C375.541 165.338 377.219 168.803 380.021 171.265C381.137 167.653 381.914 163.946 382.344 160.191C383.748 160.21 384.588 162.011 385.992 162.03C387.502 162.05 388.178 160.81 387.674 160.145C385.294 157.003 382.482 154.299 378.927 152.598C375.398 150.91 374.776 147.378 372.779 144.439Z" fill="#FFB8B8"/>
<path d="M380.687 80.5902C380.951 81.1592 381.112 81.7697 381.165 82.3943C381.854 87.1894 382.451 92.0184 382.915 96.8404C383.235 99.2702 383.3 101.727 383.11 104.17C382.911 106.63 381.949 108.966 380.357 110.851C379.324 111.984 378.015 112.827 376.897 113.875C375.869 114.865 374.974 115.984 374.234 117.204C371.05 122.349 369.912 128.501 371.043 134.445C371.254 135.739 371.69 136.985 372.332 138.129C372.838 138.968 373.511 139.701 373.97 140.567C374.229 140.985 374.384 141.458 374.423 141.948C374.462 142.437 374.384 142.929 374.194 143.383C371.904 143.376 369.8 144.803 368.413 146.626C367.025 148.449 366.231 150.642 365.444 152.794C365.191 153.485 364.699 154.32 363.977 154.18C363.754 154.121 363.551 154.007 363.385 153.848C362.083 152.739 361.496 151.001 361.235 149.31C360.974 147.62 360.979 145.888 360.581 144.225C360.011 141.848 357.738 131.084 357.556 130.006C357.463 129.663 355.626 123.66 357.199 121.338C357.641 120.709 368.537 91.0424 370.644 87.7438C372.75 84.4453 375.483 81.6012 378.197 78.781C379.232 79.2677 380.147 79.5816 380.687 80.5902Z" fill="url(#paint7_linear)"/>
</g>
<defs>
<linearGradient id="paint0_linear" x1="451.555" y1="339.272" x2="451.555" y2="375.89" gradientUnits="userSpaceOnUse">
<stop stop-color="#E31266"/>
<stop offset="0.523958" stop-color="#F8493C"/>
<stop offset="1" stop-color="#F4943E"/>
</linearGradient>
<linearGradient id="paint1_linear" x1="29.9499" y1="11" x2="29.9499" y2="44.9054" gradientUnits="userSpaceOnUse">
<stop stop-color="#E31266"/>
<stop offset="0.4875" stop-color="#F8493C"/>
<stop offset="1" stop-color="#F4943E"/>
</linearGradient>
<linearGradient id="paint2_linear" x1="154.126" y1="21.3191" x2="154.126" y2="25.0045" gradientUnits="userSpaceOnUse">
<stop stop-color="#E31266"/>
<stop offset="0.4875" stop-color="#F8493C"/>
<stop offset="1" stop-color="#F4943E"/>
</linearGradient>
<linearGradient id="paint3_linear" x1="154.392" y1="30.957" x2="154.392" y2="34.6424" gradientUnits="userSpaceOnUse">
<stop stop-color="#E31266"/>
<stop offset="0.503125" stop-color="#F8493C"/>
<stop offset="1" stop-color="#F4943E"/>
</linearGradient>
<linearGradient id="paint4_linear" x1="372.023" y1="74.198" x2="372.023" y2="160.286" gradientUnits="userSpaceOnUse">
<stop stop-color="#E31266"/>
<stop offset="0.497917" stop-color="#F8493C"/>
<stop offset="1" stop-color="#F4943E"/>
</linearGradient>
<linearGradient id="paint5_linear" x1="423.144" y1="70.9036" x2="423.144" y2="160.115" gradientUnits="userSpaceOnUse">
<stop stop-color="#E31266"/>
<stop offset="0.497917" stop-color="#F8493C"/>
<stop offset="1" stop-color="#F4943E"/>
</linearGradient>
<linearGradient id="paint6_linear" x1="440.312" y1="77.8176" x2="440.312" y2="153.232" gradientUnits="userSpaceOnUse">
<stop stop-color="#E31266"/>
<stop offset="0.497917" stop-color="#F8493C"/>
<stop offset="1" stop-color="#F4943E"/>
</linearGradient>
<linearGradient id="paint7_linear" x1="369.89" y1="78.781" x2="369.89" y2="154.195" gradientUnits="userSpaceOnUse">
<stop stop-color="#E31266"/>
<stop offset="0.497917" stop-color="#F8493C"/>
<stop offset="1" stop-color="#F4943E"/>
</linearGradient>
<clipPath id="clip0">
<rect width="520" height="377" fill="white"/>
</clipPath>
</defs>
</svg>
