<svg width="382" height="296" viewBox="0 0 382 296" fill="none" xmlns="http://www.w3.org/2000/svg">
<g clip-path="url(#clip0)">
<path d="M217.513 144.735C226.108 144.735 233.077 137.782 233.077 129.206C233.077 120.629 226.108 113.677 217.513 113.677C208.917 113.677 201.949 120.629 201.949 129.206C201.949 137.782 208.917 144.735 217.513 144.735Z" fill="#E6E6E6"/>
<path d="M255.657 149.162L239.393 132.934C240.639 130.999 241.484 128.834 241.877 126.567C242.27 124.301 242.203 121.979 241.68 119.739C241.157 117.498 240.188 115.386 238.832 113.526C237.476 111.666 235.759 110.096 233.783 108.91C230.064 106.693 225.645 105.951 221.403 106.83C217.161 107.709 213.404 110.146 210.877 113.658C208.552 116.911 207.435 120.87 207.719 124.856C208.003 128.841 209.669 132.604 212.432 135.496C215.194 138.388 218.881 140.23 222.857 140.705C226.833 141.179 230.85 140.257 234.219 138.096L250.483 154.324C251.17 155.008 252.1 155.392 253.07 155.392C254.04 155.391 254.97 155.007 255.656 154.323C256.342 153.638 256.727 152.71 256.727 151.742C256.728 150.775 256.343 149.846 255.657 149.162ZM233.611 132.328C231.596 134.339 228.944 135.59 226.108 135.869C223.272 136.148 220.426 135.437 218.056 133.857C215.687 132.277 213.939 129.926 213.112 127.205C212.284 124.484 212.428 121.56 213.519 118.933C214.61 116.306 216.58 114.137 219.093 112.797C221.607 111.456 224.508 111.027 227.304 111.581C230.099 112.136 232.615 113.641 234.423 115.839C236.231 118.037 237.219 120.793 237.219 123.637C237.222 125.251 236.904 126.85 236.285 128.342C235.666 129.833 234.757 131.188 233.611 132.328Z" fill="#3F3D56"/>
<path d="M373.557 173.099C415.152 218.995 294.575 285.138 197.147 285.138C99.718 285.138 32.3125 233.889 20.7364 173.099C-7.3318 25.7041 259.884 -67.9792 197.147 61.0601C105.7 249.15 340.8 136.955 373.557 173.099Z" fill="#E6E6E6"/>
<path d="M354.894 183.961C396.489 229.857 275.913 296 178.484 296C81.0554 296 13.6499 244.751 2.07378 183.961C-25.9944 36.5664 241.221 -57.1169 178.484 71.9224C87.037 260.012 322.137 147.817 354.894 183.961Z" fill="#2F2E41"/>
<path d="M58.1638 76.3551C28.9769 75.0729 6.34671 68.7912 6.64401 62.0541C6.82225 58.015 15.0824 54.7671 29.3064 53.1434C29.3573 53.1373 29.409 53.1412 29.4583 53.1551C29.5077 53.1689 29.5538 53.1923 29.5941 53.224C29.6343 53.2557 29.6679 53.2951 29.6929 53.3398C29.7178 53.3845 29.7337 53.4336 29.7395 53.4845C29.7453 53.5353 29.741 53.5868 29.7268 53.636C29.7126 53.6851 29.6888 53.731 29.6568 53.7709C29.6247 53.8109 29.5851 53.8441 29.5401 53.8687C29.4952 53.8933 29.4458 53.9088 29.3948 53.9143C15.9958 55.4439 7.57587 58.576 7.42086 62.0883C7.15201 68.1806 30.405 74.359 58.198 75.58C85.991 76.801 109.698 72.6856 109.967 66.5933C110.123 63.0662 101.959 59.1971 88.6612 56.4959C88.6111 56.4859 88.5634 56.4661 88.5209 56.4376C88.4785 56.4092 88.442 56.3726 88.4137 56.3301C88.3855 56.2876 88.3659 56.2399 88.3561 56.1898C88.3463 56.1397 88.3465 56.0882 88.3567 56.0381C88.3669 55.9881 88.3869 55.9406 88.4156 55.8983C88.4442 55.856 88.4809 55.8198 88.5236 55.7917C88.5663 55.7636 88.6142 55.7442 88.6644 55.7345C88.7147 55.7249 88.7663 55.7253 88.8164 55.7356C102.931 58.6027 110.923 62.5726 110.744 66.6274C110.447 73.3645 87.3507 77.6373 58.1638 76.3551Z" fill="url(#paint0_linear)"/>
<path d="M32.3833 77.3359C34.825 81.9639 38.4419 85.8709 42.8722 88.666C47.3025 91.4612 52.3908 93.0466 57.628 93.2635C62.8653 93.4803 68.0678 92.3212 72.715 89.9019C77.3622 87.4827 81.2912 83.8881 84.1088 79.478C66.8407 79.7102 49.5728 78.9951 32.3833 77.3359Z" fill="url(#paint1_linear)"/>
<path d="M87.3375 71.317C88.8069 66.9193 89.2304 62.2407 88.5742 57.6515C87.9181 53.0623 86.2004 48.6885 83.5571 44.8762C80.9138 41.0638 77.4175 37.9177 73.3448 35.6867C69.2722 33.4557 64.735 32.2011 60.0923 32.0222C55.4497 31.8434 50.829 32.7451 46.5961 34.6561C42.3631 36.567 38.634 39.4348 35.7039 43.0324C32.7739 46.63 30.7232 50.8586 29.7143 55.3837C28.7054 59.9087 28.766 64.6059 29.8912 69.1036C48.8634 72.3171 68.1734 73.0611 87.3375 71.317Z" fill="url(#paint2_linear)"/>
<path d="M65.6438 51.4408C67.5764 51.4408 69.1431 49.8777 69.1431 47.9494C69.1431 46.0212 67.5764 44.458 65.6438 44.458C63.7112 44.458 62.1445 46.0212 62.1445 47.9494C62.1445 49.8777 63.7112 51.4408 65.6438 51.4408Z" fill="white"/>
<path d="M47.6344 65.015C50.8554 65.015 53.4665 62.4097 53.4665 59.196C53.4665 55.9822 50.8554 53.377 47.6344 53.377C44.4134 53.377 41.8022 55.9822 41.8022 59.196C41.8022 62.4097 44.4134 65.015 47.6344 65.015Z" fill="white"/>
<path d="M135.799 59.1657C137.946 59.1657 139.687 57.4289 139.687 55.2865C139.687 53.144 137.946 51.4072 135.799 51.4072C133.652 51.4072 131.911 53.144 131.911 55.2865C131.911 57.4289 133.652 59.1657 135.799 59.1657Z" fill="url(#paint3_linear)"/>
<path d="M47.7865 178.022C49.0749 178.022 50.1194 176.98 50.1194 175.695C50.1194 174.409 49.0749 173.367 47.7865 173.367C46.4981 173.367 45.4536 174.409 45.4536 175.695C45.4536 176.98 46.4981 178.022 47.7865 178.022Z" fill="#E6E6E6"/>
<path d="M211.086 257.937C212.375 257.937 213.419 256.895 213.419 255.61C213.419 254.324 212.375 253.282 211.086 253.282C209.798 253.282 208.753 254.324 208.753 255.61C208.753 256.895 209.798 257.937 211.086 257.937Z" fill="#E6E6E6"/>
<path d="M59.062 133.022C59.7062 133.022 60.2284 132.501 60.2284 131.858C60.2284 131.215 59.7062 130.694 59.062 130.694C58.4177 130.694 57.8955 131.215 57.8955 131.858C57.8955 132.501 58.4177 133.022 59.062 133.022Z" fill="#E6E6E6"/>
<path d="M155.487 219.919C156.131 219.919 156.653 219.398 156.653 218.756C156.653 218.113 156.131 217.592 155.487 217.592C154.843 217.592 154.32 218.113 154.32 218.756C154.32 219.398 154.843 219.919 155.487 219.919Z" fill="#E6E6E6"/>
<path d="M330.839 208.669C331.484 208.669 332.006 208.148 332.006 207.506C332.006 206.863 331.484 206.342 330.839 206.342C330.195 206.342 329.673 206.863 329.673 207.506C329.673 208.148 330.195 208.669 330.839 208.669Z" fill="#E6E6E6"/>
<path d="M276.018 243.196C276.662 243.196 277.184 242.675 277.184 242.032C277.184 241.389 276.662 240.868 276.018 240.868C275.373 240.868 274.851 241.389 274.851 242.032C274.851 242.675 275.373 243.196 276.018 243.196Z" fill="#E6E6E6"/>
<path d="M218.862 201.298C219.506 201.298 220.029 200.777 220.029 200.135C220.029 199.492 219.506 198.971 218.862 198.971C218.218 198.971 217.696 199.492 217.696 200.135C217.696 200.777 218.218 201.298 218.862 201.298Z" fill="#E6E6E6"/>
<path d="M144.989 86.4702C145.633 86.4702 146.155 85.9492 146.155 85.3064C146.155 84.6636 145.633 84.1426 144.989 84.1426C144.345 84.1426 143.822 84.6636 143.822 85.3064C143.822 85.9492 144.345 86.4702 144.989 86.4702Z" fill="#E6E6E6"/>
<path d="M154.32 29.0552C154.964 29.0552 155.487 28.5341 155.487 27.8914C155.487 27.2486 154.964 26.7275 154.32 26.7275C153.676 26.7275 153.154 27.2486 153.154 27.8914C153.154 28.5341 153.676 29.0552 154.32 29.0552Z" fill="#E6E6E6"/>
<path d="M148.877 270.739C149.521 270.739 150.043 270.218 150.043 269.575C150.043 268.932 149.521 268.411 148.877 268.411C148.233 268.411 147.71 268.932 147.71 269.575C147.71 270.218 148.233 270.739 148.877 270.739Z" fill="#E6E6E6"/>
<path d="M91.333 246.299C91.9772 246.299 92.4994 245.778 92.4994 245.136C92.4994 244.493 91.9772 243.972 91.333 243.972C90.6887 243.972 90.1665 244.493 90.1665 245.136C90.1665 245.778 90.6887 246.299 91.333 246.299Z" fill="#E6E6E6"/>
<path d="M273.685 204.402C274.329 204.402 274.851 203.881 274.851 203.238C274.851 202.595 274.329 202.074 273.685 202.074C273.04 202.074 272.518 202.595 272.518 203.238C272.518 203.881 273.04 204.402 273.685 204.402Z" fill="#E6E6E6"/>
<path d="M57.6892 90.6987C59.6218 90.6987 61.1885 89.1355 61.1885 87.2072C61.1885 85.279 59.6218 83.7158 57.6892 83.7158C55.7566 83.7158 54.1899 85.279 54.1899 87.2072C54.1899 89.1355 55.7566 90.6987 57.6892 90.6987Z" fill="white"/>
<path d="M136.824 140.781C136.824 151.209 120.665 175.508 115.943 182.386C115.8 182.594 115.609 182.764 115.386 182.882C115.163 182.999 114.914 183.061 114.662 183.061C114.409 183.061 114.161 182.999 113.937 182.882C113.714 182.764 113.523 182.594 113.38 182.386C108.658 175.508 92.4995 151.209 92.4995 140.781C92.4995 137.877 93.0728 135.002 94.1865 132.319C95.3003 129.636 96.9327 127.199 98.9906 125.145C101.049 123.092 103.492 121.463 106.181 120.352C108.869 119.241 111.751 118.669 114.662 118.669C117.572 118.669 120.454 119.241 123.143 120.352C125.832 121.463 128.275 123.092 130.333 125.145C132.391 127.199 134.023 129.636 135.137 132.319C136.251 135.002 136.824 137.877 136.824 140.781Z" fill="white"/>
<path d="M114.804 150.33C121.031 150.33 126.079 145.293 126.079 139.08C126.079 132.867 121.031 127.83 114.804 127.83C108.577 127.83 103.528 132.867 103.528 139.08C103.528 145.293 108.577 150.33 114.804 150.33Z" fill="url(#paint4_linear)"/>
<path d="M114.467 195.092C121.661 195.092 127.493 193.963 127.493 192.57C127.493 191.178 121.661 190.049 114.467 190.049C107.274 190.049 101.442 191.178 101.442 192.57C101.442 193.963 107.274 195.092 114.467 195.092Z" fill="white"/>
<path d="M317.6 123.333C317.501 123.523 317.418 123.722 317.351 123.926L298.772 129.076L295.424 125.807L289.819 130.204L295.183 136.565C295.616 137.079 296.205 137.439 296.86 137.591C297.516 137.743 298.203 137.678 298.819 137.407L318.888 128.568C319.569 129.039 320.377 129.293 321.206 129.295C322.035 129.297 322.845 129.047 323.528 128.578C324.211 128.11 324.734 127.445 325.029 126.672C325.324 125.899 325.376 125.055 325.179 124.252C324.981 123.449 324.543 122.725 323.923 122.176C323.303 121.627 322.53 121.28 321.708 121.18C320.885 121.08 320.051 121.233 319.317 121.617C318.584 122.002 317.985 122.6 317.6 123.333H317.6Z" fill="#FFB8B8"/>
<path d="M298.117 129.378L291.144 134.793C290.946 134.947 290.716 135.057 290.472 135.114C290.227 135.172 289.973 135.176 289.726 135.127C289.48 135.078 289.247 134.976 289.043 134.829C288.839 134.682 288.67 134.493 288.546 134.274L284.212 126.621C283.428 125.604 283.079 124.318 283.244 123.045C283.409 121.772 284.072 120.615 285.09 119.83C286.108 119.045 287.396 118.694 288.672 118.855C289.949 119.016 291.109 119.675 291.899 120.688L298.251 126.737C298.433 126.911 298.575 127.121 298.668 127.354C298.761 127.587 298.803 127.838 298.79 128.088C298.778 128.339 298.711 128.583 298.595 128.806C298.479 129.029 298.316 129.223 298.117 129.378V129.378Z" fill="#6C63FF"/>
<path d="M319.381 120.771L326.453 123.945C326.749 124.078 326.98 124.323 327.095 124.626C327.211 124.929 327.201 125.265 327.067 125.56L326.23 127.417C326.329 127.462 326.405 127.543 326.444 127.644C326.482 127.745 326.479 127.857 326.435 127.956L326.1 128.698C326.055 128.797 325.973 128.873 325.872 128.911C325.771 128.95 325.659 128.947 325.56 128.903L325.225 129.645C325.324 129.69 325.401 129.772 325.439 129.872C325.477 129.973 325.474 130.085 325.43 130.184L325.095 130.926C325.05 131.025 324.969 131.101 324.868 131.14C324.766 131.178 324.654 131.175 324.555 131.131L320.034 141.157C319.901 141.453 319.656 141.683 319.352 141.798C319.048 141.913 318.711 141.903 318.415 141.77L311.344 138.596C311.047 138.463 310.816 138.218 310.701 137.915C310.586 137.612 310.596 137.276 310.729 136.98L317.762 121.383C317.896 121.088 318.141 120.857 318.445 120.743C318.748 120.628 319.085 120.638 319.381 120.771Z" fill="#3F3D56"/>
<path d="M312.628 137.608L318.301 140.157C318.585 140.284 318.908 140.293 319.199 140.183C319.491 140.074 319.727 139.853 319.856 139.571L322.476 133.756L323.386 131.74L325.757 126.479C325.884 126.196 325.893 125.874 325.783 125.584C325.673 125.294 325.453 125.06 325.17 124.931L323.386 124.129L319.493 122.382C319.208 122.256 318.885 122.247 318.595 122.357C318.304 122.468 318.069 122.689 317.942 122.973L315.648 128.059L313.036 133.849L312.04 136.06C311.913 136.343 311.904 136.665 312.014 136.955C312.124 137.245 312.345 137.48 312.628 137.608Z" fill="#F2F2F2"/>
<path d="M300.774 209.657L305.541 209.656L307.808 191.312L300.773 191.312L300.774 209.657Z" fill="#FFB8B8"/>
<path d="M299.558 208.104L308.945 208.104H308.946C309.731 208.103 310.509 208.258 311.235 208.558C311.961 208.858 312.621 209.297 313.176 209.852C313.732 210.406 314.172 211.064 314.473 211.788C314.774 212.512 314.928 213.289 314.928 214.072V214.266L299.558 214.267L299.558 208.104Z" fill="#2F2E41"/>
<path d="M313.216 208.493L317.982 208.492L320.25 190.147L313.215 190.148L313.216 208.493Z" fill="#FFB8B8"/>
<path d="M312 206.94L321.387 206.939H321.388C322.173 206.939 322.951 207.094 323.677 207.394C324.403 207.694 325.062 208.133 325.618 208.688C326.173 209.242 326.614 209.9 326.915 210.624C327.215 211.348 327.37 212.124 327.37 212.908V213.102L312 213.103L312 206.94Z" fill="#2F2E41"/>
<path d="M279.392 166.61C280.408 169.614 282.334 172.228 284.905 174.092C287.475 175.955 290.562 176.975 293.739 177.011L293.98 177.015C296.441 177.084 299.33 176.293 302.165 175.156C307.764 172.91 313.141 169.314 314.568 168.325L312.149 191.519L311.17 200.923C311.145 201.166 311.171 201.412 311.248 201.644C311.324 201.877 311.448 202.091 311.612 202.272C311.776 202.454 311.977 202.599 312.2 202.699C312.424 202.799 312.666 202.85 312.912 202.851H318.95C319.337 202.851 319.713 202.723 320.02 202.488C320.327 202.252 320.546 201.921 320.645 201.548L330.614 163.666C330.913 162.532 330.937 161.343 330.684 160.198C330.431 159.053 329.909 157.985 329.16 157.081C328.411 156.178 327.457 155.465 326.377 155.003C325.297 154.54 324.123 154.341 322.95 154.421L302.243 155.837L303.689 150.065L285.205 148.839L285.151 148.878C284.707 149.2 284.276 149.537 283.864 149.89C282.833 150.76 281.92 151.758 281.146 152.862C279.761 154.841 278.879 157.126 278.573 159.521C278.268 161.915 278.549 164.348 279.392 166.61Z" fill="#2F2E41"/>
<path d="M279.392 166.61C280.408 169.613 282.334 172.228 284.905 174.091C287.475 175.955 290.562 176.975 293.739 177.01C296.777 175.476 299.709 173.741 302.515 171.816L302.165 175.156L299.117 204.414C299.092 204.657 299.118 204.903 299.195 205.135C299.271 205.368 299.395 205.582 299.559 205.763C299.723 205.945 299.924 206.09 300.147 206.19C300.371 206.29 300.613 206.341 300.858 206.342H306.897C307.284 206.342 307.66 206.214 307.967 205.979C308.274 205.743 308.493 205.412 308.592 205.039L312.149 191.519L318.561 167.157C318.86 166.023 318.884 164.834 318.631 163.689C318.378 162.544 317.856 161.476 317.107 160.572C316.358 159.669 315.404 158.956 314.324 158.494C313.244 158.031 312.07 157.832 310.897 157.912L290.19 159.328L291.636 153.556L281.146 152.861C279.761 154.841 278.879 157.126 278.573 159.52C278.268 161.915 278.549 164.347 279.392 166.61Z" fill="#2F2E41"/>
<path d="M283.837 151.228L283.698 151.211L280.473 135.389C280.445 135.252 277.809 121.604 285.892 114.47L286.032 113.493C286.068 113.243 286.158 113.004 286.296 112.792C286.434 112.581 286.616 112.401 286.83 112.266C287.043 112.131 287.284 112.044 287.535 112.011C287.786 111.978 288.041 112 288.283 112.074L295.897 114.431C296.328 114.563 296.691 114.857 296.91 115.251C297.129 115.644 297.187 116.107 297.071 116.542L296.331 119.351C297.357 120.554 309.439 135.068 305.231 146.249L303.346 153.601L283.837 151.228Z" fill="url(#paint5_linear)"/>
<path d="M315.456 138.88C315.274 138.994 315.101 139.123 314.939 139.264L296.316 134.276L295.098 129.763L288.032 130.706L289.409 138.905C289.52 139.567 289.844 140.175 290.331 140.639C290.818 141.102 291.443 141.395 292.112 141.474L313.897 144.041C314.243 144.793 314.811 145.421 315.523 145.843C316.236 146.265 317.061 146.461 317.888 146.403C318.715 146.346 319.504 146.04 320.152 145.524C320.8 145.008 321.275 144.307 321.514 143.516C321.753 142.724 321.745 141.878 321.49 141.091C321.236 140.304 320.747 139.613 320.09 139.11C319.432 138.606 318.636 138.315 317.809 138.274C316.981 138.233 316.16 138.444 315.456 138.88H315.456Z" fill="#FFB8B8"/>
<path d="M295.598 134.204L286.834 135.33C286.585 135.362 286.331 135.34 286.091 135.266C285.851 135.191 285.63 135.066 285.443 134.899C285.255 134.731 285.107 134.526 285.006 134.296C284.906 134.066 284.856 133.817 284.861 133.566L285.028 124.777C284.871 123.503 285.227 122.219 286.017 121.207C286.807 120.194 287.968 119.535 289.244 119.375C290.521 119.215 291.809 119.566 292.826 120.352C293.843 121.138 294.506 122.294 294.67 123.567L297.059 131.998C297.127 132.24 297.142 132.493 297.104 132.741C297.065 132.989 296.973 133.225 296.835 133.435C296.696 133.644 296.514 133.821 296.301 133.954C296.087 134.087 295.848 134.172 295.598 134.204Z" fill="url(#paint6_linear)"/>
<path d="M293.131 109.927C298.405 109.927 302.681 105.661 302.681 100.399C302.681 95.137 298.405 90.8711 293.131 90.8711C287.857 90.8711 283.582 95.137 283.582 100.399C283.582 105.661 287.857 109.927 293.131 109.927Z" fill="#FFB8B8"/>
<path d="M292.629 101.195L291.433 99.0227C289.168 108.229 293.169 115.849 293.169 115.849L277.643 108.633L277.791 106.072L276.254 107.812L274.047 106.598L273.755 104.937L272.089 105.349L278.171 94.3369C284.074 83.8575 292.656 87.8584 292.656 87.8584C306.31 87.2108 304.642 100.651 304.642 100.651L292.629 101.195Z" fill="#2F2E41"/>
<path d="M183.923 172.2C186.124 170.791 183.447 162.704 177.942 154.137C172.437 145.569 166.19 139.765 163.988 141.174C161.786 142.582 164.464 150.669 169.969 159.237C175.473 167.804 181.721 173.608 183.923 172.2Z" fill="#3F3D56"/>
</g>
<defs>
<linearGradient id="paint0_linear" x1="58.694" y1="53.1406" x2="58.694" y2="76.5821" gradientUnits="userSpaceOnUse">
<stop stop-color="#E31266"/>
<stop offset="0.497917" stop-color="#F8493C"/>
<stop offset="1" stop-color="#F4943E"/>
</linearGradient>
<linearGradient id="paint1_linear" x1="58.2461" y1="77.3359" x2="58.2461" y2="93.2892" gradientUnits="userSpaceOnUse">
<stop stop-color="#E31266"/>
<stop offset="0.539583" stop-color="#F8493C"/>
<stop offset="1" stop-color="#F4943E"/>
</linearGradient>
<linearGradient id="paint2_linear" x1="58.9371" y1="32" x2="58.9371" y2="72.2347" gradientUnits="userSpaceOnUse">
<stop stop-color="#E31266"/>
<stop offset="0.539583" stop-color="#F8493C"/>
<stop offset="1" stop-color="#F4943E"/>
</linearGradient>
<linearGradient id="paint3_linear" x1="135.799" y1="51.4072" x2="135.799" y2="59.1657" gradientUnits="userSpaceOnUse">
<stop stop-color="#E31266"/>
<stop offset="0.539583" stop-color="#F8493C"/>
<stop offset="1" stop-color="#F4943E"/>
</linearGradient>
<linearGradient id="paint4_linear" x1="114.804" y1="127.83" x2="114.804" y2="150.33" gradientUnits="userSpaceOnUse">
<stop stop-color="#E31266"/>
<stop offset="0.539583" stop-color="#F8493C"/>
<stop offset="1" stop-color="#F4943E"/>
</linearGradient>
<linearGradient id="paint5_linear" x1="293.079" y1="111.996" x2="293.079" y2="153.601" gradientUnits="userSpaceOnUse">
<stop stop-color="#6C63FF"/>
<stop offset="0.0001" stop-color="#E31266"/>
<stop offset="0.477083" stop-color="#F8493C"/>
<stop offset="1" stop-color="#F4943E"/>
</linearGradient>
<linearGradient id="paint6_linear" x1="290.993" y1="119.337" x2="290.993" y2="135.345" gradientUnits="userSpaceOnUse">
<stop stop-color="#6C63FF"/>
<stop offset="0.0001" stop-color="#E31266"/>
<stop offset="0.477083" stop-color="#F8493C"/>
<stop offset="1" stop-color="#F4943E"/>
</linearGradient>
<clipPath id="clip0">
<rect width="382" height="296" fill="white"/>
</clipPath>
</defs>
</svg>
