<svg width="64" height="64" viewBox="0 0 64 64" fill="none" xmlns="http://www.w3.org/2000/svg">
<path d="M24.9951 55.9868C27.333 60.4194 30.563 63.3486 30.7495 63.5156C31.1055 63.8345 31.5527 63.9937 32 63.9937C32.4473 63.9937 32.895 63.8345 33.251 63.5156C33.4375 63.3486 36.6665 60.4194 39.0044 55.9868C36.2529 54.8921 33.8745 53.3901 32 51.9678C30.125 53.3901 27.7471 54.8921 24.9951 55.9868Z" fill="white"/>
<path d="M59.6299 39.749C59.2812 40.144 58.9228 40.5283 58.5537 40.8975C54.8696 44.5811 49.9805 47.2153 44.021 48.7271C40.856 49.5298 37.9233 49.8711 35.7139 50.0083C38.644 51.9663 42.6182 53.8511 47.061 53.8511C56.1128 53.8511 63.2207 46.0288 63.519 45.6958C64.1562 44.9839 64.1562 43.9067 63.519 43.1948C63.4214 43.0859 61.9819 41.4961 59.6299 39.749Z" fill="white"/>
<path d="M19.9794 48.7275C14.0199 47.2158 9.13025 44.5815 5.44617 40.8975C5.07654 40.5283 4.71863 40.1445 4.36951 39.749C2.01794 41.4961 0.578491 43.0864 0.480835 43.1948C-0.156372 43.9067 -0.156372 44.9844 0.480835 45.6963C0.779175 46.0293 7.88709 53.8511 16.9384 53.8511C21.3817 53.8511 25.3554 51.9663 28.286 50.0083C26.0765 49.8711 23.1439 49.5298 19.9794 48.7275Z" fill="white"/>
<path d="M30.7495 45.8423C31.1055 46.1611 31.5527 46.3208 32 46.3208C32.4473 46.3208 32.8945 46.1611 33.251 45.8423C33.7109 45.4307 44.5176 35.6108 44.5176 23.1602C44.5176 10.71 33.7109 0.890137 33.251 0.478027C32.895 0.15918 32.4473 0 32 0C31.5527 0 31.1055 0.15918 30.7495 0.478027C30.2891 0.890137 19.4824 10.71 19.4824 23.1602C19.4824 35.6104 30.2895 45.4307 30.7495 45.8423Z" fill="white"/>
<path d="M51.9307 9.63981C51.0215 6.49186 50.043 4.4318 49.981 4.30387C49.5674 3.44205 48.5718 3.02994 47.6699 3.34635C47.5361 3.39371 45.3882 4.15738 42.52 5.74039C43.7612 7.62711 44.813 9.54703 45.6616 11.4733C47.8047 10.6413 49.9365 10.0524 51.9307 9.63981Z" fill="white"/>
<path d="M21.48 5.7406C18.6123 4.15759 16.4644 3.39392 16.3301 3.34655C15.4282 3.02966 14.4326 3.44226 14.019 4.30358C13.9575 4.432 12.9785 6.49206 12.0693 9.64001C14.063 10.0521 16.1953 10.641 18.3384 11.473C19.187 9.54773 20.2388 7.62732 21.48 5.7406Z" fill="white"/>
<path d="M48.2671 23.1602C48.2671 26.4634 47.6143 29.853 46.3257 33.2339C45.3164 35.8833 43.9146 38.5371 42.1587 41.1226C40.8198 43.0942 39.4653 44.7432 38.3462 45.9922C43.5088 45.3247 50.7105 43.4375 55.9024 38.2461C64.7061 29.4424 64.0083 14.8569 63.9741 14.2402C63.9214 13.2861 63.1597 12.5244 62.2056 12.4717C62.1211 12.4673 61.708 12.4463 61.0371 12.4463C58.6084 12.4463 52.8023 12.7158 46.9815 14.9824C47.8355 17.7314 48.2671 20.4741 48.2671 23.1602Z" fill="white"/>
<path d="M25.6543 45.9927C24.5352 44.7432 23.1807 43.0942 21.8418 41.1226C20.0859 38.5371 18.6836 35.8833 17.6743 33.2339C16.3862 29.853 15.7329 26.4634 15.7329 23.1602C15.7329 20.4741 16.1646 17.7314 17.019 14.9824C11.1982 12.7158 5.39258 12.4463 2.96387 12.4463C2.292 12.4463 1.87891 12.4668 1.79444 12.4717C0.840336 12.5244 0.0786172 13.2861 0.0258829 14.2402C-0.00829679 14.8569 -0.706051 29.4424 8.09766 38.2461C13.29 43.438 20.4917 45.3247 25.6543 45.9927Z" fill="white"/>
</svg>
