<svg width="546" height="401" viewBox="0 0 546 401" fill="none" xmlns="http://www.w3.org/2000/svg">
<g clip-path="url(#clip0)">
<path opacity="0.2" d="M72.2582 203.16C65.0772 205.332 58.3559 210.591 56.5621 217.887C54.5104 226.271 59.2416 234.723 59.9255 243.332C62.1342 271.539 22.0531 291.439 27.7709 319.147C30.0413 330.163 39.2179 338.267 48.26 344.963C62.7452 355.654 78.8169 365.099 96.6152 367.765C123.629 371.817 151.854 359.908 178.112 367.434C199.29 373.506 215.496 391.302 236.529 397.868C252.539 402.869 269.788 400.899 286.42 398.873C295.389 397.784 304.785 396.527 312.022 391.139C325.475 381.111 326.322 361.305 335.33 347.112C349.244 325.225 379.75 320.926 405.329 325.18C430.908 329.434 455.747 339.906 481.663 339.053C487.201 338.868 492.874 338.116 497.707 335.394C503.581 332.088 507.55 326.263 511.059 320.499C532.992 284.339 545.031 243.036 545.966 200.741C546.118 193.474 545.86 185.892 542.446 179.477C538.13 171.362 529.502 166.507 520.914 163.241C500.291 155.384 477.509 154.099 457.3 145.237C437.809 136.69 422.023 121.7 405.049 108.853C371.223 83.3027 332.016 65.8217 290.417 57.7435C280.669 55.8578 270.55 54.5109 260.864 56.6884C249.703 59.1971 240.083 66.1618 231.433 73.6596C208.422 93.6052 189.979 118.215 168.772 140.074C154.143 155.149 138.213 168.901 121.168 181.172C113.32 186.834 104.979 193.558 96.234 197.744C88.229 201.572 80.7228 200.607 72.2582 203.16Z" fill="#F4943E"/>
<path d="M174.832 25.8945C174.832 25.8945 153.166 54.7017 168.666 88.2793C184.166 121.857 141.652 175.807 141.652 175.807" stroke="#535461" stroke-width="2" stroke-miterlimit="10"/>
<path d="M184.547 15.1135C182.826 22.5272 174.591 26.944 174.591 26.944C174.591 26.944 169.154 19.3395 170.874 11.9258C172.595 4.51216 177.041 -0.785715 180.83 0.095394C184.62 0.976503 186.268 7.69987 184.547 15.1135Z" fill="#8ED16F"/>
<path d="M179.016 13.8217C179.557 11.4941 179.289 9.44273 178.417 9.23971C177.546 9.03668 176.401 10.7589 175.86 13.0865C175.319 15.414 175.587 17.4654 176.458 17.6685C177.33 17.8715 178.475 16.1492 179.016 13.8217Z" fill="#8ED16F"/>
<path opacity="0.3" d="M179.016 13.8217C179.557 11.4941 179.289 9.44273 178.417 9.23971C177.546 9.03668 176.401 10.7589 175.86 13.0865C175.319 15.414 175.587 17.4654 176.458 17.6685C177.33 17.8715 178.475 16.1492 179.016 13.8217Z" fill="black"/>
<path d="M180.802 48.0513C173.649 50.6329 165.47 46.1095 165.47 46.1095C165.47 46.1095 168.89 37.405 176.048 34.8291C183.207 32.2531 190.063 33.1454 191.38 36.7709C192.698 40.3963 187.955 45.4697 180.802 48.0513Z" fill="#8ED16F"/>
<path d="M178.793 42.3354C181.037 41.5229 182.609 40.1817 182.305 39.3396C182.001 38.4976 179.935 38.4737 177.691 39.2862C175.448 40.0987 173.875 41.44 174.179 42.282C174.484 43.124 176.549 43.1479 178.793 42.3354Z" fill="#8ED16F"/>
<path opacity="0.3" d="M178.793 42.3354C181.037 41.5229 182.609 40.1817 182.305 39.3396C182.001 38.4976 179.935 38.4737 177.691 39.2862C175.448 40.0987 173.875 41.44 174.179 42.282C174.484 43.124 176.549 43.1479 178.793 42.3354Z" fill="black"/>
<path d="M179.137 74.2994C171.984 76.881 163.806 72.3576 163.806 72.3576C163.806 72.3576 167.225 63.6531 174.384 61.0771C181.542 58.5011 188.398 59.3934 189.715 63.0189C191.033 66.6444 186.29 71.7234 179.137 74.2994Z" fill="#8ED16F"/>
<path d="M177.211 68.9801C179.457 68.1707 181.032 66.8312 180.729 65.9884C180.426 65.1456 178.36 65.1186 176.114 65.9281C173.868 66.7376 172.293 68.077 172.596 68.9198C172.899 69.7626 174.966 69.7896 177.211 68.9801Z" fill="#8ED16F"/>
<path opacity="0.3" d="M177.211 68.9801C179.457 68.1707 181.032 66.8312 180.729 65.9884C180.426 65.1456 178.36 65.1186 176.114 65.9281C173.868 66.7376 172.293 68.077 172.596 68.9198C172.899 69.7626 174.966 69.7896 177.211 68.9801Z" fill="black"/>
<path d="M187.496 105.093C180.343 107.675 172.164 103.151 172.164 103.151C172.164 103.151 175.583 94.447 182.742 91.871C189.9 89.2951 196.756 90.1874 198.074 93.8129C199.391 97.4383 194.648 102.529 187.496 105.093Z" fill="#8ED16F"/>
<path d="M185.571 99.7878C187.816 98.9783 189.391 97.6388 189.088 96.796C188.785 95.9532 186.719 95.9262 184.473 96.7357C182.227 97.5452 180.652 98.8847 180.955 99.7275C181.258 100.57 183.325 100.597 185.571 99.7878Z" fill="#8ED16F"/>
<path opacity="0.3" d="M185.571 99.7878C187.816 98.9783 189.391 97.6388 189.088 96.796C188.785 95.9532 186.719 95.9262 184.473 96.7357C182.227 97.5452 180.652 98.8847 180.955 99.7275C181.258 100.57 183.325 100.597 185.571 99.7878Z" fill="black"/>
<path d="M182.058 133.255C174.905 135.837 166.726 131.313 166.726 131.313C166.726 131.313 170.146 122.609 177.304 120.033C184.463 117.457 191.319 118.349 192.636 121.975C193.953 125.6 189.217 130.679 182.058 133.255Z" fill="#8ED16F"/>
<path d="M180.148 127.471C182.392 126.659 183.964 125.317 183.66 124.475C183.356 123.633 181.29 123.609 179.047 124.422C176.803 125.234 175.231 126.576 175.535 127.418C175.839 128.26 177.904 128.284 180.148 127.471Z" fill="#8ED16F"/>
<path opacity="0.3" d="M180.148 127.471C182.392 126.659 183.964 125.317 183.66 124.475C183.356 123.633 181.29 123.609 179.047 124.422C176.803 125.234 175.231 126.576 175.535 127.418C175.839 128.26 177.904 128.284 180.148 127.471Z" fill="black"/>
<path d="M148.508 55.5098C153.788 60.9873 163.122 60.5608 163.122 60.5608C163.122 60.5608 163.89 51.239 158.609 45.7615C153.329 40.2841 146.787 38.028 143.995 40.7106C141.203 43.3932 143.227 50.0324 148.508 55.5098Z" fill="#8ED16F"/>
<path d="M156.761 53.566C157.405 52.9439 156.583 51.0458 154.925 49.3265C153.267 47.6071 151.401 46.7177 150.757 47.3398C150.114 47.962 150.936 49.8601 152.594 51.5794C154.251 53.2987 156.117 54.1882 156.761 53.566Z" fill="#8ED16F"/>
<path opacity="0.3" d="M156.761 53.566C157.405 52.9439 156.583 51.0458 154.925 49.3265C153.267 47.6071 151.401 46.7177 150.757 47.3398C150.114 47.962 150.936 49.8601 152.594 51.5794C154.251 53.2987 156.117 54.1882 156.761 53.566Z" fill="black"/>
<path d="M145.475 142.493C150.756 147.97 160.089 147.544 160.089 147.544C160.089 147.544 160.857 138.222 155.576 132.744C150.296 127.267 143.754 125.011 140.962 127.693C138.171 130.376 140.194 137.015 145.475 142.493Z" fill="#8ED16F"/>
<path d="M153.721 140.557C154.364 139.934 153.542 138.036 151.884 136.317C150.227 134.598 148.361 133.708 147.717 134.33C147.073 134.952 147.895 136.851 149.553 138.57C151.211 140.289 153.077 141.179 153.721 140.557Z" fill="#8ED16F"/>
<path opacity="0.3" d="M153.721 140.557C154.364 139.934 153.542 138.036 151.884 136.317C150.227 134.598 148.361 133.708 147.717 134.33C147.073 134.952 147.895 136.851 149.553 138.57C151.211 140.289 153.077 141.179 153.721 140.557Z" fill="black"/>
<path d="M152.476 86.2533C159.282 89.6543 167.931 86.1186 167.931 86.1186C167.931 86.1186 165.549 77.0774 158.749 73.6764C151.949 70.2755 145.026 70.3091 143.294 73.8111C141.562 77.3131 145.671 82.8523 152.476 86.2533Z" fill="#8ED16F"/>
<path d="M159.589 81.6478C159.989 80.8463 158.581 79.3316 156.446 78.2645C154.31 77.1975 152.254 76.9822 151.855 77.7837C151.455 78.5852 152.863 80.1 154.999 81.167C157.135 82.2341 159.19 82.4493 159.589 81.6478Z" fill="#8ED16F"/>
<path opacity="0.3" d="M159.589 81.6478C159.989 80.8463 158.581 79.3316 156.446 78.2645C154.31 77.1975 152.254 76.9822 151.855 77.7837C151.455 78.5852 152.863 80.1 154.999 81.167C157.135 82.2341 159.19 82.4493 159.589 81.6478Z" fill="black"/>
<path d="M155.33 116.879C162.135 120.28 170.785 116.744 170.785 116.744C170.785 116.744 168.402 107.703 161.602 104.302C154.803 100.901 147.88 100.935 146.147 104.437C144.415 107.939 148.552 113.512 155.33 116.879Z" fill="#8ED16F"/>
<path d="M162.445 112.277C162.845 111.476 161.437 109.961 159.301 108.894C157.165 107.827 155.11 107.612 154.711 108.413C154.311 109.215 155.719 110.73 157.855 111.797C159.99 112.864 162.046 113.079 162.445 112.277Z" fill="#8ED16F"/>
<path opacity="0.3" d="M162.445 112.277C162.845 111.476 161.437 109.961 159.301 108.894C157.165 107.827 155.11 107.612 154.711 108.413C154.311 109.215 155.719 110.73 157.855 111.797C159.99 112.864 162.046 113.079 162.445 112.277Z" fill="black"/>
<path d="M70.4811 87.8135C70.4811 87.8135 110.052 127.43 87.7132 186.217C65.3743 245.004 126.006 342.763 126.006 342.763C126.006 342.763 125.356 342.667 124.151 342.454C42.8672 328.092 2.50581 235.032 47.6882 165.901C64.4662 140.197 78.2843 110.049 70.4811 87.8135Z" fill="#8ED16F"/>
<path d="M0 248.046C0 248.046 45.1543 240.846 49.2689 281.36C53.3836 321.874 136.096 327.492 136.096 327.492C136.096 327.492 135.536 327.862 134.544 328.525C66.2487 373.422 0.964192 357.113 10.8023 297.517C14.4684 275.355 14.1657 253.103 0 248.046Z" fill="#8ED16F"/>
<g opacity="0.3">
<path opacity="0.3" d="M0 248.046C0 248.046 45.1543 240.846 49.2689 281.36C53.3836 321.874 136.096 327.492 136.096 327.492C136.096 327.492 135.536 327.862 134.544 328.525C66.2487 373.422 0.964192 357.113 10.8023 297.517C14.4684 275.355 14.1657 253.103 0 248.046Z" fill="white"/>
</g>
<path d="M59.051 247.547C65.9086 247.547 71.4677 233.026 71.4677 215.114C71.4677 197.202 65.9086 182.681 59.051 182.681C52.1934 182.681 46.6343 197.202 46.6343 215.114C46.6343 233.026 52.1934 247.547 59.051 247.547Z" fill="#8ED16F"/>
<path opacity="0.3" d="M59.051 247.547C65.9086 247.547 71.4677 233.026 71.4677 215.114C71.4677 197.202 65.9086 182.681 59.051 182.681C52.1934 182.681 46.6343 197.202 46.6343 215.114C46.6343 233.026 52.1934 247.547 59.051 247.547Z" fill="black"/>
<path d="M57.9164 332.903C61.1849 329.631 57.9372 321.074 50.6626 313.791C43.3879 306.508 34.841 303.257 31.5726 306.529C28.3041 309.801 31.5518 318.358 38.8265 325.641C46.1011 332.924 54.648 336.175 57.9164 332.903Z" fill="#8ED16F"/>
<path opacity="0.3" d="M57.9164 332.903C61.1849 329.631 57.9372 321.074 50.6626 313.791C43.3879 306.508 34.841 303.257 31.5726 306.529C28.3041 309.801 31.5518 318.358 38.8265 325.641C46.1011 332.924 54.648 336.175 57.9164 332.903Z" fill="black"/>
<path d="M405.795 148.98H111.863C108.311 148.98 104.905 150.393 102.393 152.907C99.8817 155.422 98.4707 158.832 98.4707 162.388V334.866C98.4707 338.422 99.8817 341.832 102.393 344.347C104.905 346.861 108.311 348.274 111.863 348.274H405.795C409.346 348.274 412.753 346.861 415.264 344.347C417.776 341.832 419.187 338.422 419.187 334.866V162.388C419.187 158.832 417.776 155.422 415.264 152.907C412.753 150.393 409.346 148.98 405.795 148.98Z" fill="url(#paint0_linear)"/>
<path d="M401.501 151.326H116.151C108.47 151.326 102.243 157.56 102.243 165.25V332.004C102.243 339.694 108.47 345.928 116.151 345.928H401.501C409.182 345.928 415.409 339.694 415.409 332.004V165.25C415.409 157.56 409.182 151.326 401.501 151.326Z" fill="url(#paint1_linear)"/>
<path d="M415.409 185.381H102.243V221.057H415.409V185.381Z" fill="#F4943E"/>
<path opacity="0.3" d="M415.409 185.381H102.243V221.057H415.409V185.381Z" fill="#F8493C"/>
<path d="M385.715 247.547H131.942V264.843H385.715V247.547Z" fill="#D6D6E3"/>
<path d="M152.998 332.958C166.716 332.958 177.837 321.825 177.837 308.091C177.837 294.357 166.716 283.223 152.998 283.223C139.28 283.223 128.159 294.357 128.159 308.091C128.159 321.825 139.28 332.958 152.998 332.958Z" fill="#F4943E"/>
<path opacity="0.3" d="M152.998 332.958C166.716 332.958 177.837 321.825 177.837 308.091C177.837 294.357 166.716 283.223 152.998 283.223C139.28 283.223 128.159 294.357 128.159 308.091C128.159 321.825 139.28 332.958 152.998 332.958Z" fill="#E31266"/>
<path d="M397.605 103.342C398.006 104.612 398.857 105.69 399.998 106.373C405.15 109.779 416.35 109.055 417.696 109.055C417.982 109.055 418.357 109.566 418.772 110.425C420.751 114.511 423.817 126.487 424.025 129.181C424.299 132.441 427.326 147.701 432.282 153.386C432.433 153.56 432.585 153.723 432.73 153.874C437.591 158.762 443.292 153.386 443.292 153.386L444.11 150.541C443.88 151.663 443.622 152.971 443.364 154.435C443.236 155.171 443.107 155.951 442.983 156.753C442.245 161.275 441.857 165.848 441.823 170.43C441.81 172.094 441.881 173.757 442.036 175.414C442.081 175.874 442.131 176.328 442.193 176.772C442.446 178.79 442.57 180.822 442.563 182.855C442.518 194.933 439.44 209.956 439.44 209.956L439.558 209.917C439.485 210.293 439.44 210.478 439.44 210.478L439.62 210.422C439.534 210.98 439.452 211.55 439.373 212.134C438.331 219.71 437.731 229.139 437.445 234.583C437.297 237.454 437.425 240.333 437.826 243.18L443.297 281.742V299.701C443.279 302.422 443.61 305.134 444.284 307.771C446.066 314.556 444.598 338.239 443.774 349.475C443.544 352.539 443.364 354.683 443.314 355.3V355.485L443.471 355.424C443.471 355.553 443.471 355.62 443.471 355.62C443.704 355.52 443.949 355.448 444.2 355.407C442.03 358.774 438.101 364.341 435.079 365.279C433.298 365.822 431.715 366.873 430.522 368.304L430.443 368.41L430.331 368.567C429.958 369.068 429.73 369.662 429.675 370.285C429.632 370.178 429.598 370.067 429.574 369.954C429.344 371.205 430.096 372.35 432.456 372.906C433.832 373.168 435.232 373.281 436.632 373.242C444.816 373.242 459.341 370.722 460.944 368.012V358.662L461.208 358.746V358.83L462.211 359.161L464.963 349.913C468.265 347.466 465.524 303.674 464.963 293.611C464.459 284.441 470.126 247.962 471.13 241.536L470.995 241.373L471.147 240.436C471.348 240.583 471.536 240.748 471.707 240.93C472.036 241.322 472.324 241.747 472.565 242.198C473.039 243.002 473.446 243.842 473.781 244.713C479.32 258.541 481.814 298.084 481.814 301.631V338.817C481.803 342.487 482.312 346.14 483.328 349.666C483.837 351.521 484.23 353.407 484.505 355.311C484.623 356.058 484.724 356.799 484.819 357.506C484.914 358.213 485.01 359.021 485.082 359.683C485.082 359.857 485.122 360.026 485.139 360.183C485.155 360.34 485.139 360.334 485.139 360.413C485.29 361.878 485.368 362.837 485.368 362.837C485.389 362.757 485.427 362.682 485.48 362.618L485.509 362.972C485.548 362.838 485.624 362.718 485.727 362.624C485.955 362.4 486.203 362.197 486.467 362.018V366.743L486.333 366.642V367.456C492.039 371.766 501.328 373.068 508.458 373.018C513.083 373.018 516.828 372.457 518.128 371.806C519.99 370.891 518.969 368.758 517.276 367.125C515.965 365.857 514.255 364.88 513.173 365.004C511.368 365.2 505.196 358.202 501.961 354.369L502.326 354.206L502.841 353.981V291.978C502.841 291.978 503.671 267.498 506.143 243.287C507.316 231.083 505.873 218.768 501.911 207.167L501.832 206.937L502.584 207.055C503.38 207.178 503.806 207.251 503.806 207.251C503.806 207.251 503.806 207.061 503.755 206.69H503.806C503.806 206.69 502.841 196.19 502.83 183.001C502.83 168.051 504.092 149.822 509.311 139.507C512.315 133.569 513.319 128.844 513.235 125.117C513.366 121.838 512.423 118.606 510.549 115.914C509.764 114.83 508.695 113.983 507.461 113.467L507.354 113.405H507.298C506.397 113.04 505.434 112.849 504.462 112.844H493.188C491.884 112.845 490.601 112.506 489.466 111.862L485.054 109.359C483.586 106.143 483.373 102.158 483.687 98.4204C483.687 98.123 483.743 97.8256 483.771 97.5337L484.09 97.197C484.337 96.9332 484.567 96.6358 484.791 96.3832C484.786 96.6047 484.769 96.8258 484.741 97.0455C484.684 97.399 484.589 97.6067 484.438 97.6516C486.848 97.3373 489.539 96.8603 491.019 94.997C491.081 94.9241 491.137 94.8455 491.193 94.7669C491.63 94.0582 491.993 93.3059 492.275 92.5221C492.482 91.9866 492.759 91.4808 493.099 91.018C493.469 90.5354 493.951 90.1425 494.349 89.6823L494.416 89.6037C495.834 87.9201 495.913 85.5069 495.93 83.3069C495.958 77.9641 495.801 72.0826 492.23 68.0755C489.264 64.7419 484.533 63.4791 480.043 63.3332C475.553 63.1873 471.074 63.9955 466.589 64.0179C463.54 64.0179 459.862 63.9674 458.18 66.4929C457.356 67.7332 457.256 69.3551 456.359 70.5449C455.843 71.2295 455.052 71.8188 455.008 72.6719C455.002 73.0655 455.103 73.4533 455.299 73.7943V73.8336C456.387 75.9774 458.696 77.3131 461.107 77.734C460.699 78.225 460.325 78.7425 459.986 79.283C458.514 81.6383 457.737 84.3618 457.743 87.14C457.743 87.4655 457.743 87.7854 457.777 88.1053C458.027 91.8787 459.707 95.4139 462.474 97.9883C462.43 98.3026 462.385 98.6169 462.334 98.9255L462.435 99.0153C462.753 99.3034 463.084 99.5766 463.427 99.8347L463.551 99.9301C463.551 100.127 463.551 100.323 463.551 100.491C463.551 100.817 463.551 101.148 463.517 101.468C463.484 101.788 463.517 101.984 463.484 102.242L463.411 102.181L457.934 97.6011L449.127 89.441C449.127 89.441 427.108 73.3958 426.003 81.0228C425.87 82.3773 426.244 83.7332 427.052 84.8278C431.093 91.0012 444.99 96.2542 444.99 96.2542C444.99 96.2542 453.275 105.026 458.82 114.482C458.623 114.589 458.427 114.69 458.22 114.785C453.287 117.081 446.089 116.11 446.089 116.11C437.776 117.406 437.024 126.526 437.069 130.213C437.069 130.387 437.069 130.556 437.069 130.707C437.069 130.859 437.069 130.892 437.069 130.977L426.037 105.043L426.003 104.964C425.644 104.12 425.077 103.38 424.356 102.813C423.635 102.246 422.782 101.87 421.878 101.72C414.5 100.48 396.063 97.8929 397.605 103.342ZM443.791 355.328C443.951 355.29 444.114 355.26 444.278 355.238L444.228 355.317L443.791 355.328Z" fill="url(#paint2_linear)"/>
<path d="M498.912 350.025C498.912 350.025 509.361 363.174 511.777 362.905C514.193 362.635 519.816 368.001 516.604 369.639C513.392 371.278 494.898 372.322 485.772 365.346V354.834L498.912 350.025Z" fill="#ACA9C9"/>
<path d="M446.111 350.827C446.111 350.827 439.945 361.827 435.662 363.174C431.379 364.521 427.623 369.347 433.251 370.689C438.88 372.03 458.982 369.078 460.854 365.857V351.63L446.111 350.827Z" fill="#ACA9C9"/>
<path d="M438.369 242.765L443.695 280.804V298.488C443.679 301.171 444.003 303.845 444.659 306.446C446.397 313.142 444.967 336.499 444.16 347.583C443.897 351.198 443.695 353.51 443.695 353.51C447.176 351.899 461.919 356.995 461.919 356.995L463.41 351.916L464.599 347.875C467.816 345.462 465.159 302.265 464.599 292.315C464.234 285.519 467.262 263.485 469.201 250.28C469.762 246.548 470.216 243.545 470.49 241.738C470.664 240.616 470.76 239.993 470.76 239.993C471.35 240.475 471.841 241.068 472.206 241.738C472.667 242.531 473.063 243.361 473.389 244.219C478.781 257.862 481.237 296.866 481.237 300.34V337.021C481.226 340.64 481.722 344.243 482.711 347.724C483.375 350.263 483.86 352.845 484.163 355.452C484.544 358.364 484.723 360.71 484.723 360.71C484.992 359.1 501.608 351.854 501.608 351.854V290.682C501.608 290.682 502.41 266.55 504.826 242.653C505.864 231.783 504.817 220.815 501.742 210.338C501.075 208.054 500.408 206.118 499.831 204.586C498.85 201.976 498.149 200.534 498.149 200.534H443.415C442.495 200.708 441.733 202.56 441.043 205.371C440.595 207.257 440.203 209.569 439.861 212.106C438.846 219.576 438.263 228.875 437.983 234.252C437.841 237.095 437.971 239.946 438.369 242.765Z" fill="#2F2E41"/>
<g opacity="0.1">
<path opacity="0.1" d="M500.644 352.028V290.856C500.644 290.856 501.446 266.723 503.862 242.827C506.278 218.93 497.135 200.702 497.135 200.702H498.205C498.205 200.702 507.315 218.947 504.932 242.827C502.55 266.707 501.715 290.856 501.715 290.856V352.028C501.715 352.028 485.099 359.274 484.83 360.884C484.83 360.884 484.83 360.525 484.746 359.908C488.367 357.388 500.644 352.028 500.644 352.028Z" fill="black"/>
<path opacity="0.1" d="M445.304 353.342C444.798 353.352 444.299 353.455 443.83 353.645V353.375C444.319 353.326 444.812 353.315 445.304 353.342Z" fill="black"/>
<path opacity="0.1" d="M463.663 348.01C466.88 345.597 464.223 302.4 463.663 292.45C463.102 282.499 469.829 240.133 469.829 240.133C470.181 240.405 470.493 240.727 470.754 241.087C469.767 247.418 464.251 283.408 464.739 292.45C465.299 302.378 467.957 345.574 464.739 348.01L462.059 357.13L461.084 356.804L463.663 348.01Z" fill="black"/>
</g>
<path d="M449.323 134.305L443.718 154.16C443.718 154.16 437.82 159.773 432.999 154.16C428.178 148.548 425.207 133.502 424.916 130.281C424.624 127.059 420.358 110.425 418.75 110.425C417.141 110.425 401.063 111.497 399.186 104.813C397.683 99.4362 415.633 102.007 422.819 103.213C423.704 103.364 424.537 103.736 425.24 104.296C425.942 104.855 426.492 105.583 426.839 106.412L437.86 132.761C437.86 132.761 443.695 125.987 449.323 134.305Z" fill="#F7C4A7"/>
<path d="M485.503 88.1558C485.503 88.1558 478.535 107.742 487.381 114.718C496.227 121.694 455.748 123.574 455.748 123.574L461.241 118.344C461.241 118.344 465.126 102.916 462.446 90.0358L485.503 88.1558Z" fill="#F7C4A7"/>
<path opacity="0.1" d="M476.926 114.718C476.926 114.718 484.028 112.973 484.028 111.098L490.324 114.718H506.137C506.137 114.718 517.663 121.155 508.015 140.478C498.368 159.801 502.656 207.263 502.656 207.263C502.656 207.263 468.355 201.089 439.945 210.484C439.945 210.484 444.233 189.287 442.624 177.215C441.015 165.143 445.304 148.24 445.304 148.24L447.714 138.042C447.714 138.042 447.58 128.502 437.663 133.345C437.663 133.345 436.189 119.528 446.375 117.917C446.375 117.917 458.147 119.528 461.65 113.624C461.65 113.646 469.425 118.209 476.926 114.718Z" fill="black"/>
<path d="M476.926 114.185C476.926 114.185 484.029 112.44 484.029 110.565L488.642 113.22C489.745 113.852 490.993 114.185 492.263 114.185H503.324C504.48 114.182 505.62 114.454 506.65 114.979C507.681 115.504 508.571 116.267 509.249 117.204C511.788 120.779 514.064 127.828 508.016 139.945C498.368 159.262 502.657 206.729 502.657 206.729C502.657 206.729 468.355 200.556 439.945 209.951C439.945 209.951 444.233 188.754 442.624 176.682C441.016 164.61 445.304 147.746 445.304 147.746L447.714 137.548C447.714 137.548 447.58 128.008 437.663 132.851C437.663 132.851 436.228 119.416 445.954 117.496C446.225 117.436 446.502 117.417 446.778 117.44C448.858 117.659 458.55 118.36 461.656 113.102C461.65 113.107 469.426 117.67 476.926 114.185Z" fill="url(#paint3_linear)"/>
<path opacity="0.1" d="M503.996 138.598C503.996 138.598 495.419 143.963 481.483 138.598C481.483 138.598 466.208 132.986 461.381 121.963C456.555 110.941 485.766 123.843 485.766 123.843C485.766 123.843 491.933 123.843 493.805 122.502C495.677 121.161 508.817 132.694 503.996 138.598Z" fill="black"/>
<path d="M503.996 137.526C503.996 137.526 495.419 142.891 481.484 137.526C481.484 137.526 466.208 131.914 461.381 120.892C456.555 109.869 445.304 97.7975 445.304 97.7975C445.304 97.7975 425.74 90.2828 426.805 82.7737C427.87 75.2646 449.318 91.0909 449.318 91.0909L457.895 99.1388L485.766 122.749C485.766 122.749 491.933 122.749 493.805 121.408C495.677 120.067 508.817 131.622 503.996 137.526Z" fill="#F7C4A7"/>
<path opacity="0.1" d="M462.188 90.8384L485.234 88.9583C484.049 92.5054 483.243 96.1681 482.829 99.8852C480.15 102.666 476.487 104.284 472.629 104.388C468.771 104.493 465.026 103.078 462.2 100.446C462.787 97.2704 462.783 94.013 462.188 90.8384Z" fill="black"/>
<path d="M472.509 103.584C480.648 103.584 487.246 96.9779 487.246 88.8293C487.246 80.6806 480.648 74.0749 472.509 74.0749C464.369 74.0749 457.771 80.6806 457.771 88.8293C457.771 96.9779 464.369 103.584 472.509 103.584Z" fill="#F7C4A7"/>
<path opacity="0.1" d="M480.598 92.0338C479.734 90.6083 481.489 88.7507 480.912 87.1905C480.379 85.7538 478.26 85.5069 477.548 84.1655C476.988 83.0824 477.548 81.7523 477.324 80.5569C477.004 79.0136 475.345 78.0539 473.77 77.9753C472.195 77.8968 470.676 78.486 469.179 78.9911C466.74 79.8161 464.173 80.4503 461.617 80.1585C459.06 79.8666 456.51 78.4748 455.372 76.1907C455.186 75.8579 455.087 75.4832 455.086 75.1019C455.131 74.2601 455.904 73.682 456.403 73.0086C457.278 71.8356 457.379 70.2362 458.175 69.0127C459.8 66.5209 463.371 66.5826 466.342 66.5714C470.715 66.5714 475.065 65.752 479.437 65.898C483.81 66.0439 488.406 67.2842 491.305 70.5729C494.78 74.5295 494.937 80.3212 494.909 85.5966C494.909 87.7685 494.819 90.1313 493.435 91.8093C493.031 92.2976 492.538 92.7016 492.151 93.2011C491.31 94.3235 491.086 95.7603 490.296 96.8995C488.894 98.9255 486.159 99.4194 483.72 99.7449C484.438 99.6495 483.843 94.8399 483.72 94.3965C483.249 92.1853 482.739 92.2302 480.598 92.0338Z" fill="black"/>
<path d="M480.598 91.5006C479.734 90.0752 481.489 88.2175 480.912 86.6573C480.379 85.2206 478.26 84.9737 477.548 83.6324C476.988 82.5492 477.548 81.2192 477.324 80.0238C477.004 78.4804 475.345 77.5208 473.77 77.4422C472.195 77.3636 470.676 77.9529 469.179 78.458C466.74 79.283 464.173 79.9171 461.617 79.6253C459.06 79.3335 456.51 77.9417 455.372 75.6575C455.186 75.3248 455.087 74.9501 455.086 74.5688C455.131 73.7269 455.904 73.1489 456.403 72.4754C457.278 71.3025 457.379 69.703 458.175 68.4796C459.8 65.9878 463.371 66.0495 466.342 66.0383C470.715 66.0383 475.065 65.2189 479.437 65.3648C483.81 65.5107 488.406 66.751 491.305 70.0397C494.78 73.9963 494.937 79.7881 494.909 85.0635C494.909 87.2354 494.819 89.5981 493.435 91.2762C493.031 91.7644 492.538 92.1685 492.151 92.668C491.31 93.7904 491.086 95.2271 490.296 96.3664C488.894 98.3924 486.159 98.8862 483.72 99.2117C484.438 99.1163 483.843 94.3067 483.72 93.8634C483.249 91.6241 482.739 91.6915 480.598 91.5006Z" fill="#281C1C"/>
<path opacity="0.1" d="M503.862 139.271C503.862 139.271 496.625 120.487 490.997 119.954C485.368 119.421 501.715 119.954 501.715 119.954L507.074 129.613L503.862 139.271Z" fill="black"/>
<path d="M504.4 139.271C504.4 139.271 497.163 120.487 491.535 119.954C485.906 119.421 502.253 119.954 502.253 119.954L507.612 129.613L504.4 139.271Z" fill="#E14B5A"/>
<path d="M484.141 355.497C484.522 358.409 484.701 360.755 484.701 360.755C484.97 359.145 501.586 351.899 501.586 351.899V347.539C501.162 347.523 500.739 347.543 500.319 347.6C497.096 348.032 494.108 349.598 491.35 351.271C489.02 352.801 486.614 354.212 484.141 355.497Z" fill="#618FD8"/>
<path opacity="0.3" d="M484.141 355.497C484.522 358.409 484.701 360.755 484.701 360.755C484.97 359.145 501.586 351.899 501.586 351.899V347.539C501.162 347.523 500.739 347.543 500.319 347.6C497.096 348.032 494.108 349.598 491.35 351.271C489.02 352.801 486.614 354.212 484.141 355.497Z" fill="black"/>
<path d="M443.695 353.51C447.176 351.899 461.92 356.995 461.92 356.995L463.411 351.916C460.838 351.394 458.281 350.743 455.77 349.969C454.598 349.629 453.451 349.205 452.339 348.7C451.597 348.303 450.834 347.947 450.052 347.634C448.129 346.972 446.128 347.252 444.155 347.584C443.897 351.198 443.695 353.51 443.695 353.51Z" fill="#618FD8"/>
<path opacity="0.3" d="M443.695 353.51C447.176 351.899 461.92 356.995 461.92 356.995L463.411 351.916C460.838 351.394 458.281 350.743 455.77 349.969C454.598 349.629 453.451 349.205 452.339 348.7C451.597 348.303 450.834 347.947 450.052 347.634C448.129 346.972 446.128 347.252 444.155 347.584C443.897 351.198 443.695 353.51 443.695 353.51Z" fill="black"/>
<path opacity="0.4" d="M516.458 368.803C516.682 368.707 516.881 368.561 517.04 368.376C517.2 368.191 517.315 367.973 517.377 367.737C517.477 368.107 517.439 368.501 517.269 368.845C517.1 369.189 516.812 369.459 516.458 369.606C513.24 371.216 494.752 372.288 485.626 365.312V364.51C494.752 371.486 513.24 370.414 516.458 368.803Z" fill="white"/>
<path opacity="0.4" d="M433.112 369.875C438.717 371.216 458.842 368.264 460.714 365.043V365.846C458.836 369.067 438.74 372.019 433.112 370.678C430.813 370.116 430.079 368.994 430.309 367.765C430.488 368.674 431.329 369.426 433.112 369.875Z" fill="white"/>
<path opacity="0.1" d="M465.804 174.42C465.804 174.42 459.907 172.54 458.298 174.42C456.689 176.3 442.938 180.706 442.938 180.706" fill="black"/>
<path d="M399.079 100.699H427.752V100.093H399.079V100.699Z" fill="#8ED16F"/>
<path d="M399.079 101.305H427.752V100.699H399.079V101.305Z" fill="#8ED16F"/>
<path opacity="0.1" d="M399.079 101.305H427.752V100.699H399.079V101.305Z" fill="black"/>
<path d="M399.079 101.911H427.752V101.305H399.079V101.911Z" fill="#8ED16F"/>
<path d="M399.079 102.512H427.752V101.906H399.079V102.512Z" fill="#8ED16F"/>
<path opacity="0.1" d="M399.079 102.512H427.752V101.906H399.079V102.512Z" fill="black"/>
<path d="M399.079 103.118H427.752V102.512H399.079V103.118Z" fill="#8ED16F"/>
<path d="M399.079 103.718H427.752V103.112H399.079V103.718Z" fill="#8ED16F"/>
<path opacity="0.1" d="M399.079 103.718H427.752V103.112H399.079V103.718Z" fill="black"/>
<path d="M399.079 104.324H427.752V103.718H399.079V104.324Z" fill="#8ED16F"/>
<path d="M399.079 104.925H427.752V104.319H399.079V104.925Z" fill="#8ED16F"/>
<path opacity="0.1" d="M399.079 104.925H427.752V104.319H399.079V104.925Z" fill="black"/>
<path d="M399.079 95.8726H427.752V95.2664H399.079V95.8726Z" fill="#8ED16F"/>
<path d="M419.36 81.5224L441.406 99.8783L441.793 99.4123L419.748 81.0564L419.36 81.5224Z" fill="#8ED16F"/>
<path d="M399.261 71.8651L421.307 90.2209L421.694 89.7549L399.649 71.3991L399.261 71.8651Z" fill="#8ED16F"/>
<path d="M399.079 96.473H427.752V95.8669H399.079V96.473Z" fill="#8ED16F"/>
<path opacity="0.1" d="M399.079 96.473H427.752V95.8669H399.079V96.473Z" fill="black"/>
<path d="M399.079 97.0847H427.752V96.4786H399.079V97.0847Z" fill="#8ED16F"/>
<path d="M399.079 97.6852H427.752V97.0791H399.079V97.6852Z" fill="#8ED16F"/>
<path opacity="0.1" d="M399.079 97.6852H427.752V97.0791H399.079V97.6852Z" fill="black"/>
<path d="M399.079 98.2858H427.752V97.6796H399.079V98.2858Z" fill="#8ED16F"/>
<path d="M399.079 98.8918H427.752V98.2857H399.079V98.8918Z" fill="#8ED16F"/>
<path opacity="0.1" d="M399.079 98.8918H427.752V98.2857H399.079V98.8918Z" fill="black"/>
<path d="M399.079 99.4924H427.752V98.8863H399.079V99.4924Z" fill="#8ED16F"/>
<path d="M399.079 100.099H427.752V99.4924H399.079V100.099Z" fill="#8ED16F"/>
<path opacity="0.1" d="M399.079 100.099H427.752V99.4924H399.079V100.099Z" fill="black"/>
<path d="M395.444 123.632L405.718 125.542L409.436 105.496L399.163 103.586L395.444 123.632Z" fill="#8ED16F"/>
<path d="M404.689 115.019C405.121 112.688 404.529 110.623 403.366 110.406C402.203 110.19 400.91 111.905 400.478 114.236C400.045 116.567 400.637 118.632 401.8 118.849C402.963 119.065 404.256 117.35 404.689 115.019Z" fill="#8ED16F"/>
<path opacity="0.1" d="M404.689 115.019C405.121 112.688 404.529 110.623 403.366 110.406C402.203 110.19 400.91 111.905 400.478 114.236C400.045 116.567 400.637 118.632 401.8 118.849C402.963 119.065 404.256 117.35 404.689 115.019Z" fill="black"/>
<path d="M397.202 165.944L407.476 167.854L411.194 147.808L400.92 145.898L397.202 165.944Z" fill="#8ED16F"/>
<path d="M406.441 157.327C406.873 154.995 406.281 152.93 405.119 152.714C403.956 152.498 402.663 154.212 402.23 156.544C401.798 158.875 402.39 160.94 403.553 161.156C404.715 161.372 406.009 159.658 406.441 157.327Z" fill="#8ED16F"/>
<path opacity="0.1" d="M406.441 157.327C406.873 154.995 406.281 152.93 405.119 152.714C403.956 152.498 402.663 154.212 402.23 156.544C401.798 158.875 402.39 160.94 403.553 161.156C404.715 161.372 406.009 159.658 406.441 157.327Z" fill="black"/>
<path d="M360.044 61.9418L355.071 71.1421L372.983 80.8458L377.956 71.6455L360.044 61.9418Z" fill="#8ED16F"/>
<path d="M372.031 73.8492C372.599 72.8073 371.37 71.04 369.286 69.9019C367.201 68.7637 365.052 68.6857 364.484 69.7277C363.916 70.7696 365.146 72.5369 367.23 73.675C369.314 74.8132 371.464 74.8912 372.031 73.8492Z" fill="#8ED16F"/>
<path opacity="0.1" d="M372.031 73.8492C372.599 72.8073 371.37 71.04 369.286 69.9019C367.201 68.7637 365.052 68.6857 364.484 69.7277C363.916 70.7696 365.146 72.5369 367.23 73.675C369.314 74.8132 371.464 74.8912 372.031 73.8492Z" fill="black"/>
<path d="M320.716 243.508L315.743 252.709L333.654 262.412L338.627 253.212L320.716 243.508Z" fill="#8ED16F"/>
<path d="M330.898 255.127C331.461 254.085 330.229 252.326 328.146 251.198C326.063 250.069 323.918 249.999 323.355 251.04C322.792 252.081 324.025 253.84 326.108 254.969C328.191 256.097 330.335 256.168 330.898 255.127Z" fill="#8ED16F"/>
<path opacity="0.1" d="M330.898 255.127C331.461 254.085 330.229 252.326 328.146 251.198C326.063 250.069 323.918 249.999 323.355 251.04C322.792 252.081 324.025 253.84 326.108 254.969C328.191 256.097 330.335 256.168 330.898 255.127Z" fill="black"/>
<path d="M296.653 93.6735L291.68 102.874L309.591 112.578L314.564 103.377L296.653 93.6735Z" fill="#8ED16F"/>
<path d="M306.831 105.283C307.394 104.242 306.161 102.483 304.078 101.355C301.995 100.226 299.851 100.156 299.288 101.197C298.725 102.238 299.957 103.997 302.04 105.126C304.123 106.254 306.268 106.325 306.831 105.283Z" fill="#8ED16F"/>
<path opacity="0.1" d="M306.831 105.283C307.394 104.242 306.161 102.483 304.078 101.355C301.995 100.226 299.851 100.156 299.288 101.197C298.725 102.238 299.957 103.997 302.04 105.126C304.123 106.254 306.268 106.325 306.831 105.283Z" fill="black"/>
<path d="M326.811 61.9393L321.838 71.1396L339.75 80.8434L344.723 71.6431L326.811 61.9393Z" fill="#8ED16F"/>
<path d="M336.989 73.5494C337.552 72.508 336.32 70.7491 334.237 69.6206C332.154 68.4921 330.009 68.4214 329.446 69.4627C328.884 70.504 330.116 72.263 332.199 73.3915C334.282 74.52 336.427 74.5907 336.989 73.5494Z" fill="#8ED16F"/>
<path opacity="0.1" d="M336.989 73.5494C337.552 72.508 336.32 70.7491 334.237 69.6206C332.154 68.4921 330.009 68.4214 329.446 69.4627C328.884 70.504 330.116 72.263 332.199 73.3915C334.282 74.52 336.427 74.5907 336.989 73.5494Z" fill="black"/>
<path d="M356.921 99.3836L346.534 100.521L348.748 120.789L359.135 119.652L356.921 99.3836Z" fill="#8ED16F"/>
<path d="M353.164 114.371C354.339 114.243 355.084 112.228 354.826 109.87C354.569 107.513 353.407 105.707 352.231 105.836C351.056 105.964 350.311 107.979 350.569 110.337C350.826 112.694 351.988 114.5 353.164 114.371Z" fill="#8ED16F"/>
<path opacity="0.1" d="M353.164 114.371C354.339 114.243 355.084 112.228 354.826 109.87C354.569 107.513 353.407 105.707 352.231 105.836C351.056 105.964 350.311 107.979 350.569 110.337C350.826 112.694 351.988 114.5 353.164 114.371Z" fill="black"/>
<path d="M428.138 210.368L417.75 211.505L419.964 231.774L430.351 230.637L428.138 210.368Z" fill="#8ED16F"/>
<path d="M424.385 225.356C425.56 225.228 426.305 223.212 426.047 220.855C425.79 218.498 424.628 216.692 423.452 216.821C422.277 216.949 421.532 218.964 421.79 221.321C422.047 223.678 423.209 225.485 424.385 225.356Z" fill="#8ED16F"/>
<path opacity="0.1" d="M424.385 225.356C425.56 225.228 426.305 223.212 426.047 220.855C425.79 218.498 424.628 216.692 423.452 216.821C422.277 216.949 421.532 218.964 421.79 221.321C422.047 223.678 423.209 225.485 424.385 225.356Z" fill="black"/>
<path d="M316.248 142.439L311.275 151.639L329.187 161.343L334.16 152.142L316.248 142.439Z" fill="#8ED16F"/>
<path d="M326.423 154.056C326.986 153.015 325.753 151.256 323.67 150.127C321.587 148.999 319.442 148.928 318.88 149.97C318.317 151.011 319.549 152.77 321.632 153.898C323.715 155.027 325.86 155.097 326.423 154.056Z" fill="#8ED16F"/>
<path opacity="0.1" d="M326.423 154.056C326.986 153.015 325.753 151.256 323.67 150.127C321.587 148.999 319.442 148.928 318.88 149.97C318.317 151.011 319.549 152.77 321.632 153.898C323.715 155.027 325.86 155.097 326.423 154.056Z" fill="black"/>
<path d="M271.05 129.515L266.077 138.715L283.988 148.419L288.961 139.219L271.05 129.515Z" fill="#8ED16F"/>
<path d="M282.715 141.743C283.283 140.701 282.053 138.934 279.969 137.796C277.885 136.658 275.735 136.58 275.168 137.622C274.6 138.664 275.829 140.431 277.913 141.569C279.998 142.707 282.147 142.785 282.715 141.743Z" fill="#8ED16F"/>
<path opacity="0.1" d="M282.715 141.743C283.283 140.701 282.053 138.934 279.969 137.796C277.885 136.658 275.735 136.58 275.168 137.622C274.6 138.664 275.829 140.431 277.913 141.569C279.998 142.707 282.147 142.785 282.715 141.743Z" fill="black"/>
<path d="M256.574 347.102L251.601 356.302L269.512 366.006L274.485 356.806L256.574 347.102Z" fill="#8ED16F"/>
<path d="M266.751 358.715C267.314 357.673 266.082 355.914 263.999 354.786C261.916 353.657 259.771 353.587 259.208 354.628C258.645 355.669 259.877 357.428 261.96 358.557C264.043 359.685 266.188 359.756 266.751 358.715Z" fill="#8ED16F"/>
<path opacity="0.1" d="M266.751 358.715C267.314 357.673 266.082 355.914 263.999 354.786C261.916 353.657 259.771 353.587 259.208 354.628C258.645 355.669 259.877 357.428 261.96 358.557C264.043 359.685 266.188 359.756 266.751 358.715Z" fill="black"/>
<path d="M243.542 350.648L241.636 360.934L261.66 364.653L263.566 354.367L243.542 350.648Z" fill="#8ED16F"/>
<path opacity="0.05" d="M243.542 350.648L241.636 360.934L261.66 364.653L263.566 354.367L243.542 350.648Z" fill="black"/>
<path d="M256.797 358.564C257.013 357.4 255.3 356.105 252.972 355.673C250.643 355.24 248.58 355.834 248.364 356.998C248.149 358.162 249.862 359.456 252.19 359.889C254.519 360.321 256.582 359.728 256.797 358.564Z" fill="#8ED16F"/>
<path opacity="0.1" d="M256.797 358.564C257.013 357.4 255.3 356.105 252.972 355.673C250.643 355.24 248.58 355.834 248.364 356.998C248.149 358.162 249.862 359.456 252.19 359.889C254.519 360.321 256.582 359.728 256.797 358.564Z" fill="black"/>
<path d="M245.418 356.816L243.512 367.102L263.536 370.821L265.442 360.536L245.418 356.816Z" fill="#8ED16F"/>
<path d="M258.668 364.732C258.884 363.568 257.171 362.274 254.842 361.841C252.513 361.409 250.451 362.002 250.235 363.166C250.019 364.33 251.732 365.624 254.061 366.057C256.39 366.489 258.452 365.896 258.668 364.732Z" fill="#8ED16F"/>
<path opacity="0.1" d="M258.668 364.732C258.884 363.568 257.171 362.274 254.842 361.841C252.513 361.409 250.451 362.002 250.235 363.166C250.019 364.33 251.732 365.624 254.061 366.057C256.39 366.489 258.452 365.896 258.668 364.732Z" fill="black"/>
<path d="M277.701 373.546L272.728 382.746L290.64 392.45L295.613 383.249L277.701 373.546Z" fill="#8ED16F"/>
<path d="M287.884 385.158C288.447 384.117 287.215 382.358 285.132 381.229C283.049 380.101 280.904 380.03 280.341 381.072C279.778 382.113 281.011 383.872 283.094 385C285.177 386.129 287.321 386.199 287.884 385.158Z" fill="#8ED16F"/>
<path opacity="0.1" d="M287.884 385.158C288.447 384.117 287.215 382.358 285.132 381.229C283.049 380.101 280.904 380.03 280.341 381.072C279.778 382.113 281.011 383.872 283.094 385C285.177 386.129 287.321 386.199 287.884 385.158Z" fill="black"/>
<path d="M264.674 377.085L262.768 387.37L282.792 391.089L284.698 380.804L264.674 377.085Z" fill="#8ED16F"/>
<path opacity="0.05" d="M264.674 377.085L262.768 387.37L282.792 391.089L284.698 380.804L264.674 377.085Z" fill="black"/>
<path d="M277.924 385C278.139 383.836 276.426 382.542 274.098 382.109C271.769 381.677 269.706 382.27 269.491 383.434C269.275 384.598 270.988 385.893 273.317 386.325C275.645 386.758 277.708 386.165 277.924 385Z" fill="#8ED16F"/>
<path opacity="0.1" d="M277.924 385C278.139 383.836 276.426 382.542 274.098 382.109C271.769 381.677 269.706 382.27 269.491 383.434C269.275 384.598 270.988 385.893 273.317 386.325C275.645 386.758 277.708 386.165 277.924 385Z" fill="black"/>
<path d="M266.549 383.259L264.643 393.545L284.667 397.264L286.573 386.979L266.549 383.259Z" fill="#8ED16F"/>
<path d="M279.804 391.175C280.02 390.011 278.307 388.717 275.978 388.284C273.649 387.852 271.587 388.445 271.371 389.609C271.155 390.773 272.868 392.067 275.197 392.5C277.526 392.932 279.588 392.339 279.804 391.175Z" fill="#8ED16F"/>
<path opacity="0.1" d="M279.804 391.175C280.02 390.011 278.307 388.717 275.978 388.284C273.649 387.852 271.587 388.445 271.371 389.609C271.155 390.773 272.868 392.067 275.197 392.5C277.526 392.932 279.588 392.339 279.804 391.175Z" fill="black"/>
<path d="M309.401 356.504L304.428 365.704L322.339 375.408L327.312 366.208L309.401 356.504Z" fill="#8ED16F"/>
<path d="M319.573 368.114C320.136 367.073 318.904 365.314 316.821 364.185C314.738 363.057 312.593 362.986 312.03 364.027C311.467 365.069 312.699 366.828 314.782 367.956C316.865 369.085 319.01 369.155 319.573 368.114Z" fill="#8ED16F"/>
<path opacity="0.1" d="M319.573 368.114C320.136 367.073 318.904 365.314 316.821 364.185C314.738 363.057 312.593 362.986 312.03 364.027C311.467 365.069 312.699 366.828 314.782 367.956C316.865 369.085 319.01 369.155 319.573 368.114Z" fill="black"/>
<path d="M296.37 360.047L294.464 370.332L314.488 374.051L316.394 363.766L296.37 360.047Z" fill="#8ED16F"/>
<path opacity="0.05" d="M296.37 360.047L294.464 370.332L314.488 374.051L316.394 363.766L296.37 360.047Z" fill="black"/>
<path d="M309.62 367.962C309.836 366.798 308.123 365.504 305.794 365.071C303.465 364.639 301.403 365.232 301.187 366.396C300.971 367.56 302.684 368.855 305.013 369.287C307.342 369.72 309.404 369.126 309.62 367.962Z" fill="#8ED16F"/>
<path opacity="0.1" d="M309.62 367.962C309.836 366.798 308.123 365.504 305.794 365.071C303.465 364.639 301.403 365.232 301.187 366.396C300.971 367.56 302.684 368.855 305.013 369.287C307.342 369.72 309.404 369.126 309.62 367.962Z" fill="black"/>
<path d="M298.245 366.22L296.339 376.506L316.363 380.225L318.269 369.939L298.245 366.22Z" fill="#8ED16F"/>
<path d="M311.5 374.137C311.716 372.973 310.003 371.679 307.674 371.246C305.346 370.814 303.283 371.407 303.067 372.571C302.852 373.735 304.565 375.029 306.893 375.462C309.222 375.894 311.285 375.301 311.5 374.137Z" fill="#8ED16F"/>
<path opacity="0.1" d="M311.5 374.137C311.716 372.973 310.003 371.679 307.674 371.246C305.346 370.814 303.283 371.407 303.067 372.571C302.852 373.735 304.565 375.029 306.893 375.462C309.222 375.894 311.285 375.301 311.5 374.137Z" fill="black"/>
</g>
<defs>
<linearGradient id="paint0_linear" x1="258.829" y1="348.274" x2="258.829" y2="148.98" gradientUnits="userSpaceOnUse">
<stop stop-color="#808080" stop-opacity="0.25"/>
<stop offset="0.54" stop-color="#808080" stop-opacity="0.12"/>
<stop offset="1" stop-color="#808080" stop-opacity="0.1"/>
</linearGradient>
<linearGradient id="paint1_linear" x1="258.826" y1="151.326" x2="258.826" y2="345.928" gradientUnits="userSpaceOnUse">
<stop stop-color="#E31266"/>
<stop offset="0.508333" stop-color="#F8493C"/>
<stop offset="1" stop-color="#F4943E"/>
</linearGradient>
<linearGradient id="paint2_linear" x1="-360169" y1="234925" x2="-360169" y2="63785.8" gradientUnits="userSpaceOnUse">
<stop stop-color="#808080" stop-opacity="0.25"/>
<stop offset="0.54" stop-color="#808080" stop-opacity="0.12"/>
<stop offset="1" stop-color="#808080" stop-opacity="0.1"/>
</linearGradient>
<linearGradient id="paint3_linear" x1="474.727" y1="110.565" x2="474.727" y2="209.951" gradientUnits="userSpaceOnUse">
<stop stop-color="#E31266"/>
<stop offset="0.55" stop-color="#F8493C"/>
<stop offset="1" stop-color="#F4943E"/>
</linearGradient>
<clipPath id="clip0">
<rect width="546" height="401" fill="white"/>
</clipPath>
</defs>
</svg>
