<svg width="20" height="20" viewBox="0 0 20 20" fill="none" xmlns="http://www.w3.org/2000/svg">
<g clip-path="url(#clip0)">
<path d="M17.1396 14.8873V13.7288C17.1396 10.4177 14.956 7.56986 11.9538 6.6226C11.9738 6.53751 12.0091 6.45671 12.0091 6.36756C12.0091 5.79975 11.5827 5.31096 11.016 5.23081C10.5973 5.17069 10.1643 5.14062 9.72894 5.14062C9.29361 5.14062 8.86106 5.17069 8.44241 5.23081C7.87571 5.31096 7.44874 5.79971 7.44874 6.36756C7.44874 6.45671 7.48409 6.53747 7.50408 6.6226C4.50179 7.56979 2.31832 10.4177 2.31832 13.7288V14.8872C1.54917 15.4551 1.17822 16.2931 1.17822 17.1491C1.17822 18.7229 2.45144 19.9993 4.02846 19.9993H15.4294C17.0032 19.9993 18.2796 18.7261 18.2796 17.1491C18.2796 16.2995 17.9155 15.4601 17.1396 14.8873ZM9.72894 13.1587C10.6719 13.1587 11.4391 13.9259 11.4391 14.8689C11.4391 15.6111 10.9611 16.2379 10.299 16.474V17.7191H9.15889V16.474C8.4968 16.2379 8.01879 15.6111 8.01879 14.8689H9.15889C9.15889 15.1834 9.41442 15.4389 9.72894 15.4389C10.0434 15.4389 10.299 15.1834 10.299 14.8689C10.299 14.5544 10.0434 14.2988 9.72894 14.2988C8.78592 14.2988 8.01879 13.5317 8.01879 12.5887C8.01879 11.8465 8.4968 11.2197 9.15889 10.9835V9.73844H10.299V10.9835C10.9611 11.2197 11.4391 11.8465 11.4391 12.5887H10.299C10.299 12.2742 10.0434 12.0186 9.72894 12.0186C9.41442 12.0186 9.15889 12.2742 9.15889 12.5887C9.15889 12.9032 9.41442 13.1587 9.72894 13.1587Z" fill="white"/>
<path d="M6.87842 0.541992V1.11204C6.87842 2.26057 7.3367 3.3589 8.11481 4.14188C8.59685 4.0357 9.25525 4.00085 9.72866 4.00085C10.2039 4.00085 10.8562 4.03528 11.3426 4.14177C12.1206 3.35883 12.5789 2.2605 12.5789 1.11204V0.541992H6.87842Z" fill="white"/>
</g>
<defs>
<clipPath id="clip0">
<rect width="19.4576" height="19.4576" fill="white" transform="translate(0 0.541992)"/>
</clipPath>
</defs>
</svg>
