<svg width="71" height="71" viewBox="0 0 71 71" fill="none" xmlns="http://www.w3.org/2000/svg">
<g clip-path="url(#clip0)">
<path d="M61.8243 52.5602V48.3813C61.8243 36.4379 53.948 26.1652 43.1185 22.7483C43.1907 22.4413 43.3181 22.1499 43.3181 21.8283C43.3181 19.7802 41.7799 18.017 39.7357 17.7279C38.2256 17.511 36.6634 17.4026 35.0932 17.4026C33.5229 17.4026 31.9626 17.511 30.4525 17.7279C28.4083 18.017 26.8682 19.78 26.8682 21.8283C26.8682 22.1499 26.9957 22.4412 27.0678 22.7483C16.2381 26.1649 8.362 36.4376 8.362 48.3813V52.56C5.58758 54.6085 4.24951 57.6311 4.24951 60.7187C4.24951 66.3957 8.8422 70.9999 14.5307 70.9999H55.6556C61.3326 70.9999 65.9368 66.4072 65.9368 60.7187C65.9368 57.6542 64.6233 54.6265 61.8243 52.5602ZM35.0932 46.325C38.4947 46.325 41.2619 49.0922 41.2619 52.4937C41.2619 55.171 39.5377 57.432 37.1494 58.2837V62.775H33.0369V58.2837C30.6487 57.432 28.9244 55.171 28.9244 52.4937H33.0369C33.0369 53.6282 33.9587 54.55 35.0932 54.55C36.2277 54.55 37.1494 53.6282 37.1494 52.4937C37.1494 51.3592 36.2277 50.4375 35.0932 50.4375C31.6916 50.4375 28.9244 47.6703 28.9244 44.2688C28.9244 41.5915 30.6487 39.3305 33.0369 38.4788V33.9876H37.1494V38.4788C39.5377 39.3305 41.2619 41.5915 41.2619 44.2688H37.1494C37.1494 43.1343 36.2277 42.2125 35.0932 42.2125C33.9587 42.2125 33.0369 43.1343 33.0369 44.2688C33.0369 45.4033 33.9587 46.325 35.0932 46.325Z" fill="url(#paint0_linear)"/>
<path d="M24.812 0.813538V2.86978C24.812 7.0127 26.4651 10.9745 29.2719 13.7989C31.0106 13.4158 33.3856 13.2901 35.0932 13.2901C36.8076 13.2901 39.1603 13.4143 40.9149 13.7984C43.7214 10.9743 45.3744 7.01243 45.3744 2.86978V0.813538H24.812Z" fill="url(#paint1_linear)"/>
</g>
<defs>
<linearGradient id="paint0_linear" x1="35.0932" y1="17.4026" x2="35.0932" y2="70.9999" gradientUnits="userSpaceOnUse">
<stop stop-color="#E31266"/>
<stop offset="0.477083" stop-color="#F8493C"/>
<stop offset="1" stop-color="#F4943E"/>
</linearGradient>
<linearGradient id="paint1_linear" x1="35.0932" y1="0.813538" x2="35.0932" y2="13.7989" gradientUnits="userSpaceOnUse">
<stop stop-color="#E31266"/>
<stop offset="0.477083" stop-color="#F8493C"/>
<stop offset="1" stop-color="#F4943E"/>
</linearGradient>
<clipPath id="clip0">
<rect width="70.1864" height="70.1864" fill="white" transform="translate(0 0.813538)"/>
</clipPath>
</defs>
</svg>
