<svg width="443" height="291" viewBox="0 0 443 291" fill="none" xmlns="http://www.w3.org/2000/svg">
<g clip-path="url(#clip0)">
<path d="M422.651 18.7333L299.116 98.8701C298.645 99.1758 298.316 99.6554 298.199 100.204C298.083 100.752 298.189 101.324 298.494 101.795L352.899 185.434C353.206 185.904 353.686 186.234 354.235 186.35C354.784 186.467 355.357 186.361 355.828 186.056L479.363 105.919C479.62 105.753 479.837 105.533 480 105.274C480.164 105.016 480.269 104.725 480.308 104.422C480.312 104.398 480.315 104.373 480.315 104.348C480.337 104.149 480.328 103.948 480.289 103.752C480.24 103.481 480.137 103.222 479.986 102.991L425.582 19.3537C425.275 18.8834 424.794 18.5539 424.245 18.4376C423.695 18.3213 423.122 18.4276 422.651 18.7333ZM479.48 103.322C479.641 103.57 479.725 103.859 479.722 104.154C479.719 104.414 479.65 104.669 479.523 104.896C479.404 105.105 479.236 105.283 479.034 105.413L355.498 185.55C355.162 185.768 354.753 185.843 354.361 185.76C353.968 185.677 353.625 185.441 353.406 185.106L299.001 101.466C298.783 101.13 298.707 100.721 298.79 100.329C298.874 99.9376 299.109 99.5949 299.445 99.3765L422.98 19.2396C423.317 19.0214 423.726 18.9454 424.119 19.0285C424.512 19.1116 424.855 19.347 425.075 19.6829L479.48 103.322Z" fill="#3F3D56"/>
<path d="M428.814 24.8518L302.215 106.984L302.545 107.491L429.144 25.3589L428.814 24.8518Z" fill="#3F3D56"/>
<path d="M305.368 102.403C306.209 101.857 306.447 100.735 305.901 99.8947C305.355 99.0548 304.23 98.816 303.39 99.3613C302.549 99.9066 302.311 101.029 302.857 101.869C303.403 102.709 304.528 102.948 305.368 102.403Z" fill="#3F3D56"/>
<path d="M309.745 99.5629C310.585 99.0176 310.824 97.8947 310.277 97.0549C309.731 96.215 308.607 95.9762 307.766 96.5215C306.926 97.0667 306.687 98.1896 307.233 99.0295C307.78 99.8694 308.904 100.108 309.745 99.5629Z" fill="#3F3D56"/>
<path d="M314.121 96.7241C314.962 96.1788 315.2 95.0559 314.654 94.216C314.108 93.3761 312.983 93.1373 312.143 93.6826C311.302 94.2279 311.063 95.3508 311.61 96.1907C312.156 97.0305 313.28 97.2693 314.121 96.7241Z" fill="#3F3D56"/>
<path d="M364.228 102.923L332.218 123.689C331.805 123.945 331.308 124.03 330.834 123.924C330.36 123.818 329.945 123.531 329.681 123.124C329.416 122.716 329.321 122.222 329.417 121.746C329.513 121.27 329.793 120.851 330.195 120.578L362.205 99.8125C362.617 99.5562 363.114 99.4719 363.589 99.5777C364.063 99.6834 364.477 99.9707 364.742 100.378C365.007 100.785 365.101 101.28 365.005 101.756C364.909 102.231 364.63 102.651 364.228 102.923Z" fill="url(#paint0_linear)"/>
<path d="M384.854 91.4263L329.895 127.081C329.841 127.116 329.776 127.128 329.713 127.115C329.65 127.102 329.595 127.064 329.559 127.01C329.524 126.956 329.512 126.89 329.526 126.828C329.539 126.765 329.577 126.71 329.631 126.675L384.589 91.0197C384.643 90.9847 384.709 90.9725 384.772 90.9859C384.835 90.9993 384.89 91.0371 384.925 91.091C384.96 91.1449 384.972 91.2105 384.959 91.2734C384.946 91.3363 384.908 91.3913 384.854 91.4263Z" fill="#3F3D56"/>
<path d="M372.697 115.945L340.688 136.711C340.275 136.967 339.778 137.051 339.304 136.945C338.829 136.84 338.415 136.552 338.15 136.145C337.885 135.738 337.791 135.243 337.887 134.767C337.983 134.292 338.262 133.872 338.665 133.6L370.674 112.834C371.087 112.578 371.584 112.493 372.058 112.599C372.533 112.705 372.947 112.992 373.212 113.399C373.477 113.807 373.571 114.301 373.475 114.777C373.379 115.253 373.1 115.672 372.697 115.945Z" fill="url(#paint1_linear)"/>
<path d="M393.322 104.448L338.364 140.103C338.31 140.138 338.244 140.15 338.181 140.137C338.118 140.123 338.063 140.085 338.028 140.031C337.993 139.978 337.981 139.912 337.994 139.849C338.008 139.786 338.046 139.731 338.099 139.696L393.058 104.041C393.112 104.006 393.178 103.994 393.241 104.007C393.304 104.021 393.359 104.059 393.394 104.112C393.429 104.166 393.441 104.232 393.428 104.295C393.414 104.358 393.376 104.413 393.322 104.448Z" fill="#3F3D56"/>
<path d="M381.166 128.965L349.156 149.731C348.743 149.987 348.246 150.072 347.772 149.966C347.297 149.86 346.883 149.573 346.619 149.166C346.354 148.758 346.259 148.264 346.355 147.788C346.451 147.312 346.731 146.893 347.133 146.62L379.143 125.854C379.555 125.598 380.052 125.514 380.527 125.62C381.001 125.725 381.415 126.013 381.68 126.42C381.945 126.827 382.039 127.322 381.943 127.798C381.847 128.273 381.568 128.693 381.166 128.965Z" fill="#F2F2F2"/>
<path d="M401.791 117.468L346.833 153.123C346.779 153.158 346.713 153.17 346.65 153.157C346.587 153.144 346.532 153.106 346.497 153.052C346.462 152.998 346.45 152.932 346.463 152.87C346.476 152.807 346.514 152.752 346.568 152.717L401.527 117.062C401.581 117.027 401.646 117.015 401.709 117.028C401.772 117.041 401.827 117.079 401.863 117.133C401.898 117.187 401.91 117.253 401.896 117.315C401.883 117.378 401.845 117.433 401.791 117.468Z" fill="#3F3D56"/>
<path d="M189.368 102.148C189.729 102.313 190.075 102.506 190.405 102.726L223.367 88.6755L224.543 80.0036L237.714 79.9229L236.936 99.8136L193.43 111.306C193.338 111.608 193.228 111.904 193.101 112.193C192.472 113.533 191.46 114.658 190.193 115.427C188.926 116.195 187.46 116.572 185.978 116.511C184.497 116.449 183.067 115.952 181.868 115.082C180.669 114.212 179.754 113.007 179.238 111.619C178.722 110.231 178.629 108.722 178.969 107.281C179.309 105.84 180.068 104.532 181.15 103.52C182.232 102.508 183.59 101.839 185.052 101.595C186.514 101.351 188.016 101.545 189.368 102.151V102.148Z" fill="#A0616A"/>
<path d="M242.504 282.383H233.494L229.208 247.675H242.505L242.504 282.383Z" fill="#A0616A"/>
<path d="M227.058 279.812H244.434V290.735H216.118C216.118 287.837 217.27 285.058 219.322 283.009C221.374 280.96 224.157 279.809 227.058 279.809V279.812Z" fill="#2F2E41"/>
<path d="M277.544 279.84L268.578 280.721L260.905 246.6L274.139 245.298L277.544 279.84Z" fill="#A0616A"/>
<path d="M261.918 278.798L279.21 277.097L280.283 287.971L252.103 290.743C251.819 287.859 252.693 284.981 254.534 282.74C256.375 280.5 259.031 279.082 261.919 278.798L261.918 278.798Z" fill="#2F2E41"/>
<path d="M245.012 43.1902C254.981 43.1902 263.062 35.1191 263.062 25.163C263.062 15.2068 254.981 7.13574 245.012 7.13574C235.043 7.13574 226.962 15.2068 226.962 25.163C226.962 35.1191 235.043 43.1902 245.012 43.1902Z" fill="#A0616A"/>
<path d="M231.48 275.364C230.706 275.366 229.955 275.095 229.362 274.598C228.768 274.101 228.369 273.411 228.236 272.649C223.575 246.799 208.328 162.257 207.964 159.915C207.956 159.861 207.952 159.806 207.952 159.752V153.449C207.952 153.219 208.023 152.995 208.157 152.809L210.171 149.992C210.267 149.856 210.392 149.744 210.538 149.665C210.684 149.585 210.846 149.54 211.012 149.533C222.492 148.996 260.091 147.42 261.908 149.686C263.732 151.962 263.088 158.866 262.937 160.226L262.944 160.368L279.836 268.262C279.968 269.123 279.756 270.001 279.245 270.706C278.734 271.412 277.966 271.888 277.106 272.031L266.556 273.767C265.77 273.893 264.965 273.733 264.287 273.317C263.61 272.9 263.104 272.254 262.863 271.497C259.6 261.083 248.658 226.051 244.866 212.495C244.841 212.409 244.787 212.336 244.713 212.287C244.638 212.239 244.549 212.219 244.461 212.232C244.373 212.244 244.292 212.288 244.234 212.355C244.176 212.422 244.144 212.508 244.145 212.597C244.334 225.519 244.792 258.487 244.953 269.874L244.97 271.101C244.977 271.931 244.672 272.734 244.115 273.35C243.558 273.967 242.79 274.352 241.962 274.43L231.789 275.35C231.686 275.361 231.586 275.364 231.48 275.364Z" fill="#2F2E41"/>
<path d="M233.556 50.2785C230.406 52.1487 228.521 55.5852 227.44 59.0862C225.437 65.5607 224.232 72.2547 223.85 79.0203L222.707 99.2781L208.556 152.983C220.821 163.348 227.895 160.992 244.406 152.514C260.916 144.037 262.802 155.341 262.802 155.341L266.103 109.645L270.82 59.7108C269.761 58.4375 268.562 57.2868 267.246 56.2802C262.887 52.8937 257.814 50.5396 252.412 49.3954C247.009 48.2511 241.416 48.3465 236.056 49.6744L233.556 50.2785Z" fill="url(#paint2_linear)"/>
<path d="M228.96 112.995C229.341 113.137 229.709 113.309 230.063 113.509L262.654 97.2143L263.195 88.3874L276.639 87.4619L277.36 107.582L233.805 121.968C233.449 123.493 232.638 124.873 231.478 125.925C230.318 126.978 228.864 127.653 227.311 127.86C225.758 128.067 224.178 127.797 222.782 127.086C221.386 126.374 220.24 125.255 219.497 123.878C218.753 122.5 218.447 120.929 218.62 119.373C218.792 117.817 219.435 116.351 220.462 115.169C221.489 113.987 222.853 113.145 224.371 112.756C225.889 112.367 227.489 112.449 228.96 112.99L228.96 112.995Z" fill="#A0616A"/>
<path d="M270.585 59.9367C278.603 62.7632 280.016 93.387 280.016 93.387C270.582 88.2051 259.262 96.6848 259.262 96.6848C259.262 96.6848 256.904 88.6756 254.073 78.3118C253.219 75.3966 253.117 72.3128 253.776 69.3476C254.436 66.3823 255.836 63.632 257.846 61.3525C257.846 61.3525 262.565 57.1087 270.585 59.9367Z" fill="url(#paint3_linear)"/>
<path d="M261.196 29.9312C258.947 28.1344 255.879 31.3991 255.879 31.3991L254.08 15.2289C254.08 15.2289 242.836 16.5743 235.638 14.7797C228.441 12.9851 227.317 21.2937 227.317 21.2937C226.946 17.9376 226.871 14.5554 227.092 11.1861C227.542 7.14339 233.389 3.09991 243.734 0.404749C254.079 -2.29042 259.477 9.38936 259.477 9.38936C266.674 12.9822 263.445 31.728 261.196 29.9312Z" fill="#2F2E41"/>
<path d="M477.883 187.109H330.618C330.057 187.11 329.519 187.333 329.123 187.729C328.726 188.125 328.503 188.662 328.502 189.222V288.887C328.503 289.447 328.726 289.985 329.123 290.381C329.519 290.777 330.057 291 330.618 291H477.883C478.189 291 478.491 290.934 478.769 290.806C479.047 290.678 479.293 290.491 479.492 290.259C479.508 290.241 479.524 290.221 479.538 290.201C479.664 290.046 479.767 289.873 479.841 289.687C479.948 289.433 480.002 289.16 480.002 288.885V189.222C480.001 188.662 479.778 188.124 479.38 187.728C478.983 187.332 478.444 187.109 477.883 187.109ZM479.397 288.887C479.397 289.182 479.31 289.47 479.147 289.716C479.002 289.932 478.805 290.109 478.574 290.23C478.361 290.34 478.124 290.397 477.883 290.397H330.618C330.217 290.396 329.833 290.237 329.55 289.954C329.266 289.671 329.107 289.287 329.107 288.887V189.222C329.107 188.822 329.266 188.438 329.55 188.155C329.833 187.872 330.217 187.713 330.618 187.713H477.883C478.284 187.713 478.669 187.872 478.953 188.155C479.236 188.438 479.396 188.822 479.397 189.222V288.887Z" fill="#3F3D56"/>
<path d="M479.697 195.578H328.804V196.182H479.697V195.578Z" fill="#3F3D56"/>
<path d="M333.944 193.452C334.946 193.452 335.759 192.64 335.759 191.639C335.759 190.638 334.946 189.827 333.944 189.827C332.942 189.827 332.13 190.638 332.13 191.639C332.13 192.64 332.942 193.452 333.944 193.452Z" fill="#3F3D56"/>
<path d="M339.161 193.452C340.163 193.452 340.975 192.64 340.975 191.639C340.975 190.638 340.163 189.827 339.161 189.827C338.159 189.827 337.346 190.638 337.346 191.639C337.346 192.64 338.159 193.452 339.161 193.452Z" fill="#3F3D56"/>
<path d="M344.377 193.452C345.379 193.452 346.191 192.64 346.191 191.639C346.191 190.638 345.379 189.827 344.377 189.827C343.375 189.827 342.562 190.638 342.562 191.639C342.562 192.64 343.375 193.452 344.377 193.452Z" fill="#3F3D56"/>
<path d="M382.998 225.895H344.845C344.359 225.886 343.897 225.686 343.557 225.34C343.217 224.993 343.026 224.528 343.026 224.042C343.026 223.557 343.217 223.091 343.557 222.745C343.897 222.399 344.359 222.199 344.845 222.189H382.998C383.484 222.199 383.947 222.399 384.287 222.745C384.627 223.091 384.817 223.557 384.817 224.042C384.817 224.528 384.627 224.993 384.287 225.34C383.947 225.686 383.484 225.886 382.998 225.895Z" fill="url(#paint4_linear)"/>
<path d="M406.554 227.476H341.049C340.984 227.476 340.923 227.45 340.877 227.405C340.832 227.359 340.806 227.298 340.806 227.233C340.806 227.169 340.832 227.108 340.877 227.062C340.923 227.017 340.984 226.991 341.049 226.991H406.554C406.618 226.991 406.68 227.017 406.725 227.062C406.771 227.108 406.796 227.169 406.796 227.233C406.796 227.298 406.771 227.359 406.725 227.405C406.68 227.45 406.618 227.476 406.554 227.476Z" fill="#3F3D56"/>
<path d="M382.998 241.416H344.845C344.359 241.406 343.897 241.207 343.557 240.86C343.217 240.514 343.026 240.048 343.026 239.563C343.026 239.078 343.217 238.612 343.557 238.266C343.897 237.919 344.359 237.72 344.845 237.71H382.998C383.484 237.72 383.947 237.919 384.287 238.266C384.627 238.612 384.817 239.078 384.817 239.563C384.817 240.048 384.627 240.514 384.287 240.86C383.947 241.207 383.484 241.406 382.998 241.416Z" fill="url(#paint5_linear)"/>
<path d="M406.554 242.995H341.049C340.984 242.995 340.923 242.97 340.877 242.924C340.832 242.879 340.806 242.817 340.806 242.753C340.806 242.689 340.832 242.627 340.877 242.582C340.923 242.536 340.984 242.511 341.049 242.511H406.554C406.618 242.511 406.68 242.536 406.725 242.582C406.771 242.627 406.796 242.689 406.796 242.753C406.796 242.817 406.771 242.879 406.725 242.924C406.68 242.97 406.618 242.995 406.554 242.995Z" fill="#3F3D56"/>
<path d="M382.998 256.934H344.845C344.359 256.925 343.897 256.725 343.557 256.379C343.217 256.032 343.026 255.567 343.026 255.081C343.026 254.596 343.217 254.131 343.557 253.784C343.897 253.438 344.359 253.238 344.845 253.229H382.998C383.484 253.238 383.947 253.438 384.287 253.784C384.627 254.131 384.817 254.596 384.817 255.081C384.817 255.567 384.627 256.032 384.287 256.379C383.947 256.725 383.484 256.925 382.998 256.934Z" fill="#F2F2F2"/>
<path d="M406.554 258.515H341.049C340.984 258.515 340.923 258.489 340.877 258.444C340.832 258.398 340.806 258.337 340.806 258.273C340.806 258.208 340.832 258.147 340.877 258.101C340.923 258.056 340.984 258.03 341.049 258.03H406.554C406.618 258.03 406.68 258.056 406.725 258.101C406.771 258.147 406.796 258.208 406.796 258.273C406.796 258.337 406.771 258.398 406.725 258.444C406.68 258.489 406.618 258.515 406.554 258.515Z" fill="#3F3D56"/>
<path d="M179.22 87.2891H2.53836C1.86532 87.2896 1.22002 87.5569 0.744111 88.0322C0.268203 88.5075 0.000583811 89.152 0 89.8242V209.397C0.000583811 210.069 0.268203 210.714 0.744111 211.189C1.22002 211.665 1.86532 211.932 2.53836 211.932H179.22C179.587 211.932 179.949 211.853 180.282 211.699C180.616 211.546 180.911 211.322 181.15 211.043C181.17 211.021 181.188 210.998 181.205 210.973C181.357 210.788 181.481 210.581 181.572 210.359C181.7 210.055 181.765 209.728 181.764 209.397V89.8242C181.764 89.4909 181.698 89.1609 181.57 88.853C181.442 88.5452 181.254 88.2656 181.018 88.0302C180.781 87.7947 180.501 87.6081 180.193 87.4809C179.884 87.3538 179.553 87.2886 179.22 87.2891ZM181.036 209.397C181.037 209.751 180.932 210.097 180.737 210.392C180.562 210.651 180.326 210.863 180.049 211.008C179.793 211.141 179.508 211.209 179.22 211.209H2.53836C2.0577 211.208 1.5969 211.017 1.25702 210.678C0.917138 210.338 0.725934 209.878 0.72535 209.398V89.8242C0.725934 89.3442 0.917138 88.8839 1.25702 88.5445C1.5969 88.205 2.0577 88.0141 2.53836 88.0135H179.22C179.701 88.0133 180.163 88.204 180.503 88.5437C180.844 88.8834 181.036 89.3442 181.036 89.825V209.397Z" fill="#3F3D56"/>
<path d="M181.396 97.4482H0.361328V98.1727H181.396V97.4482Z" fill="#3F3D56"/>
<path d="M6.52884 94.8979C7.73104 94.8979 8.70563 93.9245 8.70563 92.7238C8.70563 91.5232 7.73104 90.5498 6.52884 90.5498C5.32663 90.5498 4.35205 91.5232 4.35205 92.7238C4.35205 93.9245 5.32663 94.8979 6.52884 94.8979Z" fill="#3F3D56"/>
<path d="M12.7871 94.8979C13.9893 94.8979 14.9639 93.9245 14.9639 92.7238C14.9639 91.5232 13.9893 90.5498 12.7871 90.5498C11.5849 90.5498 10.6104 91.5232 10.6104 92.7238C10.6104 93.9245 11.5849 94.8979 12.7871 94.8979Z" fill="#3F3D56"/>
<path d="M19.0459 94.8979C20.2481 94.8979 21.2227 93.9245 21.2227 92.7238C21.2227 91.5232 20.2481 90.5498 19.0459 90.5498C17.8437 90.5498 16.8691 91.5232 16.8691 92.7238C16.8691 93.9245 17.8437 94.8979 19.0459 94.8979Z" fill="#3F3D56"/>
<path d="M139.202 160.608H78.7488C78.02 160.608 77.3211 160.319 76.8058 159.804C76.2905 159.289 76.001 158.591 76.001 157.863C76.001 157.136 76.2905 156.438 76.8058 155.923C77.3211 155.408 78.02 155.119 78.7488 155.119H139.202C139.931 155.119 140.63 155.408 141.145 155.923C141.66 156.438 141.95 157.136 141.95 157.863C141.95 158.591 141.66 159.289 141.145 159.804C140.63 160.319 139.931 160.608 139.202 160.608Z" fill="#F2F2F2"/>
<path d="M99.7014 148.944H78.7492C78.0205 148.944 77.3216 148.655 76.8063 148.14C76.2909 147.625 76.0015 146.927 76.0015 146.199C76.0015 145.472 76.2909 144.774 76.8063 144.259C77.3216 143.744 78.0205 143.455 78.7492 143.455H99.7014C100.43 143.455 101.129 143.744 101.644 144.259C102.16 144.774 102.449 145.472 102.449 146.199C102.449 146.927 102.16 147.625 101.644 148.14C101.129 148.655 100.43 148.944 99.7014 148.944Z" fill="#F2F2F2"/>
<path d="M51.3678 163.951C57.8176 163.951 63.0462 158.729 63.0462 152.288C63.0462 145.846 57.8176 140.624 51.3678 140.624C44.918 140.624 39.6895 145.846 39.6895 152.288C39.6895 158.729 44.918 163.951 51.3678 163.951Z" fill="url(#paint6_linear)"/>
<path d="M145.261 134.45H36.3776C34.8295 134.452 33.3454 135.067 32.2508 136.16C31.1561 137.254 30.5402 138.736 30.5381 140.282V164.295C30.5404 165.841 31.1563 167.323 32.2508 168.416C33.3453 169.509 34.8291 170.125 36.3769 170.127H145.261C146.809 170.125 148.293 169.509 149.387 168.416C150.482 167.323 151.098 165.841 151.1 164.295V140.28C151.098 138.734 150.482 137.252 149.387 136.159C148.293 135.066 146.809 134.451 145.261 134.448V134.45ZM150.414 164.295C150.412 165.659 149.869 166.967 148.903 167.932C147.937 168.896 146.627 169.439 145.261 169.441H36.3776C35.0116 169.439 33.702 168.896 32.736 167.932C31.7701 166.967 31.2268 165.659 31.2252 164.295V140.28C31.2268 138.916 31.7701 137.608 32.736 136.643C33.702 135.679 35.0116 135.136 36.3776 135.135H145.261C146.627 135.136 147.937 135.679 148.903 136.643C149.869 137.608 150.412 138.916 150.414 140.28V164.295Z" fill="#3F3D56"/>
</g>
<defs>
<linearGradient id="paint0_linear" x1="346.2" y1="110.195" x2="348.219" y2="113.308" gradientUnits="userSpaceOnUse">
<stop stop-color="#E31266"/>
<stop offset="0.513542" stop-color="#F8493C"/>
<stop offset="1" stop-color="#F4943E"/>
</linearGradient>
<linearGradient id="paint1_linear" x1="354.669" y1="123.217" x2="356.689" y2="126.33" gradientUnits="userSpaceOnUse">
<stop stop-color="#E31266"/>
<stop offset="0.513542" stop-color="#F8493C"/>
<stop offset="1" stop-color="#F4943E"/>
</linearGradient>
<linearGradient id="paint2_linear" x1="239.688" y1="48.6025" x2="239.688" y2="159.854" gradientUnits="userSpaceOnUse">
<stop stop-color="#E31266"/>
<stop offset="0.523958" stop-color="#F8493C"/>
<stop offset="1" stop-color="#F4943E"/>
</linearGradient>
<linearGradient id="paint3_linear" x1="266.682" y1="58.9648" x2="266.682" y2="96.6848" gradientUnits="userSpaceOnUse">
<stop stop-color="#E31266"/>
<stop offset="0.523958" stop-color="#F8493C"/>
<stop offset="1" stop-color="#F4943E"/>
</linearGradient>
<linearGradient id="paint4_linear" x1="363.922" y1="222.189" x2="363.922" y2="225.895" gradientUnits="userSpaceOnUse">
<stop stop-color="#E31266"/>
<stop offset="0.466667" stop-color="#F8493C"/>
<stop offset="1" stop-color="#F4943E"/>
</linearGradient>
<linearGradient id="paint5_linear" x1="363.922" y1="237.71" x2="363.922" y2="241.416" gradientUnits="userSpaceOnUse">
<stop stop-color="#E31266"/>
<stop offset="0.466667" stop-color="#F8493C"/>
<stop offset="1" stop-color="#F4943E"/>
</linearGradient>
<linearGradient id="paint6_linear" x1="51.3678" y1="140.624" x2="51.3678" y2="163.951" gradientUnits="userSpaceOnUse">
<stop stop-color="#E31266"/>
<stop offset="0.523958" stop-color="#F8493C"/>
<stop offset="1" stop-color="#F4943E"/>
</linearGradient>
<clipPath id="clip0">
<rect width="480" height="291" fill="white"/>
</clipPath>
</defs>
</svg>
