<svg width="64" height="64" viewBox="0 0 64 64" fill="none" xmlns="http://www.w3.org/2000/svg">
<path d="M32 0C14.3557 0 0 14.3545 0 32C0 49.6455 14.3557 64 32 64C49.6443 64 64 49.6455 64 32C64 14.3545 49.6443 0 32 0ZM47.3846 34.4615H34.4615V48C34.4615 49.3588 33.3588 50.4615 32 50.4615C30.6412 50.4615 29.5385 49.3588 29.5385 48V34.4615H16.6154C15.2566 34.4615 14.1538 33.3588 14.1538 32C14.1538 30.6412 15.2566 29.5385 16.6154 29.5385H29.5385V17.2308C29.5385 15.872 30.6412 14.7692 32 14.7692C33.3588 14.7692 34.4615 15.872 34.4615 17.2308V29.5385H47.3846C48.7434 29.5385 49.8462 30.6412 49.8462 32C49.8462 33.3588 48.7434 34.4615 47.3846 34.4615Z" fill="white"/>
</svg>
