<svg width="218" height="389" viewBox="0 0 218 389" fill="none" xmlns="http://www.w3.org/2000/svg">
<g clip-path="url(#clip0)">
<path d="M169.313 365.036H53.633C49.4176 365.036 45.2434 364.202 41.3488 362.583C37.4543 360.965 33.9156 358.592 30.9348 355.6C27.954 352.609 25.5896 349.058 23.9764 345.149C22.3632 341.241 21.5329 337.052 21.533 332.822V32.2139C21.5426 23.6732 24.9276 15.4851 30.9455 9.4459C36.9633 3.40673 45.1225 0.00966847 53.633 0H169.313C177.823 0.00964198 185.982 3.40669 192 9.44586C198.018 15.485 201.403 23.6732 201.413 32.2139V86.5084H203.406V126.512H201.413V332.822C201.413 341.365 198.031 349.559 192.011 355.6C185.991 361.641 177.827 365.035 169.313 365.036ZM53.633 1.0004C45.3868 1.00975 37.481 4.3013 31.65 10.1529C25.8191 16.0046 22.5391 23.9384 22.5298 32.2139V332.822C22.5298 336.921 23.3342 340.98 24.8973 344.767C26.4604 348.554 28.7514 351.995 31.6396 354.893C34.5278 357.791 37.9566 360.091 41.7302 361.659C45.5038 363.228 49.5483 364.035 53.6329 364.035H169.313C177.562 364.035 185.473 360.747 191.306 354.893C197.139 349.039 200.416 341.1 200.416 332.822V125.512H202.409V87.5088H200.416V32.2139C200.407 23.9384 197.127 16.0046 191.296 10.1529C185.465 4.3013 177.559 1.00975 169.313 1.0004H53.633Z" fill="#3F3D56"/>
<path d="M170.587 356.785H54.3528C47.9635 356.778 41.838 354.227 37.3201 349.693C32.8022 345.16 30.2608 339.012 30.2534 332.601V32.4348C30.2608 26.0228 32.8022 19.8757 37.3201 15.3417C41.838 10.8078 47.9635 8.25742 54.3528 8.25H69.1944L68.9151 8.93875C68.2531 10.5715 68.0009 12.3425 68.1809 14.096C68.3609 15.8495 68.9676 17.5317 69.9474 18.9947C70.9273 20.4577 72.2504 21.6567 73.8003 22.4861C75.3503 23.3155 77.0796 23.75 78.8361 23.7513H145.108C146.864 23.7499 148.593 23.3154 150.143 22.486C151.693 21.6565 153.016 20.4576 153.996 18.9946C154.976 17.5316 155.582 15.8494 155.762 14.0959C155.942 12.3425 155.69 10.5715 155.028 8.93875L154.749 8.25H170.587C176.977 8.25745 183.102 10.8079 187.62 15.3418C192.138 19.8757 194.679 26.0229 194.687 32.4348V332.601C194.679 339.012 192.138 345.16 187.62 349.693C183.102 354.227 176.977 356.778 170.587 356.785ZM54.3528 9.2504C48.2278 9.2575 42.3557 11.7024 38.0247 16.0488C33.6936 20.3952 31.2574 26.2881 31.2503 32.4348V332.601C31.2574 338.747 33.6937 344.64 38.0247 348.986C42.3557 353.333 48.2278 355.778 54.3527 355.785H170.587C176.712 355.778 182.584 353.333 186.915 348.986C191.246 344.64 193.683 338.747 193.69 332.601V32.4348C193.683 26.2881 191.246 20.3952 186.915 16.0488C182.585 11.7024 176.712 9.25753 170.587 9.2504H156.207C156.798 11.018 156.962 12.9014 156.685 14.7452C156.408 16.5889 155.699 18.3402 154.614 19.8545C153.53 21.3687 152.103 22.6025 150.45 23.454C148.797 24.3055 146.966 24.7503 145.108 24.7517H78.8358C76.9777 24.7504 75.1467 24.3056 73.4937 23.4541C71.8407 22.6026 70.4132 21.3688 69.329 19.8546C68.2448 18.3403 67.535 16.5891 67.2581 14.7453C66.9812 12.9015 67.1452 11.018 67.7366 9.2504H54.3528Z" fill="#CCCCCC"/>
<path d="M207.472 195.461H10.5284C7.73706 195.458 5.06094 194.344 3.08716 192.363C1.11338 190.383 0.00314112 187.697 0 184.896V121.501C0.00314112 118.7 1.11338 116.014 3.08716 114.034C5.06094 112.053 7.73706 110.939 10.5284 110.936H207.472C210.263 110.939 212.939 112.053 214.913 114.034C216.887 116.014 217.997 118.7 218 121.501V184.896C217.997 187.697 216.887 190.383 214.913 192.363C212.939 194.344 210.263 195.458 207.472 195.461Z" fill="white"/>
<path d="M207.472 195.461H10.5284C7.73706 195.458 5.06094 194.344 3.08716 192.363C1.11338 190.383 0.00314112 187.697 0 184.896V121.501C0.00314112 118.7 1.11338 116.014 3.08716 114.034C5.06094 112.053 7.73706 110.939 10.5284 110.936H207.472C210.263 110.939 212.939 112.053 214.913 114.034C216.887 116.014 217.997 118.7 218 121.501V184.896C217.997 187.697 216.887 190.383 214.913 192.363C212.939 194.344 210.263 195.458 207.472 195.461ZM10.5284 112.179C8.06546 112.181 5.70419 113.164 3.96263 114.912C2.22106 116.66 1.24142 119.03 1.23863 121.501V184.896C1.24142 187.367 2.22106 189.737 3.96263 191.485C5.70419 193.233 8.06546 194.216 10.5284 194.218H207.472C209.935 194.216 212.296 193.233 214.037 191.485C215.779 189.737 216.759 187.367 216.761 184.896V121.501C216.759 119.03 215.779 116.66 214.037 114.912C212.296 113.164 209.935 112.181 207.472 112.179H10.5284Z" fill="#3F3D56"/>
<path d="M134.826 149.781H66.082C64.768 149.781 63.5078 149.257 62.5786 148.325C61.6494 147.392 61.1274 146.128 61.1274 144.809C61.1274 143.49 61.6494 142.226 62.5786 141.293C63.5078 140.361 64.768 139.837 66.082 139.837H134.826C136.14 139.837 137.401 140.361 138.33 141.293C139.259 142.226 139.781 143.49 139.781 144.809C139.781 146.128 139.259 147.392 138.33 148.325C137.401 149.257 136.14 149.781 134.826 149.781Z" fill="url(#paint0_linear)"/>
<path d="M198.616 166.561H66.082C64.768 166.561 63.5078 166.038 62.5786 165.105C61.6494 164.173 61.1274 162.908 61.1274 161.589C61.1274 160.271 61.6494 159.006 62.5786 158.073C63.5078 157.141 64.768 156.617 66.082 156.617H198.616C199.93 156.617 201.19 157.141 202.119 158.073C203.049 159.006 203.571 160.271 203.571 161.589C203.571 162.908 203.049 164.173 202.119 165.105C201.19 166.038 199.93 166.561 198.616 166.561Z" fill="url(#paint1_linear)"/>
<path d="M33.0092 171.845C43.2704 171.845 51.5888 163.497 51.5888 153.199C51.5888 142.902 43.2704 134.554 33.0092 134.554C22.748 134.554 14.4297 142.902 14.4297 153.199C14.4297 163.497 22.748 171.845 33.0092 171.845Z" fill="url(#paint2_linear)"/>
<path d="M198.608 186.761H181.268C179.954 186.761 178.693 186.237 177.764 185.304C176.835 184.372 176.313 183.107 176.313 181.789C176.313 180.47 176.835 179.205 177.764 178.273C178.693 177.34 179.954 176.816 181.268 176.816H198.608C199.259 176.816 199.903 176.945 200.504 177.195C201.106 177.445 201.652 177.811 202.112 178.273C202.572 178.734 202.937 179.283 203.186 179.886C203.435 180.489 203.563 181.136 203.563 181.789C203.563 182.441 203.435 183.088 203.186 183.691C202.937 184.295 202.572 184.843 202.112 185.304C201.652 185.766 201.106 186.132 200.504 186.382C199.903 186.632 199.259 186.761 198.608 186.761Z" fill="white"/>
<path d="M198.608 186.761H181.268C179.954 186.761 178.693 186.237 177.764 185.304C176.835 184.372 176.313 183.107 176.313 181.789C176.313 180.47 176.835 179.205 177.764 178.273C178.693 177.34 179.954 176.816 181.268 176.816H198.608C199.259 176.816 199.903 176.945 200.504 177.195C201.106 177.445 201.652 177.811 202.112 178.273C202.572 178.734 202.937 179.283 203.186 179.886C203.435 180.489 203.563 181.136 203.563 181.789C203.563 182.441 203.435 183.088 203.186 183.691C202.937 184.295 202.572 184.843 202.112 185.304C201.652 185.766 201.106 186.132 200.504 186.382C199.903 186.632 199.259 186.761 198.608 186.761Z" fill="#CCCCCC"/>
<path d="M168.778 94.682H59.1907C57.6375 94.6802 56.1484 94.0603 55.0501 92.9581C53.9518 91.8559 53.334 90.3615 53.3323 88.8028V53.5276C53.334 51.9689 53.9518 50.4745 55.0501 49.3724C56.1484 48.2702 57.6375 47.6502 59.1907 47.6484H168.778C170.331 47.6502 171.82 48.2702 172.918 49.3724C174.017 50.4745 174.634 51.9689 174.636 53.5276V88.8028C174.634 90.3615 174.017 91.8559 172.918 92.9581C171.82 94.0603 170.331 94.6802 168.778 94.682ZM59.1907 48.3401C57.8202 48.3417 56.5063 48.8887 55.5373 49.8612C54.5682 50.8337 54.0231 52.1523 54.0215 53.5276V88.8028C54.0231 90.1781 54.5682 91.4967 55.5373 92.4692C56.5063 93.4417 57.8202 93.9888 59.1907 93.9903H168.778C170.148 93.9888 171.462 93.4417 172.431 92.4692C173.4 91.4967 173.945 90.1781 173.947 88.8028V53.5276C173.945 52.1523 173.4 50.8337 172.431 49.8612C171.462 48.8887 170.148 48.3417 168.778 48.3401H59.1907Z" fill="#CCCCCC"/>
<path d="M128.355 69.2638H90.103C89.3725 69.2628 88.6723 68.9709 88.156 68.4522C87.6398 67.9334 87.3499 67.2303 87.3499 66.4972C87.3499 65.764 87.6398 65.0609 88.156 64.5421C88.6723 64.0234 89.3725 63.7315 90.103 63.7305H128.355C129.086 63.7315 129.786 64.0234 130.302 64.5421C130.818 65.0609 131.108 65.764 131.108 66.4972C131.108 67.2303 130.818 67.9334 130.302 68.4522C129.786 68.9709 129.086 69.2628 128.355 69.2638Z" fill="#E6E6E6"/>
<path d="M163.85 78.6007H90.1028C89.3723 78.5998 88.672 78.3078 88.1558 77.7891C87.6396 77.2703 87.3496 76.5672 87.3496 75.8341C87.3496 75.1009 87.6396 74.3978 88.1558 73.879C88.672 73.3603 89.3723 73.0684 90.1028 73.0674H163.85C164.212 73.0669 164.571 73.1381 164.906 73.2769C165.241 73.4157 165.546 73.6195 165.802 73.8764C166.058 74.1334 166.262 74.4385 166.401 74.7744C166.539 75.1103 166.611 75.4704 166.611 75.8341C166.611 76.1977 166.539 76.5578 166.401 76.8937C166.262 77.2296 166.058 77.5348 165.802 77.7917C165.546 78.0487 165.241 78.2524 164.906 78.3912C164.571 78.53 164.212 78.6012 163.85 78.6007Z" fill="#E6E6E6"/>
<path d="M71.7 81.5411C77.4097 81.5411 82.0384 76.896 82.0384 71.1661C82.0384 65.4361 77.4097 60.791 71.7 60.791C65.9902 60.791 61.3616 65.4361 61.3616 71.1661C61.3616 76.896 65.9902 81.5411 71.7 81.5411Z" fill="#E6E6E6"/>
<path d="M163.846 89.841H154.197C153.835 89.8415 153.476 89.7702 153.141 89.6314C152.806 89.4926 152.501 89.2889 152.245 89.0319C151.989 88.775 151.785 88.4698 151.646 88.1339C151.508 87.798 151.436 87.4379 151.436 87.0743C151.436 86.7106 151.508 86.3506 151.646 86.0147C151.785 85.6788 151.989 85.3736 152.245 85.1166C152.501 84.8597 152.806 84.656 153.141 84.5172C153.476 84.3783 153.835 84.3071 154.197 84.3076H163.846C164.577 84.3086 165.277 84.6005 165.793 85.1193C166.309 85.638 166.599 86.3412 166.599 87.0743C166.599 87.8074 166.309 88.5106 165.793 89.0293C165.277 89.5481 164.577 89.84 163.846 89.841Z" fill="white"/>
<path d="M163.846 89.841H154.197C153.835 89.8415 153.476 89.7702 153.141 89.6314C152.806 89.4926 152.501 89.2889 152.245 89.0319C151.989 88.775 151.785 88.4698 151.646 88.1339C151.508 87.798 151.436 87.4379 151.436 87.0743C151.436 86.7106 151.508 86.3506 151.646 86.0147C151.785 85.6788 151.989 85.3736 152.245 85.1166C152.501 84.8597 152.806 84.656 153.141 84.5172C153.476 84.3783 153.835 84.3071 154.197 84.3076H163.846C164.577 84.3086 165.277 84.6005 165.793 85.1193C166.309 85.638 166.599 86.3412 166.599 87.0743C166.599 87.8074 166.309 88.5106 165.793 89.0293C165.277 89.5481 164.577 89.84 163.846 89.841Z" fill="#CCCCCC"/>
<path d="M168.778 257.747H59.1907C57.6375 257.746 56.1484 257.126 55.0501 256.023C53.9518 254.921 53.334 253.427 53.3323 251.868V216.593C53.334 215.034 53.9518 213.54 55.0501 212.438C56.1484 211.336 57.6375 210.716 59.1907 210.714H168.778C170.331 210.716 171.82 211.336 172.918 212.438C174.017 213.54 174.634 215.034 174.636 216.593V251.868C174.634 253.427 174.017 254.921 172.918 256.023C171.82 257.126 170.331 257.746 168.778 257.747ZM59.1907 211.406C57.8202 211.407 56.5063 211.954 55.5373 212.927C54.5682 213.899 54.0231 215.218 54.0215 216.593V251.868C54.0231 253.244 54.5682 254.562 55.5373 255.535C56.5063 256.507 57.8202 257.054 59.1907 257.056H168.778C170.148 257.054 171.462 256.507 172.431 255.535C173.4 254.562 173.945 253.244 173.947 251.868V216.593C173.945 215.218 173.4 213.899 172.431 212.927C171.462 211.954 170.148 211.407 168.778 211.406H59.1907Z" fill="#CCCCCC"/>
<path d="M128.355 232.329H90.1031C89.3719 232.329 88.6707 232.038 88.1537 231.519C87.6367 231 87.3462 230.296 87.3462 229.563C87.3462 228.829 87.6367 228.125 88.1537 227.606C88.6707 227.087 89.3719 226.796 90.1031 226.796H128.355C129.086 226.797 129.786 227.089 130.302 227.608C130.818 228.126 131.108 228.829 131.108 229.563C131.108 230.296 130.818 230.999 130.302 231.518C129.786 232.036 129.086 232.328 128.355 232.329Z" fill="#E6E6E6"/>
<path d="M163.85 241.666H90.1028C89.3723 241.665 88.672 241.373 88.1558 240.854C87.6396 240.336 87.3496 239.633 87.3496 238.899C87.3496 238.166 87.6396 237.463 88.1558 236.944C88.672 236.426 89.3723 236.134 90.1028 236.133H163.85C164.581 236.133 165.282 236.424 165.799 236.943C166.317 237.462 166.607 238.166 166.607 238.899C166.607 239.633 166.317 240.337 165.799 240.856C165.282 241.375 164.581 241.666 163.85 241.666Z" fill="#E6E6E6"/>
<path d="M71.7 244.607C77.4097 244.607 82.0384 239.961 82.0384 234.231C82.0384 228.502 77.4097 223.856 71.7 223.856C65.9902 223.856 61.3616 228.502 61.3616 234.231C61.3616 239.961 65.9902 244.607 71.7 244.607Z" fill="#E6E6E6"/>
<path d="M163.846 252.906H154.197C153.466 252.906 152.765 252.615 152.248 252.096C151.731 251.577 151.44 250.874 151.44 250.14C151.44 249.406 151.731 248.702 152.248 248.183C152.765 247.665 153.466 247.373 154.197 247.373H163.846C164.577 247.374 165.277 247.666 165.793 248.185C166.31 248.703 166.599 249.407 166.599 250.14C166.599 250.873 166.31 251.576 165.793 252.095C165.277 252.614 164.577 252.905 163.846 252.906Z" fill="white"/>
<path d="M163.846 252.906H154.197C153.466 252.906 152.765 252.615 152.248 252.096C151.731 251.577 151.44 250.874 151.44 250.14C151.44 249.406 151.731 248.702 152.248 248.183C152.765 247.665 153.466 247.373 154.197 247.373H163.846C164.577 247.374 165.277 247.666 165.793 248.185C166.31 248.703 166.599 249.407 166.599 250.14C166.599 250.873 166.31 251.576 165.793 252.095C165.277 252.614 164.577 252.905 163.846 252.906Z" fill="#CCCCCC"/>
<path d="M168.778 323.275H59.1907C57.6375 323.273 56.1484 322.653 55.0501 321.551C53.9518 320.449 53.334 318.954 53.3323 317.396V282.12C53.334 280.562 53.9518 279.067 55.0501 277.965C56.1484 276.863 57.6375 276.243 59.1907 276.241H168.778C170.331 276.243 171.82 276.863 172.918 277.965C174.017 279.067 174.634 280.562 174.636 282.12V317.396C174.634 318.954 174.017 320.449 172.918 321.551C171.82 322.653 170.331 323.273 168.778 323.275ZM59.1907 276.933C57.8202 276.934 56.5063 277.481 55.5373 278.454C54.5682 279.426 54.0231 280.745 54.0215 282.12V317.396C54.0231 318.771 54.5682 320.089 55.5373 321.062C56.5063 322.034 57.8202 322.582 59.1907 322.583H168.778C170.148 322.582 171.462 322.034 172.431 321.062C173.4 320.089 173.945 318.771 173.947 317.396V282.12C173.945 280.745 173.4 279.426 172.431 278.454C171.462 277.481 170.148 276.934 168.778 276.933H59.1907Z" fill="#CCCCCC"/>
<path d="M128.355 297.856H90.1031C89.3719 297.856 88.6707 297.564 88.1537 297.045C87.6367 296.526 87.3462 295.823 87.3462 295.089C87.3462 294.355 87.6367 293.651 88.1537 293.133C88.6707 292.614 89.3719 292.322 90.1031 292.322H128.355C129.086 292.323 129.786 292.615 130.302 293.134C130.818 293.653 131.108 294.356 131.108 295.089C131.108 295.822 130.818 296.525 130.302 297.044C129.786 297.563 129.086 297.855 128.355 297.856Z" fill="#E6E6E6"/>
<path d="M163.85 307.194H90.1028C89.3723 307.193 88.672 306.901 88.1558 306.382C87.6396 305.863 87.3496 305.16 87.3496 304.427C87.3496 303.694 87.6396 302.991 88.1558 302.472C88.672 301.953 89.3723 301.661 90.1028 301.66H163.85C164.581 301.66 165.282 301.952 165.799 302.471C166.317 302.989 166.607 303.693 166.607 304.427C166.607 305.161 166.317 305.864 165.799 306.383C165.282 306.902 164.581 307.194 163.85 307.194Z" fill="#E6E6E6"/>
<path d="M71.7 310.133C77.4097 310.133 82.0384 305.488 82.0384 299.758C82.0384 294.028 77.4097 289.383 71.7 289.383C65.9902 289.383 61.3616 294.028 61.3616 299.758C61.3616 305.488 65.9902 310.133 71.7 310.133Z" fill="#E6E6E6"/>
<path d="M163.846 318.433H154.197C153.466 318.433 152.765 318.141 152.248 317.622C151.731 317.104 151.44 316.4 151.44 315.666C151.44 314.932 151.731 314.229 152.248 313.71C152.765 313.191 153.466 312.899 154.197 312.899H163.846C164.577 312.9 165.277 313.192 165.793 313.711C166.31 314.23 166.599 314.933 166.599 315.666C166.599 316.399 166.31 317.102 165.793 317.621C165.277 318.14 164.577 318.432 163.846 318.433Z" fill="white"/>
<path d="M163.846 318.433H154.197C153.466 318.433 152.765 318.141 152.248 317.622C151.731 317.104 151.44 316.4 151.44 315.666C151.44 314.932 151.731 314.229 152.248 313.71C152.765 313.191 153.466 312.899 154.197 312.899H163.846C164.577 312.9 165.277 313.192 165.793 313.711C166.31 314.23 166.599 314.933 166.599 315.666C166.599 316.399 166.31 317.102 165.793 317.621C165.277 318.14 164.577 318.432 163.846 318.433Z" fill="#CCCCCC"/>
<path d="M100.513 383.056H106.624L109.53 359.402L100.512 359.403L100.513 383.056Z" fill="#FFB8B8"/>
<path d="M98.9539 381.053L110.988 381.053H110.988C111.996 381.053 112.993 381.252 113.923 381.639C114.854 382.025 115.699 382.592 116.411 383.307C117.124 384.021 117.688 384.87 118.074 385.804C118.459 386.737 118.658 387.738 118.658 388.749V388.999L98.9543 389L98.9539 381.053Z" fill="#2F2E41"/>
<path d="M76.0894 383.056H82.2002L85.107 359.402L76.0884 359.403L76.0894 383.056Z" fill="#FFB8B8"/>
<path d="M74.5305 381.053L86.5646 381.053H86.5651C87.5722 381.053 88.5695 381.252 89.5 381.639C90.4304 382.025 91.2759 382.592 91.988 383.307C92.7002 384.021 93.2651 384.87 93.6505 385.804C94.0359 386.737 94.2343 387.738 94.2343 388.749V388.999L74.5309 389L74.5305 381.053Z" fill="#2F2E41"/>
<path d="M101.732 219.299C108.493 219.299 113.974 213.799 113.974 207.014C113.974 200.229 108.493 194.729 101.732 194.729C94.9712 194.729 89.4902 200.229 89.4902 207.014C89.4902 213.799 94.9712 219.299 101.732 219.299Z" fill="#FFB8B8"/>
<path d="M109.965 377.95H98.6248C98.328 377.95 98.0341 377.891 97.7602 377.776C97.4863 377.661 97.2379 377.493 97.0293 377.281C96.8206 377.069 96.656 376.817 96.5449 376.541C96.4338 376.265 96.3785 375.969 96.3821 375.671L97.041 321.634C97.0434 321.442 96.9724 321.257 96.8426 321.116C96.7129 320.975 96.5342 320.889 96.3434 320.876C96.1525 320.863 95.964 320.924 95.8167 321.047C95.6693 321.169 95.5743 321.343 95.5512 321.534L88.9516 375.971C88.8849 376.517 88.6218 377.019 88.2117 377.383C87.8016 377.748 87.2729 377.949 86.7251 377.95H75.2764C74.9671 377.95 74.6612 377.886 74.3778 377.761C74.0944 377.637 73.8397 377.455 73.6297 377.227C73.4197 376.999 73.2589 376.73 73.1575 376.437C73.0561 376.144 73.0162 375.833 73.0403 375.523L80.6003 278.447L80.8058 278.424L117.006 274.501L112.205 375.806C112.178 376.384 111.93 376.929 111.513 377.329C111.096 377.728 110.541 377.95 109.965 377.95Z" fill="#2F2E41"/>
<path d="M81.0411 284.407C80.4595 284.406 79.9012 284.178 79.4841 283.771C79.0671 283.364 78.824 282.81 78.8061 282.227C78.6085 276.089 78.2699 254.85 82.2065 239.257C83.2808 234.998 85.6923 231.198 89.0846 228.42C92.4769 225.642 96.6699 224.033 101.044 223.831C105.349 223.596 109.618 224.726 113.247 227.062C116.876 229.399 119.679 232.823 121.259 236.848C127.876 253.707 134.128 274.487 126.334 277.746C116.119 282.017 89.1889 283.921 81.1787 284.403C81.1326 284.406 81.0867 284.407 81.0411 284.407Z" fill="url(#paint3_linear)"/>
<path d="M127.83 194.596C128.022 194.795 128.23 194.978 128.451 195.143L127.166 219.916L121.82 222.663L124.896 231.3L134.83 227.361C135.632 227.043 136.31 226.472 136.762 225.734C137.214 224.996 137.415 224.131 137.335 223.269L134.732 195.168C135.584 194.53 136.222 193.648 136.561 192.637C136.901 191.627 136.926 190.537 136.633 189.512C136.34 188.487 135.743 187.576 134.921 186.9C134.1 186.224 133.093 185.814 132.034 185.727C130.975 185.639 129.914 185.877 128.994 186.409C128.073 186.941 127.335 187.741 126.879 188.704C126.422 189.667 126.269 190.747 126.439 191.799C126.609 192.852 127.094 193.827 127.83 194.596H127.83Z" fill="#FFB8B8"/>
<path d="M127.267 220.839L131.027 231.562C131.134 231.868 131.174 232.192 131.145 232.514C131.116 232.836 131.018 233.148 130.857 233.429C130.697 233.71 130.478 233.952 130.216 234.14C129.954 234.329 129.654 234.458 129.338 234.519L118.25 236.674C116.691 237.215 114.983 237.113 113.499 236.391C112.014 235.669 110.876 234.386 110.333 232.824C109.79 231.261 109.887 229.546 110.603 228.054C111.318 226.563 112.593 225.417 114.149 224.869L124.105 219.595C124.39 219.444 124.704 219.357 125.026 219.338C125.348 219.32 125.67 219.372 125.97 219.49C126.27 219.608 126.541 219.79 126.765 220.022C126.989 220.255 127.16 220.534 127.267 220.839V220.839Z" fill="url(#paint4_linear)"/>
<path d="M74.8029 194.596C74.6105 194.795 74.4029 194.978 74.1819 195.143L75.467 219.916L80.8123 222.663L77.7366 231.3L67.8029 227.361C67.0004 227.043 66.3224 226.472 65.8707 225.734C65.419 224.996 65.218 224.131 65.2979 223.269L67.9003 195.168C67.0487 194.53 66.4107 193.648 66.0712 192.637C65.7318 191.627 65.7068 190.537 65.9998 189.512C66.2927 188.487 66.8896 187.576 67.7112 186.9C68.5327 186.224 69.5399 185.814 70.5988 185.727C71.6577 185.639 72.7181 185.877 73.639 186.409C74.5598 186.941 75.2975 187.741 75.7539 188.704C76.2103 189.667 76.3637 190.747 76.1939 191.799C76.024 192.852 75.5388 193.827 74.8029 194.596Z" fill="#FFB8B8"/>
<path d="M76.6629 219.49C76.9629 219.372 77.2849 219.32 77.6067 219.338C77.9285 219.357 78.2426 219.444 78.5276 219.595L88.4832 224.869C90.0391 225.418 91.3145 226.563 92.0298 228.055C92.7452 229.546 92.842 231.261 92.2991 232.824C91.7563 234.387 90.618 235.67 89.1339 236.392C87.6498 237.113 85.941 237.215 84.3823 236.674L73.2944 234.52C72.978 234.458 72.6785 234.329 72.4163 234.141C72.1541 233.953 71.9354 233.71 71.7751 233.429C71.6148 233.149 71.5167 232.837 71.4873 232.515C71.458 232.192 71.4982 231.868 71.6052 231.563L75.3655 220.839C75.4723 220.534 75.6435 220.255 75.8675 220.022C76.0914 219.79 76.3627 219.608 76.6629 219.49Z" fill="url(#paint5_linear)"/>
<path d="M106.487 209.108C106.423 207.541 106.815 205.989 107.615 204.641C108.415 203.294 109.589 202.21 110.993 201.521C114.714 199.593 117.052 195.481 116.028 191.726C114.717 186.92 108.198 183.803 102.916 185.456C101.487 185.966 100.108 186.608 98.7989 187.377L95.3482 189.233C93.8741 189.973 92.4529 190.815 91.0946 191.753C89.0601 193.257 87.4654 195.283 86.4773 197.617C85.4891 199.951 85.1437 202.509 85.4771 205.023C86.1567 209.909 89.3453 214.391 93.7101 217.459C95.3793 218.711 97.3072 219.571 99.3517 219.975C101.444 220.321 103.773 219.928 105.303 218.622C107.693 216.582 107.446 213.165 106.673 210.311C106.571 209.917 106.509 209.514 106.487 209.108Z" fill="#2F2E41"/>
</g>
<defs>
<linearGradient id="paint0_linear" x1="100.454" y1="139.837" x2="100.454" y2="149.781" gradientUnits="userSpaceOnUse">
<stop stop-color="#E31266"/>
<stop offset="0.466667" stop-color="#F8493C"/>
<stop offset="1" stop-color="#F4943E"/>
</linearGradient>
<linearGradient id="paint1_linear" x1="132.349" y1="156.617" x2="132.349" y2="166.561" gradientUnits="userSpaceOnUse">
<stop stop-color="#E31266"/>
<stop offset="0.466667" stop-color="#F8493C"/>
<stop offset="1" stop-color="#F4943E"/>
</linearGradient>
<linearGradient id="paint2_linear" x1="33.0092" y1="134.554" x2="33.0092" y2="171.845" gradientUnits="userSpaceOnUse">
<stop stop-color="#E31266"/>
<stop offset="0.466667" stop-color="#F8493C"/>
<stop offset="1" stop-color="#F4943E"/>
</linearGradient>
<linearGradient id="paint3_linear" x1="104.327" y1="223.801" x2="104.327" y2="284.407" gradientUnits="userSpaceOnUse">
<stop stop-color="#E31266"/>
<stop offset="0.466667" stop-color="#F8493C"/>
<stop offset="1" stop-color="#F4943E"/>
</linearGradient>
<linearGradient id="paint4_linear" x1="120.57" y1="219.335" x2="120.57" y2="237.017" gradientUnits="userSpaceOnUse">
<stop stop-color="#E31266"/>
<stop offset="0.466667" stop-color="#F8493C"/>
<stop offset="1" stop-color="#F4943E"/>
</linearGradient>
<linearGradient id="paint5_linear" x1="82.0622" y1="219.335" x2="82.0622" y2="237.017" gradientUnits="userSpaceOnUse">
<stop stop-color="#E31266"/>
<stop offset="0.466667" stop-color="#F8493C"/>
<stop offset="1" stop-color="#F4943E"/>
</linearGradient>
<clipPath id="clip0">
<rect width="218" height="389" fill="white"/>
</clipPath>
</defs>
</svg>
