<svg width="526" height="380" viewBox="0 0 526 380" fill="none" xmlns="http://www.w3.org/2000/svg">
<g clip-path="url(#clip0)">
<path opacity="0.2" d="M135.405 221.742C135.405 221.742 136.509 243.826 89.4136 271.064C89.4136 271.064 89.3577 271.185 434.167 271.064C434.167 271.064 394.798 243.09 392.222 211.804" fill="black"/>
<path d="M390.764 205.953V20.3739C392.984 19.7988 394.95 18.5023 396.354 16.6882C397.758 14.874 398.519 12.6448 398.52 10.3506C398.52 8.99131 398.252 7.64537 397.732 6.38958C397.212 5.13379 396.45 3.99274 395.489 3.0316C394.528 2.07046 393.388 1.30805 392.132 0.787883C390.877 0.267719 389.532 -3.13566e-06 388.173 0H139.857C138.498 -2.35174e-06 137.153 0.267719 135.897 0.787883C134.642 1.30805 133.502 2.07047 132.541 3.03161C131.58 3.99275 130.818 5.13379 130.298 6.38958C129.778 7.64537 129.51 8.99131 129.51 10.3506C129.51 13.0957 130.601 15.7285 132.541 17.6696C134.481 19.6107 137.113 20.7012 139.857 20.7012H139.859L134.11 206.118L87.9551 265.214C87.9551 265.214 87.5671 265.215 432.708 265.214C432.708 265.214 432.465 265.812 390.764 205.953Z" fill="#E6E6E6"/>
<path opacity="0.2" d="M273.353 244.365C315.341 244.365 349.378 241.745 349.378 238.514C349.378 235.283 315.341 232.664 273.353 232.664C231.366 232.664 197.329 235.283 197.329 238.514C197.329 241.745 231.366 244.365 273.353 244.365Z" fill="black"/>
<path opacity="0.2" d="M139.857 20.7016L390.764 28.0118L390.873 20.2515L139.857 20.7016Z" fill="black"/>
<path d="M321.144 85.7844V108.601C321.143 108.812 321.059 109.014 320.91 109.163C320.761 109.312 320.559 109.396 320.348 109.396H319.782V228.255C319.782 231.544 318.476 234.699 316.151 237.025C313.826 239.35 310.673 240.657 307.386 240.657H233.147C231.519 240.657 229.907 240.336 228.404 239.713C226.9 239.089 225.533 238.176 224.383 237.024C223.232 235.873 222.319 234.505 221.696 233.001C221.074 231.496 220.753 229.884 220.753 228.255V113.565H220.344C220.195 113.565 220.052 113.507 219.947 113.402C219.841 113.297 219.782 113.155 219.781 113.006V100.02C219.781 99.9465 219.796 99.8733 219.824 99.805C219.852 99.7368 219.894 99.6747 219.946 99.6225C219.998 99.5702 220.06 99.5287 220.128 99.5005C220.197 99.4722 220.27 99.4576 220.344 99.4576H220.753V94.5664H220.34C220.184 94.5658 220.035 94.5033 219.925 94.3926C219.815 94.2819 219.753 94.132 219.753 93.9759V81.1677C219.754 81.0121 219.816 80.863 219.926 80.753C220.036 80.643 220.185 80.581 220.34 80.5806H220.753V73.9037H220.333C220.265 73.9038 220.197 73.8904 220.134 73.8643C220.071 73.8381 220.013 73.7997 219.965 73.7513C219.916 73.7029 219.878 73.6454 219.852 73.5822C219.826 73.5189 219.812 73.4511 219.812 73.3827V66.3932C219.812 66.2546 219.867 66.1215 219.964 66.0232C220.062 65.9248 220.195 65.8693 220.333 65.8687H220.753V51.716C220.754 48.4278 222.059 45.2744 224.384 42.9493C226.708 40.6242 229.86 39.3179 233.147 39.3177H307.386C310.673 39.3177 313.825 40.6239 316.15 42.9489C318.475 45.2739 319.782 48.4275 319.782 51.716V84.9889H320.348C320.559 84.9895 320.761 85.0735 320.91 85.2225C321.059 85.3716 321.143 85.5736 321.144 85.7844Z" fill="#3F3D56"/>
<path d="M273.843 45.6772H261.78C261.292 45.6772 260.897 46.0726 260.897 46.5603V47.6034C260.897 48.091 261.292 48.4864 261.78 48.4864H273.843C274.33 48.4864 274.726 48.091 274.726 47.6034V46.5603C274.726 46.0726 274.33 45.6772 273.843 45.6772Z" fill="#E6E8EC"/>
<path d="M278.409 48.6752C279.289 48.6752 280.002 47.9619 280.002 47.0819C280.002 46.2019 279.289 45.4885 278.409 45.4885C277.53 45.4885 276.816 46.2019 276.816 47.0819C276.816 47.9619 277.53 48.6752 278.409 48.6752Z" fill="#E6E8EC"/>
<path d="M313.846 54.1685V229.284C313.845 231.37 313.016 233.37 311.541 234.845C310.066 236.32 308.066 237.148 305.981 237.148H234.916C233.883 237.15 232.86 236.948 231.905 236.553C230.95 236.159 230.082 235.58 229.352 234.849C228.621 234.118 228.042 233.251 227.647 232.296C227.252 231.341 227.049 230.317 227.051 229.284V54.1685C227.051 53.1352 227.254 52.112 227.649 51.1574C228.045 50.2027 228.624 49.3353 229.354 48.6047C230.085 47.874 230.952 47.2944 231.906 46.899C232.86 46.5036 233.883 46.3001 234.916 46.3002H245.552V47.6654C245.552 49.3837 246.235 51.0316 247.449 52.2466C248.664 53.4616 250.311 54.1442 252.029 54.1442H288.17C289.888 54.1442 291.535 53.4616 292.75 52.2466C293.964 51.0316 294.647 49.3837 294.647 47.6654V46.3002H305.981C307.014 46.2998 308.037 46.5031 308.991 46.8984C309.946 47.2937 310.813 47.8733 311.543 48.604C312.274 49.3347 312.853 50.2022 313.248 51.157C313.643 52.1118 313.846 53.1351 313.846 54.1685Z" fill="white"/>
<path d="M306.708 161.584H234.479V170.964H306.708V161.584Z" fill="#E6E6E6"/>
<path d="M306.708 178.259H234.479V187.638H306.708V178.259Z" fill="#E6E6E6"/>
<path d="M306.708 194.933H234.479V204.313H306.708V194.933Z" fill="#E6E6E6"/>
<path d="M306.563 94.1908H234.334V142.13H306.563V94.1908Z" fill="#E6E6E6"/>
<path d="M136.446 28L99.4055 28.2302C99.4055 28.2302 38.4388 60.6819 81.2305 127.887C81.2305 127.887 98.7153 123.744 118.041 138.014C118.041 138.014 129.314 30.5317 136.446 28Z" fill="url(#paint0_linear)"/>
<path opacity="0.2" d="M124.515 27.9076C117.879 55.6379 110.377 127.16 110.377 127.16C93.1115 114.411 77.3261 116.358 74.1553 116.918C76.0256 120.623 78.0825 124.23 80.3181 127.726C80.3181 127.726 97.8028 123.583 117.128 137.853C117.128 137.853 128.401 30.3708 135.533 27.8391L124.515 27.9076Z" fill="black"/>
<path d="M80.0882 62.3242L76.8671 77.975L36.3899 70.6146L36.3762 70.6099L35.4561 52.1976H43.2783L80.0882 62.3242Z" fill="#3F3D56"/>
<path opacity="0.2" d="M42.6249 52.1976L36.3899 70.6146L36.3762 70.6099L35.4561 52.1976H42.6249Z" fill="black"/>
<path d="M78.7077 79.8162C81.2489 79.8162 83.309 75.0762 83.309 69.2291C83.309 63.382 81.2489 58.642 78.7077 58.642C76.1665 58.642 74.1064 63.382 74.1064 69.2291C74.1064 75.0762 76.1665 79.8162 78.7077 79.8162Z" fill="#3F3D56"/>
<path d="M54.781 292.965C54.5963 292.965 54.4134 292.928 54.2427 292.858C54.0721 292.787 53.917 292.683 53.7864 292.553C53.6558 292.422 53.5522 292.267 53.4815 292.096C53.4109 291.926 53.3745 291.743 53.3745 291.558V69.2291C53.3745 68.856 53.5227 68.4981 53.7864 68.2342C54.0502 67.9704 54.4079 67.8221 54.7809 67.8221C55.1539 67.8221 55.5117 67.9704 55.7754 68.2342C56.0392 68.4981 56.1873 68.856 56.1873 69.2291V291.558C56.1874 291.743 56.151 291.926 56.0803 292.096C56.0097 292.267 55.9061 292.422 55.7755 292.553C55.6449 292.683 55.4898 292.787 55.3192 292.858C55.1485 292.928 54.9657 292.965 54.781 292.965Z" fill="#3F3D56"/>
<path d="M74.105 332.091C73.779 332.091 73.4633 331.977 73.2118 331.77C72.9604 331.562 72.7887 331.274 72.7263 330.954L53.401 231.844C53.3386 231.524 53.3893 231.192 53.5444 230.905C53.6995 230.618 53.9494 230.394 54.2513 230.271C54.5532 230.148 54.8884 230.134 55.1996 230.231C55.5108 230.328 55.7788 230.53 55.9575 230.803L107.031 308.738C107.236 309.05 107.308 309.431 107.232 309.796C107.156 310.162 106.938 310.482 106.626 310.687C106.314 310.891 105.934 310.964 105.569 310.888C105.204 310.812 104.883 310.594 104.679 310.282L57.5334 238.341L75.4869 330.415C75.5223 330.596 75.5217 330.783 75.485 330.964C75.4483 331.145 75.3763 331.317 75.2731 331.471C75.1699 331.624 75.0376 331.755 74.8836 331.857C74.7297 331.959 74.5571 332.03 74.3758 332.066C74.2866 332.083 74.1959 332.091 74.105 332.091Z" fill="#3F3D56"/>
<path d="M1.40531 314.599C1.15184 314.599 0.90316 314.53 0.685571 314.4C0.467982 314.27 0.289573 314.084 0.169204 313.86C0.0488346 313.637 -0.00902101 313.386 0.00176169 313.132C0.0125444 312.879 0.0915587 312.633 0.230454 312.421L53.6051 230.947C53.8098 230.636 54.1297 230.418 54.4944 230.343C54.8592 230.267 55.2391 230.339 55.5507 230.543C55.8623 230.748 56.0801 231.067 56.1564 231.432C56.2326 231.797 56.1611 232.177 55.9575 232.489L2.58291 313.963C2.45497 314.159 2.28028 314.32 2.07466 314.431C1.86904 314.542 1.63897 314.6 1.40531 314.599Z" fill="#3F3D56"/>
<path d="M390 28L427.04 28.2302C427.04 28.2302 488.007 60.6819 445.215 127.887C445.215 127.887 427.73 123.744 408.405 138.014C408.405 138.014 397.132 30.5317 390 28Z" fill="url(#paint1_linear)"/>
<path opacity="0.2" d="M401.485 27.9076C408.121 55.6379 415.623 127.16 415.623 127.16C432.888 114.411 448.674 116.358 451.845 116.918C449.974 120.623 447.917 124.23 445.682 127.726C445.682 127.726 428.197 123.583 408.872 137.853C408.872 137.853 397.599 30.3708 390.467 27.8391L401.485 27.9076Z" fill="black"/>
<path d="M445.912 62.3242L449.133 77.975L489.61 70.6146L489.624 70.6099L490.544 52.1976H482.722L445.912 62.3242Z" fill="#3F3D56"/>
<path opacity="0.2" d="M483.375 52.1976L489.61 70.6146L489.624 70.6099L490.544 52.1976H483.375Z" fill="black"/>
<path d="M447.292 79.8162C449.833 79.8162 451.893 75.0762 451.893 69.2291C451.893 63.382 449.833 58.642 447.292 58.642C444.751 58.642 442.691 63.382 442.691 69.2291C442.691 75.0762 444.751 79.8162 447.292 79.8162Z" fill="#3F3D56"/>
<path d="M471.219 292.965C471.034 292.965 470.851 292.928 470.681 292.858C470.51 292.787 470.355 292.683 470.224 292.553C470.094 292.422 469.99 292.267 469.92 292.096C469.849 291.926 469.812 291.743 469.813 291.558V69.2291C469.813 68.856 469.961 68.4981 470.224 68.2342C470.488 67.9704 470.846 67.8221 471.219 67.8221C471.592 67.8221 471.95 67.9704 472.213 68.2342C472.477 68.4981 472.625 68.856 472.625 69.2291V291.558C472.625 291.743 472.589 291.926 472.518 292.096C472.448 292.267 472.344 292.422 472.213 292.553C472.083 292.683 471.928 292.787 471.757 292.858C471.587 292.928 471.404 292.965 471.219 292.965Z" fill="#3F3D56"/>
<path d="M451.896 332.091C451.805 332.091 451.714 332.083 451.625 332.066C451.259 331.994 450.936 331.78 450.728 331.471C450.519 331.161 450.442 330.781 450.513 330.415L468.467 238.34L421.322 310.282C421.22 310.436 421.09 310.569 420.937 310.673C420.784 310.777 420.613 310.85 420.432 310.888C420.251 310.925 420.064 310.927 419.883 310.892C419.701 310.858 419.528 310.788 419.374 310.687C419.22 310.585 419.087 310.455 418.983 310.302C418.879 310.149 418.806 309.977 418.768 309.796C418.731 309.615 418.729 309.429 418.763 309.247C418.798 309.066 418.868 308.893 418.969 308.738L470.043 230.803C470.222 230.53 470.49 230.328 470.801 230.231C471.112 230.134 471.447 230.148 471.749 230.271C472.051 230.394 472.301 230.618 472.456 230.905C472.611 231.192 472.662 231.524 472.6 231.844L453.275 330.954C453.212 331.274 453.04 331.562 452.789 331.77C452.537 331.977 452.222 332.091 451.896 332.091Z" fill="#3F3D56"/>
<path d="M524.595 314.599C524.361 314.6 524.131 314.542 523.925 314.431C523.72 314.32 523.545 314.159 523.417 313.963L470.043 232.489C469.839 232.177 469.767 231.797 469.844 231.432C469.92 231.067 470.138 230.748 470.449 230.543C470.761 230.339 471.141 230.267 471.506 230.343C471.87 230.418 472.19 230.636 472.395 230.947L525.77 312.421C525.909 312.633 525.988 312.879 525.998 313.132C526.009 313.386 525.951 313.637 525.831 313.86C525.71 314.084 525.532 314.27 525.314 314.4C525.097 314.53 524.848 314.599 524.595 314.599Z" fill="#3F3D56"/>
<path d="M230.943 195.374L241.02 192.567C241.02 192.567 244.967 191.779 242.555 184.067C240.143 176.355 235.36 178.514 235.36 178.514L226.421 181.112L222.892 182.202L227.857 189.171L228.274 193.817L230.943 195.374Z" fill="#3F3D56"/>
<path d="M211.471 174.998L208.31 187.632L224.509 203.337L225.902 203.687L229.617 202.643L232.779 190.009L229.576 186.64L232.85 185.782L225.864 178.998L222.219 179.763L219.295 176.859L221.268 176.07L221.454 175.327L219.064 173.445L211.471 174.998Z" fill="#3F3D56"/>
<path d="M226.649 192.817L224.556 201.178L214.901 192.047L217.319 183.57L226.649 192.817Z" fill="#F4943E"/>
<path d="M211.472 174.998L211.028 176.77L227.137 192.446L228.529 192.795L232.129 191.821L232.327 191.816L232.779 190.009L229.576 186.64L232.85 185.782L225.864 178.998L222.219 179.763L219.295 176.859L221.268 176.07L221.455 175.327L219.064 173.445L211.472 174.998Z" stroke="#3F3D56" stroke-miterlimit="10"/>
<path d="M220.212 175.164C220.334 174.676 219.851 174.136 219.133 173.956C218.415 173.776 217.734 174.025 217.612 174.513C217.49 175 217.974 175.541 218.692 175.721C219.41 175.901 220.09 175.651 220.212 175.164Z" fill="#F4943E"/>
<path d="M230.446 188.685C230.568 188.197 230.085 187.656 229.367 187.477C228.649 187.297 227.968 187.546 227.846 188.033C227.724 188.521 228.208 189.062 228.925 189.242C229.643 189.421 230.324 189.172 230.446 188.685Z" fill="#F4943E"/>
<path d="M237.638 211.112L235.441 203.637C235.441 203.637 241.154 190.007 234.562 188.688C227.969 187.369 227.53 201.439 227.53 201.439L230.167 209.793L237.638 211.112Z" fill="#FFB6B6"/>
<path d="M196.839 196.578C206.481 196.578 214.297 188.759 214.297 179.113C214.297 169.467 206.481 161.648 196.839 161.648C187.197 161.648 179.38 169.467 179.38 179.113C179.38 188.759 187.197 196.578 196.839 196.578Z" fill="#FFB6B6"/>
<path d="M202.486 191.442C202.486 191.442 203.513 204.284 206.081 205.311C208.648 206.338 178.353 213.53 178.353 213.53L186.055 204.797C186.055 204.797 187.596 191.442 184.001 188.359L202.486 191.442Z" fill="#FFB6B6"/>
<path d="M226.925 207.031L233.957 206.152C233.957 206.152 242.307 210.549 242.307 216.264C242.307 221.98 247.142 231.213 247.142 231.213C247.142 231.213 250.658 243.524 242.747 244.404C234.836 245.283 227.804 231.213 227.804 231.213L226.925 207.031Z" fill="url(#paint2_linear)"/>
<path d="M231.046 277.063C231.046 277.063 246.428 262.554 250.823 263.433C255.218 264.312 264.008 265.631 264.008 272.227C264.008 278.822 249.505 294.21 249.505 294.21C249.505 294.21 238.517 318.393 227.969 319.272C221.03 319.902 214.134 320.929 207.313 322.35C207.313 322.35 212.147 339.937 209.51 344.773C206.873 349.61 196.765 355.325 195.886 354.886C195.007 354.446 182.7 343.014 177.426 326.746C172.152 310.478 168.636 298.167 173.471 297.288C178.305 296.409 231.046 277.063 231.046 277.063Z" fill="#2F2E41"/>
<path d="M262.69 270.907C262.69 270.907 265.766 270.468 265.327 277.942C264.887 285.417 263.569 312.237 261.371 317.513C259.174 322.789 258.734 328.945 259.613 331.143C260.492 333.341 262.25 336.859 259.174 337.299C256.097 337.738 243.352 335.98 242.033 335.54C240.715 335.1 239.396 327.626 240.275 327.626C241.154 327.626 243.352 327.186 242.473 324.108C241.594 321.031 241.154 321.031 242.473 320.151C243.791 319.272 247.307 317.953 246.428 317.073C245.549 316.194 244.67 295.529 244.67 295.529L262.69 270.907Z" fill="#2F2E41"/>
<path d="M258.295 335.98C258.295 335.98 265.766 333.781 266.645 338.618C266.645 338.618 267.964 346.092 262.25 348.73C258.563 350.473 255.034 352.533 251.702 354.886C251.702 354.886 242.473 358.403 242.033 354.006C241.594 349.61 243.791 333.781 243.791 333.781L258.295 335.98Z" fill="#2F2E41"/>
<path d="M208.631 341.256L194.567 329.824C194.567 329.824 197.204 343.894 193.688 346.532L192.082 351.229L196.579 354.91C196.579 354.91 210.389 352.687 208.631 341.256Z" fill="#2F2E41"/>
<path d="M188.853 321.91C188.853 321.91 198.083 324.548 196.764 333.781C195.446 343.014 193.755 353.046 193.755 353.046C193.755 353.046 193.248 377.749 186.656 379.508C180.063 381.266 178.305 377.749 178.305 377.749C178.305 377.749 170.811 358.445 173.031 352.687C175.718 345.718 179.59 337.893 178.305 335.54C177.041 333.225 179.184 320.591 188.853 321.91Z" fill="#2F2E41"/>
<path d="M183.415 200.436C183.415 200.436 186.931 200.876 192.644 201.755C198.358 202.634 202.313 198.238 205.39 199.117C208.466 199.996 233.957 206.152 233.957 206.152L230.002 236.489C230.002 236.489 234.836 271.663 233.957 277.819C233.078 283.974 244.505 283.095 237.913 290.57C231.32 298.044 219.893 304.639 196.6 302.441C173.306 300.242 170.23 300.682 170.23 297.165C170.23 293.647 175.504 263.749 173.746 261.111C171.988 258.473 168.472 255.395 170.23 252.318C171.988 249.24 173.746 247.481 171.109 244.843C168.472 242.205 167.153 239.567 167.153 238.248C167.153 236.929 161 215.385 161 215.385C161 215.385 163.637 204.833 166.714 204.393C169.79 203.953 172.427 201.755 174.625 201.755C176.822 201.755 178.141 202.195 179.459 201.755L183.415 200.436Z" fill="url(#paint3_linear)"/>
<path d="M225.726 172.987C225.5 171.971 224.393 168.574 222.143 167.745C220.496 167.138 217.433 168.42 215.907 168.207L215.71 167.648C215.58 166.547 215.305 165.468 214.894 164.439C214.088 162.38 212.875 160.505 211.327 158.927C209.78 157.349 207.929 156.099 205.887 155.254C200.862 153.152 192.913 151.414 186.016 156.921C176.544 164.485 178.213 175.804 178.901 178.944C179.016 179.468 179.114 179.995 179.196 180.526C179.621 183.292 180.844 183.622 180.844 183.622C180.844 183.622 180.818 183.542 180.775 183.397L189.331 184.23L193.957 183.44C194.034 183.893 194.064 184.16 194.064 184.16C207.562 182.096 215.418 174.984 216.693 173.75C217.815 174.494 219.903 175.708 221.929 175.975C224.895 176.365 225.952 174.004 225.726 172.987ZM190.946 179.788L180.076 179.392C179.922 176.424 180.688 172.953 185.057 172.776C189.27 172.605 191.569 176.032 192.788 179.169L190.946 179.788Z" fill="#2F2E41"/>
<path d="M193.786 154.408C194.833 154.229 195.627 153.763 195.559 153.367C195.491 152.97 194.588 152.794 193.541 152.973C192.494 153.152 191.7 153.618 191.768 154.014C191.836 154.41 192.739 154.587 193.786 154.408Z" fill="#2F2E41"/>
</g>
<defs>
<linearGradient id="paint0_linear" x1="101.223" y1="28" x2="101.223" y2="138.014" gradientUnits="userSpaceOnUse">
<stop stop-color="#E31266"/>
<stop offset="0.544792" stop-color="#F8493C"/>
<stop offset="1" stop-color="#F4943E"/>
</linearGradient>
<linearGradient id="paint1_linear" x1="425.223" y1="28" x2="425.223" y2="138.014" gradientUnits="userSpaceOnUse">
<stop stop-color="#F4943E"/>
<stop offset="0.0001" stop-color="#E31266"/>
<stop offset="0.482292" stop-color="#F8493C"/>
<stop offset="1" stop-color="#F4943E"/>
</linearGradient>
<linearGradient id="paint2_linear" x1="237.423" y1="206.152" x2="237.423" y2="244.443" gradientUnits="userSpaceOnUse">
<stop stop-color="#E31266"/>
<stop offset="0.523958" stop-color="#F8493C"/>
<stop offset="1" stop-color="#F4943E"/>
</linearGradient>
<linearGradient id="paint3_linear" x1="200.486" y1="199" x2="200.486" y2="302.87" gradientUnits="userSpaceOnUse">
<stop stop-color="#E31266"/>
<stop offset="0.523958" stop-color="#F8493C"/>
<stop offset="1" stop-color="#F4943E"/>
</linearGradient>
<clipPath id="clip0">
<rect width="526" height="380" fill="white"/>
</clipPath>
</defs>
</svg>
