<svg width="527" height="433" viewBox="0 0 527 433" fill="none" xmlns="http://www.w3.org/2000/svg">
<path d="M527 419.762C527.161 436.631 420.898 438.177 418.874 419.763C418.713 402.894 524.976 401.349 527 419.762Z" fill="#E6E6E6"/>
<path d="M443.861 361.199L435.964 365.508L440.989 382.027L448.886 382.745L453.194 373.409L443.861 361.199Z" fill="#9F616A"/>
<path d="M468.271 394.237V402.136L480.475 401.418L480.305 394.912L468.271 394.237Z" fill="#9F616A"/>
<path d="M440.989 266.396L445.297 320.262L458.937 399.263L480.475 396.391L473.296 333.907L476.168 276.451L440.989 266.396Z" fill="#2F2E41"/>
<path d="M498.255 226.162L446.564 226.88L440.82 266.382L475.999 282.9L484.614 314.501L440.82 361.184L458.05 382.731C458.05 382.731 482.46 349.693 500.408 331.02C518.357 312.347 509.741 255.608 509.741 255.608L498.255 226.162Z" fill="#2F2E41"/>
<path d="M467.553 124.192C476.276 124.192 483.347 117.118 483.347 108.391C483.347 99.6649 476.276 92.5908 467.553 92.5908C458.829 92.5908 451.758 99.6649 451.758 108.391C451.758 117.118 458.829 124.192 467.553 124.192Z" fill="#9F616A"/>
<path d="M461.809 119.164V134.965L472.578 152.202C472.578 152.202 489.09 139.992 485.501 137.119C481.911 134.247 481.193 111.982 481.193 111.982L461.809 119.164Z" fill="#9F616A"/>
<path d="M461.809 132.092L451.04 145.019L455.348 234.794L489.09 234.076L494.834 155.793L487.655 135.683L482.73 128.98L474.014 142.146L461.809 132.092Z" fill="#D0CDE1"/>
<path d="M444.41 178.761L436.512 208.925L444.41 239.09L431.487 256.327L420 201.743C420 201.743 428.615 157.215 429.333 152.187C430.051 147.16 431.487 146.441 431.487 146.441L437.23 147.16L444.41 178.761Z" fill="#2F2E41"/>
<path d="M501.844 190.251L506.869 199.589L508.306 215.389L505.434 233.344L515.485 249.863L525.535 204.616L514.767 146.441H510.459L501.844 190.251Z" fill="#2F2E41"/>
<path d="M440.989 360.481C440.989 360.481 430.938 363.354 427.348 364.072C423.759 364.79 429.502 378.436 429.502 378.436C429.502 378.436 433.092 397.109 433.81 400.7C434.528 404.291 439.553 416.501 446.015 417.937C452.476 419.374 448.168 392.8 448.168 392.8C448.168 392.8 451.04 384.182 451.04 381.309C451.04 378.436 446.733 379.872 446.733 379.872C435.246 378.436 440.989 360.481 440.989 360.481Z" fill="#2F2E41"/>
<path d="M464.681 415.783C465.399 420.092 463.963 420.092 475.45 421.528C486.937 422.965 484.065 413.628 484.065 413.628C483.585 409.226 482.622 404.891 481.193 400.7C479.039 394.955 467.553 402.137 467.553 402.137C467.553 402.137 463.963 411.473 464.681 415.783Z" fill="#2F2E41"/>
<path d="M481.212 112.484L481.586 118.871C481.586 118.871 486.219 108.391 486.937 97.618C487.655 86.845 475.45 84.6904 468.27 83.9722C461.091 83.254 448.886 88.2814 448.886 94.027C448.886 99.7727 461.809 98.3363 466.835 96.8999C471.86 95.4635 474.014 107.673 474.014 107.673L476.886 108.391L481.212 112.484Z" fill="#2F2E41"/>
<path d="M457.572 137.178L461.809 132.092L474.014 142.147L461.809 150.765L457.572 137.178Z" fill="#D0CDE1"/>
<path d="M487.655 135.683L482.629 129.219L474.014 142.147L484.783 150.047L487.655 135.683Z" fill="#D0CDE1"/>
<path d="M442.256 188.815L445.128 216.107L439.384 232.626L435.795 248.426C435.795 248.426 435.795 263.509 450.153 264.227C464.512 264.945 476.717 218.98 476.717 218.98C476.717 218.98 478.871 229.035 480.306 234.781C481.742 240.526 506.152 263.509 506.152 263.509C506.152 263.509 511.895 262.791 516.921 251.299C521.946 239.808 506.87 229.035 506.87 229.035L502.562 213.953L503.998 195.279L514.049 146.441L484.255 131L487.486 172.297L476.717 204.616L460.563 133.155L455.179 137.105L432.205 146.441L442.256 188.815Z" fill="#2F2E41"/>
<path d="M158.692 297.46C157.273 297.449 155.837 297.439 154.426 297.395L154.47 295.973C155.866 296.016 157.293 296.035 158.692 296.036C160.098 296.036 161.531 296.013 162.952 295.968L162.997 297.389C161.561 297.436 160.113 297.46 158.692 297.46ZM145.874 296.859C143.042 296.59 140.182 296.227 137.373 295.779L137.597 294.373C140.376 294.817 143.206 295.177 146.008 295.442L145.874 296.859ZM171.549 296.843L171.413 295.427C174.214 295.159 177.044 294.795 179.823 294.348L180.049 295.753C177.24 296.205 174.38 296.572 171.549 296.843H171.549ZM128.958 294.155C126.185 293.526 123.395 292.797 120.665 291.99L121.069 290.626C123.769 291.424 126.529 292.144 129.273 292.766L128.958 294.155ZM188.462 294.119L188.146 292.732C190.896 292.104 193.655 291.381 196.347 290.581L196.752 291.946C194.031 292.754 191.241 293.485 188.462 294.119H188.462ZM112.528 289.297C109.852 288.313 107.175 287.231 104.571 286.078L105.146 284.777C107.723 285.917 110.371 286.988 113.019 287.961L112.528 289.297ZM204.885 289.241L204.394 287.906C207.025 286.936 209.664 285.865 212.238 284.723L212.816 286.024C210.213 287.179 207.545 288.261 204.885 289.241H204.885ZM96.8397 282.353C94.3215 281.038 91.8067 279.62 89.366 278.14L90.1037 276.923C92.5188 278.388 95.0064 279.79 97.4979 281.091L96.8397 282.353ZM220.525 282.301L219.866 281.039C222.352 279.739 224.834 278.338 227.242 276.873L227.981 278.089C225.547 279.57 223.038 280.986 220.525 282.301H220.525ZM82.1795 273.458C79.8471 271.829 77.5355 270.102 75.3084 268.326L76.1955 267.213C78.399 268.971 80.6862 270.679 82.9936 272.29L82.1795 273.458ZM235.156 273.407L234.341 272.241C236.648 270.628 238.932 268.92 241.13 267.163L242.018 268.275C239.796 270.05 237.487 271.777 235.156 273.407ZM68.7794 262.766C66.671 260.851 64.5981 258.845 62.6193 256.804L63.6405 255.813C65.5984 257.832 67.6495 259.817 69.736 261.712L68.7794 262.766ZM248.54 262.716L247.583 261.663C249.664 259.772 251.713 257.786 253.674 255.761L254.695 256.751C252.714 258.798 250.643 260.805 248.54 262.716ZM56.852 250.463C55.0059 248.298 53.206 246.045 51.5016 243.769L52.6405 242.915C54.3269 245.168 56.1077 247.397 57.9344 249.539L56.852 250.463ZM260.461 250.404L259.379 249.481C261.205 247.337 262.986 245.106 264.672 242.85L265.812 243.702C264.108 245.982 262.308 248.237 260.461 250.404V250.404ZM46.5899 236.747C45.0334 234.363 43.5357 231.9 42.138 229.428L43.3766 228.728C44.759 231.174 46.2411 233.61 47.7812 235.969L46.5899 236.747ZM270.725 236.67L269.533 235.893C271.074 233.529 272.556 231.089 273.939 228.638L275.178 229.337C273.78 231.815 272.282 234.282 270.725 236.67ZM38.1651 221.841C36.9272 219.279 35.7577 216.647 34.6892 214.016L36.0071 213.481C37.0644 216.083 38.2214 218.687 39.4461 221.221L38.1651 221.841ZM279.152 221.73L277.871 221.111C279.096 218.573 280.253 215.962 281.312 213.347L282.63 213.881C281.56 216.524 280.39 219.165 279.152 221.73ZM31.7195 205.973C30.8195 203.27 29.9974 200.505 29.2756 197.754L30.6518 197.393C31.3655 200.114 32.179 202.85 33.0693 205.523L31.7195 205.973ZM285.594 205.823L284.244 205.375C285.129 202.704 285.939 199.968 286.652 197.241L288.028 197.601C287.308 200.357 286.489 203.123 285.594 205.823ZM27.367 189.397C26.8234 186.604 26.3635 183.757 25.9998 180.934L27.4107 180.752C27.7706 183.545 28.2256 186.362 28.7633 189.124L27.367 189.397ZM289.927 189.24L288.531 188.971C289.064 186.209 289.516 183.391 289.873 180.595L291.284 180.776C290.924 183.602 290.467 186.449 289.927 189.24V189.24ZM25.1773 172.401C24.995 169.564 24.9008 166.681 24.8977 163.831L26.3204 163.83C26.3235 166.65 26.4166 169.502 26.5972 172.309L25.1773 172.401ZM292.097 172.242L290.677 172.152C290.854 169.348 290.944 166.495 290.944 163.674L290.943 163.362H292.366L292.367 163.669C292.367 166.525 292.276 169.407 292.097 172.242ZM26.5774 155.351L25.1575 155.264C25.3339 152.421 25.6039 149.55 25.9599 146.728L27.3715 146.906C27.0189 149.699 26.7518 152.54 26.5774 155.351ZM290.658 154.884C290.473 152.071 290.196 149.231 289.834 146.443L291.244 146.259C291.61 149.077 291.891 151.947 292.078 154.791L290.658 154.884ZM28.7039 138.531L27.3069 138.262C27.8435 135.469 28.4792 132.655 29.1954 129.9L30.5722 130.257C29.8637 132.984 29.235 135.767 28.7039 138.531ZM288.47 138.072C287.928 135.307 287.289 132.525 286.572 129.805L287.948 129.442C288.673 132.192 289.318 135.003 289.867 137.798L288.47 138.072ZM32.971 122.122L31.6198 121.676C32.5128 118.971 33.5069 116.258 34.575 113.612L35.8942 114.145C34.8376 116.763 33.8542 119.447 32.971 122.122ZM284.146 121.678C283.253 119.007 282.262 116.331 281.2 113.724L282.517 113.187C283.591 115.822 284.593 118.526 285.496 121.226L284.146 121.678ZM39.3259 106.376L38.0435 105.759C39.2776 103.192 40.6121 100.632 42.0095 98.1478L43.2495 98.8462C41.8667 101.303 40.5468 103.837 39.3259 106.376ZM277.752 105.988C276.527 103.461 275.202 100.937 273.812 98.4858L275.05 97.784C276.454 100.261 277.794 102.812 279.032 105.367L277.752 105.988ZM47.6468 91.5851L46.454 90.8088C48.0056 88.4231 49.6558 86.055 51.3585 83.7711L52.4992 84.6217C50.8146 86.8816 49.1817 89.2243 47.6468 91.5851ZM269.399 91.2501C267.86 88.898 266.222 86.5627 264.531 84.309L265.669 83.4549C267.378 85.7329 269.034 88.0933 270.59 90.4703L269.399 91.2501ZM57.785 77.9846L56.7013 77.0631C58.5439 74.8945 60.4811 72.7569 62.4588 70.7099L63.4821 71.6988C61.5252 73.7242 59.6085 75.8393 57.785 77.9846ZM259.23 77.6913C257.401 75.5519 255.478 73.4431 253.516 71.4236L254.536 70.4319C256.519 72.4726 258.462 74.604 260.311 76.7663L259.23 77.6913ZM69.5665 65.7893L68.6085 64.7372C70.7137 62.8188 72.9062 60.9455 75.1243 59.1699L76.0135 60.2812C73.8186 62.038 71.6495 63.8914 69.5665 65.7893ZM247.413 65.5311C245.327 63.6419 243.152 61.7941 240.947 60.0393L241.833 58.9253C244.061 60.6992 246.26 62.5665 248.368 64.4762L247.413 65.5311ZM82.7967 55.1959L81.9805 54.0305C84.3083 52.3984 86.7203 50.8205 89.1492 49.3403L89.8894 50.5557C87.4865 52.0203 85.0999 53.5815 82.7967 55.1959ZM234.143 54.9693C231.827 53.3567 229.433 51.8007 227.028 50.3445L227.764 49.1269C230.195 50.5985 232.616 52.1711 234.956 53.8011L234.143 54.9693ZM97.2614 46.3805L96.6007 45.1198C99.1158 43.8001 101.708 42.5444 104.305 41.3876L104.884 42.6879C102.314 43.8321 99.7501 45.0747 97.2614 46.3805ZM219.629 46.1852C217.13 44.8843 214.556 43.6476 211.976 42.5093L212.55 41.2069C215.158 42.3574 217.76 43.6076 220.286 44.9225L219.629 46.1852ZM112.725 39.4953L112.231 38.1603C114.899 37.1731 117.634 36.2599 120.362 35.4465L120.768 36.8107C118.07 37.6151 115.364 38.5185 112.725 39.4953H112.725ZM204.1 39.3337C201.456 38.366 198.746 37.4723 196.048 36.678L196.449 35.3124C199.177 36.1154 201.916 37.0188 204.589 37.9973L204.1 39.3337ZM128.967 34.6512L128.65 33.264C131.417 32.6296 134.247 32.0767 137.06 31.6198L137.288 33.025C134.505 33.4767 131.705 34.0236 128.967 34.6512ZM187.841 34.5476C185.097 33.9291 182.296 33.3919 179.513 32.9506L179.736 31.5447C182.549 31.9909 185.38 32.534 188.153 33.1591L187.841 34.5476ZM145.697 31.9357L145.559 30.5194C148.384 30.2452 151.261 30.0579 154.11 29.963L154.157 31.3856C151.338 31.4794 148.491 31.6646 145.697 31.9357ZM171.101 31.8915C168.302 31.6299 165.455 31.4548 162.639 31.371L162.681 29.9485C165.527 30.0333 168.405 30.2101 171.234 30.4746L171.101 31.8915Z" fill="#D0CDE1"/>
<path d="M153.653 66.8928C172.117 66.8928 187.086 51.9184 187.086 33.4464C187.086 14.9745 172.117 0 153.653 0C135.188 0 120.219 14.9745 120.219 33.4464C120.219 51.9184 135.188 66.8928 153.653 66.8928Z" fill="url(#paint0_linear)"/>
<path d="M283.119 157.981C301.584 157.981 316.553 143.007 316.553 124.535C316.553 106.063 301.584 91.0881 283.119 91.0881C264.654 91.0881 249.685 106.063 249.685 124.535C249.685 143.007 264.654 157.981 283.119 157.981Z" fill="url(#paint1_linear)"/>
<path d="M242.572 297.46C261.037 297.46 276.006 282.485 276.006 264.013C276.006 245.541 261.037 230.567 242.572 230.567C224.107 230.567 209.138 245.541 209.138 264.013C209.138 282.485 224.107 297.46 242.572 297.46Z" fill="url(#paint2_linear)"/>
<path d="M81.8057 303.153C100.271 303.153 115.239 288.178 115.239 269.706C115.239 251.234 100.271 236.26 81.8057 236.26C63.3408 236.26 48.3721 251.234 48.3721 269.706C48.3721 288.178 63.3408 303.153 81.8057 303.153Z" fill="url(#paint3_linear)"/>
<path d="M33.4337 157.981C51.8986 157.981 66.8673 143.007 66.8673 124.535C66.8673 106.063 51.8986 91.0881 33.4337 91.0881C14.9688 91.0881 0 106.063 0 124.535C0 143.007 14.9688 157.981 33.4337 157.981Z" fill="url(#paint4_linear)"/>
<path d="M167.98 30.78H156.318C155.258 30.78 154.241 30.3586 153.491 29.6084C152.741 28.8583 152.32 27.8409 152.32 26.7801V15.1138C152.32 15.0701 152.311 15.0267 152.294 14.9863C152.278 14.9458 152.253 14.9091 152.222 14.8781C152.191 14.8472 152.154 14.8226 152.114 14.8059C152.074 14.7891 152.03 14.7805 151.987 14.7805H144.323C142.909 14.7805 141.553 15.3424 140.553 16.3426C139.554 17.3427 138.992 18.6992 138.992 20.1137V46.7794C138.992 48.1938 139.554 49.5504 140.553 50.5505C141.553 51.5507 142.909 52.1126 144.323 52.1126H162.982C164.396 52.1126 165.752 51.5507 166.752 50.5505C167.751 49.5504 168.313 48.1938 168.313 46.7794V31.1133C168.313 31.0695 168.305 31.0262 168.288 30.9857C168.271 30.9453 168.246 30.9085 168.216 30.8776C168.185 30.8466 168.148 30.8221 168.107 30.8053C168.067 30.7886 168.024 30.78 167.98 30.78ZM160.316 44.1128H146.989C146.635 44.1128 146.296 43.9724 146.046 43.7223C145.796 43.4723 145.656 43.1332 145.656 42.7795C145.656 42.4259 145.796 42.0868 146.046 41.8368C146.296 41.5867 146.635 41.4463 146.989 41.4463H160.316C160.67 41.4463 161.009 41.5867 161.259 41.8368C161.509 42.0868 161.649 42.4259 161.649 42.7795C161.649 43.1332 161.509 43.4723 161.259 43.7223C161.009 43.9724 160.67 44.1128 160.316 44.1128ZM160.316 37.4464H146.989C146.635 37.4464 146.296 37.3059 146.046 37.0559C145.796 36.8058 145.656 36.4667 145.656 36.1131C145.656 35.7595 145.796 35.4204 146.046 35.1703C146.296 34.9203 146.635 34.7798 146.989 34.7798H160.316C160.67 34.7798 161.009 34.9203 161.259 35.1703C161.509 35.4204 161.649 35.7595 161.649 36.1131C161.649 36.4667 161.509 36.8058 161.259 37.0559C161.009 37.3059 160.67 37.4464 160.316 37.4464Z" fill="white"/>
<path d="M167.249 27.8291L155.269 15.8453C155.246 15.8222 155.216 15.8064 155.184 15.8C155.152 15.7937 155.119 15.797 155.088 15.8095C155.058 15.8221 155.032 15.8433 155.014 15.8706C154.995 15.8979 154.985 15.93 154.985 15.9628V26.78C154.985 27.1336 155.126 27.4727 155.376 27.7227C155.626 27.9728 155.965 28.1133 156.318 28.1133H167.131C167.164 28.1131 167.196 28.1033 167.223 28.0849C167.251 28.0666 167.272 28.0406 167.284 28.0103C167.297 27.9799 167.3 27.9465 167.294 27.9143C167.288 27.882 167.272 27.8524 167.249 27.8291L167.249 27.8291Z" fill="white"/>
<path d="M247.408 257.425C246.998 257.425 246.601 257.567 246.284 257.827C245.967 258.088 245.75 258.45 245.671 258.852C245.591 259.254 245.653 259.672 245.846 260.033C246.04 260.395 246.353 260.678 246.731 260.835C247.11 260.992 247.531 261.012 247.924 260.893C248.316 260.774 248.655 260.522 248.882 260.181C249.11 259.84 249.212 259.431 249.172 259.023C249.131 258.615 248.951 258.233 248.661 257.943C248.496 257.779 248.301 257.648 248.086 257.559C247.871 257.47 247.64 257.424 247.408 257.425Z" fill="white"/>
<path d="M257.272 250.336V250.33C257.216 250.084 257.092 249.859 256.915 249.679C256.737 249.5 256.513 249.373 256.267 249.314C254.289 248.832 251.177 249.346 247.728 250.728C244.412 252.017 241.378 253.939 238.794 256.387C238.088 257.089 237.433 257.84 236.832 258.634C235.506 258.542 234.175 258.756 232.944 259.259C229.111 260.946 228.016 265.265 227.725 267.038C227.683 267.29 227.699 267.548 227.773 267.793C227.847 268.037 227.976 268.262 228.151 268.448C228.326 268.634 228.541 268.778 228.78 268.867C229.019 268.957 229.276 268.99 229.53 268.964H229.538L233.808 268.498C233.814 268.552 233.82 268.602 233.824 268.648C233.879 269.169 234.111 269.654 234.482 270.024L236.565 272.11C236.934 272.481 237.42 272.713 237.94 272.768L238.083 272.783L237.618 277.05V277.058C237.596 277.275 237.616 277.494 237.679 277.703C237.741 277.912 237.844 278.107 237.981 278.276C238.119 278.445 238.288 278.586 238.48 278.69C238.671 278.793 238.882 278.858 239.098 278.881C239.15 278.886 239.201 278.889 239.252 278.889C239.344 278.889 239.437 278.882 239.528 278.867C241.31 278.58 245.625 277.498 247.307 273.643C247.806 272.415 248.02 271.091 247.935 269.768C248.732 269.169 249.485 268.513 250.189 267.806C252.634 265.246 254.557 262.234 255.852 258.939C257.225 255.528 257.743 252.391 257.272 250.336ZM250.165 261.95C249.619 262.497 248.924 262.869 248.168 263.02C247.411 263.171 246.626 263.094 245.913 262.799C245.2 262.504 244.591 262.004 244.162 261.362C243.733 260.72 243.503 259.966 243.503 259.194C243.503 258.422 243.731 257.667 244.159 257.025C244.588 256.383 245.197 255.883 245.91 255.587C246.622 255.291 247.407 255.213 248.164 255.364C248.921 255.514 249.616 255.885 250.162 256.431L250.165 256.434C250.896 257.154 251.311 258.136 251.319 259.163C251.327 260.19 250.926 261.177 250.206 261.909L250.165 261.95Z" fill="white"/>
<path d="M236.327 272.676C236.07 272.644 235.81 272.707 235.596 272.853C235.172 273.143 234.746 273.43 234.316 273.71C234.129 273.83 233.907 273.884 233.686 273.863C233.465 273.842 233.257 273.747 233.097 273.594C232.936 273.441 232.831 273.238 232.799 273.018C232.768 272.798 232.811 272.574 232.922 272.382L233.728 270.987C233.843 270.818 233.908 270.62 233.913 270.415C233.918 270.211 233.865 270.009 233.759 269.835C233.652 269.66 233.498 269.52 233.314 269.431C233.13 269.342 232.925 269.308 232.722 269.333C231.827 269.446 230.994 269.854 230.356 270.492C230.113 270.736 229.375 271.476 228.977 274.295C228.864 275.105 228.792 275.92 228.763 276.737C228.76 276.876 228.783 277.015 228.834 277.145C228.884 277.276 228.959 277.395 229.055 277.496C229.151 277.597 229.266 277.678 229.393 277.735C229.521 277.792 229.658 277.823 229.798 277.826C229.807 277.827 229.816 277.827 229.825 277.827H229.852C230.669 277.798 231.485 277.727 232.295 277.614C235.114 277.216 235.854 276.476 236.097 276.233C236.738 275.594 237.145 274.758 237.251 273.859C237.285 273.58 237.207 273.298 237.034 273.076C236.86 272.854 236.606 272.71 236.327 272.676Z" fill="white"/>
<path d="M70.2995 287.881H67.8771C67.3952 287.881 66.9331 287.69 66.5924 287.349C66.2517 287.008 66.0603 286.546 66.0603 286.064V275.159C66.0603 274.677 66.2517 274.214 66.5924 273.874C66.9331 273.533 67.3952 273.341 67.8771 273.341H70.2995C70.7813 273.341 71.2434 273.533 71.5842 273.874C71.9249 274.214 72.1163 274.677 72.1163 275.159V286.064C72.1163 286.546 71.9249 287.008 71.5842 287.349C71.2434 287.69 70.7813 287.881 70.2995 287.881Z" fill="white"/>
<path d="M87.2562 287.881H84.8338C84.3519 287.881 83.8898 287.69 83.5491 287.349C83.2084 287.008 83.017 286.546 83.017 286.064V267.889C83.017 267.407 83.2084 266.944 83.5491 266.604C83.8898 266.263 84.3519 266.071 84.8338 266.071H87.2562C87.738 266.071 88.2001 266.263 88.5408 266.604C88.8815 266.944 89.073 267.407 89.073 267.889V286.064C89.073 286.546 88.8815 287.008 88.5408 287.349C88.2001 287.69 87.738 287.881 87.2562 287.881Z" fill="white"/>
<path d="M95.7345 287.881H93.3122C92.8303 287.881 92.3682 287.689 92.0275 287.349C91.6868 287.008 91.4954 286.546 91.4954 286.063V259.407C91.4954 258.925 91.6868 258.463 92.0275 258.122C92.3682 257.781 92.8303 257.59 93.3122 257.59H95.7345C96.2164 257.59 96.6785 257.781 97.0192 258.122C97.3599 258.463 97.5513 258.925 97.5513 259.407V286.063C97.5513 286.546 97.3599 287.008 97.0192 287.349C96.6785 287.689 96.2164 287.881 95.7345 287.881Z" fill="white"/>
<path d="M78.7778 287.881H76.3555C75.8736 287.881 75.4115 287.69 75.0708 287.349C74.7301 287.008 74.5387 286.546 74.5387 286.064V253.349C74.5387 252.867 74.7301 252.405 75.0708 252.064C75.4115 251.723 75.8736 251.531 76.3555 251.531H78.7779C79.2597 251.531 79.7218 251.723 80.0625 252.064C80.4033 252.405 80.5947 252.867 80.5947 253.349V286.064C80.5947 286.302 80.5477 286.539 80.4564 286.759C80.3651 286.98 80.2312 287.18 80.0625 287.349C79.8938 287.518 79.6935 287.651 79.4731 287.743C79.2527 287.834 79.0164 287.881 78.7778 287.881Z" fill="white"/>
<path d="M284.721 123.659L282.99 121.927C282.594 121.53 282.056 121.306 281.496 121.305C280.935 121.303 280.397 121.524 279.998 121.919L267.966 133.027C267.524 133.418 267.254 133.968 267.213 134.556C267.2 134.849 267.248 135.141 267.353 135.414C267.458 135.687 267.618 135.935 267.824 136.144L270.409 138.758L270.413 138.763C270.813 139.161 271.353 139.386 271.917 139.388H271.996C272.288 139.371 272.574 139.297 272.837 139.17C273.101 139.043 273.337 138.865 273.531 138.647L284.713 126.665C285.113 126.269 285.339 125.73 285.341 125.167C285.344 124.605 285.122 124.064 284.726 123.664L284.721 123.659Z" fill="white"/>
<path d="M298.63 120.158L298.609 120.138L296.338 117.888C296.205 117.756 296.047 117.651 295.873 117.58C295.699 117.508 295.513 117.472 295.325 117.473C295.02 117.474 294.724 117.57 294.477 117.748C294.477 117.719 294.481 117.692 294.483 117.667C294.575 117.086 294.452 116.492 294.138 115.995C293.638 115.32 293.088 114.683 292.495 114.089L292.489 114.084C290.829 112.49 288.877 111.231 286.741 110.374C285.625 109.916 284.43 109.681 283.223 109.681C281.661 109.667 280.143 110.199 278.931 111.185C278.586 111.515 278.271 111.875 277.991 112.261C277.857 112.446 277.786 112.669 277.789 112.898C277.792 113.126 277.869 113.347 278.008 113.529C278.147 113.71 278.341 113.842 278.56 113.904C278.78 113.966 279.014 113.956 279.227 113.875C279.413 113.805 279.603 113.747 279.796 113.7C280.198 113.615 280.61 113.59 281.019 113.624C281.867 113.713 282.68 114.011 283.384 114.492C283.779 114.825 284.094 115.243 284.303 115.715C284.513 116.187 284.613 116.701 284.595 117.217C284.3 118.055 283.851 118.831 283.269 119.503C283.114 119.708 283.038 119.961 283.056 120.217C283.074 120.473 283.184 120.714 283.365 120.896L285.646 123.177C285.838 123.369 286.096 123.481 286.367 123.488C286.638 123.496 286.902 123.399 287.104 123.218C287.749 122.642 288.732 121.773 289.075 121.561C289.368 121.364 289.701 121.233 290.049 121.176C290.309 121.151 290.57 121.206 290.798 121.334C290.799 121.345 290.798 121.357 290.794 121.368C290.79 121.378 290.785 121.388 290.777 121.397L290.656 121.512L290.637 121.53C290.369 121.797 290.218 122.16 290.217 122.538C290.216 122.917 290.366 123.28 290.633 123.548L290.64 123.555L292.911 125.804C293.044 125.936 293.202 126.041 293.376 126.112C293.55 126.183 293.736 126.219 293.924 126.218C294.301 126.219 294.663 126.071 294.932 125.807L298.611 122.172C298.624 122.159 298.636 122.146 298.648 122.133C298.895 121.862 299.03 121.508 299.027 121.142C299.023 120.776 298.881 120.424 298.63 120.158Z" fill="white"/>
<path d="M38.7421 122.543C38.4796 122.543 38.2231 122.465 38.0048 122.319C37.7866 122.174 37.6165 121.966 37.5161 121.724C37.4156 121.481 37.3893 121.214 37.4405 120.957C37.4917 120.699 37.6181 120.462 37.8037 120.277L40.8466 117.233L37.8037 114.189C37.5548 113.94 37.415 113.602 37.415 113.25C37.415 112.898 37.5548 112.56 37.8037 112.311C38.0526 112.062 38.3901 111.922 38.7421 111.922C39.0941 111.922 39.4316 112.062 39.6805 112.311L43.6618 116.294C43.785 116.417 43.8828 116.564 43.9495 116.725C44.0162 116.886 44.0505 117.058 44.0505 117.233C44.0505 117.407 44.0162 117.58 43.9495 117.741C43.8828 117.902 43.785 118.048 43.6618 118.171L39.6805 122.154C39.5574 122.278 39.4111 122.376 39.2501 122.442C39.089 122.509 38.9164 122.543 38.7421 122.543Z" fill="white"/>
<path d="M17.5085 126.526C17.3342 126.526 17.1616 126.492 17.0006 126.425C16.8396 126.358 16.6933 126.26 16.5701 126.137C16.4468 126.014 16.3491 125.867 16.2824 125.706C16.2157 125.545 16.1814 125.373 16.1814 125.198V123.871C16.1918 121.762 17.0335 119.742 18.5237 118.251C20.0139 116.76 22.0321 115.916 24.14 115.905H41.3962C41.7482 115.905 42.0858 116.045 42.3346 116.294C42.5835 116.543 42.7233 116.881 42.7233 117.233C42.7233 117.585 42.5835 117.922 42.3346 118.171C42.0858 118.42 41.7482 118.56 41.3962 118.56H24.144C22.738 118.569 21.392 119.131 20.3982 120.126C19.4044 121.121 18.8429 122.468 18.8356 123.875V125.198C18.8356 125.373 18.8013 125.545 18.7346 125.706C18.6679 125.867 18.5701 126.014 18.4469 126.137C18.3237 126.26 18.1774 126.358 18.0164 126.425C17.8554 126.492 17.6828 126.526 17.5085 126.526Z" fill="white"/>
<path d="M28.1253 137.147C27.951 137.147 27.7784 137.113 27.6173 137.046C27.4563 136.979 27.31 136.881 27.1869 136.758L23.2056 132.775C23.0824 132.652 22.9846 132.505 22.9179 132.344C22.8512 132.183 22.8169 132.011 22.8169 131.836C22.8169 131.662 22.8512 131.489 22.9179 131.328C22.9846 131.167 23.0824 131.021 23.2056 130.898L27.1869 126.915C27.4359 126.666 27.7733 126.527 28.125 126.527C28.4768 126.527 28.8141 126.667 29.0628 126.916C29.3116 127.165 29.4513 127.502 29.4515 127.854C29.4517 128.206 29.3122 128.543 29.0637 128.792L26.0209 131.836L29.0637 134.88C29.2493 135.066 29.3757 135.303 29.4269 135.56C29.4781 135.818 29.4518 136.085 29.3513 136.327C29.2509 136.57 29.0808 136.777 28.8626 136.923C28.6444 137.069 28.3878 137.147 28.1253 137.147Z" fill="white"/>
<path d="M25.4711 133.164C25.1192 133.164 24.7816 133.024 24.5327 132.775C24.2839 132.526 24.144 132.189 24.144 131.836C24.144 131.484 24.2839 131.147 24.5327 130.898C24.7816 130.649 25.1192 130.509 25.4711 130.509H42.7234C44.1293 130.5 45.4753 129.938 46.4691 128.943C47.463 127.948 48.0244 126.601 48.0317 125.194V123.871C48.0317 123.519 48.1715 123.181 48.4204 122.932C48.6693 122.683 49.0069 122.543 49.3588 122.543C49.7108 122.543 50.0484 122.683 50.2972 122.932C50.5461 123.181 50.6859 123.519 50.6859 123.871V125.198C50.6755 127.307 49.8338 129.327 48.3436 130.818C46.8535 132.31 44.8352 133.153 42.7273 133.164L25.4711 133.164Z" fill="white"/>
<defs>
<linearGradient id="paint0_linear" x1="153.653" y1="0" x2="153.653" y2="66.8928" gradientUnits="userSpaceOnUse">
<stop stop-color="#E31266"/>
<stop offset="0.492708" stop-color="#F8493C"/>
<stop offset="1" stop-color="#F4943E"/>
</linearGradient>
<linearGradient id="paint1_linear" x1="283.119" y1="91.0881" x2="283.119" y2="157.981" gradientUnits="userSpaceOnUse">
<stop stop-color="#E31266"/>
<stop offset="0.492708" stop-color="#F8493C"/>
<stop offset="1" stop-color="#F4943E"/>
</linearGradient>
<linearGradient id="paint2_linear" x1="242.572" y1="230.567" x2="242.572" y2="297.46" gradientUnits="userSpaceOnUse">
<stop stop-color="#E31266"/>
<stop offset="0.492708" stop-color="#F8493C"/>
<stop offset="1" stop-color="#F4943E"/>
</linearGradient>
<linearGradient id="paint3_linear" x1="81.8057" y1="236.26" x2="81.8057" y2="303.153" gradientUnits="userSpaceOnUse">
<stop stop-color="#E31266"/>
<stop offset="0.492708" stop-color="#F8493C"/>
<stop offset="1" stop-color="#F4943E"/>
</linearGradient>
<linearGradient id="paint4_linear" x1="33.4337" y1="91.0881" x2="33.4337" y2="157.981" gradientUnits="userSpaceOnUse">
<stop stop-color="#E31266"/>
<stop offset="0.492708" stop-color="#F8493C"/>
<stop offset="1" stop-color="#F4943E"/>
</linearGradient>
</defs>
</svg>
