<svg width="32" height="30" viewBox="0 0 32 30" fill="none" xmlns="http://www.w3.org/2000/svg">
<path d="M26.0685 5.97734L23.1394 2.26527L22.5184 2.75527C21.7423 3.36769 20.6126 3.23451 20.0002 2.45838L19.5102 1.8374L2.37129 15.3613L2.86129 15.9822C3.47372 16.7584 3.34054 17.888 2.5644 18.5004L1.94342 18.9904L4.87252 22.7025L6.63886 21.3087L7.61885 22.5507L5.85251 23.9445L8.7816 27.6565L9.40257 27.1665C10.1787 26.5541 11.3083 26.6873 11.9208 27.4634L12.4108 28.0844L29.5497 14.5605L29.0597 13.9396C28.4473 13.1634 28.5805 12.0338 29.3566 11.4214L29.9776 10.9314L27.0485 7.21929L25.2821 8.61306L24.3021 7.37111L26.0685 5.97734ZM9.8198 16.9356C8.77065 15.606 9.02773 14.1679 10.1643 13.271C11.3009 12.3742 12.7594 12.4586 13.8085 13.7882C14.8661 15.1285 14.6006 16.5559 13.464 17.4527C12.3274 18.3496 10.8774 18.2759 9.8198 16.9356ZM15.453 21.4508L14.6558 9.90087L16.4679 8.471L17.2651 20.0209L15.453 21.4508ZM21.7567 16.6508C20.6201 17.5476 19.1701 17.4739 18.1125 16.1336C17.0633 14.804 17.3204 13.3659 18.457 12.469C19.5936 11.5722 21.052 11.6566 22.1012 12.9862C23.1588 14.3265 22.8933 15.7539 21.7567 16.6508Z" fill="white"/>
</svg>
