<svg width="384" height="288" viewBox="0 0 384 288" fill="none" xmlns="http://www.w3.org/2000/svg">
<g clip-path="url(#clip0)">
<path d="M321.103 146.357C321.103 146.357 316.656 139.25 317.88 131.553C319.104 123.855 325.536 118.481 325.536 118.481C325.536 118.481 329.983 125.588 328.759 133.286C327.535 140.984 321.103 146.357 321.103 146.357Z" fill="#F2F2F2"/>
<path d="M270.946 173.403C268.674 165.948 272.1 158.295 272.1 158.295C272.1 158.295 279.21 162.73 281.483 170.186C282.629 173.945 282.325 177.754 281.743 180.607C285.483 173.041 290.72 166.315 297.136 160.837C297.002 160.664 296.93 160.565 296.93 160.565C296.93 160.565 297.354 160.342 298.096 160.029C298.198 159.944 298.297 159.857 298.4 159.772C309.126 150.973 323.318 144.499 341.755 139.994C341.708 139.918 341.668 139.853 341.633 139.796C341.606 139.78 341.587 139.77 341.587 139.77L341.604 139.749C341.525 139.616 341.483 139.542 341.483 139.542C341.483 139.542 341.633 139.483 341.903 139.392C343.125 137.973 347.845 132.951 354.393 131.69C362.04 130.217 369.28 134.437 369.28 134.437C366.905 137.275 363.95 139.571 360.614 141.169C363.613 143.253 366.139 145.948 368.025 149.077C368.025 149.077 360.223 152.131 352.894 149.498C347.311 147.493 343.615 142.769 342.169 140.63C324.491 144.924 310.737 151.023 300.215 159.24C303.083 158.306 307.471 157.393 311.919 158.445C319.498 160.237 324.375 167.055 324.375 167.055C324.375 167.055 316.965 170.968 309.386 169.175C303.436 167.768 299.153 163.265 297.586 161.393C284.735 172.486 277.19 187.645 277.327 202.242C277.41 206.299 277.92 210.337 278.848 214.287C279.065 215.261 279.299 216.24 279.534 217.222C280.823 222.617 282.155 228.196 280.777 233.591C279.772 237.285 277.692 240.598 274.802 243.107L274.329 242.57C277.112 240.156 279.115 236.969 280.084 233.413C281.418 228.19 280.107 222.699 278.838 217.389C278.602 216.403 278.368 215.42 278.15 214.443C277.211 210.444 276.695 206.356 276.612 202.249C276.6 196.337 277.698 190.476 279.848 184.97C278.214 183.825 272.862 179.687 270.946 173.403Z" fill="#F2F2F2"/>
<path d="M382.96 146.195C384.955 143.013 383.995 138.814 380.816 136.817C377.637 134.82 373.442 135.781 371.447 138.964C369.452 142.146 370.412 146.344 373.591 148.341C376.77 150.338 380.965 149.377 382.96 146.195Z" fill="#F2F2F2"/>
<path d="M62.897 146.357C62.897 146.357 67.344 139.25 66.1198 131.553C64.8956 123.855 58.4639 118.481 58.4639 118.481C58.4639 118.481 54.0169 125.588 55.241 133.286C56.4652 140.984 62.897 146.357 62.897 146.357Z" fill="#F2F2F2"/>
<path d="M113.054 173.403C115.326 165.948 111.9 158.295 111.9 158.295C111.9 158.295 104.79 162.73 102.517 170.186C101.371 173.945 101.675 177.754 102.257 180.607C98.5171 173.041 93.2803 166.315 86.8644 160.837C86.9986 160.664 87.0696 160.565 87.0696 160.565C87.0696 160.565 86.646 160.342 85.9043 160.029C85.8021 159.944 85.7027 159.857 85.5999 159.772C74.8744 150.973 60.682 144.499 42.2454 139.994C42.2925 139.918 42.3326 139.853 42.3674 139.796C42.3942 139.78 42.4127 139.77 42.4127 139.77L42.3959 139.749C42.4754 139.616 42.5173 139.542 42.5173 139.542C42.5173 139.542 42.3673 139.483 42.0975 139.392C40.8749 137.973 36.1549 132.951 29.607 131.69C21.9599 130.217 14.7202 134.437 14.7202 134.437C17.0951 137.275 20.0499 139.571 23.3858 141.169C20.3868 143.253 17.8613 145.948 15.9748 149.077C15.9748 149.077 23.7771 152.131 31.1066 149.498C36.6895 147.493 40.3851 142.769 41.8306 140.63C59.5089 144.924 73.2631 151.023 83.7852 159.24C80.9174 158.306 76.5292 157.393 72.0808 158.445C64.5022 160.237 59.6249 167.055 59.6249 167.055C59.6249 167.055 67.035 170.968 74.6137 169.175C80.5637 167.768 84.8472 163.265 86.4141 161.393C99.2651 172.486 106.81 187.645 106.673 202.242C106.59 206.299 106.08 210.337 105.152 214.287C104.935 215.261 104.701 216.24 104.466 217.222C103.178 222.617 101.845 228.196 103.223 233.591C104.228 237.285 106.308 240.598 109.198 243.107L109.671 242.57C106.888 240.156 104.885 236.969 103.916 233.413C102.582 228.19 103.893 222.699 105.162 217.389C105.398 216.403 105.632 215.42 105.85 214.443C106.789 210.444 107.305 206.356 107.388 202.249C107.4 196.337 106.302 190.476 104.152 184.97C105.786 183.825 111.138 179.687 113.054 173.403Z" fill="#F2F2F2"/>
<path d="M10.4092 148.342C13.5885 146.345 14.5485 142.146 12.5534 138.964C10.5583 135.782 6.36364 134.821 3.18435 136.818C0.00505902 138.815 -0.954927 143.013 1.04015 146.196C3.03524 149.378 7.22989 150.339 10.4092 148.342Z" fill="#F2F2F2"/>
<path d="M121.74 247.026C136.088 247.026 147.719 245.086 147.719 242.692C147.719 240.299 136.088 238.358 121.74 238.358C107.393 238.358 95.7622 240.299 95.7622 242.692C95.7622 245.086 107.393 247.026 121.74 247.026Z" fill="#3F3D56"/>
<path d="M263.047 247.026C277.394 247.026 289.025 245.086 289.025 242.692C289.025 240.299 277.394 238.358 263.047 238.358C248.699 238.358 237.068 240.299 237.068 242.692C237.068 245.086 248.699 247.026 263.047 247.026Z" fill="#3F3D56"/>
<path d="M293.354 283.666C293.354 285.6 264.507 287.235 224.669 287.795C215.175 287.929 205.06 288 194.558 288C183.466 288 172.803 287.921 162.849 287.771C123.838 287.192 95.7622 285.573 95.7622 283.666C95.7622 281.861 120.819 280.321 156.476 279.663C168.194 279.45 181.061 279.332 194.558 279.332C207.461 279.332 219.785 279.442 231.085 279.635C267.569 280.274 293.354 281.838 293.354 283.666Z" fill="#3F3D56"/>
<path d="M130.923 207.766L124.899 214.465L139.289 227.865L143.305 214.8L130.923 207.766Z" fill="#A0616A"/>
<path d="M259.099 207.766L265.123 214.465L250.733 227.865L246.717 214.8L259.099 207.766Z" fill="#A0616A"/>
<path d="M171.752 96.2164L164.054 114.64C164.054 114.64 153.01 128.04 154.684 147.468L127.911 209.775L141.967 221.499L153.01 194.701C153.01 194.701 161.377 186.661 162.046 173.932L190.493 127.035L221.282 170.582C221.282 170.582 227.641 191.016 233.999 194.701L248.055 221.499L263.115 211.115L229.314 147.468C229.314 147.468 224.629 120 215.258 111.96L213.25 97.8913L189.824 86.502L171.752 96.2164Z" fill="#2F2E41"/>
<path d="M139.283 237.086C138.953 238.296 138.507 239.47 137.951 240.594C134.604 247.293 116.867 236.909 116.867 236.909C116.867 236.909 90.4285 226.859 94.4445 215.805C94.5282 215.577 94.6152 215.356 94.7123 215.145C99.1466 205.163 115.194 214.8 115.194 214.8L126.572 210.78L133.266 218.82L139.959 225.69C140.468 229.497 140.238 233.366 139.283 237.086Z" fill="#2F2E41"/>
<path d="M139.283 237.086C138.953 238.295 138.507 239.47 137.951 240.593C134.604 247.293 116.867 236.908 116.867 236.908C116.867 236.908 90.4285 226.859 94.4445 215.805C94.5282 215.577 94.6152 215.356 94.7123 215.145C99.3607 214.471 107.088 214.977 112.182 223.844C118.135 234.208 132.901 236.557 139.283 237.086Z" fill="#3F3D56"/>
<path d="M250.739 237.086C251.069 238.296 251.516 239.47 252.071 240.594C255.418 247.293 273.155 236.909 273.155 236.909C273.155 236.909 299.594 226.859 295.578 215.805C295.494 215.577 295.407 215.356 295.31 215.145C290.876 205.163 274.829 214.8 274.829 214.8L263.45 210.78L256.757 218.82L250.063 225.69C249.554 229.497 249.784 233.366 250.739 237.086Z" fill="#2F2E41"/>
<path d="M250.739 237.086C251.069 238.295 251.515 239.47 252.071 240.593C255.418 247.293 273.155 236.908 273.155 236.908C273.155 236.908 299.594 226.859 295.578 215.805C295.494 215.577 295.407 215.356 295.31 215.145C290.661 214.471 282.934 214.977 277.84 223.844C271.887 234.208 257.121 236.557 250.739 237.086Z" fill="#3F3D56"/>
<path d="M182.294 34.0777C189.502 34.0777 195.346 28.2286 195.346 21.0135C195.346 13.7983 189.502 7.94922 182.294 7.94922C175.085 7.94922 169.242 13.7983 169.242 21.0135C169.242 28.2286 175.085 34.0777 182.294 34.0777Z" fill="#A0616A"/>
<path d="M179.784 29.8901L182.461 43.6242L192.501 47.9789L200.867 36.5897L192.835 23.1904L179.784 29.8901Z" fill="#A0616A"/>
<path d="M170.827 17.8297C171.148 18.2285 171.813 18.1622 172.202 17.8301C172.561 17.4618 172.816 17.0053 172.942 16.5066C173.068 16.0079 173.326 15.5524 173.689 15.188C174.803 14.2574 176.593 15.3845 177.919 14.7926C178.898 14.3554 179.253 13.1675 179.958 12.359C181.057 11.0982 182.895 10.8645 184.56 10.7151C185.996 10.5862 187.611 10.5119 188.693 11.4658C189.654 12.3133 189.875 13.6949 190.306 14.9026C190.737 16.1104 191.734 17.3801 193.003 17.2027C193.339 17.1369 193.654 16.9926 193.924 16.7817C194.194 16.5708 194.41 16.2992 194.555 15.9889C194.839 15.3654 194.989 14.6889 194.994 14.0035C195.095 12.0591 194.768 10.1163 194.037 8.31185C193.307 6.50742 192.19 4.88529 190.765 3.5597C189.34 2.2341 187.642 1.23729 185.791 0.639469C183.94 0.0416452 181.98 -0.142655 180.05 0.0995521C179.179 0.208854 178.321 0.404049 177.466 0.598948C176.34 0.855275 175.186 1.12316 174.224 1.76084C173.352 2.33815 172.681 3.1916 171.774 3.71242C170.352 4.52957 168.449 4.47568 167.3 5.64683C166.763 6.2852 166.375 7.03578 166.166 7.84354L164.669 12.2522C164.417 12.995 164.163 13.8043 164.415 14.5474C164.745 15.5219 165.844 16.0751 166.182 17.0469C166.692 18.5152 165.246 20.1836 165.867 21.6084C166.213 22.4022 167.098 22.8157 167.945 22.9926C168.57 23.1626 169.234 23.1203 169.833 22.8726C170.668 22.4598 171.079 21.458 171.062 20.5256C170.986 19.5939 170.735 18.6848 170.323 17.8459L171.486 18.7573" fill="#2F2E41"/>
<path d="M199.757 34L224.522 46.7292L214.482 100.326C214.482 100.326 189.048 93.9615 188.713 94.2964C188.379 94.6314 166.96 100.326 166.96 100.326L160.936 48.7391L181.422 36.8794C181.422 36.8794 187.709 49.7441 199.757 34Z" fill="url(#paint0_linear)"/>
<path d="M192.59 217.674C186.167 217.674 180.199 213.069 175.786 204.708C171.52 196.625 169.17 185.909 169.17 174.533C169.17 163.158 171.52 152.442 175.786 144.359C180.199 135.998 186.167 131.393 192.59 131.393C199.013 131.393 204.981 135.998 209.394 144.359C213.661 152.442 216.01 163.158 216.01 174.533C216.01 185.909 213.661 196.625 209.394 204.708C204.981 213.069 199.013 217.674 192.59 217.674ZM192.59 134.15C187.238 134.15 182.135 138.233 178.222 145.647C174.162 153.34 171.926 163.599 171.926 174.533C171.926 185.468 174.162 195.727 178.222 203.42C182.135 210.834 187.238 214.917 192.59 214.917C197.942 214.917 203.045 210.834 206.958 203.42C211.019 195.727 213.255 185.468 213.255 174.533C213.255 163.599 211.019 153.34 206.958 145.647C203.045 138.233 197.942 134.15 192.59 134.15Z" fill="#3F3D56"/>
<path d="M158.031 72.7686L159.704 98.562L173.76 124.356C173.76 124.356 181.123 145.794 188.82 140.435C196.517 135.075 181.792 120.336 181.792 120.336L170.079 94.5423L171.752 76.1184L158.031 72.7686Z" fill="#A0616A"/>
<path d="M212.916 72.7677L211.912 92.1965L198.19 118.325C198.19 118.325 185.808 137.754 194.174 138.089C202.541 138.424 207.896 121.005 207.896 121.005L222.621 96.5512L225.967 71.4277L212.916 72.7677Z" fill="#A0616A"/>
<path d="M168.298 47.7344L160.936 48.7394L156.92 74.8678L173.988 77.8826L168.298 47.7344Z" fill="url(#paint1_linear)"/>
<path d="M217.494 45.0547L224.522 46.7295L227.869 74.5331L211.47 75.8731L217.494 45.0547Z" fill="url(#paint2_linear)"/>
<path d="M237.382 256.875C237.386 262.618 236.259 268.305 234.064 273.611C231.868 278.917 228.649 283.737 224.59 287.795C215.096 287.929 204.98 288 194.478 288C183.386 288 172.724 287.921 162.769 287.771C157.694 282.683 153.951 276.42 151.871 269.538C149.792 262.656 149.439 255.366 150.845 248.315C152.251 241.264 155.373 234.669 159.933 229.114C164.493 223.558 170.351 219.214 176.989 216.465C183.627 213.716 190.839 212.648 197.988 213.356C205.136 214.063 212 216.523 217.972 220.519C223.944 224.515 228.84 229.923 232.225 236.265C235.611 242.606 237.382 249.685 237.382 256.875Z" fill="url(#paint3_linear)"/>
<path d="M193.724 231.907L181.063 259.064H188.298V282.091H199.151V259.064H206.385L193.724 231.907Z" fill="white"/>
<path d="M279.184 130.407C282.445 130.407 285.089 127.761 285.089 124.498C285.089 121.234 282.445 118.588 279.184 118.588C275.924 118.588 273.28 121.234 273.28 124.498C273.28 127.761 275.924 130.407 279.184 130.407Z" fill="#F2F2F2"/>
<path d="M99.6982 107.951C105.568 107.951 110.326 103.188 110.326 97.3133C110.326 91.4383 105.568 86.6758 99.6982 86.6758C93.8289 86.6758 89.0708 91.4383 89.0708 97.3133C89.0708 103.188 93.8289 107.951 99.6982 107.951Z" fill="#F2F2F2"/>
</g>
<defs>
<linearGradient id="paint0_linear" x1="192.729" y1="34" x2="192.729" y2="100.326" gradientUnits="userSpaceOnUse">
<stop offset="0.0552082" stop-color="#E31266"/>
<stop offset="0.513542" stop-color="#F8493C"/>
<stop offset="1" stop-color="#F4943E"/>
</linearGradient>
<linearGradient id="paint1_linear" x1="165.454" y1="47.7344" x2="165.454" y2="77.8826" gradientUnits="userSpaceOnUse">
<stop offset="0.0552082" stop-color="#E31266"/>
<stop offset="0.513542" stop-color="#F8493C"/>
<stop offset="1" stop-color="#F4943E"/>
</linearGradient>
<linearGradient id="paint2_linear" x1="219.669" y1="45.0547" x2="219.669" y2="75.8731" gradientUnits="userSpaceOnUse">
<stop offset="0.0552082" stop-color="#E31266"/>
<stop offset="0.513542" stop-color="#F8493C"/>
<stop offset="1" stop-color="#F4943E"/>
</linearGradient>
<linearGradient id="paint3_linear" x1="193.691" y1="213.144" x2="193.691" y2="288" gradientUnits="userSpaceOnUse">
<stop stop-color="#6C63FF"/>
<stop offset="0.0001" stop-color="#E31266"/>
<stop offset="0.513542" stop-color="#F8493C"/>
<stop offset="1" stop-color="#F4943E"/>
</linearGradient>
<clipPath id="clip0">
<rect width="384" height="288" fill="white"/>
</clipPath>
</defs>
</svg>
