<svg width="81" height="75" viewBox="0 0 81 75" fill="none" xmlns="http://www.w3.org/2000/svg">
<path fill-rule="evenodd" clip-rule="evenodd" d="M60.6708 52.9252C56.6999 55.1875 52.7132 57.434 48.7106 59.6647C46.6856 60.7879 44.6606 61.8953 42.6356 63.0344C41.7972 63.509 40.9112 64.2684 39.9304 64.4424C38.9179 64.6164 37.9845 64.1102 37.0669 63.7621C34.678 62.8287 32.2417 61.927 29.8528 61.0094C28.4132 60.4557 28.9827 58.7471 29.7263 57.9244C30.7704 56.7696 32.6214 57.7979 33.713 58.3041C35.3741 59.0793 37.1302 59.5381 38.8704 60.0918C42.7464 61.3416 46.7964 55.0451 43.1577 52.5614C41.813 51.6596 39.8829 51.2008 38.3642 50.5996C35.0419 49.2865 31.7038 47.9893 28.4132 46.5971C26.23 45.6795 24.031 44.4772 21.6579 44.1766C19.4589 43.9076 16.9118 44.2873 14.7919 44.9043C13.6212 45.2365 12.2923 45.8219 11.3589 46.6129C10.7261 47.1508 10.1882 47.9735 9.93506 48.7645V66.4832C9.93506 66.4832 10.0458 67.4957 11.0583 67.2584C14.0483 66.5623 17.6079 66.768 20.5821 67.4166C23.3823 68.0336 25.9294 69.5524 28.5714 70.6123C31.4981 71.783 34.504 72.7164 37.4624 73.7606C42.3509 75.485 45.8314 71.3242 49.7073 69.141C54.4376 66.4832 59.1521 63.7938 63.8665 61.136C64.6575 60.693 65.4327 60.25 66.2237 59.8071C67.4419 59.111 68.6126 56.5639 68.486 55.2508C68.1222 51.1692 63.3286 51.4065 60.6708 52.9252Z" fill="white"/>
<path fill-rule="evenodd" clip-rule="evenodd" d="M6.81855 48.7168H2.84766C1.80352 48.7168 0.949219 49.5711 0.949219 50.6152V65.3756C0.949219 66.4197 1.80352 67.274 2.84766 67.274H6.81855C7.8627 67.274 8.71699 66.4197 8.71699 65.3756V50.6152C8.71699 49.5711 7.8627 48.7168 6.81855 48.7168ZM5.85352 53.0674C5.0625 53.0674 4.42969 52.4346 4.42969 51.6436C4.42969 50.8525 5.0625 50.2197 5.85352 50.2197C6.64453 50.2197 7.27734 50.8525 7.27734 51.6436C7.27734 52.4187 6.62871 53.0674 5.85352 53.0674Z" fill="white"/>
<path d="M80.0508 38.4814H13.6846V41.1867H80.0508V38.4814Z" fill="white"/>
<path fill-rule="evenodd" clip-rule="evenodd" d="M19.4115 37.0258C19.4589 36.5986 19.538 35.9342 19.6646 35.2381C19.6962 35.0957 19.7121 34.9533 19.7437 34.7951C19.7753 34.6369 19.807 34.4787 19.8544 34.3205C19.9335 33.9883 20.0126 33.6244 20.0917 33.2447C20.1392 33.0549 20.1867 32.8492 20.2341 32.6594C20.2974 32.4537 20.3449 32.248 20.4082 32.0424C20.5347 31.6152 20.6613 31.1723 20.7878 30.7135C21.1042 29.7959 21.4207 28.7992 21.8478 27.7867C21.9585 27.5336 22.0535 27.2646 22.1642 27.0115C22.2908 26.7584 22.4015 26.4895 22.5281 26.2363C22.6546 25.9674 22.7812 25.7143 22.8919 25.4453C23.0185 25.1764 23.1609 24.9232 23.3033 24.6543C23.4457 24.3854 23.588 24.1164 23.7304 23.8475C23.8728 23.5785 24.0468 23.3254 24.1892 23.0564C24.3474 22.7875 24.5056 22.5344 24.6638 22.2654C24.8378 21.9965 25.0119 21.7434 25.1859 21.4902C25.3599 21.2371 25.5339 20.9682 25.708 20.715C25.8978 20.4619 26.0876 20.2088 26.2775 19.9557C26.6414 19.4494 27.0527 18.959 27.4482 18.4844C27.638 18.2313 27.8595 18.0098 28.0652 17.7725C28.2708 17.5352 28.4923 17.3137 28.698 17.0764C28.9195 16.8549 29.141 16.6334 29.3466 16.4119C29.5681 16.1904 29.7738 15.9689 30.0111 15.7633C30.2326 15.5576 30.4541 15.352 30.6755 15.1305C30.897 14.9248 31.1343 14.735 31.3558 14.5293C31.7988 14.1338 32.2734 13.7699 32.7164 13.4061C32.9378 13.2162 33.1751 13.058 33.3966 12.884C33.6339 12.71 33.8554 12.5359 34.0769 12.3936C34.5357 12.0771 34.9787 11.7607 35.4216 11.4918C36.3076 10.9223 37.1777 10.4318 37.9845 9.98887C38.7914 9.56172 39.5507 9.19785 40.231 8.89727C40.9113 8.59668 41.5125 8.35938 42.0029 8.16953C42.9996 7.78984 43.5849 7.64746 43.5849 7.64746C43.5849 7.64746 43.0154 7.85313 42.0662 8.32773C41.1169 8.78652 39.788 9.51426 38.2851 10.5268C37.5416 11.033 36.7347 11.6025 35.9279 12.2354C35.5166 12.5518 35.121 12.8998 34.6939 13.2479C34.4882 13.4219 34.2826 13.6117 34.0769 13.8016C33.8712 13.9914 33.6656 14.1654 33.4599 14.3711C33.0644 14.7666 32.6373 15.1621 32.2417 15.5893C32.0519 15.7949 31.8304 16.0006 31.6406 16.2221C31.4507 16.4436 31.2609 16.665 31.0552 16.8865C30.8496 17.108 30.6755 17.3295 30.4857 17.5668C30.2958 17.8041 30.106 18.0256 29.932 18.2629C29.758 18.5002 29.5839 18.7375 29.3941 18.9748C29.2201 19.2121 29.0302 19.4494 28.872 19.7025C28.5398 20.2088 28.1917 20.6834 27.907 21.2055C27.7488 21.4586 27.6064 21.7117 27.4482 21.9648C27.3058 22.218 27.1634 22.4869 27.021 22.74C26.8787 22.9932 26.7363 23.2463 26.6097 23.5152C26.4832 23.7842 26.3566 24.0373 26.2458 24.2904C26.1193 24.5436 25.9927 24.7967 25.882 25.0656C25.7712 25.3187 25.6605 25.5877 25.5656 25.8408C25.4548 26.0939 25.3441 26.3471 25.2492 26.6002C25.1542 26.8533 25.0751 27.1064 24.9802 27.3596C24.8853 27.6127 24.8062 27.8658 24.7113 28.1031C24.6322 28.3563 24.5689 28.5936 24.4898 28.8467C24.1734 29.8117 23.9835 30.7609 23.7779 31.6152C23.6988 32.0582 23.6197 32.4695 23.5564 32.865C23.5248 33.0707 23.4773 33.2605 23.4457 33.4504C23.414 33.6402 23.3982 33.8301 23.3666 34.0041C23.3191 34.368 23.2716 34.7002 23.24 35.0008C23.2242 35.159 23.2083 35.3014 23.1767 35.4437C23.1609 35.5861 23.1609 35.7285 23.1451 35.8551C23.0976 36.4088 23.066 36.8201 23.0501 37.1049H77.472C77.472 36.9783 77.472 36.8518 77.472 36.7252C77.472 19.7025 64.3253 5.82812 47.888 5.24277V3.3918C49.5017 3.23359 50.6724 2.72734 50.6724 2.14199C50.6724 1.43008 48.9322 0.844727 46.7964 0.844727C44.6607 0.844727 42.9205 1.43008 42.9205 2.14199C42.9205 2.72734 44.0912 3.23359 45.7048 3.3918V5.16367C29.2675 5.74902 16.1208 19.6234 16.1208 36.6461C16.1208 36.7727 16.1208 36.8992 16.1208 37.0258H19.4115ZM59.2312 11.1912C59.4685 11.2703 59.7533 11.3969 60.0697 11.5393C60.3861 11.6816 60.75 11.8557 61.1296 12.0613C61.5093 12.267 61.9207 12.5043 62.332 12.7732C62.5376 12.8998 62.7591 13.058 62.9648 13.2004C63.0755 13.2795 63.1705 13.3586 63.2812 13.4377C63.3919 13.5168 63.5027 13.5959 63.5976 13.675C63.8033 13.849 64.0248 14.023 64.2462 14.1971C64.357 14.292 64.4677 14.3869 64.5626 14.4818C64.6734 14.5768 64.7683 14.6717 64.8791 14.7824C64.9898 14.8773 65.0847 14.9881 65.1955 15.083C65.2904 15.1938 65.4011 15.2887 65.496 15.3994C65.591 15.5102 65.6859 15.6209 65.7966 15.7316C65.8916 15.8424 66.0023 15.9531 66.0814 16.0639C66.2712 16.3012 66.4611 16.5227 66.6351 16.76C66.73 16.8865 66.8091 16.9973 66.9041 17.1238C66.9832 17.2504 67.0623 17.3611 67.1572 17.4877C67.2363 17.6143 67.3154 17.725 67.3945 17.8516C67.4736 17.9781 67.5369 18.1047 67.616 18.2312C67.6951 18.3578 67.7742 18.4844 67.8375 18.6109C67.9007 18.7375 67.964 18.8641 68.0431 18.9906C68.1064 19.1172 68.1855 19.2437 68.233 19.3703C68.2962 19.4969 68.3437 19.6234 68.407 19.75C68.4703 19.8766 68.5177 20.0031 68.581 20.1139C68.6285 20.2404 68.6759 20.367 68.7234 20.4777C68.9291 20.9523 69.0714 21.427 69.2296 21.8541C69.2929 22.0756 69.3562 22.2812 69.4037 22.4869C69.4353 22.5818 69.4669 22.6768 69.4828 22.7717C69.4986 22.8666 69.5302 22.9615 69.546 23.0564C69.5935 23.2305 69.6251 23.4045 69.6568 23.5627C69.6726 23.6418 69.6884 23.7209 69.7043 23.7842C69.7201 23.8633 69.7359 23.9266 69.7359 23.9898C69.8308 24.5119 69.8783 25.034 69.8783 25.034L68.1222 25.0023C68.1222 25.0023 68.1064 24.7334 68.0589 24.243C68.0589 24.1797 68.0431 24.1164 68.0431 24.0531C68.0273 23.9898 68.0273 23.9107 68.0115 23.8475C67.9957 23.7051 67.9798 23.5469 67.9482 23.3729C67.9324 23.2937 67.9324 23.1988 67.9166 23.1197C67.9007 23.0248 67.8849 22.9457 67.8691 22.8508C67.8375 22.6609 67.8058 22.4711 67.7584 22.2654C67.6634 21.8699 67.5685 21.4111 67.4261 20.9682C67.3945 20.8574 67.3628 20.7309 67.3154 20.6201C67.2679 20.5094 67.2363 20.3828 67.1888 20.2721C67.1414 20.1613 67.1097 20.0348 67.0623 19.9082C67.0148 19.7816 66.9673 19.6709 66.9199 19.5443C66.8724 19.4178 66.825 19.307 66.7617 19.1805C66.7142 19.0539 66.6509 18.9432 66.5876 18.8166C66.5244 18.69 66.4769 18.5793 66.4136 18.4527C66.3503 18.3262 66.2871 18.2154 66.2238 18.0889C66.1605 17.9623 66.0972 17.8516 66.0181 17.725C65.939 17.6143 65.8757 17.4877 65.7966 17.3611C65.6542 17.1238 65.496 16.8865 65.3378 16.6492C65.2587 16.5385 65.1796 16.4277 65.1005 16.3012C65.0214 16.1904 64.9265 16.0797 64.8474 15.9689C64.7525 15.8582 64.6734 15.7475 64.5785 15.6367C64.4835 15.526 64.4044 15.4152 64.3095 15.3203C64.2146 15.2096 64.1197 15.1146 64.0406 15.0039C63.9457 14.8932 63.8507 14.7982 63.7558 14.7033C63.566 14.4977 63.3761 14.3236 63.1863 14.1338C63.0914 14.0389 62.9964 13.9598 62.9015 13.8648C62.8066 13.7857 62.7117 13.6908 62.6167 13.6117C62.4269 13.4535 62.2371 13.2795 62.0472 13.1371C61.6675 12.8365 61.2878 12.5676 60.9398 12.3303C60.2279 11.8557 59.6109 11.5234 59.1679 11.302C58.725 11.0805 58.456 10.9855 58.456 10.9855C58.456 10.9855 58.7724 11.0172 59.2312 11.1912Z" fill="white"/>
</svg>
