<svg width="165" height="203" viewBox="0 0 165 203" fill="none" xmlns="http://www.w3.org/2000/svg">
<path d="M130.076 38.6211C106.373 38.6211 106.164 0 129.813 0C153.523 0 153.734 38.6211 130.076 38.6211Z" fill="white"/>
<path d="M0.846466 114.796C2.30299 109.179 8.79698 104.405 14.3904 106.703C23.1538 110.301 31.8779 114.017 40.8528 116.947C44.0016 113.438 68.6479 79.1782 76.2811 67.6595C67.8471 69.004 59.3647 70.0561 50.8371 70.7998C36.6797 72.0331 36.7975 48.8559 50.8371 47.6291C65.9705 46.31 97.0141 40.0676 97.6819 40.0294C113.489 37.4072 120.594 42.2671 124.579 59.9868C125.767 65.2153 127.254 70.3549 129.26 75.291C136.398 74.0832 143.545 72.8817 150.667 71.6389C156.584 70.6091 162.504 73.1741 164.217 79.7344C165.68 85.3316 162.455 92.9471 156.524 93.9801C146.47 95.7346 136.392 97.3715 126.338 99.1292C120.893 100.073 116.958 98.5221 113.317 92.4958C112.187 90.7222 110.044 86.692 109.37 85.0551C101.254 97.2921 84.3283 122.716 84.3283 122.716C84.3283 122.716 101.36 145.445 102.475 147.089C103.635 148.732 104.457 150.731 104.678 153.191C104.678 153.191 105.898 178.911 105.898 191.796C105.901 206.735 83.872 206.735 83.869 191.796L82.9987 158.223L63.0695 130.106C63.3657 129.509 55.8201 137.817 55.8201 137.817C51.94 141.536 48.9182 142.728 43.231 141.723C31.2887 138.637 19.9476 133.73 8.52501 129.048C2.9527 126.753 -0.866928 121.359 0.846466 114.796Z" fill="white"/>
</svg>
