<svg width="465" height="376" viewBox="0 0 465 376" fill="none" xmlns="http://www.w3.org/2000/svg">
<g clip-path="url(#clip0)">
<path d="M181.25 373.132L465 230.089L348.921 0L54.8879 134.491L181.25 373.132Z" fill="#F2F2F2"/>
<path opacity="0.4" d="M380.296 292.373C389.884 292.373 397.657 284.603 397.657 275.018C397.657 265.434 389.884 257.664 380.296 257.664C370.708 257.664 362.935 265.434 362.935 275.018C362.935 284.603 370.708 292.373 380.296 292.373Z" fill="url(#paint0_linear)"/>
<path opacity="0.4" d="M348.166 295.481C354.892 295.481 360.344 290.03 360.344 283.307C360.344 276.583 354.892 271.133 348.166 271.133C341.44 271.133 335.987 276.583 335.987 283.307C335.987 290.03 341.44 295.481 348.166 295.481Z" fill="url(#paint1_linear)"/>
<path d="M96.6347 278.833L49.4824 251.62L22.2591 298.755L69.4113 325.968L96.6347 278.833Z" fill="#F2F2F2"/>
<path d="M328.347 176.61C325.93 176.61 323.566 175.893 321.556 174.55C319.546 173.208 317.98 171.3 317.055 169.067C316.13 166.835 315.888 164.378 316.359 162.008C316.831 159.638 317.995 157.461 319.704 155.752C321.414 154.043 323.591 152.88 325.962 152.408C328.333 151.937 330.791 152.179 333.024 153.103C335.258 154.028 337.167 155.594 338.51 157.603C339.853 159.613 340.57 161.975 340.57 164.391C340.566 167.631 339.277 170.736 336.986 173.027C334.694 175.318 331.588 176.606 328.347 176.61ZM328.347 153.284C326.149 153.284 324.001 153.936 322.174 155.156C320.346 156.377 318.922 158.111 318.081 160.141C317.24 162.17 317.02 164.404 317.449 166.558C317.878 168.713 318.936 170.692 320.49 172.246C322.044 173.799 324.024 174.857 326.179 175.285C328.335 175.714 330.569 175.494 332.599 174.653C334.63 173.813 336.365 172.389 337.586 170.562C338.807 168.736 339.459 166.588 339.459 164.391C339.455 161.447 338.284 158.623 336.2 156.541C334.117 154.459 331.293 153.287 328.347 153.284Z" fill="#3F3D56"/>
<path d="M118.894 141.621C116.476 141.621 114.113 140.905 112.103 139.562C110.093 138.22 108.527 136.311 107.602 134.079C106.676 131.846 106.434 129.39 106.906 127.02C107.378 124.649 108.542 122.472 110.251 120.764C111.96 119.055 114.138 117.891 116.509 117.42C118.88 116.948 121.338 117.19 123.571 118.115C125.805 119.04 127.714 120.606 129.057 122.615C130.4 124.624 131.117 126.987 131.117 129.403C131.113 132.643 129.824 135.748 127.533 138.039C125.241 140.329 122.134 141.618 118.894 141.621ZM118.894 118.296C116.696 118.296 114.548 118.947 112.721 120.168C110.893 121.388 109.469 123.123 108.628 125.153C107.787 127.182 107.567 129.416 107.996 131.57C108.425 133.725 109.483 135.704 111.037 137.257C112.591 138.811 114.571 139.869 116.726 140.297C118.882 140.726 121.116 140.506 123.146 139.665C125.176 138.824 126.912 137.401 128.133 135.574C129.354 133.748 130.005 131.6 130.005 129.403C130.002 126.458 128.83 123.635 126.747 121.553C124.664 119.47 121.84 118.299 118.894 118.296Z" fill="#3F3D56"/>
<path d="M70.5584 335.445C68.141 335.445 65.7779 334.729 63.7678 333.386C61.7578 332.044 60.1912 330.135 59.2661 327.903C58.341 325.67 58.0989 323.214 58.5706 320.844C59.0422 318.473 60.2063 316.296 61.9156 314.588C63.625 312.879 65.8029 311.715 68.1739 311.244C70.5449 310.772 73.0025 311.014 75.2359 311.939C77.4693 312.864 79.3782 314.43 80.7213 316.439C82.0643 318.448 82.7812 320.811 82.7812 323.227C82.7775 326.467 81.4886 329.572 79.1972 331.863C76.9058 334.153 73.799 335.442 70.5584 335.445ZM70.5584 312.12C68.3608 312.12 66.2125 312.771 64.3852 313.992C62.5579 315.212 61.1337 316.947 60.2927 318.977C59.4517 321.006 59.2316 323.24 59.6604 325.394C60.0891 327.549 61.1474 329.528 62.7014 331.081C64.2553 332.635 66.2352 333.693 68.3907 334.121C70.5461 334.55 72.7803 334.33 74.8106 333.489C76.841 332.648 78.5764 331.225 79.7974 329.398C81.0183 327.572 81.67 325.424 81.67 323.227C81.6667 320.282 80.495 317.459 78.4119 315.377C76.3288 313.294 73.5044 312.123 70.5584 312.12Z" fill="#3F3D56"/>
<path d="M182.957 136.71C189.895 128.922 191.712 119.219 187.015 115.037C182.317 110.855 172.885 113.778 165.946 121.566C159.008 129.354 157.191 139.057 161.889 143.239C166.586 147.421 176.019 144.498 182.957 136.71Z" fill="#2F2E41"/>
<path d="M210.287 213.555C237.595 213.555 259.733 191.425 259.733 164.127C259.733 136.828 237.595 114.699 210.287 114.699C182.978 114.699 160.84 136.828 160.84 164.127C160.84 191.425 182.978 213.555 210.287 213.555Z" fill="#2F2E41"/>
<path d="M65.7876 142.342L19.8277 146.101C18.0189 146.249 16.3227 147.039 15.0455 148.328C13.7682 149.616 12.9941 151.319 12.8629 153.129L11.1468 176.802C11.0713 177.844 11.2114 178.89 11.5583 179.875C11.9053 180.86 12.4517 181.764 13.1634 182.529C13.8751 183.293 14.7369 183.903 15.6949 184.321C16.653 184.738 17.6867 184.953 18.7317 184.953H39.446V186.064H47.7797V184.953H52.2243V186.064H60.558V184.953H65.0004C66.9499 184.953 68.8249 184.205 70.2383 182.862C71.6516 181.52 72.4954 179.687 72.5952 177.74L74.0025 150.308C74.058 149.226 73.8815 148.145 73.4849 147.137C73.0883 146.129 72.4806 145.217 71.7027 144.463C70.9248 143.708 69.9946 143.129 68.9745 142.763C67.9543 142.398 66.8677 142.254 65.7876 142.342Z" fill="#2F2E41"/>
<path d="M95.0039 217.164L30.0011 186.619L18.334 204.946C18.334 204.946 52.1341 226.515 53.891 228.272C56.3911 230.771 83.3367 248.265 93.8927 245.488C104.449 242.711 99.4485 219.941 95.0039 217.164Z" fill="#9F616A"/>
<path d="M139.45 357.118L131.117 376H217.387L211.12 356.007L139.45 357.118Z" fill="#2F2E41"/>
<path d="M192.23 203.835C192.23 203.835 195.564 222.163 192.23 224.384C188.897 226.606 214.453 253.819 214.453 253.819L225.009 244.377L228.343 222.718C228.343 222.718 218.343 208.834 222.787 196.616C227.232 184.397 192.23 203.835 192.23 203.835Z" fill="#9F616A"/>
<path d="M202.231 209.389C221.868 209.389 237.788 193.476 237.788 173.845C237.788 154.215 221.868 138.302 202.231 138.302C182.593 138.302 166.674 154.215 166.674 173.845C166.674 193.476 182.593 209.389 202.231 209.389Z" fill="#9F616A"/>
<path d="M211.675 241.045C211.675 241.045 197.786 219.941 190.008 218.275C182.23 216.609 175.007 217.72 170.563 218.275C166.118 218.83 151.117 213.277 142.228 217.164C133.339 221.052 142.228 266.592 142.228 266.592C142.228 266.592 132.228 324.906 136.672 339.901C141.117 354.896 137.783 357.673 135.561 359.339C133.339 361.005 186.119 376 186.119 376H236.121C236.121 376 236.121 359.894 241.121 356.007C246.121 352.119 245.566 269.924 245.566 269.924L262.233 237.713C262.233 237.713 259.455 225.495 247.788 224.939C236.121 224.384 225.707 218.261 225.707 218.261L217.787 241.045H211.675Z" fill="url(#paint2_linear)"/>
<path d="M147.228 219.941L142.228 217.164C142.228 217.164 132.783 217.72 131.117 217.164C129.45 216.609 108.338 209.945 100.004 213.832C91.6706 217.72 86.1148 212.721 86.1148 212.721C86.1148 212.721 113.338 236.047 80.0034 243.267C80.0034 243.267 80.559 246.044 88.8927 247.71C97.2264 249.376 98.8931 251.042 102.227 253.819C105.56 256.596 112.227 259.373 116.672 260.483C121.116 261.594 135.561 271.035 137.784 268.814C140.006 266.592 143.895 258.817 143.895 258.817L147.228 219.941Z" fill="url(#paint3_linear)"/>
<path d="M251.677 231.604L262.233 237.713C262.233 237.713 276.123 278.81 273.9 288.807C271.678 298.804 269.456 297.138 272.789 303.802C276.123 310.466 279.456 311.022 277.234 317.131C275.011 323.24 276.123 338.235 272.789 344.344C269.456 350.453 253.344 369.891 239.454 337.124C225.565 304.357 251.677 231.604 251.677 231.604Z" fill="url(#paint4_linear)"/>
<path d="M271.678 316.576C271.678 316.576 263.9 301.025 262.233 299.914C260.566 298.804 252.788 260.483 252.788 260.483C252.788 260.483 265.011 240.49 253.899 231.604C253.899 231.604 274.456 202.725 267.789 203.28C261.122 203.836 247.788 224.94 247.788 224.94C247.788 224.94 244.732 224.106 245.844 219.664C246.955 215.221 251.122 199.393 247.788 198.837C244.455 198.282 237.788 222.163 237.788 222.163C237.788 222.163 224.176 246.877 228.343 255.485C230.767 260.316 233.553 264.957 236.676 269.369L246.121 338.235C246.121 338.235 264.455 360.45 271.678 316.576Z" fill="#9F616A"/>
<path d="M62.2249 152.741C65.6001 152.741 68.3363 151.498 68.3363 149.965C68.3363 148.431 65.6001 147.188 62.2249 147.188C58.8497 147.188 56.1135 148.431 56.1135 149.965C56.1135 151.498 58.8497 152.741 62.2249 152.741Z" fill="url(#paint5_linear)"/>
<path d="M25.001 204.946H17.2229C17.2229 204.946 0 199.393 0 186.619C0 173.846 5.00021 147.743 20.5564 148.299C36.1126 148.854 21.6676 183.287 21.6676 183.287L31.0847 187.128L31.1124 198.837L25.001 204.946Z" fill="#9F616A"/>
<path d="M196.397 166.348C213.887 166.348 228.065 159.137 228.065 150.242C228.065 141.347 213.887 134.136 196.397 134.136C178.907 134.136 164.729 141.347 164.729 150.242C164.729 159.137 178.907 166.348 196.397 166.348Z" fill="#2F2E41"/>
<path d="M239.177 176.345C240.711 176.345 241.954 173.609 241.954 170.236C241.954 166.862 240.711 164.126 239.177 164.126C237.642 164.126 236.399 166.862 236.399 170.236C236.399 173.609 237.642 176.345 239.177 176.345Z" fill="#9F616A"/>
<path d="M263.818 155.01C269.476 152.263 270.369 142.432 265.811 133.051C261.254 123.67 252.973 118.292 247.315 121.039C241.656 123.785 240.764 133.617 245.321 142.998C249.878 152.379 258.16 157.757 263.818 155.01Z" fill="#2F2E41"/>
</g>
<defs>
<linearGradient id="paint0_linear" x1="380.296" y1="257.664" x2="380.296" y2="292.373" gradientUnits="userSpaceOnUse">
<stop stop-color="#E31266"/>
<stop offset="0.482292" stop-color="#F8493C"/>
<stop offset="1" stop-color="#F4943E"/>
</linearGradient>
<linearGradient id="paint1_linear" x1="348.166" y1="271.133" x2="348.166" y2="295.481" gradientUnits="userSpaceOnUse">
<stop stop-color="#E31266"/>
<stop offset="0.482292" stop-color="#F8493C"/>
<stop offset="1" stop-color="#F4943E"/>
</linearGradient>
<linearGradient id="paint2_linear" x1="198.863" y1="215.773" x2="198.863" y2="376" gradientUnits="userSpaceOnUse">
<stop stop-color="#E31266"/>
<stop offset="0.482292" stop-color="#F8493C"/>
<stop offset="1" stop-color="#F4943E"/>
</linearGradient>
<linearGradient id="paint3_linear" x1="113.616" y1="212.621" x2="113.616" y2="269.151" gradientUnits="userSpaceOnUse">
<stop stop-color="#E31266"/>
<stop offset="0.482292" stop-color="#F8493C"/>
<stop offset="1" stop-color="#F4943E"/>
</linearGradient>
<linearGradient id="paint4_linear" x1="256.669" y1="231.604" x2="256.669" y2="355.646" gradientUnits="userSpaceOnUse">
<stop stop-color="#E31266"/>
<stop offset="0.482292" stop-color="#F8493C"/>
<stop offset="1" stop-color="#F4943E"/>
</linearGradient>
<linearGradient id="paint5_linear" x1="62.2249" y1="147.188" x2="62.2249" y2="152.741" gradientUnits="userSpaceOnUse">
<stop stop-color="#E31266"/>
<stop offset="0.482292" stop-color="#F8493C"/>
<stop offset="1" stop-color="#F4943E"/>
</linearGradient>
<clipPath id="clip0">
<rect width="465" height="376" fill="white"/>
</clipPath>
</defs>
</svg>
