<svg width="418" height="309" viewBox="0 0 418 309" fill="none" xmlns="http://www.w3.org/2000/svg">
<g clip-path="url(#clip0)">
<path d="M25.7983 308.072C25.7983 301.734 28.3207 295.655 32.8105 291.174C37.3004 286.692 43.3899 284.174 49.7395 284.174C56.0891 284.174 62.1786 286.692 66.6685 291.174C71.1583 295.655 73.6807 301.734 73.6807 308.072" fill="#F2F2F2"/>
<path d="M49.7393 308.071C49.5677 308.071 49.4031 308.003 49.2818 307.882C49.1604 307.761 49.0923 307.597 49.0923 307.426V294.83C49.0923 294.659 49.1604 294.495 49.2818 294.374C49.4031 294.253 49.5677 294.185 49.7393 294.185C49.911 294.185 50.0755 294.253 50.1969 294.374C50.3182 294.495 50.3864 294.659 50.3864 294.83V307.426C50.3864 307.597 50.3182 307.761 50.1969 307.882C50.0755 308.003 49.911 308.071 49.7393 308.071Z" fill="#CCCCCC"/>
<path d="M49.7392 303.743C49.5846 303.744 49.4351 303.688 49.318 303.588L41.5534 296.935C41.4884 296.88 41.4349 296.813 41.396 296.737C41.3572 296.661 41.3337 296.579 41.327 296.494C41.3202 296.409 41.3304 296.323 41.3568 296.243C41.3833 296.162 41.4255 296.087 41.481 296.022C41.5366 295.957 41.6044 295.904 41.6805 295.866C41.7567 295.828 41.8396 295.805 41.9247 295.799C42.0097 295.792 42.0952 295.803 42.1761 295.83C42.2571 295.857 42.3319 295.899 42.3963 295.955L50.161 302.607C50.2613 302.693 50.3328 302.808 50.366 302.936C50.3991 303.063 50.3922 303.198 50.3462 303.322C50.3003 303.446 50.2175 303.552 50.109 303.628C50.0004 303.703 49.8714 303.743 49.7392 303.743Z" fill="#CCCCCC"/>
<path d="M99.563 308.072C99.563 301.734 102.085 295.655 106.575 291.174C111.065 286.692 117.155 284.174 123.504 284.174C129.854 284.174 135.943 286.692 140.433 291.174C144.923 295.655 147.445 301.734 147.445 308.072" fill="#F2F2F2"/>
<path d="M123.504 308.071C123.333 308.071 123.168 308.003 123.047 307.882C122.925 307.761 122.857 307.597 122.857 307.426V294.83C122.857 294.659 122.925 294.495 123.047 294.374C123.168 294.253 123.333 294.185 123.504 294.185C123.676 294.185 123.84 294.253 123.962 294.374C124.083 294.495 124.151 294.659 124.151 294.83V307.426C124.151 307.597 124.083 307.761 123.962 307.882C123.84 308.003 123.676 308.071 123.504 308.071Z" fill="#CCCCCC"/>
<path d="M123.504 303.744C123.349 303.744 123.2 303.689 123.083 303.588L115.318 296.936C115.188 296.824 115.107 296.666 115.094 296.495C115.081 296.324 115.137 296.155 115.248 296.025C115.36 295.895 115.519 295.815 115.69 295.802C115.861 295.789 116.031 295.844 116.161 295.956L123.926 302.608C124.026 302.694 124.097 302.809 124.131 302.936C124.164 303.064 124.157 303.199 124.111 303.323C124.065 303.446 123.982 303.553 123.874 303.628C123.765 303.704 123.636 303.744 123.504 303.744Z" fill="#CCCCCC"/>
<path d="M149.387 112.647C154.747 112.647 159.092 108.309 159.092 102.958C159.092 97.6072 154.747 93.2695 149.387 93.2695C144.026 93.2695 139.681 97.6072 139.681 102.958C139.681 108.309 144.026 112.647 149.387 112.647Z" fill="white"/>
<path d="M149.387 93.2695C147.467 93.2695 145.59 93.8378 143.994 94.9023C142.398 95.9669 141.154 97.4801 140.419 99.2504C139.685 101.021 139.493 102.969 139.867 104.848C140.242 106.728 141.166 108.454 142.523 109.809C143.881 111.164 145.61 112.087 147.493 112.46C149.376 112.834 151.327 112.642 153.101 111.909C154.874 111.176 156.39 109.934 157.457 108.341C158.523 106.747 159.092 104.874 159.092 102.958C159.092 100.388 158.07 97.9242 156.25 96.1072C154.429 94.2903 151.961 93.2695 149.387 93.2695ZM147.063 107.188C147.063 107.261 147.034 107.33 146.983 107.381C146.931 107.432 146.862 107.461 146.789 107.461H144.602C144.529 107.461 144.46 107.432 144.409 107.381C144.357 107.33 144.329 107.261 144.329 107.188V102.003C144.329 101.93 144.357 101.861 144.409 101.81C144.46 101.759 144.529 101.73 144.602 101.73H146.789C146.862 101.73 146.931 101.759 146.983 101.81C147.034 101.861 147.063 101.93 147.063 102.003V107.188ZM154.445 103.095C154.445 103.312 154.358 103.52 154.204 103.673C154.05 103.827 153.842 103.913 153.624 103.913V103.927C153.779 103.958 153.917 104.042 154.017 104.164C154.117 104.286 154.171 104.438 154.171 104.596C154.171 104.753 154.117 104.905 154.017 105.027C153.917 105.149 153.779 105.233 153.624 105.264V105.551C153.769 105.551 153.908 105.608 154.011 105.711C154.114 105.813 154.171 105.952 154.171 106.097C154.171 106.241 154.114 106.38 154.011 106.483C153.908 106.585 153.769 106.642 153.624 106.642H148.156C148.084 106.642 148.014 106.614 147.963 106.562C147.912 106.511 147.883 106.442 147.883 106.37V102.003C147.883 100.638 150.07 98.7278 150.07 98.7278V98.0625C150.07 97.8602 150.144 97.6648 150.278 97.5135C150.413 97.3621 150.598 97.2653 150.8 97.2414C151.001 97.2175 151.204 97.2682 151.37 97.3838C151.537 97.4995 151.655 97.672 151.702 97.8687L151.711 97.9091C151.817 98.8708 151.582 99.8392 151.046 100.646H152.729C152.754 100.644 152.779 100.638 152.804 100.638H153.624C153.407 101.073 153.371 101.575 153.525 102.036C153.679 102.497 154.009 102.877 154.445 103.095Z" fill="url(#paint0_linear)"/>
<path d="M163.622 60.328C171.126 60.328 177.21 54.2552 177.21 46.7641C177.21 39.273 171.126 33.2002 163.622 33.2002C156.117 33.2002 150.034 39.273 150.034 46.7641C150.034 54.2552 156.117 60.328 163.622 60.328Z" fill="white"/>
<path d="M163.622 33.2002C160.934 33.2002 158.307 33.9957 156.072 35.4861C153.838 36.9765 152.096 39.0949 151.068 41.5734C150.039 44.0519 149.77 46.7792 150.295 49.4103C150.819 52.0414 152.113 54.4583 154.013 56.3552C155.914 58.2522 158.335 59.544 160.971 60.0674C163.607 60.5908 166.339 60.3221 168.822 59.2955C171.305 58.2689 173.427 56.5304 174.92 54.2998C176.413 52.0692 177.21 49.4468 177.21 46.7641C177.21 43.1667 175.778 39.7167 173.23 37.173C170.682 34.6292 167.225 33.2002 163.622 33.2002ZM160.368 52.6864C160.368 52.7877 160.328 52.8849 160.256 52.9565C160.184 53.0282 160.087 53.0684 159.985 53.0684H156.923C156.822 53.0684 156.724 53.0282 156.653 52.9565C156.581 52.8849 156.541 52.7877 156.541 52.6864V45.4268C156.541 45.3255 156.581 45.2283 156.653 45.1566C156.724 45.085 156.822 45.0447 156.923 45.0447H159.985C160.087 45.0447 160.184 45.085 160.256 45.1566C160.328 45.2283 160.368 45.3255 160.368 45.4268V52.6864ZM170.703 46.9551C170.703 47.2591 170.582 47.5507 170.367 47.7656C170.151 47.9806 169.859 48.1014 169.555 48.1014V48.1206C169.771 48.1647 169.965 48.2819 170.104 48.4524C170.244 48.623 170.32 48.8364 170.32 49.0566C170.32 49.2768 170.244 49.4902 170.104 49.6607C169.965 49.8313 169.771 49.9485 169.555 49.9925V50.3939C169.758 50.3939 169.952 50.4744 170.096 50.6177C170.239 50.761 170.32 50.9554 170.32 51.158C170.32 51.3607 170.239 51.5551 170.096 51.6984C169.952 51.8417 169.758 51.9222 169.555 51.9222H161.899C161.798 51.9222 161.7 51.8819 161.629 51.8103C161.557 51.7386 161.516 51.6415 161.516 51.5401V45.4268C161.516 43.5164 164.579 40.8418 164.579 40.8418V39.9104C164.578 39.6271 164.682 39.3536 164.87 39.1417C165.059 38.9298 165.318 38.7943 165.6 38.7608C165.882 38.7274 166.166 38.7983 166.399 38.9602C166.632 39.1221 166.797 39.3636 166.863 39.6391C166.867 39.6576 166.871 39.6765 166.875 39.6956C167.258 41.606 165.945 43.5269 165.945 43.5269H168.302C168.337 43.5237 168.37 43.5164 168.406 43.5164H169.555C169.859 43.5164 170.151 43.6372 170.367 43.8521C170.582 44.0671 170.703 44.3586 170.703 44.6626C170.703 44.9666 170.582 45.2582 170.367 45.4732C170.151 45.6881 169.859 45.8089 169.555 45.8089C169.859 45.8089 170.151 45.9297 170.367 46.1446C170.582 46.3596 170.703 46.6511 170.703 46.9551V46.9551Z" fill="url(#paint1_linear)"/>
<path d="M193.874 192.22C194.863 191.99 195.791 191.547 196.591 190.921C197.39 190.295 198.043 189.502 198.502 188.597C198.961 187.692 199.216 186.697 199.249 185.683C199.281 184.67 199.091 183.661 198.691 182.728L224.316 124.938L209.657 121.253L189.078 179.218C187.553 179.992 186.366 181.299 185.742 182.889C185.117 184.479 185.099 186.242 185.69 187.845C186.281 189.448 187.441 190.778 188.949 191.584C190.457 192.391 192.21 192.617 193.874 192.22V192.22Z" fill="#A0616A"/>
<path d="M216.964 143.025L202.708 136.364C202.302 136.174 201.942 135.899 201.652 135.559C201.362 135.218 201.15 134.818 201.028 134.388C200.907 133.958 200.88 133.506 200.95 133.064C201.019 132.623 201.183 132.201 201.43 131.828L210.094 118.766C211.079 116.702 212.842 115.11 215 114.341C217.157 113.572 219.532 113.688 221.604 114.664C223.675 115.639 225.275 117.394 226.053 119.545C226.831 121.696 226.722 124.067 225.752 126.138L221.272 141.099C221.143 141.528 220.924 141.923 220.628 142.259C220.333 142.595 219.969 142.864 219.56 143.047C219.151 143.229 218.708 143.322 218.26 143.318C217.812 143.315 217.37 143.215 216.964 143.025H216.964Z" fill="#6C63FF"/>
<path d="M167.396 135.593L183.114 146.701C183.315 146.847 183.558 146.925 183.807 146.925C184.055 146.925 184.298 146.847 184.499 146.701L188.747 143.518C188.888 143.414 189.004 143.281 189.086 143.127C189.169 142.973 189.215 142.802 189.223 142.628C189.23 142.453 189.198 142.279 189.128 142.119C189.059 141.959 188.955 141.816 188.823 141.702L176.728 130.935C176.569 130.797 176.376 130.702 176.169 130.662C175.961 130.622 175.747 130.638 175.548 130.707L167.677 133.518C167.475 133.593 167.297 133.721 167.162 133.889C167.028 134.057 166.941 134.258 166.912 134.471C166.883 134.684 166.913 134.901 166.998 135.099C167.083 135.296 167.221 135.467 167.396 135.593H167.396Z" fill="#3F3D56"/>
<path d="M168.824 134.736L182.989 144.747C183.06 144.8 183.147 144.83 183.236 144.83C183.325 144.831 183.412 144.803 183.484 144.751L187.304 141.888C187.347 141.857 187.384 141.818 187.413 141.773C187.441 141.727 187.46 141.677 187.469 141.624C187.478 141.571 187.476 141.518 187.463 141.466C187.451 141.414 187.429 141.365 187.397 141.321C187.38 141.298 187.36 141.276 187.338 141.257L176.429 131.546C176.372 131.497 176.303 131.464 176.229 131.45C176.155 131.437 176.08 131.443 176.009 131.468L168.92 134C168.849 134.027 168.786 134.073 168.739 134.133C168.692 134.193 168.662 134.264 168.653 134.34C168.643 134.415 168.654 134.492 168.684 134.561C168.714 134.631 168.763 134.692 168.824 134.736V134.736Z" fill="white"/>
<path d="M224.682 301.205L216.749 301.204L212.976 270.661L224.683 270.662L224.682 301.205Z" fill="#A0616A"/>
<path d="M226.705 308.881L201.127 308.88V308.557C201.127 307.252 201.384 305.96 201.885 304.754C202.385 303.548 203.118 302.453 204.043 301.53C204.967 300.607 206.065 299.875 207.273 299.376C208.481 298.876 209.775 298.619 211.083 298.619H211.083L226.706 298.62L226.705 308.881Z" fill="#2F2E41"/>
<path d="M251.211 301.205L243.279 301.204L239.505 270.661L251.213 270.662L251.211 301.205Z" fill="#A0616A"/>
<path d="M253.235 308.881L227.656 308.88V308.557C227.656 307.252 227.914 305.96 228.414 304.754C228.914 303.548 229.648 302.453 230.572 301.53C231.497 300.607 232.594 299.875 233.802 299.376C235.01 298.876 236.305 298.619 237.612 298.619H237.613L253.235 298.62L253.235 308.881Z" fill="#2F2E41"/>
<path d="M250.849 292.708C250.777 292.708 250.705 292.705 250.633 292.7L241.51 292.026C240.885 291.977 240.292 291.729 239.819 291.318C239.345 290.908 239.016 290.357 238.88 289.746L223.04 202.955C222.988 202.715 222.846 202.504 222.644 202.364C222.441 202.224 222.193 202.167 221.95 202.202C221.707 202.238 221.486 202.365 221.333 202.557C221.179 202.749 221.105 202.992 221.124 203.237L226.749 288.75C226.78 289.149 226.728 289.551 226.597 289.93C226.465 290.309 226.257 290.656 225.984 290.95C225.711 291.245 225.381 291.48 225.013 291.64C224.645 291.801 224.248 291.884 223.846 291.884H216.899C216.313 291.884 215.741 291.708 215.257 291.378C214.773 291.049 214.4 290.581 214.186 290.036C196.716 244.367 203.042 154.884 203.093 153.984L203.74 153.338L238.537 159.335L238.611 159.407C250.5 168.124 255.646 270.211 253.755 289.631C253.743 290.456 253.438 291.249 252.895 291.871C252.349 292.407 251.614 292.708 250.849 292.708Z" fill="#2F2E41"/>
<path d="M207.107 100.991C215.884 100.991 222.999 93.8881 222.999 85.1267C222.999 76.3652 215.884 69.2627 207.107 69.2627C198.33 69.2627 191.214 76.3652 191.214 85.1267C191.214 93.8881 198.33 100.991 207.107 100.991Z" fill="#A0616A"/>
<path d="M243.94 174.073C243.778 174.073 243.617 174.057 243.459 174.025L202.643 168.797C201.182 168.503 200.139 166.946 200.218 165.175L204.124 143.649C198.948 137.19 203.839 120.509 207.002 116.292L205.779 112.987C205.464 112.129 205.444 111.191 205.725 110.321C205.965 109.501 206.516 108.808 207.262 108.39L223.826 99.6045C225.295 98.8254 227.017 99.6226 227.668 101.38L230.916 110.155L230.866 110.181C238.644 114.342 245.536 118.459 240.36 140.42L246.849 170.749C246.828 171.705 246.442 172.617 245.77 173.299C245.284 173.786 244.628 174.063 243.94 174.073Z" fill="url(#paint2_linear)"/>
<path d="M185.967 138.517C186.227 138.762 186.469 139.027 186.688 139.309L218.701 137.101L222.135 130.115L233.375 133.911L228.499 146.868C228.105 147.915 227.382 148.806 226.437 149.407C225.493 150.009 224.379 150.288 223.262 150.204L186.858 147.448C186.052 148.565 184.925 149.411 183.625 149.873C182.326 150.335 180.916 150.391 179.584 150.034C178.252 149.677 177.061 148.924 176.168 147.874C175.275 146.824 174.724 145.528 174.587 144.158C174.45 142.788 174.735 141.409 175.402 140.204C176.07 139 177.089 138.026 178.325 137.414C179.56 136.801 180.953 136.579 182.318 136.776C183.683 136.973 184.956 137.58 185.967 138.517Z" fill="#A0616A"/>
<path d="M218.508 135.561C218.349 135.174 218.274 134.758 218.291 134.341C218.307 133.924 218.413 133.515 218.603 133.142L225.204 120.127C225.88 118.1 227.334 116.423 229.247 115.463C231.16 114.504 233.376 114.341 235.409 115.01C237.442 115.679 239.126 117.126 240.092 119.033C241.059 120.939 241.228 123.151 240.564 125.182L238.021 139.595C237.949 140.007 237.788 140.398 237.551 140.742C237.313 141.085 237.004 141.374 236.645 141.588C236.285 141.802 235.884 141.936 235.468 141.981C235.052 142.026 234.631 141.981 234.234 141.849L220.281 137.212C219.884 137.08 219.52 136.865 219.214 136.579C218.908 136.294 218.667 135.947 218.508 135.561Z" fill="url(#paint3_linear)"/>
<path d="M168.546 124.934C168.415 125.056 168.242 125.124 168.062 125.124C167.883 125.124 167.71 125.056 167.578 124.934L167.207 124.598C164.167 121.814 162.412 120.005 162.412 117.75C162.412 115.911 163.578 114.489 165.407 114.489C165.913 114.492 166.413 114.605 166.872 114.82C167.331 115.035 167.737 115.347 168.063 115.734C168.389 115.347 168.795 115.035 169.253 114.82C169.712 114.605 170.211 114.492 170.718 114.489C172.549 114.489 173.712 115.906 173.712 117.75C173.712 120.001 171.957 121.81 168.917 124.598L168.546 124.934Z" fill="url(#paint4_linear)"/>
<path d="M146.342 86.3558C146.09 86.5899 145.759 86.7201 145.415 86.7201C145.071 86.7201 144.74 86.5899 144.488 86.3558L143.777 85.7133C137.952 80.3786 134.588 76.9126 134.588 72.5915C134.588 69.0667 136.823 66.3428 140.327 66.3428C141.298 66.3483 142.256 66.5644 143.135 66.9762C144.014 67.3879 144.793 67.9854 145.417 68.7273C146.041 67.9855 146.819 67.388 147.697 66.9763C148.576 66.5645 149.533 66.3483 150.503 66.3428C154.012 66.3428 156.242 69.0576 156.242 72.5915C156.242 76.9036 152.878 80.3696 147.054 85.7133L146.342 86.3558Z" fill="url(#paint5_linear)"/>
<path d="M147.266 25.9934C146.939 26.2975 146.509 26.4665 146.062 26.4665C145.615 26.4665 145.185 26.2975 144.858 25.9934L143.934 25.1589C136.368 18.2301 132 13.7284 132 8.11597C132 3.53788 134.902 0 139.453 0C140.714 0.00717792 141.959 0.287874 143.101 0.822642C144.242 1.35741 145.254 2.13348 146.065 3.0971C146.875 2.13362 147.886 1.35758 149.026 0.82279C150.167 0.287996 151.411 0.00723799 152.671 0C157.228 0 160.124 3.52613 160.124 8.11597C160.124 13.7166 155.756 18.2183 148.19 25.1589L147.266 25.9934Z" fill="url(#paint6_linear)"/>
<path d="M417.353 309H0.647059C0.475448 309 0.310876 308.932 0.189529 308.811C0.0681815 308.69 0 308.525 0 308.354C0 308.183 0.0681815 308.018 0.189529 307.897C0.310876 307.776 0.475448 307.708 0.647059 307.708H417.353C417.525 307.708 417.689 307.776 417.81 307.897C417.932 308.018 418 308.183 418 308.354C418 308.525 417.932 308.69 417.81 308.811C417.689 308.932 417.525 309 417.353 309Z" fill="#CCCCCC"/>
<path d="M216.033 72.6007C223.181 72.6007 228.975 66.8171 228.975 59.6827C228.975 52.5482 223.181 46.7646 216.033 46.7646C208.886 46.7646 203.092 52.5482 203.092 59.6827C203.092 66.8171 208.886 72.6007 216.033 72.6007Z" fill="#2F2E41"/>
<path d="M192.062 87.0884C190.798 87.2218 189.453 87.3417 188.316 86.7751C187.708 86.4305 187.189 85.9476 186.803 85.3656C186.416 84.7835 186.173 84.1187 186.092 83.4251C183.681 67.4332 197.303 68.7486 198.915 68.056C199.998 67.5904 200.796 66.6533 201.764 65.9807C203.881 64.5097 206.628 64.4022 209.207 64.3467C212.268 64.2808 215.441 64.2354 218.251 65.4505C220.778 66.6322 222.877 68.564 224.263 70.9817C225.634 73.3892 226.638 75.9869 227.244 78.6894C228.023 81.7813 228.553 85.0519 227.751 88.1379C227.089 90.4835 225.709 92.5639 223.804 94.0878C221.899 95.6117 219.564 96.503 217.126 96.6368C218.172 92.951 215.89 88.865 212.504 87.0612C209.773 85.7201 206.664 85.3506 203.694 86.014C201.767 86.4037 199.813 86.6465 197.849 86.7405C195.922 86.8125 193.609 86.9253 192.062 87.0884Z" fill="#2F2E41"/>
<path d="M399.631 136.774C399.631 105.6 374.298 31.627 343.047 31.627C311.796 31.627 286.463 105.6 286.463 136.774C286.474 151.747 292.441 166.102 303.051 176.686C313.661 187.269 328.047 193.214 343.047 193.214C358.047 193.214 372.433 187.269 383.043 176.686C393.653 166.102 399.62 151.747 399.631 136.774Z" fill="#F2F2F2"/>
<path d="M343.047 308.354C342.875 308.354 342.711 308.286 342.589 308.165C342.468 308.044 342.4 307.88 342.4 307.708V129.349C342.4 129.178 342.468 129.013 342.589 128.892C342.711 128.771 342.875 128.703 343.047 128.703C343.219 128.703 343.383 128.771 343.505 128.892C343.626 129.013 343.694 129.178 343.694 129.349V307.708C343.694 307.88 343.626 308.044 343.504 308.165C343.383 308.286 343.219 308.354 343.047 308.354Z" fill="#CCCCCC"/>
<path d="M343.047 153.984C342.955 153.984 342.863 153.965 342.778 153.926C342.694 153.888 342.619 153.832 342.558 153.762L310.015 116.299C309.903 116.17 309.847 116.001 309.86 115.831C309.872 115.66 309.952 115.501 310.081 115.389C310.211 115.277 310.379 115.221 310.55 115.233C310.721 115.245 310.881 115.324 310.993 115.453L343.536 152.915C343.617 153.009 343.67 153.124 343.687 153.246C343.705 153.369 343.687 153.494 343.636 153.606C343.584 153.719 343.501 153.814 343.397 153.881C343.293 153.948 343.171 153.984 343.047 153.984Z" fill="#CCCCCC"/>
<path d="M343.047 175.604C342.919 175.604 342.794 175.566 342.688 175.495C342.582 175.424 342.499 175.323 342.45 175.205C342.401 175.087 342.388 174.957 342.413 174.832C342.438 174.707 342.499 174.592 342.59 174.501L361.081 156.043C361.141 155.983 361.213 155.935 361.291 155.903C361.37 155.87 361.454 155.854 361.539 155.854C361.624 155.854 361.708 155.87 361.786 155.903C361.865 155.935 361.936 155.983 361.996 156.043C362.056 156.103 362.104 156.174 362.136 156.252C362.169 156.331 362.186 156.415 362.186 156.499C362.186 156.584 362.169 156.668 362.136 156.746C362.104 156.825 362.056 156.896 361.996 156.956L343.505 175.415C343.445 175.475 343.373 175.522 343.295 175.555C343.216 175.587 343.132 175.604 343.047 175.604Z" fill="#CCCCCC"/>
<path d="M343.047 246.653C342.919 246.653 342.794 246.615 342.688 246.544C342.582 246.473 342.499 246.372 342.45 246.254C342.401 246.136 342.388 246.006 342.413 245.881C342.438 245.756 342.499 245.64 342.59 245.55L361.081 227.091C361.203 226.97 361.367 226.902 361.539 226.902C361.71 226.902 361.875 226.97 361.996 227.091C362.118 227.213 362.186 227.377 362.186 227.548C362.186 227.719 362.118 227.884 361.996 228.005L343.505 246.463C343.445 246.524 343.373 246.571 343.295 246.604C343.216 246.636 343.132 246.653 343.047 246.653Z" fill="#CCCCCC"/>
</g>
<defs>
<linearGradient id="paint0_linear" x1="149.387" y1="93.2695" x2="149.387" y2="112.647" gradientUnits="userSpaceOnUse">
<stop stop-color="#F4943E"/>
<stop offset="0.503125" stop-color="#F8493C"/>
<stop offset="1" stop-color="#E31266"/>
</linearGradient>
<linearGradient id="paint1_linear" x1="163.622" y1="33.2002" x2="163.622" y2="60.328" gradientUnits="userSpaceOnUse">
<stop stop-color="#F4943E"/>
<stop offset="0.503125" stop-color="#F8493C"/>
<stop offset="1" stop-color="#E31266"/>
</linearGradient>
<linearGradient id="paint2_linear" x1="223.532" y1="99.3057" x2="223.532" y2="174.073" gradientUnits="userSpaceOnUse">
<stop stop-color="#E31266"/>
<stop offset="0.4875" stop-color="#F8493C"/>
<stop offset="1" stop-color="#F4943E"/>
</linearGradient>
<linearGradient id="paint3_linear" x1="229.626" y1="114.604" x2="229.626" y2="141.998" gradientUnits="userSpaceOnUse">
<stop stop-color="#E31266"/>
<stop offset="0.4875" stop-color="#F8493C"/>
<stop offset="1" stop-color="#F4943E"/>
</linearGradient>
<linearGradient id="paint4_linear" x1="168.062" y1="114.489" x2="168.062" y2="125.124" gradientUnits="userSpaceOnUse">
<stop stop-color="#E31266"/>
<stop offset="0.39375" stop-color="#F8493C"/>
<stop offset="1" stop-color="#F4943E"/>
</linearGradient>
<linearGradient id="paint5_linear" x1="145.415" y1="66.3428" x2="145.415" y2="86.7201" gradientUnits="userSpaceOnUse">
<stop stop-color="#E31266"/>
<stop offset="0.39375" stop-color="#F8493C"/>
<stop offset="1" stop-color="#F4943E"/>
</linearGradient>
<linearGradient id="paint6_linear" x1="146.062" y1="0" x2="146.062" y2="26.4665" gradientUnits="userSpaceOnUse">
<stop stop-color="#E31266"/>
<stop offset="0.39375" stop-color="#F8493C"/>
<stop offset="1" stop-color="#F4943E"/>
</linearGradient>
<clipPath id="clip0">
<rect width="418" height="309" fill="white"/>
</clipPath>
</defs>
</svg>
