<svg width="603" height="310" viewBox="0 0 603 310" fill="none" xmlns="http://www.w3.org/2000/svg">
<g clip-path="url(#clip0)">
<path d="M300.393 76.5039L300.377 76.6095L300.334 76.9149L295.899 108.832L268.746 118.824L268.321 118.62L253.119 111.379L245.258 81.1277L244.719 79.051L244.883 78.9879L278.514 66.3154L300.373 76.4918L300.393 76.5039Z" fill="url(#paint0_linear)"/>
<path d="M268.321 118.62L253.119 111.379L244.719 79.051L244.883 78.9879L266.793 88.2592L268.321 118.62Z" fill="url(#paint1_linear)"/>
<path opacity="0.2" d="M268.702 118.251L257.138 96.0251L258.623 89.724L251.629 81.4628L251.033 81.9703L257.772 89.9292L252.738 111.288L253.499 111.469L256.863 97.1912L268.009 118.614L268.702 118.251Z" fill="black"/>
<path d="M300.393 76.8954L300.334 76.9149L266.793 88.6514L245.258 81.1277L244.719 79.051L244.883 78.9879L278.514 66.3154L300.373 76.4918L300.377 76.6095L300.393 76.8954Z" fill="#3F3D56"/>
<path d="M267.586 88.9618L260.749 83.672L262.312 77.7941L281.846 70.7403L295.13 71.524L300.404 76.0306L300.795 77.2058L267.586 88.9618Z" fill="url(#paint2_linear)"/>
<path d="M245.317 78.7738L260.75 78.1856L269.11 75.3398L282.144 70.7402L284.582 67.2139L278.499 66.1219L245.317 78.7738Z" fill="url(#paint3_linear)"/>
<path d="M275.856 72.7453L267.81 75.5775L268.068 76.3168L276.115 73.4846L275.856 72.7453Z" fill="#CCCCCC"/>
<path d="M169.869 26.9185L166.097 45.8357L183.7 59.0783L191.874 34.4853L169.869 26.9185Z" fill="#9F616A"/>
<path d="M184.015 44.2595C193.39 44.2595 200.99 36.6368 200.99 27.2337C200.99 17.8306 193.39 10.2079 184.015 10.2079C174.64 10.2079 167.04 17.8306 167.04 27.2337C167.04 36.6368 174.64 44.2595 184.015 44.2595Z" fill="#9F616A"/>
<path d="M147.236 156.235C147.314 161.729 171.166 222.863 167.854 230.823C162.634 236.175 151.404 264.664 146.607 272.264C145.979 272.263 142.835 281.722 142.835 281.722C142.835 281.722 150.379 293.703 158.553 288.658C168.83 264.415 194.567 250.894 195.022 219.296C196.264 229.278 199.932 293.348 199.932 293.348C199.932 293.348 199.228 293.648 215.062 295.169C217.521 257.983 227.567 194.719 205.076 154.974C198.161 151.821 147.236 156.235 147.236 156.235Z" fill="#2F2E41"/>
<path d="M199.931 292.101C199.196 293.519 193.924 306.605 198.721 307.917C204.253 309.43 209.615 307.31 209.615 307.31C209.615 307.31 219.299 310.345 225.226 306.488C227.991 303.713 227.363 301.191 226.043 299.363C225.372 298.462 224.513 297.719 223.527 297.186C222.54 296.652 221.449 296.341 220.33 296.275C217.323 296.06 216.368 295.501 216.023 294.119C215.52 292.101 199.931 292.101 199.931 292.101Z" fill="#2F2E41"/>
<path d="M148.2 280.673C148.2 280.673 134.687 284.953 137.532 289.947C139.379 293.041 142.077 295.536 145.302 297.133C145.302 297.133 148.12 308.786 155.943 308.786C159.855 308.786 161.188 306.557 161.544 304.328C161.705 303.215 161.621 302.081 161.3 301.004C160.978 299.927 160.426 298.933 159.682 298.092C157.707 295.807 157.426 294.735 158.156 293.513C159.223 291.73 148.2 280.673 148.2 280.673Z" fill="#2F2E41"/>
<path d="M208.223 158.082C208.223 158.082 205.706 163.126 195.647 161.232C185.588 159.344 145.981 161.232 145.981 161.232C145.981 161.232 148.178 116.147 143.149 89.0308C138.119 61.9144 157.922 46.4652 157.922 46.4652L164.211 40.1581C170.499 39.5329 183.778 59.1038 183.778 59.1038C188.148 59.8383 192.227 78.4683 195.707 96.0968C195.913 97.1044 196.107 98.1 196.3 99.0955C197.904 107.315 200.137 116.463 201.475 124.676C201.572 125.259 201.663 125.836 201.747 126.412C203.337 137.078 205.499 147.649 208.223 158.082Z" fill="#E6E6E6"/>
<path d="M164.157 16.6324C164.157 16.6324 160.983 9.6293 169.235 6.44605C169.235 6.44605 176.217 -5.01363 190.181 2.62617C190.181 2.62617 199.703 6.44605 199.703 16.6324C199.703 26.8188 202.877 28.7287 202.877 28.7287C202.877 28.7287 198.15 23.8655 196.881 20.0457C195.611 16.2258 185.738 15.3592 181.93 19.179C178.121 22.9989 168.6 22.3623 168.6 22.3623L169.235 36.3685C169.235 36.3685 166.061 28.0921 164.791 28.0921C163.522 28.0921 162.252 16.6324 164.157 16.6324Z" fill="#2F2E41"/>
<path opacity="0.2" d="M201.475 124.676C186.477 116.499 162.183 98.5674 154.345 88.8669C144.014 76.0888 155.283 66.3761 155.283 66.3761C168.06 58.2904 183.336 86.0321 183.336 86.0321L195.707 96.0968C195.913 97.1045 196.106 98.1 196.3 99.0955C197.904 107.315 200.137 116.463 201.475 124.676Z" fill="black"/>
<path d="M246.246 115.253C246.246 115.253 268.542 124.332 272.212 114.126C275.882 103.921 254.609 104.096 254.609 104.096L246.257 105.283L246.246 115.253Z" fill="#9F616A"/>
<path d="M152.426 62.2232C152.426 62.2232 141.162 71.9415 151.486 84.7154C161.81 97.4894 209.256 124.783 209.256 124.783L240.161 116.403L248.907 118.008L250.556 101.539L237.671 102.8L204.964 95.8153L184.108 78.8418C184.108 78.8418 165.199 54.1418 152.426 62.2232Z" fill="#E6E6E6"/>
<path opacity="0.2" d="M193.46 179.296L195.431 225.48L190.434 179.296H193.46Z" fill="black"/>
<path d="M406.221 146.259L388.331 150.417C386.947 150.738 385.493 150.506 384.277 149.769C383.061 149.032 382.18 147.849 381.82 146.471C381.611 145.672 381.585 144.835 381.745 144.025C381.904 143.214 382.245 142.45 382.74 141.79C383.236 141.13 383.874 140.591 384.607 140.214C385.34 139.837 386.149 139.631 386.972 139.612L404.252 139.209L406.221 146.259Z" fill="#FFB9B9"/>
<path d="M404.321 148.892L400.348 136.937L424.167 128.777L417.845 72.9382C429.228 75.0139 434.645 83.991 434.137 95.5831L437.219 133.686L404.321 148.892Z" fill="#3F3D56"/>
<path d="M420.779 60.6272H459.694V41.2169C459.708 35.9746 457.66 30.9384 453.995 27.2012C452.204 25.3601 450.064 23.8976 447.701 22.9002C445.338 21.9028 442.799 21.3909 440.235 21.3946C435.115 21.404 430.204 23.4344 426.564 27.0467C422.924 30.6591 420.848 35.563 420.785 40.6984C420.782 40.8762 420.779 41.045 420.779 41.2169L420.779 60.6272Z" fill="#2F2E41"/>
<path d="M475.965 288.726L463.526 287.294L448.639 186.457L417.846 287.703L404.386 288.112L419.681 163.549L417.438 135.118L455.572 123.05C482.582 141.961 482.023 208.757 475.965 288.726Z" fill="#2F2E41"/>
<path d="M436.811 56.7797C444.92 56.7797 451.494 50.1863 451.494 42.0529C451.494 33.9196 444.92 27.3262 436.811 27.3262C428.702 27.3262 422.128 33.9196 422.128 42.0529C422.128 50.1863 428.702 56.7797 436.811 56.7797Z" fill="#FFB9B9"/>
<path d="M451.494 68.6429L426.614 75.1881C430.806 67.1029 432.147 59.5553 429.877 52.6889L447.415 49.8253C446.288 56.3911 447.75 63.1391 451.494 68.6429Z" fill="#FFB9B9"/>
<path d="M459.855 128.573C445.901 137.473 429.646 147.699 417.642 137.777L411.932 109.96C407.393 105.905 409.406 93.3946 415.541 75.5621C415.931 74.4302 416.572 73.4021 417.417 72.5558C418.262 71.7095 419.287 71.0672 420.416 70.6776L429.877 67.4157C434.07 70.9523 440.944 68.8429 449.047 64.143L458.427 66.5975L462.506 97.2782C456.619 106.126 457.647 117.906 459.855 128.573Z" fill="#3F3D56"/>
<path d="M448.23 140.532L430.341 144.69C428.957 145.011 427.503 144.779 426.287 144.042C425.071 143.305 424.189 142.122 423.829 140.744C423.621 139.945 423.595 139.108 423.755 138.298C423.914 137.487 424.254 136.723 424.75 136.063C425.246 135.403 425.884 134.864 426.617 134.487C427.35 134.11 428.158 133.904 428.982 133.885L446.262 133.482L448.23 140.532Z" fill="#FFB9B9"/>
<path d="M473.803 308.005C471.714 308.961 469.964 303.034 468.201 304.771C463.272 309.63 451.447 308.54 451.447 308.54C451.05 308.412 450.683 308.205 450.368 307.93C450.053 307.656 449.797 307.32 449.616 306.944C449.434 306.567 449.33 306.158 449.311 305.74C449.292 305.322 449.358 304.904 449.504 304.513C449.68 304.044 449.966 303.625 450.338 303.292C450.71 302.959 451.158 302.721 451.642 302.6L456.885 301.285L465.116 286.766L474.087 285.627L474.314 285.999C476.048 288.802 477.166 291.944 477.593 295.216C478.021 298.487 477.748 301.812 476.792 304.969C476.046 307.366 475.031 307.443 473.803 308.005Z" fill="#2F2E41"/>
<path d="M414.663 308.005C412.574 308.961 410.824 303.034 409.062 304.771C404.132 309.63 392.307 308.54 392.307 308.54C391.91 308.412 391.543 308.205 391.228 307.93C390.913 307.656 390.657 307.32 390.476 306.944C390.294 306.567 390.191 306.158 390.172 305.74C390.153 305.322 390.218 304.904 390.365 304.513C390.54 304.044 390.826 303.625 391.198 303.292C391.571 302.959 392.018 302.721 392.503 302.6L397.745 301.285L405.976 286.766L414.947 285.627L415.174 285.999C416.908 288.802 418.026 291.944 418.454 295.216C418.881 298.487 418.608 301.812 417.653 304.969C416.907 307.366 415.891 307.443 414.663 308.005Z" fill="#2F2E41"/>
<path d="M454.024 29.7696L450.326 41.5702L418.354 41.0002C418.463 36.8715 419.856 32.8801 422.337 29.5836C424.817 26.2871 428.263 23.8501 432.192 22.6132C436.121 21.3762 440.337 21.4009 444.251 22.6839C448.165 23.9669 451.582 26.4442 454.024 29.7696H454.024Z" fill="#2F2E41"/>
<path d="M446.331 143.165L442.358 131.21L466.177 123.05L457.167 66.0011C462.671 67.0048 467.626 69.9743 471.115 74.3599C474.605 78.7455 476.392 84.2505 476.147 89.856L479.228 127.959L446.331 143.165Z" fill="#3F3D56"/>
<path d="M389.44 110.935L364.666 116.279L359.604 91.8317L368.928 79.2738L377.319 77.6707L386.642 87.1556L389.44 110.935Z" fill="#CCCCCC"/>
<path d="M377.985 112.001H363.066L361.032 101.93L358.805 90.8944L362.134 86.0866L368.531 88.0899L375.455 97.7114L377.192 107.515L377.313 108.213L377.985 112.001Z" fill="#E6E6E6"/>
<path d="M403.025 106.126L385.843 108.129L388.907 86.2208L395.833 79.9416L401.826 81.4112L405.823 90.6291L403.025 106.126Z" fill="#CCCCCC"/>
<path d="M405.287 93.1647L403.69 101.985L398.497 132.04L378.518 138.456L377.828 138.08L367.061 132.173L361.002 101.918L361.033 101.93L377.053 108.395L377.192 107.515L377.289 106.878L378.518 99.0469L383.977 93.1647L402.225 88.7576L405.287 93.1647Z" fill="#E6E6E6"/>
<path d="M392.636 92.2322C394.99 92.2322 396.898 90.3182 396.898 87.9573C396.898 85.5963 394.99 83.6823 392.636 83.6823C390.282 83.6823 388.374 85.5963 388.374 87.9573C388.374 90.3182 390.282 92.2322 392.636 92.2322Z" fill="#E6E6E6"/>
<path d="M382.157 90.1636L372.434 91.9002L372.481 92.1632L382.204 90.4266L382.157 90.1636Z" fill="white"/>
<path d="M377.828 138.08L367.061 132.173L361.002 101.918L361.032 101.93L358.805 90.8944L362.134 86.0866L368.531 88.0899L375.455 97.7114L377.192 107.515L377.289 106.878L377.313 108.213L377.38 112.001L377.828 138.08Z" fill="#F2F2F2"/>
<path d="M367.192 132.211L366.934 132.141L372.245 112.166L366.164 104.125L366.376 103.963L372.536 112.109L367.192 132.211Z" fill="#CCCCCC"/>
<path d="M370.191 120.807L369.951 120.923L378.398 138.513L378.638 138.397L370.191 120.807Z" fill="#CCCCCC"/>
<path opacity="0.2" d="M404.239 100.154L403.239 105.697L403.188 105.702L398.71 131.614L378.731 138.026L378.611 138.084L378.531 137.917L367.276 131.747L367.147 131.713L367.216 131.451L361.216 101.489L361.247 101.501L360.582 98.212L361.079 97.4946L362.615 95.277L369.008 97.2809L375.934 106.899L376.035 107.471L376.762 111.575L377.054 113.224L377.671 116.706L378.257 112.965L378.467 111.618L378.997 108.235L384.458 102.357L386.887 101.771L388.577 101.362L390.902 100.801C390.181 100.361 389.606 99.7168 389.251 98.9491C388.895 98.1813 388.775 97.3249 388.905 96.4885C389.035 95.6521 389.41 94.8732 389.982 94.2507C390.554 93.6282 391.297 93.19 392.118 92.9917C392.938 92.7934 393.799 92.844 394.591 93.1369C395.383 93.4298 396.07 93.952 396.566 94.6372C397.061 95.3223 397.343 96.1397 397.375 96.9857C397.407 97.8316 397.188 98.668 396.746 99.3889L402.706 97.9488L404.175 100.064L404.239 100.154Z" fill="black"/>
<path d="M378.464 122.53H363.547L359.285 101.422L362.615 96.6127L369.008 98.6165L375.934 108.235L378.464 122.53Z" fill="#E6E6E6"/>
<path d="M398.976 142.569L378.997 148.981L367.542 142.702L361.482 112.444L377.532 118.923L378.997 109.571L384.458 103.693L402.705 99.2849L405.769 103.693L404.171 112.51L398.976 142.569Z" fill="#E6E6E6"/>
<path d="M393.116 102.758C395.47 102.758 397.378 100.844 397.378 98.4832C397.378 96.1222 395.47 94.2083 393.116 94.2083C390.762 94.2083 388.854 96.1222 388.854 98.4832C388.854 100.844 390.762 102.758 393.116 102.758Z" fill="#E6E6E6"/>
<path d="M378.318 148.399L367.551 142.493L361.492 112.238L361.523 112.25L359.295 101.214L362.624 96.4063L369.021 98.4095L375.945 108.031L377.682 117.835L377.779 117.197L377.803 118.533L377.87 122.321L378.318 148.399Z" fill="#F2F2F2"/>
<path d="M367.671 142.736L367.414 142.668L372.725 122.692L366.643 114.65L366.856 114.489L373.016 122.635L367.671 142.736Z" fill="#CCCCCC"/>
<path d="M370.67 131.333L370.43 131.449L378.878 149.039L379.117 148.923L370.67 131.333Z" fill="#CCCCCC"/>
<path d="M545.589 282.33L520.815 287.674L515.754 263.227L525.078 250.669L533.468 249.066L542.792 258.551L545.589 282.33Z" fill="#CCCCCC"/>
<path d="M534.135 283.396H519.216L517.182 273.325L514.955 262.289L518.284 257.482L524.681 259.485L531.605 269.106L533.342 278.91L533.463 279.608L534.135 283.396Z" fill="#E6E6E6"/>
<path d="M559.175 277.521L541.993 279.525L545.057 257.616L551.983 251.337L557.976 252.806L561.973 262.024L559.175 277.521Z" fill="#CCCCCC"/>
<path d="M561.437 264.56L559.839 273.38L554.647 303.434L534.668 309.851L533.978 309.475L523.211 303.568L517.152 273.313L517.183 273.325L533.203 279.79L533.342 278.91L533.439 278.273L534.668 270.442L540.127 264.56L558.375 260.153L561.437 264.56Z" fill="#E6E6E6"/>
<path d="M548.786 263.627C551.14 263.627 553.048 261.713 553.048 259.352C553.048 256.992 551.14 255.078 548.786 255.078C546.432 255.078 544.524 256.992 544.524 259.352C544.524 261.713 546.432 263.627 548.786 263.627Z" fill="#E6E6E6"/>
<path d="M538.307 261.559L528.584 263.295L528.631 263.558L538.354 261.822L538.307 261.559Z" fill="white"/>
<path d="M533.978 309.475L523.21 303.568L517.152 273.313L517.182 273.325L514.955 262.289L518.284 257.482L524.681 259.485L531.605 269.106L533.342 278.91L533.439 278.273L533.463 279.608L533.53 283.396L533.978 309.475Z" fill="#F2F2F2"/>
<path d="M523.342 303.606L523.084 303.537L528.395 283.561L522.313 275.52L522.526 275.358L528.686 283.504L523.342 303.606Z" fill="#CCCCCC"/>
<path d="M526.34 292.202L526.1 292.318L534.547 309.908L534.787 309.792L526.34 292.202Z" fill="#CCCCCC"/>
<path d="M594.543 307.52H578.202L575.781 275.954H596.964L594.543 307.52Z" fill="#E6E6E6"/>
<path d="M597.267 288.702H575.479V293.558H597.267V288.702Z" fill="#F2F2F2"/>
<path d="M602.865 278.22L599.381 277.191L599.337 275.912L583.855 271.338L583.126 272.388L579.642 271.359L577.455 274.51L603 282.057L602.865 278.22Z" fill="#CCCCCC"/>
<path d="M90.3771 267.679L90.3614 267.785L90.3184 268.091L85.8839 300.008L58.7307 310L58.3052 309.796L43.103 302.555L35.2423 272.303L34.7036 270.226L34.8676 270.164L68.498 257.491L90.3571 267.668L90.3771 267.679Z" fill="url(#paint4_linear)"/>
<path d="M58.3052 309.796L43.103 302.555L34.7036 270.226L34.8676 270.164L56.7776 279.435L58.3052 309.796Z" fill="url(#paint5_linear)"/>
<path opacity="0.2" d="M58.6861 309.427L47.1226 287.2L48.6078 280.9L41.6131 272.638L41.0176 273.146L47.7562 281.105L42.7225 302.464L43.4833 302.645L46.8478 288.367L57.9931 309.79L58.6861 309.427Z" fill="black"/>
<path d="M90.3771 268.071L90.3184 268.091L56.7776 279.827L35.2423 272.303L34.7036 270.226L34.8676 270.164L68.498 257.491L90.3571 267.668L90.3614 267.785L90.3771 268.071Z" fill="#3F3D56"/>
<path d="M57.3632 280.415L50.5259 275.125L52.0886 269.247L71.6231 262.193L84.9067 262.977L90.1813 267.483L90.5717 268.659L57.3632 280.415Z" fill="url(#paint6_linear)"/>
<path d="M35.0938 270.226L50.526 269.639L58.886 266.792L71.9203 262.194L74.3582 258.667L68.2756 257.575L35.0938 270.226Z" fill="url(#paint7_linear)"/>
<path d="M65.8401 263.921L57.7935 266.753L58.0521 267.493L66.0987 264.66L65.8401 263.921Z" fill="#CCCCCC"/>
<path d="M21.7886 308.246H5.4473L3.02637 276.68H24.2095L21.7886 308.246Z" fill="url(#paint8_linear)"/>
<path d="M24.512 289.428H2.72363V294.284H24.512V289.428Z" fill="#E6E6E6"/>
<path d="M25.4198 274.859H21.7884L21.3847 273.645H5.24555L4.84186 274.859H1.21046L0 278.501H26.6302L25.4198 274.859Z" fill="#3F3D56"/>
<path d="M489.232 307.874H122.404V309.088H489.232V307.874Z" fill="#3F3D56"/>
</g>
<defs>
<linearGradient id="paint0_linear" x1="272.556" y1="66.3154" x2="272.556" y2="118.824" gradientUnits="userSpaceOnUse">
<stop stop-color="#E31266"/>
<stop offset="0.51875" stop-color="#F8493C"/>
<stop offset="1" stop-color="#F4943E"/>
</linearGradient>
<linearGradient id="paint1_linear" x1="256.52" y1="78.9879" x2="256.52" y2="118.62" gradientUnits="userSpaceOnUse">
<stop stop-color="#E31266"/>
<stop offset="0.51875" stop-color="#F8493C"/>
<stop offset="1" stop-color="#F4943E"/>
</linearGradient>
<linearGradient id="paint2_linear" x1="280.772" y1="70.7403" x2="280.772" y2="88.9618" gradientUnits="userSpaceOnUse">
<stop stop-color="#E31266"/>
<stop offset="0.51875" stop-color="#F8493C"/>
<stop offset="1" stop-color="#F4943E"/>
</linearGradient>
<linearGradient id="paint3_linear" x1="264.95" y1="66.1219" x2="264.95" y2="78.7738" gradientUnits="userSpaceOnUse">
<stop stop-color="#E31266"/>
<stop offset="0.51875" stop-color="#F8493C"/>
<stop offset="1" stop-color="#F4943E"/>
</linearGradient>
<linearGradient id="paint4_linear" x1="62.5404" y1="257.491" x2="62.5404" y2="310" gradientUnits="userSpaceOnUse">
<stop stop-color="#E31266"/>
<stop offset="0.534375" stop-color="#F8493C"/>
<stop offset="1" stop-color="#F4943E"/>
</linearGradient>
<linearGradient id="paint5_linear" x1="46.5044" y1="270.164" x2="46.5044" y2="309.796" gradientUnits="userSpaceOnUse">
<stop stop-color="#E31266"/>
<stop offset="0.534375" stop-color="#F8493C"/>
<stop offset="1" stop-color="#F4943E"/>
</linearGradient>
<linearGradient id="paint6_linear" x1="70.5488" y1="262.193" x2="70.5488" y2="280.415" gradientUnits="userSpaceOnUse">
<stop stop-color="#E31266"/>
<stop offset="0.534375" stop-color="#F8493C"/>
<stop offset="1" stop-color="#F4943E"/>
</linearGradient>
<linearGradient id="paint7_linear" x1="54.726" y1="257.575" x2="54.726" y2="270.226" gradientUnits="userSpaceOnUse">
<stop stop-color="#E31266"/>
<stop offset="0.534375" stop-color="#F8493C"/>
<stop offset="1" stop-color="#F4943E"/>
</linearGradient>
<linearGradient id="paint8_linear" x1="13.6179" y1="276.68" x2="13.6179" y2="308.246" gradientUnits="userSpaceOnUse">
<stop stop-color="#E31266"/>
<stop offset="0.534375" stop-color="#F8493C"/>
<stop offset="1" stop-color="#F4943E"/>
</linearGradient>
<clipPath id="clip0">
<rect width="603" height="310" fill="white"/>
</clipPath>
</defs>
</svg>
