<svg width="41" height="37" viewBox="0 0 41 37" fill="none" xmlns="http://www.w3.org/2000/svg">
<path d="M0.724181 17.7681L10.1714 21.2941L13.8281 33.0539C14.062 33.807 14.983 34.0854 15.5943 33.5856L20.8604 29.2927C21.4124 28.8429 22.1986 28.8205 22.7755 29.2392L32.2735 36.135C32.9275 36.6103 33.854 36.252 34.018 35.4618L40.9758 1.99336C41.1548 1.13017 40.3067 0.410077 39.4848 0.727964L0.713111 15.6849C-0.243692 16.0539 -0.235356 17.4085 0.724181 17.7681ZM13.2387 19.4171L31.7021 8.04551C32.034 7.84174 32.3754 8.29041 32.0904 8.55473L16.8528 22.7189C16.3172 23.2174 15.9717 23.8846 15.8738 24.6088L15.3548 28.4554C15.286 28.969 14.5646 29.02 14.4228 28.523L12.4265 21.5085C12.1979 20.7085 12.5311 19.8539 13.2387 19.4171Z" fill="white"/>
</svg>
