<svg width="41" height="25" viewBox="0 0 41 25" fill="none" xmlns="http://www.w3.org/2000/svg">
<path d="M34.0215 14.256C33.3586 13.4189 33.5483 13.0465 34.0215 12.2983C34.03 12.2897 39.5018 4.72863 40.0655 2.16442L40.069 2.16271C40.3491 1.22825 40.069 0.541504 38.7143 0.541504H34.2316C33.0904 0.541504 32.5643 1.13088 32.2824 1.7903C32.2824 1.7903 30 7.25355 26.7713 10.7949C25.7292 11.8182 25.2475 12.1462 24.6786 12.1462C24.3984 12.1462 23.9628 11.8182 23.9628 10.8838V2.16271C23.9628 1.04205 23.6433 0.541504 22.6986 0.541504H15.65C14.9343 0.541504 14.5089 1.06425 14.5089 1.55113C14.5089 2.61371 16.1233 2.858 16.2907 5.84759V12.3341C16.2907 13.7555 16.0327 14.0168 15.4604 14.0168C13.9366 14.0168 10.238 8.53138 8.04625 2.25325C7.60379 1.03521 7.17158 0.543212 6.02188 0.543212H1.5375C0.257958 0.543212 0 1.13259 0 1.792C0 2.95709 1.52383 8.75005 7.08617 16.4034C10.7933 21.6275 16.0139 24.4582 20.7631 24.4582C23.6177 24.4582 23.9662 23.8295 23.9662 22.7481C23.9662 17.7564 23.7083 17.2849 25.1381 17.2849C25.801 17.2849 26.9421 17.6129 29.6071 20.1327C32.6531 23.1206 33.1536 24.4582 34.8585 24.4582H39.3412C40.619 24.4582 41.2665 23.8295 40.8941 22.5893C40.0416 19.9806 34.2811 14.6148 34.0215 14.256Z" fill="white"/>
</svg>
