<svg width="53" height="63" viewBox="0 0 53 63" fill="none" xmlns="http://www.w3.org/2000/svg">
<path d="M39.9484 20.8155L42.8699 15.2549C44.5656 12.0273 44.4497 8.14804 42.5642 5.02757C40.6787 1.90698 37.2986 0 33.6527 0H19.3472C15.7014 0 12.321 1.90698 10.4356 5.02745C8.55013 8.14792 8.43422 12.0272 10.1299 15.2547L13.0514 20.8153C5.63773 25.3574 0.680664 33.5341 0.680664 42.8474C0.680664 49.155 2.98078 55.2284 7.15736 59.9483C8.87337 61.8875 11.3435 62.9999 13.9345 62.9999H39.0656C41.6566 62.9999 44.1267 61.8877 45.8427 59.9483C50.0193 55.2282 52.3194 49.1549 52.3194 42.8474C52.3193 33.5342 47.3621 25.3575 39.9484 20.8155ZM34.6112 12.1051L31.7432 17.5638C30.0496 17.213 28.2958 17.0281 26.4998 17.0281C24.7038 17.0281 22.9501 17.2129 21.2564 17.5638L18.3885 12.1051C18.0185 11.4008 18.0437 10.5541 18.4552 9.87304C18.8666 9.19209 19.6043 8.77583 20.4 8.77583H32.5999C33.3956 8.77583 34.1333 9.19197 34.5448 9.87304C34.9561 10.5541 34.9815 11.4007 34.6112 12.1051Z" fill="white"/>
</svg>
